<svg width="150" height="150" viewBox="0 0 150 150" fill="none" xmlns="http://www.w3.org/2000/svg">
<path d="M74.5 66.2968C70.3466 66.2968 66.2865 67.5205 62.8331 69.8131C59.3796 72.1057 56.688 75.3643 55.0986 79.1768C53.5091 82.9893 53.0933 87.1845 53.9035 91.2318C54.7138 95.2791 56.7139 98.9968 59.6508 101.915C62.5877 104.833 66.3295 106.82 70.4031 107.625C74.4767 108.43 78.6991 108.017 82.5364 106.438C86.3736 104.858 89.6534 102.184 91.9609 98.753C94.2684 95.3219 95.5 91.2879 95.5 87.1613C95.5 81.6277 93.2875 76.3207 89.3493 72.4079C85.411 68.495 80.0696 66.2968 74.5 66.2968ZM74.5 105.045C70.94 105.045 67.4598 103.996 64.4998 102.031C61.5397 100.066 59.2326 97.273 57.8702 94.0052C56.5078 90.7373 56.1514 87.1415 56.8459 83.6724C57.5404 80.2032 59.2548 77.0166 61.7721 74.5155C64.2895 72.0144 67.4967 70.3112 70.9884 69.6211C74.4801 68.931 78.0993 69.2852 81.3883 70.6388C84.6774 71.9924 87.4886 74.2846 89.4665 77.2256C91.4443 80.1666 92.5 83.6242 92.5 87.1613C92.5 91.9044 90.6036 96.4533 87.2279 99.8071C83.8523 103.161 79.2739 105.045 74.5 105.045ZM86.125 61.3192C85.2708 60.9389 84.3942 60.6104 83.5 60.3355C82.4219 59.9628 81.3193 59.664 80.2 59.4413C78.9726 59.1942 77.7298 59.0298 76.48 58.9495C75.82 58.8452 75.16 58.8452 74.5 58.8452C71.4381 58.8488 68.3976 59.3522 65.5 60.3355C64.6052 60.6202 63.7285 60.9586 62.875 61.349C56.9162 63.9939 52.0515 68.5907 49.0941 74.3711C46.1366 80.1516 45.2656 86.7654 46.6266 93.1072C47.9876 99.449 51.4981 105.135 56.5714 109.214C61.6448 113.293 67.9735 115.519 74.5 115.519C81.0265 115.519 87.3553 113.293 92.4286 109.214C97.502 105.135 101.012 99.449 102.373 93.1072C103.734 86.7654 102.863 80.1516 99.906 74.3711C96.9486 68.5907 92.0839 63.9939 86.125 61.349V61.3192ZM74.5 112.497C69.4566 112.497 64.5264 111.011 60.333 108.227C56.1395 105.443 52.8711 101.486 50.9411 96.8568C49.0111 92.2273 48.5061 87.1332 49.49 82.2186C50.4739 77.304 52.9026 72.7897 56.4688 69.2464C60.035 65.7032 64.5787 63.2902 69.5252 62.3127C74.4717 61.3351 79.5989 61.8368 84.2584 63.7544C88.918 65.672 92.9005 68.9193 95.7025 73.0857C98.5045 77.2521 100 82.1504 100 87.1613C100 93.8807 97.3134 100.325 92.5312 105.076C87.7491 109.828 81.263 112.497 74.5 112.497ZM49.195 37.2207C49.0634 36.9941 48.9941 36.7371 48.9941 36.4755C48.9941 36.2139 49.0634 35.9569 49.195 35.7303C49.3291 35.5057 49.5202 35.32 49.7492 35.1918C49.9783 35.0636 50.2372 34.9975 50.5 35.0001H65.5C65.7658 35.0005 66.0267 35.0711 66.256 35.2047C66.4853 35.3382 66.6748 35.5299 66.805 35.7601L74.5 49.3519L82.195 35.7601C82.3253 35.5299 82.5147 35.3382 82.744 35.2047C82.9733 35.0711 83.2342 35.0005 83.5 35.0001H98.5C98.7618 35.0016 99.0186 35.0712 99.2449 35.202C99.4712 35.3327 99.6591 35.52 99.79 35.7452C99.9217 35.9718 99.991 36.2288 99.991 36.4904C99.991 36.752 99.9217 37.009 99.79 37.2356L87.625 58.726C86.7148 58.2947 85.7779 57.9214 84.82 57.6082L95.935 37.9807H84.37L76.225 52.3921L78.325 56.103C77.1406 55.9553 75.9486 55.8757 74.755 55.8646L73.255 53.1969L73.18 53.0479L64.63 37.9807H53.065L64.18 57.6082C63.2221 57.9214 62.2852 58.2947 61.375 58.726L49.195 37.2207Z" fill="#006EB7"/>
<path opacity="0.2" d="M97.3704 35.876H83.6175L75.5555 50.206V53.7885L78.401 56.3474L86.463 58.3945L97.3704 35.876Z" fill="#006EB7"/>
<path d="M64.4091 93.3382H73.2679V91.1034H66.9671C67.0799 88.4056 73.0611 87.6204 73.0611 83.03C73.0611 80.3321 71.0485 78.802 68.7163 78.802C66.5721 78.802 65.0674 80.1308 64.2963 81.6609L66.1019 82.9495C66.5909 82.0233 67.4937 81.2583 68.5094 81.2583C69.6379 81.2583 70.5407 82.0032 70.5407 83.2514C70.5407 86.0902 64.2963 86.9157 64.2963 92.0698C64.2963 92.4725 64.3339 92.8751 64.4091 93.3382Z" fill="#006EB7"/>
<path d="M75.2242 89.2109C75.2242 91.6269 77.105 93.5798 79.9827 93.5798C82.9733 93.5798 84.7037 91.5262 84.7037 89.3317C84.7037 87.862 83.9702 86.9761 82.9921 86.3117C83.3683 85.8688 84.478 84.399 84.478 82.7481C84.478 80.2919 82.6348 78.802 80.152 78.802C77.2179 78.802 75.8637 80.7147 75.8637 82.728C75.8637 83.9762 76.4467 84.842 77.2555 85.5064C76.7289 85.909 75.2242 87.2177 75.2242 89.2109ZM81.1865 85.3453C79.7194 84.6608 78.2524 84.1172 78.2524 82.7683C78.2524 81.8421 78.8919 81.1173 80.0956 81.1173C81.2993 81.1173 82.1081 81.822 82.1081 82.9495C82.1081 84.1172 81.431 85.0232 81.1865 85.3453ZM77.7069 89.0096C77.7069 87.7613 78.5909 86.9358 78.9671 86.5936C80.547 87.3989 82.2398 87.9224 82.2398 89.231C82.2398 90.4793 81.2241 91.2846 79.9827 91.2846C78.779 91.2846 77.7069 90.3383 77.7069 89.0096Z" fill="#006EB7"/>
</svg>
