<svg width="80" height="80" viewBox="0 0 80 80" fill="none" xmlns="http://www.w3.org/2000/svg">
<rect x="46" y="36" width="22" height="29" fill="#C5E8FF"/>
<path d="M65.375 33.5833H60.5417V14.25C60.5417 12.3272 59.7778 10.4831 58.4182 9.12348C57.0586 7.76384 55.2145 7 53.2917 7H23.0833C21.8015 7 20.5721 7.50922 19.6657 8.41565C18.7592 9.32208 18.25 10.5515 18.25 11.8333V49.2917C18.25 49.9326 17.9954 50.5473 17.5422 51.0005C17.089 51.4537 16.4743 51.7083 15.8333 51.7083C15.1924 51.7083 14.5777 51.4537 14.1245 51.0005C13.6713 50.5473 13.4167 49.9326 13.4167 49.2917V27.5417C13.4167 27.2212 13.2894 26.9139 13.0628 26.6872C12.8361 26.4606 12.5288 26.3333 12.2083 26.3333C11.8879 26.3333 11.5805 26.4606 11.3539 26.6872C11.1273 26.9139 11 27.2212 11 27.5417V49.2917C11 50.5735 11.5092 51.8029 12.4157 52.7094C13.3221 53.6158 14.5515 54.125 15.8333 54.125H25.5V62.5833C25.5 63.2243 25.7546 63.839 26.2078 64.2922C26.661 64.7454 27.2757 65 27.9167 65H65.375C66.3364 65 67.2584 64.6181 67.9383 63.9383C68.6181 63.2584 69 62.3364 69 61.375V37.2083C69 36.2469 68.6181 35.3249 67.9383 34.6451C67.2584 33.9653 66.3364 33.5833 65.375 33.5833ZM25.5 51.7083H19.99C20.4293 50.9785 20.6631 50.1435 20.6667 49.2917V11.8333C20.6667 11.1924 20.9213 10.5777 21.3745 10.1245C21.8277 9.67128 22.4424 9.41667 23.0833 9.41667C23.7243 9.41667 24.339 9.67128 24.7922 10.1245C25.2454 10.5777 25.5 11.1924 25.5 11.8333V51.7083ZM45.0508 62.5833H27.9167V11.8333C27.9131 11.5415 27.8848 11.2504 27.8321 10.9633C27.8379 10.895 27.8379 10.8263 27.8321 10.7579C27.7755 10.4854 27.6946 10.2185 27.5904 9.96042C27.4963 9.77077 27.3872 9.58894 27.2642 9.41667H53.2917C54.5735 9.41667 55.8029 9.92589 56.7094 10.8323C57.6158 11.7387 58.125 12.9681 58.125 14.25V33.5833H48.4583C47.4969 33.5833 46.5749 33.9653 45.8951 34.6451C45.2153 35.3249 44.8333 36.2469 44.8333 37.2083V61.375C44.8366 61.7872 44.9102 62.1959 45.0508 62.5833ZM66.5833 61.375C66.5833 61.6955 66.456 62.0028 66.2294 62.2294C66.0028 62.456 65.6955 62.5833 65.375 62.5833H48.4583C48.1379 62.5833 47.8305 62.456 47.6039 62.2294C47.3773 62.0028 47.25 61.6955 47.25 61.375V37.2083C47.25 36.8879 47.3773 36.5805 47.6039 36.3539C47.8305 36.1273 48.1379 36 48.4583 36H65.375C65.6955 36 66.0028 36.1273 66.2294 36.3539C66.456 36.5805 66.5833 36.8879 66.5833 37.2083V61.375Z" fill="#006EB7"/>
<path d="M62.9584 40.8334H52.0834V39.6251C52.0834 39.3046 51.9561 38.9973 51.7295 38.7707C51.5029 38.5441 51.1956 38.4167 50.8751 38.4167C50.5546 38.4167 50.2473 38.5441 50.0207 38.7707C49.7941 38.9973 49.6667 39.3046 49.6667 39.6251V42.0417C49.6667 42.3622 49.7941 42.6696 50.0207 42.8962C50.2473 43.1228 50.5546 43.2501 50.8751 43.2501H62.9584C63.2789 43.2501 63.5862 43.1228 63.8128 42.8962C64.0394 42.6696 64.1667 42.3622 64.1667 42.0417C64.1667 41.7213 64.0394 41.4139 63.8128 41.1873C63.5862 40.9607 63.2789 40.8334 62.9584 40.8334Z" fill="#006EB7"/>
<path d="M62.9584 49.2917H61.7501V48.0833C61.7501 47.7629 61.6228 47.4555 61.3962 47.2289C61.1696 47.0023 60.8622 46.875 60.5417 46.875C60.2213 46.875 59.9139 47.0023 59.6873 47.2289C59.4607 47.4555 59.3334 47.7629 59.3334 48.0833V49.2917H58.1251C57.8046 49.2917 57.4973 49.419 57.2707 49.6456C57.0441 49.8722 56.9167 50.1795 56.9167 50.5C56.9167 50.8205 57.0441 51.1278 57.2707 51.3544C57.4973 51.581 57.8046 51.7083 58.1251 51.7083H59.3334V52.9167C59.3334 53.2371 59.4607 53.5445 59.6873 53.7711C59.9139 53.9977 60.2213 54.125 60.5417 54.125C60.8622 54.125 61.1696 53.9977 61.3962 53.7711C61.6228 53.5445 61.7501 53.2371 61.7501 52.9167V51.7083H62.9584C63.2789 51.7083 63.5862 51.581 63.8128 51.3544C64.0394 51.1278 64.1667 50.8205 64.1667 50.5C64.1667 50.1795 64.0394 49.8722 63.8128 49.6456C63.5862 49.419 63.2789 49.2917 62.9584 49.2917Z" fill="#006EB7"/>
<path d="M50.8751 51.7084H53.2917C53.6122 51.7084 53.9196 51.5811 54.1462 51.3545C54.3728 51.1279 54.5001 50.8206 54.5001 50.5001C54.5001 50.1796 54.3728 49.8723 54.1462 49.6457C53.9196 49.4191 53.6122 49.2917 53.2917 49.2917H50.8751C50.5546 49.2917 50.2473 49.4191 50.0207 49.6457C49.7941 49.8723 49.6667 50.1796 49.6667 50.5001C49.6667 50.8206 49.7941 51.1279 50.0207 51.3545C50.2473 51.5811 50.5546 51.7084 50.8751 51.7084Z" fill="#006EB7"/>
<path d="M62.9583 56.5417H60.5416C60.2211 56.5417 59.9138 56.6691 59.6872 56.8957C59.4606 57.1223 59.3333 57.4296 59.3333 57.7501C59.3333 58.0706 59.4606 58.3779 59.6872 58.6045C59.9138 58.8311 60.2211 58.9584 60.5416 58.9584H62.9583C63.2787 58.9584 63.5861 58.8311 63.8127 58.6045C64.0393 58.3779 64.1666 58.0706 64.1666 57.7501C64.1666 57.4296 64.0393 57.1223 63.8127 56.8957C63.5861 56.6691 63.2787 56.5417 62.9583 56.5417Z" fill="#006EB7"/>
<path d="M55.7084 56.5417H50.8751C50.5546 56.5417 50.2473 56.6691 50.0207 56.8957C49.7941 57.1223 49.6667 57.4296 49.6667 57.7501C49.6667 58.0706 49.7941 58.3779 50.0207 58.6045C50.2473 58.8311 50.5546 58.9584 50.8751 58.9584H55.7084C56.0289 58.9584 56.3362 58.8311 56.5628 58.6045C56.7894 58.3779 56.9167 58.0706 56.9167 57.7501C56.9167 57.4296 56.7894 57.1223 56.5628 56.8957C56.3362 56.6691 56.0289 56.5417 55.7084 56.5417Z" fill="#006EB7"/>
<path d="M50.5245 15.8088C50.4122 15.6956 50.2785 15.6057 50.1313 15.5443C49.984 15.483 49.8261 15.4514 49.6666 15.4514C49.5071 15.4514 49.3491 15.483 49.2019 15.5443C49.0546 15.6057 48.921 15.6956 48.8087 15.8088L36.7253 27.8922C36.6121 28.0045 36.5222 28.1381 36.4608 28.2854C36.3995 28.4326 36.3679 28.5906 36.3679 28.7501C36.3679 28.9096 36.3995 29.0675 36.4608 29.2148C36.5222 29.362 36.6121 29.4957 36.7253 29.608C36.8377 29.7213 36.9713 29.8112 37.1186 29.8725C37.2658 29.9338 37.4237 29.9654 37.5833 29.9654C37.7428 29.9654 37.9007 29.9338 38.048 29.8725C38.1952 29.8112 38.3288 29.7213 38.4412 29.608L50.5245 17.5247C50.6378 17.4123 50.7277 17.2787 50.789 17.1315C50.8503 16.9842 50.8819 16.8263 50.8819 16.6668C50.8819 16.5072 50.8503 16.3493 50.789 16.2021C50.7277 16.0548 50.6378 15.9212 50.5245 15.8088Z" fill="#006EB7"/>
<path d="M48.4583 28.75C49.4593 28.75 50.2708 27.9385 50.2708 26.9375C50.2708 25.9365 49.4593 25.125 48.4583 25.125C47.4572 25.125 46.6458 25.9365 46.6458 26.9375C46.6458 27.9385 47.4572 28.75 48.4583 28.75Z" fill="#006EB7"/>
<path d="M39.3958 20.2917C40.3968 20.2917 41.2083 19.4803 41.2083 18.4792C41.2083 17.4782 40.3968 16.6667 39.3958 16.6667C38.3947 16.6667 37.5833 17.4782 37.5833 18.4792C37.5833 19.4803 38.3947 20.2917 39.3958 20.2917Z" fill="#006EB7"/>
</svg>
