<svg width="150" height="150" viewBox="0 0 150 150" fill="none" xmlns="http://www.w3.org/2000/svg">
<ellipse opacity="0.2" cx="56.2989" cy="55.0157" rx="5.65977" ry="6.36724" fill="#006EB7"/>
<ellipse opacity="0.2" cx="75.7542" cy="41.9275" rx="6.01351" ry="6.72098" fill="#006EB7"/>
<ellipse opacity="0.2" cx="94.5023" cy="54.3084" rx="5.65977" ry="6.36724" fill="#006EB7"/>
<path d="M64.843 73.6607C64.8531 75.6611 65.3437 77.668 66.1545 79.5581C67.0108 81.5546 68.1965 83.417 69.7424 84.9456C71.0688 86.2573 72.8261 87.3216 74.5466 87.5082C76.4692 87.7167 78.1474 87.0239 79.7219 85.8501C81.3368 84.6462 82.6551 82.824 83.6303 81.0152C84.6078 79.2019 85.3354 77.0433 85.5622 75.0948C86.0604 70.8144 84.042 66.6986 80.2658 64.58C77.0558 62.7791 73.0301 62.9138 69.8817 64.7761C66.758 66.6239 64.8647 70.0606 64.843 73.6607C64.835 75.0051 62.7427 75.0058 62.7508 73.6607C62.7789 68.9939 65.4389 64.6407 69.6314 62.5356C73.9296 60.3773 79.169 60.9391 82.9528 63.8716C84.7657 65.2765 86.1008 67.156 86.9366 69.2788C87.7796 71.42 87.8742 73.7337 87.535 75.9857C87.2019 78.1971 86.3801 80.3486 85.3079 82.3048C84.2484 84.2378 82.8347 86.0516 81.0878 87.4127C79.3999 88.728 77.4138 89.6102 75.2437 89.6285C73.0887 89.6467 71.0675 88.7122 69.3998 87.4127C65.9323 84.7108 63.6352 80.2774 62.9529 75.9857C62.8304 75.2161 62.7546 74.4402 62.7507 73.6607C62.744 72.3156 64.8363 72.3163 64.843 73.6607Z" fill="#006EB7"/>
<path d="M64.843 73.6607C64.8531 75.6611 65.3437 77.668 66.1545 79.5581C67.0108 81.5546 68.1965 83.417 69.7424 84.9456C71.0688 86.2573 72.8261 87.3216 74.5466 87.5082C76.4692 87.7167 78.1474 87.0239 79.7219 85.8501C81.3368 84.6462 82.6551 82.824 83.6303 81.0152C84.6078 79.2019 85.3354 77.0433 85.5622 75.0948C86.0604 70.8144 84.042 66.6986 80.2658 64.58C77.0558 62.7791 73.0301 62.9138 69.8817 64.7761C66.758 66.6239 64.8647 70.0606 64.843 73.6607ZM64.843 73.6607C64.835 75.0051 62.7427 75.0058 62.7508 73.6607C62.7789 68.9939 65.4389 64.6407 69.6314 62.5356C73.9296 60.3773 79.169 60.9391 82.9528 63.8716C84.7657 65.2765 86.1008 67.156 86.9366 69.2788C87.7796 71.42 87.8742 73.7337 87.535 75.9857C87.2019 78.1971 86.3801 80.3486 85.3079 82.3048C84.2484 84.2378 82.8347 86.0516 81.0878 87.4127C79.3999 88.728 77.4138 89.6102 75.2437 89.6285C73.0887 89.6467 71.0675 88.7122 69.3998 87.4127C65.9323 84.7108 63.6352 80.2774 62.9529 75.9857C62.8304 75.2161 62.7546 74.4402 62.7507 73.6607C62.744 72.3156 64.8363 72.3163 64.843 73.6607Z" stroke="#006EB7"/>
<path d="M53.3356 104.364C53.3356 107.405 53.3356 110.447 53.3356 113.488C52.9869 113.14 52.6382 112.793 52.2895 112.445C55.3921 112.445 58.4945 112.445 61.5972 112.445C67.9377 112.445 74.2781 112.445 80.6187 112.445C85.7463 112.445 90.874 112.445 96.0016 112.445C96.7276 112.445 97.4536 112.445 98.1796 112.445C97.8309 112.793 97.4822 113.14 97.1335 113.488C97.1335 111.011 97.1335 108.535 97.1335 106.058C97.1335 105.002 97.1865 103.885 97.0361 102.861C96.7276 100.763 95.807 98.8047 94.4002 97.2396C92.8014 95.4608 90.6831 94.3115 88.3349 93.8571C86.8456 93.5689 85.2132 93.6919 83.6804 93.6919C83.9815 93.5198 84.2826 93.3476 84.5836 93.1755C81.8061 96.9544 79.0286 100.733 76.251 104.512C76.2017 104.579 76.1523 104.646 76.103 104.713C75.6154 105.377 74.7833 105.381 74.2964 104.713C71.5368 100.928 68.777 97.1418 66.0173 93.356C65.9734 93.2959 65.9295 93.2356 65.8857 93.1755C66.1868 93.3476 66.4878 93.5198 66.7889 93.6919C65.8269 93.6919 64.8648 93.6872 63.9027 93.6927C62.022 93.7036 60.1817 94.2443 58.5634 95.1931C55.3259 97.0915 53.3573 100.64 53.3356 104.364C53.3277 105.708 51.2355 105.709 51.2434 104.364C51.2706 99.7051 53.8515 95.3655 57.9626 93.1357C59.8569 92.1082 61.9991 91.6065 64.1501 91.6065C64.8482 91.6065 65.5463 91.6065 66.2444 91.6065C66.8561 91.6065 67.3263 91.621 67.7348 92.1814C70.5155 95.9961 73.2963 99.8107 76.077 103.625C76.0857 103.637 76.0943 103.649 76.1029 103.661C75.5008 103.661 74.8985 103.661 74.2963 103.661C77.0739 99.882 79.8514 96.1032 82.629 92.3242C82.9145 91.9358 83.2058 91.6064 83.7502 91.6064C84.4334 91.6064 85.1167 91.6064 85.7999 91.6064C87.8008 91.6064 89.7117 91.8849 91.5594 92.6823C95.8526 94.535 98.7152 98.6559 99.1741 103.26C99.3471 104.995 99.2257 106.79 99.2257 108.53C99.2257 110.182 99.2257 111.835 99.2257 113.488C99.2257 114.056 98.7498 114.531 98.1795 114.531C95.077 114.531 91.9744 114.531 88.8719 114.531C82.5314 114.531 76.1909 114.531 69.8504 114.531C64.7227 114.531 59.595 114.531 54.4675 114.531C53.7415 114.531 53.0155 114.531 52.2895 114.531C51.7192 114.531 51.2434 114.056 51.2434 113.488C51.2434 110.447 51.2434 107.405 51.2434 104.364C51.2434 103.019 53.3356 103.019 53.3356 104.364Z" fill="#006EB7"/>
<path d="M53.3356 104.364C53.3356 107.405 53.3356 110.447 53.3356 113.488C52.9869 113.14 52.6382 112.793 52.2895 112.445C55.3921 112.445 58.4945 112.445 61.5972 112.445C67.9377 112.445 74.2781 112.445 80.6187 112.445C85.7463 112.445 90.874 112.445 96.0016 112.445C96.7276 112.445 97.4536 112.445 98.1796 112.445C97.8309 112.793 97.4822 113.14 97.1335 113.488C97.1335 111.011 97.1335 108.535 97.1335 106.058C97.1335 105.002 97.1865 103.885 97.0361 102.861C96.7276 100.763 95.807 98.8047 94.4002 97.2396C92.8014 95.4608 90.6831 94.3115 88.3349 93.8571C86.8456 93.5689 85.2132 93.6919 83.6804 93.6919C83.9815 93.5198 84.2826 93.3476 84.5836 93.1755C81.8061 96.9544 79.0286 100.733 76.251 104.512C76.2017 104.579 76.1523 104.646 76.103 104.713C75.6154 105.377 74.7833 105.381 74.2964 104.713C71.5368 100.928 68.777 97.1418 66.0173 93.356C65.9734 93.2959 65.9295 93.2356 65.8857 93.1755C66.1868 93.3476 66.4878 93.5198 66.7889 93.6919C65.8269 93.6919 64.8648 93.6872 63.9027 93.6927C62.022 93.7036 60.1817 94.2443 58.5634 95.1931C55.3259 97.0915 53.3573 100.64 53.3356 104.364ZM53.3356 104.364C53.3277 105.708 51.2355 105.709 51.2434 104.364C51.2706 99.7051 53.8515 95.3655 57.9626 93.1357C59.8569 92.1082 61.9991 91.6065 64.1501 91.6065C64.8482 91.6065 65.5463 91.6065 66.2444 91.6065C66.8561 91.6065 67.3263 91.621 67.7348 92.1814C70.5155 95.9961 73.2963 99.8107 76.077 103.625C76.0857 103.637 76.0943 103.649 76.1029 103.661C75.5008 103.661 74.8985 103.661 74.2963 103.661C77.0739 99.882 79.8514 96.1032 82.629 92.3242C82.9145 91.9358 83.2058 91.6064 83.7502 91.6064C84.4334 91.6064 85.1167 91.6064 85.7999 91.6064C87.8008 91.6064 89.7117 91.8849 91.5594 92.6823C95.8526 94.535 98.7152 98.6559 99.1741 103.26C99.3471 104.995 99.2257 106.79 99.2257 108.53C99.2257 110.182 99.2257 111.835 99.2257 113.488C99.2257 114.056 98.7498 114.531 98.1795 114.531C95.077 114.531 91.9744 114.531 88.8719 114.531C82.5314 114.531 76.1909 114.531 69.8504 114.531C64.7227 114.531 59.595 114.531 54.4675 114.531C53.7415 114.531 53.0155 114.531 52.2895 114.531C51.7192 114.531 51.2434 114.056 51.2434 113.488C51.2434 110.447 51.2434 107.405 51.2434 104.364C51.2434 103.019 53.3356 103.019 53.3356 104.364Z" stroke="#006EB7"/>
<path d="M39.0161 78.6379C39.0289 80.633 39.6878 82.6784 40.69 84.4854C41.6832 86.2763 43.0609 87.8711 44.9082 88.7454C45.6601 89.1013 46.5166 89.2264 47.4262 89.1385C47.2462 89.1559 47.6156 89.1054 47.6043 89.1074C47.7179 89.0868 47.8299 89.0594 47.9419 89.032C48.1673 88.977 48.3873 88.9022 48.6045 88.822C48.9224 88.7045 49.4457 88.4079 49.8249 88.1569C51.5091 87.0416 52.7617 85.1479 53.6088 83.2842C54.4415 81.4523 54.9082 79.3699 54.5879 77.4133C54.2552 75.3798 53.118 73.5173 51.4562 72.3216C47.9496 69.7988 42.9094 70.6264 40.4351 74.1503C39.5011 75.4806 39.0285 77.0279 39.0161 78.6379C39.0057 79.9821 36.9135 79.9832 36.9239 78.6379C36.9606 73.8847 40.4531 69.6609 45.1961 68.8898C50.0306 68.1039 54.705 70.9634 56.2804 75.564C57.757 79.8769 55.8024 84.9722 52.8819 88.2254C51.4276 89.8452 49.5048 91.023 47.3112 91.2349C45.1461 91.444 43.0911 90.3556 41.5334 88.9502C38.7448 86.4342 36.948 82.381 36.9239 78.6378C36.9152 77.2928 39.0074 77.2937 39.0161 78.6379Z" fill="#006EB7"/>
<path d="M39.0161 78.6379C39.0289 80.633 39.6878 82.6784 40.69 84.4854C41.6832 86.2763 43.0609 87.8711 44.9082 88.7454C45.6601 89.1013 46.5166 89.2264 47.4262 89.1385C47.2462 89.1559 47.6156 89.1054 47.6043 89.1074C47.7179 89.0868 47.8299 89.0594 47.9419 89.032C48.1673 88.977 48.3873 88.9022 48.6045 88.822C48.9224 88.7045 49.4457 88.4079 49.8249 88.1569C51.5091 87.0416 52.7617 85.1479 53.6088 83.2842C54.4415 81.4523 54.9082 79.3699 54.5879 77.4133C54.2552 75.3798 53.118 73.5173 51.4562 72.3216C47.9496 69.7988 42.9094 70.6264 40.4351 74.1503C39.5011 75.4806 39.0285 77.0279 39.0161 78.6379ZM39.0161 78.6379C39.0057 79.9821 36.9135 79.9832 36.9239 78.6379C36.9606 73.8847 40.4531 69.6609 45.1961 68.8898C50.0306 68.1039 54.705 70.9634 56.2804 75.564C57.757 79.8769 55.8024 84.9722 52.8819 88.2254C51.4276 89.8452 49.5048 91.023 47.3112 91.2349C45.1461 91.444 43.0911 90.3556 41.5334 88.9502C38.7448 86.4342 36.948 82.381 36.9239 78.6378C36.9152 77.2928 39.0074 77.2937 39.0161 78.6379Z" stroke="#006EB7"/>
<path d="M45.9097 102.838C43.7355 99.855 41.5612 96.8725 39.3869 93.8899C39.688 94.062 39.989 94.2342 40.2901 94.4063C38.8444 94.4063 37.407 94.3231 36.0156 94.6936C34.0323 95.2217 32.3299 96.5445 31.2605 98.2778C30.4002 99.6722 30.0922 101.206 30.0922 102.826C30.0922 104.254 30.0922 105.682 30.0922 107.109C30.0922 107.914 30.0922 108.719 30.0922 109.524C29.7435 109.176 29.3948 108.829 29.0461 108.481C34.018 108.481 38.99 108.481 43.9619 108.481C44.9123 108.481 45.8625 108.481 46.8129 108.481C48.1621 108.481 48.1621 110.567 46.8129 110.567C41.841 110.567 36.869 110.567 31.8971 110.567C30.9467 110.567 29.9965 110.567 29.0461 110.567C28.4758 110.567 28 110.092 28 109.524C28 107.194 28 104.865 28 102.535C28 98.0614 30.9257 94.1004 35.2037 92.7569C36.829 92.2465 38.5241 92.3209 40.2038 92.3209C40.7871 92.3209 41.0788 92.6801 41.3804 93.0936C41.6577 93.4742 41.9352 93.8548 42.2127 94.2354C43.9072 96.5597 45.6016 98.8841 47.296 101.208C47.4361 101.401 47.5763 101.593 47.7163 101.785C48.0523 102.246 47.7962 102.946 47.341 103.212C46.8121 103.52 46.2443 103.296 45.9097 102.838Z" fill="#006EB7" stroke="#006EB7"/>
<path d="M95.8052 78.6379C95.818 80.633 96.477 82.6784 97.4791 84.4854C98.4723 86.2762 99.85 87.871 101.697 88.7454C102.449 89.1013 103.306 89.2263 104.215 89.1385C104.035 89.1558 104.405 89.1054 104.393 89.1074C104.507 89.0868 104.619 89.0594 104.731 89.032C104.956 88.977 105.176 88.9022 105.394 88.822C105.712 88.7045 106.235 88.4079 106.614 88.1568C108.298 87.0416 109.551 85.1478 110.398 83.2842C111.231 81.4523 111.697 79.3699 111.377 77.4133C111.044 75.3798 109.907 73.5173 108.245 72.3216C104.739 69.7988 99.6987 70.6264 97.2244 74.1503C96.2902 75.4806 95.8177 77.0279 95.8052 78.6379C95.7949 79.9821 93.7026 79.9832 93.713 78.6379C93.7498 73.8848 97.2424 69.6609 101.985 68.8898C106.82 68.1039 111.494 70.9635 113.07 75.564C114.546 79.8768 112.592 84.9722 109.671 88.2254C108.217 89.8452 106.294 91.0229 104.1 91.2348C101.935 91.444 99.8803 90.3556 98.3226 88.9502C95.5339 86.4341 93.737 82.381 93.713 78.6378C93.7043 77.2928 95.7966 77.2937 95.8052 78.6379Z" fill="#006EB7"/>
<path d="M95.8052 78.6379C95.818 80.633 96.477 82.6784 97.4791 84.4854C98.4723 86.2762 99.85 87.871 101.697 88.7454C102.449 89.1013 103.306 89.2263 104.215 89.1385C104.035 89.1558 104.405 89.1054 104.393 89.1074C104.507 89.0868 104.619 89.0594 104.731 89.032C104.956 88.977 105.176 88.9022 105.394 88.822C105.712 88.7045 106.235 88.4079 106.614 88.1568C108.298 87.0416 109.551 85.1478 110.398 83.2842C111.231 81.4523 111.697 79.3699 111.377 77.4133C111.044 75.3798 109.907 73.5173 108.245 72.3216C104.739 69.7988 99.6987 70.6264 97.2244 74.1503C96.2902 75.4806 95.8177 77.0279 95.8052 78.6379ZM95.8052 78.6379C95.7949 79.9821 93.7026 79.9832 93.713 78.6379C93.7498 73.8848 97.2424 69.6609 101.985 68.8898C106.82 68.1039 111.494 70.9635 113.07 75.564C114.546 79.8768 112.592 84.9722 109.671 88.2254C108.217 89.8452 106.294 91.0229 104.1 91.2348C101.935 91.444 99.8803 90.3556 98.3226 88.9502C95.5339 86.4341 93.737 82.381 93.713 78.6378C93.7043 77.2928 95.7966 77.2937 95.8052 78.6379Z" stroke="#006EB7"/>
<path d="M103.602 108.481C108.57 108.481 113.539 108.481 118.507 108.481C119.479 108.481 120.451 108.481 121.423 108.481C121.074 108.829 120.726 109.177 120.377 109.524C120.377 107.194 120.377 104.865 120.377 102.535C120.377 98.473 117.421 95.1065 113.401 94.4714C112.386 94.311 111.23 94.4066 110.179 94.4066C110.48 94.2345 110.781 94.0623 111.082 93.8902C108.89 96.8727 106.698 99.8551 104.505 102.838C104.169 103.295 103.605 103.522 103.074 103.212C102.62 102.947 102.361 102.245 102.699 101.785C104.104 99.8731 105.51 97.9609 106.915 96.0487C107.632 95.0738 108.349 94.0988 109.065 93.1239C109.365 92.7156 109.644 92.3213 110.228 92.3213C110.878 92.3213 111.527 92.3213 112.176 92.3213C116.769 92.3213 120.85 95.3346 122.106 99.7563C122.491 101.112 122.469 102.495 122.469 103.886C122.469 105.415 122.469 106.945 122.469 108.474C122.469 108.824 122.469 109.174 122.469 109.524C122.469 110.093 121.993 110.567 121.423 110.567C116.455 110.567 111.486 110.567 106.518 110.567C105.546 110.567 104.574 110.567 103.602 110.567C102.253 110.567 102.253 108.481 103.602 108.481Z" fill="#006EB7" stroke="#006EB7"/>
<path d="M50.5658 53.4155C50.5827 55.3336 51.4307 57.4474 52.7254 58.9736C53.0123 59.3118 53.4088 59.7113 53.7098 59.9416C54.0962 60.2371 54.5602 60.5009 54.9222 60.6317C55.731 60.924 56.5609 60.8804 57.2742 60.5617C59.0874 59.7515 60.3289 57.8171 60.9744 55.9661C61.6603 53.9988 61.6397 51.9898 60.3987 50.2074C59.0584 48.2821 56.4883 47.5828 54.2846 48.269C52.0644 48.9605 50.5899 51.1322 50.5658 53.4155C50.5516 54.7595 48.4593 54.7609 48.4736 53.4155C48.4996 50.9567 49.6723 48.7827 51.6266 47.3128C53.5257 45.8844 56.1772 45.5544 58.4098 46.3001C60.6886 47.0614 62.4289 48.8898 63.1873 51.145C63.9387 53.3797 63.3941 55.8071 62.4356 57.8844C60.9403 61.1254 57.497 64.0669 53.7898 62.4103C52.1525 61.6787 50.9014 60.2373 50.0125 58.7197C49.0815 57.1303 48.4898 55.2629 48.4736 53.4155C48.4618 52.0702 50.5541 52.0714 50.5658 53.4155Z" fill="#006EB7"/>
<path d="M50.5658 53.4155C50.5827 55.3336 51.4307 57.4474 52.7254 58.9736C53.0123 59.3118 53.4088 59.7113 53.7098 59.9416C54.0962 60.2371 54.5602 60.5009 54.9222 60.6317C55.731 60.924 56.5609 60.8804 57.2742 60.5617C59.0874 59.7515 60.3289 57.8171 60.9744 55.9661C61.6603 53.9988 61.6397 51.9898 60.3987 50.2074C59.0584 48.2821 56.4883 47.5828 54.2846 48.269C52.0644 48.9605 50.5899 51.1322 50.5658 53.4155ZM50.5658 53.4155C50.5516 54.7595 48.4593 54.7609 48.4736 53.4155C48.4996 50.9567 49.6723 48.7827 51.6266 47.3128C53.5257 45.8844 56.1772 45.5544 58.4098 46.3001C60.6886 47.0614 62.4289 48.8898 63.1873 51.145C63.9387 53.3797 63.3941 55.8071 62.4356 57.8844C60.9403 61.1254 57.497 64.0669 53.7898 62.4103C52.1525 61.6787 50.9014 60.2373 50.0125 58.7197C49.0815 57.1303 48.4898 55.2629 48.4736 53.4155C48.4618 52.0702 50.5541 52.0714 50.5658 53.4155Z" stroke="#006EB7"/>
<path d="M89.0228 53.4155C89.0397 55.3336 89.8877 57.4474 91.1823 58.9736C91.4692 59.3118 91.8658 59.7113 92.1668 59.9416C92.553 60.2371 93.0171 60.5009 93.3791 60.6317C94.1878 60.924 95.0177 60.8804 95.7309 60.5617C97.5442 59.7515 98.7857 57.8171 99.4311 55.9661C100.117 53.9988 100.096 51.9898 98.8554 50.2074C97.515 48.2821 94.945 47.5828 92.7413 48.269C90.5215 48.9605 89.0469 51.1322 89.0228 53.4155C89.0086 54.7595 86.9164 54.7609 86.9306 53.4155C86.9565 50.9567 88.1293 48.7827 90.0836 47.3128C91.9827 45.8844 94.6342 45.5544 96.8667 46.3001C99.1456 47.0614 100.886 48.8898 101.644 51.145C102.396 53.3797 101.851 55.8071 100.893 57.8844C99.3974 61.1254 95.954 64.0669 92.2469 62.4103C90.6096 61.6787 89.3585 60.2373 88.4696 58.7197C87.5386 57.1303 86.9468 55.2629 86.9306 53.4155C86.9188 52.0702 89.0111 52.0714 89.0228 53.4155Z" fill="#006EB7"/>
<path d="M89.0228 53.4155C89.0397 55.3336 89.8877 57.4474 91.1823 58.9736C91.4692 59.3118 91.8658 59.7113 92.1668 59.9416C92.553 60.2371 93.0171 60.5009 93.3791 60.6317C94.1878 60.924 95.0177 60.8804 95.7309 60.5617C97.5442 59.7515 98.7857 57.8171 99.4311 55.9661C100.117 53.9988 100.096 51.9898 98.8554 50.2074C97.515 48.2821 94.945 47.5828 92.7413 48.269C90.5215 48.9605 89.0469 51.1322 89.0228 53.4155ZM89.0228 53.4155C89.0086 54.7595 86.9164 54.7609 86.9306 53.4155C86.9565 50.9567 88.1293 48.7827 90.0836 47.3128C91.9827 45.8844 94.6342 45.5544 96.8667 46.3001C99.1456 47.0614 100.886 48.8898 101.644 51.145C102.396 53.3797 101.851 55.8071 100.893 57.8844C99.3974 61.1254 95.954 64.0669 92.2469 62.4103C90.6096 61.6787 89.3585 60.2373 88.4696 58.7197C87.5386 57.1303 86.9468 55.2629 86.9306 53.4155C86.9188 52.0702 89.0111 52.0714 89.0228 53.4155Z" stroke="#006EB7"/>
<path d="M70.9407 41.3008C70.9601 43.1085 71.9446 45.3428 73.4291 46.4729C73.8122 46.7645 74.1632 46.9474 74.5499 47.0643C74.9338 47.1803 75.3506 47.1776 75.71 47.0942C76.5843 46.8913 77.2991 46.2309 77.9101 45.4763C79.1584 43.9344 79.797 41.7196 79.1817 39.8614C78.5761 38.0332 76.5382 36.8272 74.6457 37.0954C72.5167 37.3969 70.9679 39.1852 70.9407 41.3008C70.9233 42.6446 68.8311 42.6462 68.8484 41.3008C68.8795 38.8937 70.2515 36.6476 72.4488 35.6071C74.75 34.5172 77.3909 34.9365 79.3346 36.5302C83.1941 39.695 81.4404 46.1688 77.5946 48.5445C72.9958 51.3854 68.8922 45.3593 68.8485 41.3009C68.8339 39.9555 70.9261 39.957 70.9407 41.3008Z" fill="#006EB7"/>
<path d="M70.9407 41.3008C70.9601 43.1085 71.9446 45.3428 73.4291 46.4729C73.8122 46.7645 74.1632 46.9474 74.5499 47.0643C74.9338 47.1803 75.3506 47.1776 75.71 47.0942C76.5843 46.8913 77.2991 46.2309 77.9101 45.4763C79.1584 43.9344 79.797 41.7196 79.1817 39.8614C78.5761 38.0332 76.5382 36.8272 74.6457 37.0954C72.5167 37.3969 70.9679 39.1852 70.9407 41.3008ZM70.9407 41.3008C70.9233 42.6446 68.8311 42.6462 68.8484 41.3008C68.8795 38.8937 70.2515 36.6476 72.4488 35.6071C74.75 34.5172 77.3909 34.9365 79.3346 36.5302C83.1941 39.695 81.4404 46.1688 77.5946 48.5445C72.9958 51.3854 68.8922 45.3593 68.8485 41.3009C68.8339 39.9555 70.9261 39.957 70.9407 41.3008Z" stroke="#006EB7"/>
</svg>
