<svg xmlns="http://www.w3.org/2000/svg" width="46" height="41" viewBox="0 0 46 41"><g><g><g/><g><path fill="#fd8a02" d="M44.55 6.163c.8 0 1.45.65 1.45 1.45v8.143a4.825 4.825 0 0 1-4.823 4.765H27.909c-.623-1.519-2.547-2.607-4.914-2.607-2.363 0-4.282 1.088-4.904 2.607H4.823A4.825 4.825 0 0 1 0 15.756V7.612c0-.799.65-1.449 1.449-1.449h13.657V1.046c0-.578.468-1.046 1.046-1.046h13.696c.578 0 1.046.468 1.046 1.046v5.117zM28.803 2.091H17.198v3.961h11.604z"/></g><g><path fill="#fd8a02" d="M27.912 22.614c-.62 1.527-2.547 2.62-4.917 2.62-2.366 0-4.288-1.093-4.907-2.62H4.823A6.899 6.899 0 0 1 0 20.65v18.765c0 .799.65 1.449 1.449 1.449H44.55c.798 0 1.449-.65 1.449-1.449V20.65a6.899 6.899 0 0 1-4.823 1.964z"/></g></g></g></svg>