<svg width="150" height="150" viewBox="0 0 150 150" fill="none" xmlns="http://www.w3.org/2000/svg">
<circle opacity="0.2" cx="73.9419" cy="38.0829" r="12.0829" fill="#006EB7"/>
<ellipse opacity="0.2" cx="39.2522" cy="60.6896" rx="12.4727" ry="12.0829" fill="#006EB7"/>
<circle opacity="0.2" cx="107.462" cy="60.6896" r="12.0829" fill="#006EB7"/>
<path d="M40.7188 124.542C48.8353 124.542 55.4375 117.911 55.4375 109.761C55.4375 107.596 54.96 105.545 54.1243 103.691L59.755 98.9773L57.66 96.4546L52.4234 100.836C49.7348 97.2856 45.4942 94.9797 40.7188 94.9797C32.6022 94.9797 26 101.612 26 109.761C26 117.911 32.6022 124.542 40.7188 124.542ZM40.7188 98.2645C47.0298 98.2645 52.1667 103.422 52.1667 109.761C52.1667 116.101 47.0298 121.258 40.7188 121.258C34.4077 121.258 29.2708 116.101 29.2708 109.761C29.2708 103.422 34.4077 98.2645 40.7188 98.2645Z" fill="#006EB7"/>
<path d="M109.406 94.9797C104.631 94.9797 100.39 97.2856 97.7 100.838L92.4634 96.4562L90.3684 98.9789L95.9991 103.693C95.1651 105.545 94.6875 107.596 94.6875 109.761C94.6875 117.911 101.29 124.542 109.406 124.542C117.523 124.542 124.125 117.911 124.125 109.761C124.125 101.612 117.523 94.9797 109.406 94.9797ZM103.148 119.376C103.403 118.155 103.982 117.035 104.865 116.135C106.114 114.895 107.761 114.212 109.504 114.212C112.54 114.212 115.147 116.355 115.83 119.272C113.997 120.524 111.786 121.258 109.406 121.258C107.097 121.258 104.948 120.561 103.148 119.376ZM106.234 107.642C106.234 105.831 107.701 104.358 109.504 104.358C111.308 104.358 112.775 105.831 112.775 107.642C112.775 109.454 111.308 110.927 109.504 110.927C107.701 110.927 106.234 109.454 106.234 107.642ZM118.429 116.812C117.556 114.836 116.074 113.213 114.216 112.179C115.344 110.998 116.046 109.403 116.046 107.642C116.046 104.019 113.112 101.073 109.504 101.073C105.897 101.073 102.963 104.019 102.963 107.642C102.963 109.392 103.658 110.973 104.77 112.151C103.97 112.594 103.221 113.148 102.551 113.813C101.648 114.733 100.974 115.803 100.493 116.956C98.9102 114.987 97.9584 112.484 97.9584 109.761C97.9584 103.422 103.095 98.2645 109.406 98.2645C115.717 98.2645 120.854 103.422 120.854 109.761C120.854 112.418 119.943 114.862 118.429 116.812Z" fill="#006EB7"/>
<path d="M40.7188 76.9138C44.6585 76.9138 48.2319 75.3437 50.8763 72.803L57.6453 78.6285L59.773 76.1337L52.9827 70.2885C54.5298 67.9498 55.4375 65.1462 55.4375 62.1325C55.4375 53.983 48.8353 47.3511 40.7188 47.3511C32.6022 47.3511 26 53.983 26 62.1325C26 70.2819 32.6022 76.9138 40.7188 76.9138ZM40.7188 50.6358C47.0298 50.6358 52.1667 55.7929 52.1667 62.1325C52.1667 68.472 47.0298 73.6291 40.7188 73.6291C34.4077 73.6291 29.2708 68.472 29.2708 62.1325C29.2708 55.7929 34.4077 50.6358 40.7188 50.6358Z" fill="#006EB7"/>
<path d="M109.406 47.3511C101.29 47.3511 94.6875 53.983 94.6875 62.1325C94.6875 65.565 95.8683 68.72 97.8308 71.2329L91.7732 75.5769L93.6736 78.2507L100.147 73.6077C102.678 75.6722 105.9 76.9138 109.406 76.9138C117.523 76.9138 124.125 70.2819 124.125 62.1325C124.125 53.983 117.523 47.3511 109.406 47.3511ZM109.406 73.6291C103.095 73.6291 97.9583 68.472 97.9583 62.1325C97.9583 55.7929 103.095 50.6358 109.406 50.6358C115.717 50.6358 120.854 55.7929 120.854 62.1325C120.854 68.472 115.717 73.6291 109.406 73.6291Z" fill="#006EB7"/>
<path d="M73.4271 55.4659V67.0594H76.6979V55.4659C84.0458 54.6447 89.7812 48.3757 89.7812 40.7814C89.7812 32.6319 83.1791 26 75.0625 26C66.9459 26 60.3438 32.6319 60.3438 40.7814C60.3438 48.3757 66.0792 54.6463 73.4271 55.4659ZM75.0625 29.2848C81.3736 29.2848 86.5104 34.4418 86.5104 40.7814C86.5104 47.121 81.3736 52.278 75.0625 52.278C68.7514 52.278 63.6146 47.121 63.6146 40.7814C63.6146 34.4418 68.7514 29.2848 75.0625 29.2848Z" fill="#006EB7"/>
<path d="M86.4499 74.9804C83.2494 71.8615 79.0562 70.2126 74.5588 70.3522C65.7897 70.6183 58.6789 78.0089 58.7099 86.8285C58.7312 92.383 61.5245 97.5105 66.1822 100.542C66.6221 100.83 66.8854 101.329 66.8854 101.879V108.119C66.8854 109.025 67.6164 109.761 68.5208 109.761H81.6041C82.5085 109.761 83.2396 109.025 83.2396 108.119V101.879C83.2396 101.331 83.5176 100.82 83.9837 100.514C88.6381 97.4678 91.4166 92.3272 91.4166 86.7677C91.4166 82.2873 89.6537 78.1009 86.4499 74.9804ZM82.1978 97.7634C80.8028 98.6766 79.9687 100.215 79.9687 101.879V106.476H76.6979V96.622C76.6979 95.9995 76.3479 95.4313 75.7935 95.1521L70.9281 92.7098C70.4522 92.4717 70.1562 91.9905 70.1562 91.4551C70.1562 90.7275 70.7106 90.1264 71.4171 90.0591L74.3298 91.5224C74.7894 91.754 75.3323 91.754 75.7935 91.5224L78.7062 90.0591C79.4143 90.1264 79.9687 90.7275 79.9687 91.4551C79.9687 91.9905 79.6727 92.4717 79.1952 92.7098L77.6006 93.5097L79.0643 96.4479L80.6589 95.6481C82.2518 94.8482 83.2396 93.242 83.2396 91.4551C83.2396 88.87 81.1462 86.7677 78.5721 86.7677H78.3333C78.0798 86.7677 77.828 86.8269 77.6023 86.9402L75.0625 88.2163L72.5227 86.9418C72.297 86.8269 72.0451 86.7677 71.7916 86.7677H71.5529C68.9787 86.7677 66.8854 88.87 66.8854 91.4551C66.8854 93.242 67.8732 94.8482 69.4661 95.6481L73.4271 97.637V106.476H70.1562V101.879C70.1562 100.212 69.3352 98.6815 67.9599 97.7848C64.2311 95.359 61.9955 91.258 61.9791 86.8154C61.9546 79.7597 67.6426 73.8472 74.6569 73.6353C78.2074 73.517 81.6123 74.8408 84.1717 77.3372C86.7344 79.8336 88.1458 83.1824 88.1458 86.7677C88.1458 91.2136 85.9233 95.3245 82.1978 97.7634Z" fill="#006EB7"/>
<path d="M79.9688 111.404H70.1562V114.688H79.9688V111.404Z" fill="#006EB7"/>
<path d="M78.3333 116.331H71.7916V119.615H78.3333V116.331Z" fill="#006EB7"/>
<path d="M76.698 121.258H73.4271V124.543H76.698V121.258Z" fill="#006EB7"/>
<path d="M75.0625 45.7086C74.1597 45.7086 73.4271 44.9712 73.4271 44.0663H70.1562C70.1562 46.2046 71.5284 48.0112 73.4271 48.6912V50.6358H76.6979V48.6912C78.5966 48.0112 79.9688 46.2046 79.9688 44.0663C79.9688 41.3498 77.7675 39.1391 75.0625 39.1391C74.1597 39.1391 73.4271 38.4017 73.4271 37.4967C73.4271 36.5918 74.1597 35.8544 75.0625 35.8544C75.9653 35.8544 76.6979 36.5918 76.6979 37.4967H79.9688C79.9688 35.3584 78.5966 33.5518 76.6979 32.8718V30.9272H73.4271V32.8718C71.5284 33.5518 70.1562 35.3584 70.1562 37.4967C70.1562 40.2132 72.3575 42.4239 75.0625 42.4239C75.9653 42.4239 76.6979 43.1613 76.6979 44.0663C76.6979 44.9712 75.9653 45.7086 75.0625 45.7086Z" fill="#006EB7"/>
<path d="M39.0834 114.455V119.615H42.3542V114.455C45.1688 113.721 47.2605 111.17 47.2605 108.119C47.2605 104.496 44.3265 101.549 40.7188 101.549C37.1111 101.549 34.1771 104.496 34.1771 108.119C34.1771 111.17 36.2688 113.721 39.0834 114.455ZM40.7188 104.834C42.5227 104.834 43.9896 106.307 43.9896 108.119C43.9896 109.93 42.5227 111.404 40.7188 111.404C38.9149 111.404 37.448 109.93 37.448 108.119C37.448 106.307 38.9149 104.834 40.7188 104.834Z" fill="#006EB7"/>
<path d="M37.448 60.49H34.1771V67.0595H37.448V60.49Z" fill="#006EB7"/>
<path d="M42.3542 57.2053H39.0834V67.0596H42.3542V57.2053Z" fill="#006EB7"/>
<path d="M47.2605 55.5627H43.9896V67.0594H47.2605V55.5627Z" fill="#006EB7"/>
<path d="M114.313 55.5627H104.5C102.696 55.5627 101.229 57.036 101.229 58.8475V63.7746C101.229 65.5862 102.696 67.0594 104.5 67.0594H104.956L106.219 70.8631C106.415 71.4577 106.934 71.888 107.552 71.9717C107.627 71.9816 107.699 71.9865 107.771 71.9865C108.312 71.9865 108.827 71.7155 109.132 71.2556L111.917 67.0594H114.313C116.116 67.0594 117.583 65.5862 117.583 63.7746V58.8475C117.583 57.036 116.116 55.5627 114.313 55.5627ZM114.313 63.7746H111.042C110.496 63.7746 109.985 64.0489 109.681 64.5055L108.265 66.6389L107.686 64.8964C107.463 64.2263 106.84 63.7746 106.135 63.7746H104.5V58.8475H114.313V63.7746Z" fill="#006EB7"/>
</svg>
