<svg xmlns="http://www.w3.org/2000/svg" width="53" height="66" viewBox="0 0 53 66"><defs><clipPath id="r99ha"><path fill="#fff" d="M0 1a1 1 0 0 1 1-1h40a1 1 0 0 1 1 1v53a1 1 0 0 1-1 1H1a1 1 0 0 1-1-1z"/></clipPath><clipPath id="r99hb"><path fill="#fff" d="M11 12a1 1 0 0 1 1-1h40a1 1 0 0 1 1 1v53a1 1 0 0 1-1 1H12a1 1 0 0 1-1-1z"/></clipPath></defs><g><g><g><path fill="#c5e8ff" d="M0 1a1 1 0 0 1 1-1h40a1 1 0 0 1 1 1v53a1 1 0 0 1-1 1H1a1 1 0 0 1-1-1z"/><path fill="none" stroke="#006eb7" stroke-miterlimit="20" stroke-width="4" d="M0 1a1 1 0 0 1 1-1h40a1 1 0 0 1 1 1v53a1 1 0 0 1-1 1H1a1 1 0 0 1-1-1z" clip-path="url(&quot;#r99ha&quot;)"/></g><g><g><path fill="#fff" d="M11 12a1 1 0 0 1 1-1h40a1 1 0 0 1 1 1v53a1 1 0 0 1-1 1H12a1 1 0 0 1-1-1z"/><path fill="none" stroke="#006eb7" stroke-miterlimit="20" stroke-width="4" d="M11 12a1 1 0 0 1 1-1h40a1 1 0 0 1 1 1v53a1 1 0 0 1-1 1H12a1 1 0 0 1-1-1z" clip-path="url(&quot;#r99hb&quot;)"/></g><g><path fill="#006eb7" d="M21 23h22v2H21z"/></g><g><path fill="#006eb7" d="M21 33h22v2H21z"/></g><g><path fill="#006eb7" d="M21 43h22v2H21z"/></g><g><path fill="#006eb7" d="M21 53h22v2H21z"/></g></g></g></g></svg>