<svg xmlns="http://www.w3.org/2000/svg" width="51" height="53" viewBox="0 0 51 53"><g><g><g/><g><path fill="#fd8a02" d="M21.52 8.211a2.402 2.402 0 0 0 2.295 1.64h3.54a2.402 2.402 0 0 0 2.295-1.64l.721-2.294a3.03 3.03 0 0 0-2.884-4h-.46v-.065c.132-.393 0-.852-.261-1.114l-.394-.394c-.459-.459-1.114-.459-1.573 0l-.394.394a1.032 1.032 0 0 0-.262 1.114v.066h-.459A3.03 3.03 0 0 0 20.8 5.917z"/></g><g><path fill="#fd8a02" d="M50.625 22.763c-.655 3.54-2.688 8.982-6.228 10.818-3.54 1.9-6.49.459-8.523-.59-1.18-.59-1.966-.984-2.622-.853-.393.066-.59.656-.328.984l2.623 3.278c.72.852.917 1.9.72 2.884l2.623 2.36c.721-.786 1.77-1.245 2.95-1.245a4.113 4.113 0 0 1 4.13 4.13 4.113 4.113 0 0 1-4.13 4.13 4.113 4.113 0 0 1-4.13-4.13c0-.131.066-.328.066-.459l-3.082-2.753c-.459.262-.983.327-1.573.262-1.705-.262-3.41-1.049-4.917-1.901-.852 2.753 2.819 4.982 4.458 6.556.656.59 1.77 1.639.983 2.622-.459.59-1.31.787-2.032.983-.328.132-.656.197-.983.263-1.443.262-2.754.917-3.868 1.77-.263.196-.46.393-.656.524a.745.745 0 0 1-.524.197.745.745 0 0 1-.525-.197c-.197-.196-.393-.328-.656-.524a10.9 10.9 0 0 0-3.868-1.77c-.327-.131-.655-.197-.983-.263-.656-.196-1.573-.393-2.032-.983-.787-.983.327-1.967.983-2.622 1.705-1.574 5.31-3.803 4.458-6.556-1.508.852-3.212 1.704-4.917 1.9-.59.132-1.18 0-1.639-.261l-3.147 2.819 2.033 1.835c.59.46.59 1.312.13 1.836-.458.59-1.31.59-1.835.131l-3.147-2.819-1.77-1.573c-.59.262-1.246.459-1.967.459-.72 0-1.311-.59-1.311-1.312 0-.72.59-1.31 1.311-1.31.787 0 1.508-.656 1.508-1.509 0-.72.59-1.31 1.311-1.31.722 0 1.312.59 1.312 1.31 0 .59-.132 1.246-.394 1.77l.787.722 3.606-3.213c-.197-.983 0-2.032.72-2.819l2.623-3.278c.328-.393.131-.918-.328-.983-.655-.131-1.442.196-2.622.852-2.032 1.049-4.982 2.426-8.523.59-3.54-1.836-5.638-7.277-6.228-10.817-.787-4.59-.59-9.244.59-13.702 0-.197.131-.328.262-.46.197-.13.328-.196.525-.196.196 0 .393.066.524.131a.591.591 0 0 1 .394.393c.59 1.05 1.704 2.95 2.753 4.459 3.081 4.458 6.228 7.604 10.686 7.736.525 0 1.05-.132 1.508-.328 1.377-.656 2.23-2.23 2.033-3.803 0-.655-.197-1.376-.59-1.966a4.006 4.006 0 0 0-1.574-1.377c-.918-.46-2.098-.525-3.147-.328a4.137 4.137 0 0 0-1.508.524c-.458.263-.72.132-.786-.393-.066-1.377.196-3.212 1.442-4.065 1.639-1.114 4.13-.327 5.638.525 1.64.852 3.016 2.163 4.196 3.606a20.803 20.803 0 0 1 2.098 3.212c.524-1.18 1.311-2.229 2.098-3.212 1.18-1.443 2.557-2.754 4.196-3.606 1.573-.852 4.064-1.64 5.638-.525 1.246.853 1.508 2.688 1.442 4.065-.065.59-.328.656-.786.393a4.138 4.138 0 0 0-1.508-.524c-.984-.197-2.23-.131-3.147.328a4.006 4.006 0 0 0-1.574 1.377c-.327.59-.59 1.245-.59 1.966a3.564 3.564 0 0 0 2.033 3.803c.459.196.983.328 1.508.328 4.458-.132 7.604-3.278 10.686-7.736 1.049-1.508 2.163-3.41 2.753-4.459.131-.196.263-.327.394-.393.13-.131.327-.131.524-.131s.394.066.525.197c.13.13.196.262.262.459 1.114 4.523 1.311 9.178.655 13.767zM40.333 44.398c0 .787.655 1.508 1.507 1.508.787 0 1.508-.656 1.508-1.508 0-.787-.655-1.508-1.508-1.508-.655 0-1.245.459-1.442 1.05-.066.13-.066.327-.066.458z"/></g></g></g></svg>