<svg xmlns="http://www.w3.org/2000/svg" width="47" height="42" viewBox="0 0 47 42"><defs><linearGradient id="1shda" x1="23.5" x2="23.5" y1="0" y2="42" gradientUnits="userSpaceOnUse"><stop offset="0" stop-color="#fd8a02"/><stop offset="1" stop-color="#ffaf00"/></linearGradient></defs><g><g><path fill="url(#1shda)" d="M46.15.24c-.39-.33-.97-.32-1.34.03L17.77 25.93l-7.37-8.32a.996.996 0 0 0-.75-.34H1.5c-.37 0-.72.21-.89.54-.17.34-.14.74.08 1.04L16.9 41.58c.18.26.49.42.81.42h.01c.32 0 .63-.16.81-.43l27.79-40c.29-.42.22-.99-.17-1.33z"/></g></g></svg>