<svg width="80" height="80" viewBox="0 0 80 80" fill="none" xmlns="http://www.w3.org/2000/svg">
<path d="M8.82065 67.6846L5.81006 78.6075H73.3334V72.9276L67.3122 64.6262L59.5707 59.3832L50.1088 56.7617L46.2381 67.2477L39.7868 60.694L33.3355 66.3739L32.0453 62.8785C30.6116 64.0437 27.5724 66.5486 26.8842 67.2477C26.1961 67.9468 23.4436 68.9954 22.1533 69.4323C20.433 69.7236 16.8202 70.3061 16.1321 70.3061C15.444 70.3061 17.5657 67.6846 18.7126 66.3739V60.694C17.279 61.4222 14.1537 62.8785 13.1215 62.8785C12.0893 62.8785 9.82419 66.0826 8.82065 67.6846Z" fill="#C5E8FF"/>
<path d="M47.4779 30.8168C48.1888 30.8168 48.7651 30.242 48.7651 29.5328C48.7651 28.8237 48.1888 28.2488 47.4779 28.2488C46.767 28.2488 46.1907 28.8237 46.1907 29.5328C46.1907 30.242 46.767 30.8168 47.4779 30.8168Z" fill="#006EB7"/>
<path d="M32.0314 30.8168C32.7423 30.8168 33.3186 30.242 33.3186 29.5328C33.3186 28.8237 32.7423 28.2488 32.0314 28.2488C31.3204 28.2488 30.7441 28.8237 30.7441 29.5328C30.7441 30.242 31.3204 30.8168 32.0314 30.8168Z" fill="#006EB7"/>
<path d="M39.7546 42.3727C38.3348 42.3727 37.1801 41.221 37.1801 39.8047H34.6057C34.6057 42.6373 36.915 44.9408 39.7546 44.9408C42.5941 44.9408 44.9034 42.6373 44.9034 39.8047H42.329C42.329 41.221 41.1743 42.3727 39.7546 42.3727Z" fill="#006EB7"/>
<path d="M61.7956 59.4353L48.5901 54.0462C47.133 53.4517 46.1907 52.0521 46.1907 50.4804V49.5585C49.3688 47.3679 51.9497 44.4583 53.7299 41.089H53.914C57.4628 41.089 60.35 38.2089 60.35 34.6689C60.35 33.5993 60.0784 32.5823 59.5996 31.6835C60.9306 29.4878 61.6372 26.9865 61.6372 24.3966V21.8285C61.6372 9.79203 51.821 0 39.7547 0C27.6884 0 17.8721 9.79203 17.8721 21.8285V59.3711L17.7138 59.4353C9.99051 62.5876 5 70.0028 5 78.3259V79.61H74.5093V78.3259C74.5093 70.0028 69.5188 62.5876 61.7956 59.4353ZM48.7651 56.8929L45.7209 64.4854L41.7756 60.5498L47.8409 56.5167L48.7651 56.8929ZM45.4892 54.9938L39.7547 58.8061L35.5764 56.0274C35.772 54.927 35.893 53.8009 35.893 52.6453C35.893 52.1266 35.875 51.6091 35.8403 51.0942C36.9653 51.681 38.1379 52.1779 39.3479 52.5785L39.7547 52.7146L40.1614 52.5798C41.3804 52.1741 42.5492 51.6784 43.6614 51.1006C43.8055 52.5952 44.4581 53.9589 45.4892 54.9938ZM34.9109 58.6726L37.7338 60.5498L33.7885 64.4854L33.0522 62.6505C33.8142 61.4075 34.4449 60.0786 34.9109 58.6726ZM39.7547 50.0028C38.2165 49.4571 36.749 48.7393 35.3807 47.861C34.786 45.1324 33.6829 42.5284 32.1074 40.1709L31.1162 38.6879C29.1893 35.8039 28.1698 32.4488 28.1698 28.9819V24.3273C32.1048 23.901 35.5468 21.5371 37.3476 17.9443L37.5445 17.5514C42.0614 21.6847 47.7959 24.0705 53.914 24.3645V29.9821C53.914 39.0012 48.2425 46.993 39.7547 50.0028ZM54.9502 38.363C55.7367 36.2739 56.2464 34.0602 56.4176 31.7669C57.2543 32.4783 57.7756 33.5222 57.7756 34.6689C57.7756 36.4331 56.5746 37.9072 54.9502 38.363ZM20.4465 21.8285C20.4465 11.2083 29.1082 2.56806 39.7547 2.56806C50.4012 2.56806 59.0628 11.2083 59.0628 21.8285V24.3966C59.0628 26.2238 58.6213 27.9932 57.8065 29.5995C57.401 29.2913 56.966 29.0166 56.4884 28.8085V21.8285H55.2012C48.9042 21.8285 42.9856 19.3825 38.5318 14.9397L36.8276 13.2422L35.0461 16.7977C33.4898 19.8999 30.3619 21.8285 26.8826 21.8285H25.5954V28.9819C25.5954 32.956 26.7641 36.8055 28.9743 40.1119L29.9654 41.5949C32.1588 44.8782 33.3186 48.6995 33.3186 52.6453C33.3186 61.161 26.8929 68.2078 18.6251 69.2145C19.8209 66.2085 20.4465 62.9753 20.4465 59.7434V21.8285ZM17.7292 62.2434C17.4306 64.9515 16.6531 67.612 15.4328 70.0478L14.5022 71.9058H16.5849C17.02 71.9058 17.4447 71.8686 17.8721 71.8403V77.0419H7.61947C8.07514 70.641 11.9149 65.0182 17.7292 62.2434ZM61.6372 77.0419V69.3377H59.0628V77.0419H20.4465V71.518C24.7471 70.6436 28.5238 68.3323 31.2707 65.1184L32.8488 69.0539L39.7547 62.1651L46.6606 69.0539L51.1478 57.8649L60.8212 61.8133C67.1722 64.4058 71.4097 70.2943 71.8899 77.0419H61.6372Z" fill="#006EB7"/>
<path d="M41.042 71.9058H38.4675V74.4738H41.042V71.9058Z" fill="#006EB7"/>
<path d="M41.042 66.7695H38.4675V69.3376H41.042V66.7695Z" fill="#006EB7"/>
<path d="M56.4884 69.3379H48.7651V71.9059H56.4884V69.3379Z" fill="#006EB7"/>
</svg>
