<svg width="150" height="150" viewBox="0 0 150 150" fill="none" xmlns="http://www.w3.org/2000/svg">
<path d="M83.9736 63.9801C84.8267 63.9801 85.5183 63.2903 85.5183 62.4393C85.5183 61.5883 84.8267 60.8984 83.9736 60.8984C83.1205 60.8984 82.429 61.5883 82.429 62.4393C82.429 63.2903 83.1205 63.9801 83.9736 63.9801Z" fill="#006EB7"/>
<path d="M65.4377 63.9801C66.2908 63.9801 66.9824 63.2903 66.9824 62.4393C66.9824 61.5883 66.2908 60.8984 65.4377 60.8984C64.5846 60.8984 63.8931 61.5883 63.8931 62.4393C63.8931 63.2903 64.5846 63.9801 65.4377 63.9801Z" fill="#006EB7"/>
<path d="M74.7056 77.8473C73.0018 77.8473 71.6163 76.4652 71.6163 74.7656H68.527C68.527 78.1647 71.2981 80.929 74.7056 80.929C78.1131 80.929 80.8842 78.1647 80.8842 74.7656H77.7949C77.7949 76.4652 76.4093 77.8473 74.7056 77.8473Z" fill="#006EB7"/>
<path d="M101.155 98.3223L85.3081 91.8554C83.5596 91.142 82.4289 89.4625 82.4289 87.5765V86.4702C86.2426 83.8415 89.3396 80.35 91.4759 76.3068H91.6968C95.9554 76.3068 99.42 72.8507 99.42 68.6026C99.42 67.3191 99.0941 66.0988 98.5195 65.0202C100.117 62.3854 100.965 59.3838 100.965 56.2759V53.1943C100.965 38.7504 89.1852 27 74.7056 27C60.226 27 48.4465 38.7504 48.4465 53.1943V98.2453L48.2565 98.3223C38.9886 102.105 33 111.003 33 120.991V122.532H116.411V120.991C116.411 111.003 110.423 102.105 101.155 98.3223ZM85.5182 95.2715L81.8651 104.382L77.1307 99.6598L84.4091 94.82L85.5182 95.2715ZM81.587 92.9926L74.7056 97.5673L69.6917 94.2329C69.9265 92.9124 70.0717 91.5611 70.0717 90.1744C70.0717 89.5519 70.05 88.9309 70.0083 88.313C71.3583 89.0172 72.7655 89.6135 74.2175 90.0943L74.7056 90.2576L75.1937 90.0958C76.6565 89.6089 78.059 89.0141 79.3936 88.3207C79.5666 90.1143 80.3498 91.7506 81.587 92.9926ZM68.8931 97.4071L72.2805 99.6598L67.5461 104.382L66.6626 102.181C67.577 100.689 68.3339 99.0943 68.8931 97.4071ZM74.7056 87.0033C72.8597 86.3485 71.0988 85.4871 69.4569 84.4332C68.7432 81.1589 67.4195 78.0341 65.5288 75.2051L64.3394 73.4255C62.0271 69.9647 60.8037 65.9385 60.8037 61.7783V56.1927C65.5257 55.6812 69.6561 52.8445 71.8171 48.5332L72.0534 48.0617C77.4736 53.0217 84.355 55.8846 91.6968 56.2374V62.9786C91.6968 73.8014 84.891 83.3916 74.7056 87.0033ZM92.9402 73.0356C93.884 70.5287 94.4957 67.8723 94.7011 65.1203C95.7052 65.974 96.3307 67.2267 96.3307 68.6026C96.3307 70.7197 94.8896 72.4886 92.9402 73.0356ZM51.5358 53.1943C51.5358 40.45 61.9298 30.0817 74.7056 30.0817C87.4814 30.0817 97.8754 40.45 97.8754 53.1943V56.2759C97.8754 58.4685 97.3456 60.5918 96.3678 62.5194C95.8812 62.1496 95.3591 61.8199 94.7861 61.5703V53.1943H93.2414C85.685 53.1943 78.5827 50.259 73.2382 44.9277L71.1931 42.8907L69.0553 47.1572C67.1878 50.8799 63.4343 53.1943 59.2591 53.1943H57.7144V61.7783C57.7144 66.5472 59.117 71.1666 61.7691 75.1342L62.9585 76.9139C65.5906 80.8538 66.9823 85.4394 66.9823 90.1744C66.9823 100.393 59.2714 108.849 49.3501 110.057C50.7851 106.45 51.5358 102.57 51.5358 98.6921V53.1943ZM48.2751 101.692C47.9167 104.942 46.9837 108.134 45.5194 111.057L44.4026 113.287H46.9019C47.424 113.287 47.9337 113.242 48.4465 113.208V119.45H36.1434C36.6902 111.769 41.2979 105.022 48.2751 101.692ZM100.965 119.45V110.205H97.8754V119.45H51.5358V112.822C56.6965 111.772 61.2285 108.999 64.5248 105.142L66.4185 109.865L74.7056 101.598L82.9927 109.865L88.3773 96.4379L99.9854 101.176C107.607 104.287 112.692 111.353 113.268 119.45H100.965Z" fill="#006EB7"/>
<path d="M76.2502 113.287H73.1609V116.369H76.2502V113.287Z" fill="#006EB7"/>
<path d="M76.2502 107.124H73.1609V110.205H76.2502V107.124Z" fill="#006EB7"/>
<path d="M94.7861 110.205H85.5182V113.287H94.7861V110.205Z" fill="#006EB7"/>
<path d="M58.6814 47.544L55.7682 46.5178C55.3835 47.6026 55.0916 48.7274 54.9016 49.8584L57.9492 50.3668C58.1099 49.4115 58.357 48.4624 58.6814 47.544Z" fill="#006EB7"/>
<path d="M74.7055 36.2453V33.1636C67.56 33.1636 60.8948 37.0003 57.3127 43.1775L59.9865 44.7214C63.0187 39.4918 68.6582 36.2453 74.7055 36.2453Z" fill="#006EB7"/>
<path opacity="0.2" d="M40.5846 108.221L36.9719 121.329H118V114.513L110.775 104.551L101.485 98.2598L90.1304 95.114L85.4855 107.697L77.744 99.8327L70.0025 106.649L68.4542 102.454C66.7338 103.852 63.0867 106.858 62.2609 107.697C61.4352 108.536 58.1321 109.794 56.5838 110.319C54.5194 110.668 50.1841 111.367 49.3584 111.367C48.5326 111.367 51.0787 108.221 52.455 106.649V99.8327C50.7346 100.707 46.9843 102.454 45.7457 102.454C44.507 102.454 41.7889 106.299 40.5846 108.221Z" fill="#006EB7"/>
</svg>
