<svg width="180" height="180" viewBox="0 0 180 180" fill="none" xmlns="http://www.w3.org/2000/svg">
<path d="M18.7751 144H92V121.923H46.2899C47.6213 108.382 90.3728 102.054 90.3728 69.2325C90.3728 46.8611 71.5858 37 54.2781 37C35.1953 37 23.213 47.7442 17 59.6658L36.2308 72.4704C39.3373 66.5832 45.1065 61.2847 51.9112 61.2847C57.3846 61.2847 63.3018 64.3755 63.3018 71.7345C63.3018 86.8941 17.5917 93.8116 17.5917 132.667C17.5917 136.199 18.0355 139.879 18.7751 144Z" fill="url(#paint0_linear)"/>
<path d="M60.7261 127L56 144H162V135.16L152.548 122.24L140.395 114.08L125.541 110L119.465 126.32L109.338 116.12L99.2102 124.96L97.1847 119.52C94.9342 121.333 90.1631 125.232 89.0828 126.32C88.0025 127.408 83.6815 129.04 81.656 129.72C78.9554 130.173 73.2841 131.08 72.2038 131.08C71.1236 131.08 74.4544 127 76.2548 124.96V116.12C74.0042 117.253 69.0981 119.52 67.4777 119.52C65.8573 119.52 62.3015 124.507 60.7261 127Z" fill="#C5E8FF"/>
<path d="M77 116.859L72.5 130.859L81.5 129.859L88.5 127.359L96.5 118.359L99.5 124.859L109 114.859L119 124.859L125 108.859L121 105.359L117 100.359L119 95.8586L130.5 82.8586L137 80.3586L139.5 73.8586L137 68.8586L141 59.3586L139.5 43.3586L134 31.3586L117 22.3586H104L87 29.3586L80 39.8586L77 56.8586V91.8586V116.859Z" fill="white"/>
<path d="M121.566 68.2916C122.68 68.2916 123.583 67.3908 123.583 66.2795C123.583 65.1682 122.68 64.2673 121.566 64.2673C120.452 64.2673 119.549 65.1682 119.549 66.2795C119.549 67.3908 120.452 68.2916 121.566 68.2916Z" fill="#006EB7"/>
<path d="M97.3599 68.2916C98.4739 68.2916 99.377 67.3908 99.377 66.2795C99.377 65.1682 98.4739 64.2673 97.3599 64.2673C96.2459 64.2673 95.3428 65.1682 95.3428 66.2795C95.3428 67.3908 96.2459 68.2916 97.3599 68.2916Z" fill="#006EB7"/>
<path d="M109.463 86.4006C107.238 86.4006 105.428 84.5957 105.428 82.3763H101.394C101.394 86.8152 105.013 90.425 109.463 90.425C113.912 90.425 117.531 86.8152 117.531 82.3763H113.497C113.497 84.5957 111.687 86.4006 109.463 86.4006Z" fill="#006EB7"/>
<path d="M144.063 112.576L123.355 104.182C121.07 103.256 119.593 101.076 119.593 98.628V97.192C124.576 93.78 128.623 89.248 131.415 84H131.704C137.269 84 141.796 79.514 141.796 74C141.796 72.334 141.37 70.75 140.619 69.35C142.707 65.93 143.815 62.034 143.815 58V54C143.815 35.252 128.422 20 109.5 20C90.5784 20 75.1852 35.252 75.1852 54V112.476L74.9369 112.576C62.8258 117.486 55 129.036 55 142V144H164V142C164 129.036 156.174 117.486 144.063 112.576ZM123.63 108.616L118.856 120.442L112.669 114.312L122.18 108.03L123.63 108.616ZM118.493 105.658L109.5 111.596L102.948 107.268C103.255 105.554 103.444 103.8 103.444 102C103.444 101.192 103.416 100.386 103.362 99.584C105.126 100.498 106.965 101.272 108.862 101.896L109.5 102.108L110.138 101.898C112.049 101.266 113.882 100.494 115.626 99.594C115.852 101.922 116.876 104.046 118.493 105.658ZM101.904 111.388L106.331 114.312L100.144 120.442L98.9896 117.584C100.185 115.648 101.174 113.578 101.904 111.388ZM109.5 97.884C107.088 97.034 104.787 95.916 102.641 94.548C101.709 90.298 99.9786 86.242 97.508 82.57L95.9537 80.26C92.932 75.768 91.3333 70.542 91.3333 65.142V57.892C97.5039 57.228 102.901 53.546 105.725 47.95L106.034 47.338C113.117 53.776 122.11 57.492 131.704 57.95V66.7C131.704 80.748 122.81 93.196 109.5 97.884ZM133.329 79.754C134.562 76.5 135.361 73.052 135.63 69.48C136.942 70.588 137.759 72.214 137.759 74C137.759 76.748 135.876 79.044 133.329 79.754ZM79.2222 54C79.2222 37.458 92.8048 24 109.5 24C126.195 24 139.778 37.458 139.778 54V58C139.778 60.846 139.085 63.602 137.808 66.104C137.172 65.624 136.49 65.196 135.741 64.872V54H133.722C123.848 54 114.566 50.19 107.582 43.27L104.91 40.626L102.116 46.164C99.6759 50.996 94.7709 54 89.3148 54H87.2963V65.142C87.2963 71.332 89.1291 77.328 92.5949 82.478L94.1492 84.788C97.5887 89.902 99.4074 95.854 99.4074 102C99.4074 115.264 89.331 126.24 76.366 127.808C78.2412 123.126 79.2222 118.09 79.2222 113.056V54ZM74.9611 116.95C74.4928 121.168 73.2736 125.312 71.3601 129.106L69.9007 132H73.1667C73.8489 132 74.515 131.942 75.1852 131.898V140H59.1077C59.8222 130.03 65.8435 121.272 74.9611 116.95ZM143.815 140V128H139.778V140H79.2222V131.396C85.9661 130.034 91.8884 126.434 96.1959 121.428L98.6706 127.558L109.5 116.828L120.329 127.558L127.366 110.13L142.535 116.28C152.494 120.318 159.139 129.49 159.892 140H143.815Z" fill="#006EB7"/>
<path d="M111.48 132.681H107.445V136.705H111.48V132.681Z" fill="#006EB7"/>
<path d="M111.48 124.632H107.445V128.656H111.48V124.632Z" fill="#006EB7"/>
<path d="M135.685 128.656H123.582V132.681H135.685V128.656Z" fill="#006EB7"/>
<defs>
<linearGradient id="paint0_linear" x1="54.5" y1="37" x2="54.5" y2="144" gradientUnits="userSpaceOnUse">
<stop stop-color="#FD8A02"/>
<stop offset="1" stop-color="#FFAF00"/>
</linearGradient>
</defs>
</svg>
