<svg xmlns="http://www.w3.org/2000/svg" width="60" height="48" viewBox="0 0 60 48"><g><g><g/><g><path fill="#fd8a02" d="M52.97 17.186a2.277 2.277 0 0 0 2.276 2.276h.716v8.092a1.446 1.446 0 0 1-1.445 1.445H26.97a1.444 1.444 0 0 1-1.445-1.445V1.445A1.446 1.446 0 0 1 26.97 0h27.548a1.444 1.444 0 0 1 1.445 1.445v8.081h-.717a2.274 2.274 0 0 0-2.274 2.276zm4.755-7.66A2.274 2.274 0 0 1 60 11.802v5.384a2.277 2.277 0 0 1-2.275 2.276h-1.763V9.526zm-7.916 7.819a2.843 2.843 0 0 0 2.789-3.4 2.847 2.847 0 0 0-2.235-2.236 2.842 2.842 0 0 0-3.398 2.79 2.846 2.846 0 0 0 2.843 2.846zM17.483 27.634v6.441h42.096v6.83H17.494v6.714l-8.747-5.008L0 37.604l8.701-5.008 8.804-5.008z"/></g></g></g></svg>