<svg xmlns="http://www.w3.org/2000/svg" width="79" height="111" viewBox="0 0 79 111"><g><g><path fill="#fff" d="M3.8 110.05h74.25v-22.5H31.7c1.35-13.8 44.7-20.25 44.7-53.7C76.4 11.05 57.35 1 39.8 1 20.45 1 8.3 11.95 2 24.1l19.5 13.05c3.15-6 9-11.4 15.9-11.4 5.55 0 11.55 3.15 11.55 10.65 0 15.45-46.35 22.5-46.35 62.1 0 3.6.45 7.35 1.2 11.55z"/><path fill="none" stroke="#fd8a02" stroke-miterlimit="20" stroke-width="2" d="M3.8 110.05v0h74.25v0-22.5 0H31.7c1.35-13.8 44.7-20.25 44.7-53.7C76.4 11.05 57.35 1 39.8 1 20.45 1 8.3 11.95 2 24.1l19.5 13.05c3.15-6 9-11.4 15.9-11.4 5.55 0 11.55 3.15 11.55 10.65 0 15.45-46.35 22.5-46.35 62.1 0 3.6.45 7.35 1.2 11.55z"/></g></g></svg>