<svg xmlns="http://www.w3.org/2000/svg" width="80" height="111" viewBox="0 0 80 111"><g><g><path fill="#fff" d="M2 95.95c9.6 9.75 23.7 14.1 36.6 14.1 26.85 0 39.75-18.3 39.75-36.6 0-15-10.05-27.6-25.95-31.05l21.75-25.05V1H6.5v22.5h25.65c6.75 0 10.2-.75 10.2-.75v.3s-4.2 3.9-9.3 10.05l-14.1 16.95L24.5 62.8H32c11.55 0 19.95 3.45 19.95 11.85 0 5.85-5.55 10.65-15.3 10.65-8.25 0-16.65-4.35-22.05-9.6z"/><path fill="none" stroke="#006eb7" stroke-miterlimit="20" stroke-width="2" d="M2 95.95c9.6 9.75 23.7 14.1 36.6 14.1 26.85 0 39.75-18.3 39.75-36.6 0-15-10.05-27.6-25.95-31.05l21.75-25.05v0V1v0H6.5v22.5h25.65c6.75 0 10.2-.75 10.2-.75v.3s-4.2 3.9-9.3 10.05l-14.1 16.95v0L24.5 62.8v0H32c11.55 0 19.95 3.45 19.95 11.85 0 5.85-5.55 10.65-15.3 10.65-8.25 0-16.65-4.35-22.05-9.6z"/></g></g></svg>