<svg width="150" height="150" viewBox="0 0 150 150" fill="none" xmlns="http://www.w3.org/2000/svg">
<path d="M107.705 36H65.456C64.7402 36 64.1605 36.5836 64.1605 37.3042V62.1428H43.0929C42.3771 62.1428 41.7974 62.7265 41.7974 63.447V83.2155C41.7974 83.9361 42.3804 84.5197 43.0929 84.5197C43.8054 84.5197 44.3884 83.9361 44.3884 83.2155V64.748H74.9745V111.52H65.4527H48.9419V106.196H49.0618H49.065C49.1686 106.196 49.2723 106.183 49.3759 106.157C51.1993 105.707 52.6664 104.8 53.7417 103.47C55.3157 101.514 55.6946 99.2084 54.8882 96.4174C54.0202 93.4014 52.2227 90.6626 49.2205 87.8031L48.4885 87.151C47.9898 86.7141 47.2384 86.7173 46.7526 87.1738C43.5981 90.1246 41.629 92.9319 40.5602 96.0196C39.9643 97.7346 39.8445 99.2508 40.1975 100.646C40.9035 103.46 42.8759 105.361 46.2182 106.186H46.3478V111.52H43.0929C42.3771 111.52 41.7974 112.104 41.7974 112.824C41.7974 113.545 42.3804 114.129 43.0929 114.129H65.4527H76.2732H84.5739H99.3229H107.705C108.42 114.129 109 113.545 109 112.824V37.3009C109.003 36.5836 108.42 36 107.705 36ZM42.7075 100.007C42.484 99.1106 42.5779 98.1161 43.0087 96.8804C43.8345 94.4904 45.3243 92.257 47.6627 89.9159C50.1791 92.3613 51.6883 94.6665 52.4041 97.1445C52.9644 99.1073 52.7571 100.548 51.7304 101.827C51.0471 102.674 50.1305 103.242 48.9452 103.568V97.94C48.9452 97.2195 48.3622 96.6358 47.6497 96.6358C46.9372 96.6358 46.3542 97.2195 46.3542 97.94V103.545C44.343 102.974 43.1706 101.853 42.7075 100.007ZM85.8726 111.523V92.5374H98.0274V111.523H85.8726ZM106.409 111.523H100.622V91.2332C100.622 90.5126 100.039 89.9289 99.3261 89.9289H84.5772C83.8614 89.9289 83.2817 90.5126 83.2817 91.2332V111.523H77.5719V63.447C77.5719 62.7265 76.9889 62.1428 76.2764 62.1428H66.7547V58.3345H85.7139C86.4297 58.3345 87.0094 57.7509 87.0094 57.0303C87.0094 56.3098 86.4265 55.7261 85.7139 55.7261H66.7515V51.8135H88.9494C89.6651 51.8135 90.2449 51.2299 90.2449 50.5093C90.2449 49.7887 89.6619 49.2051 88.9494 49.2051H66.7515V45.2925H95.4268C96.1425 45.2925 96.7222 44.7088 96.7222 43.9883C96.7222 43.2677 96.1393 42.6841 95.4268 42.6841H66.7515V38.6084H106.409V111.523Z" fill="#006EB7"/>
<path d="M49.9492 73.3821H54.2922C55.008 73.3821 55.5877 72.7985 55.5877 72.0779C55.5877 71.3573 55.0047 70.7737 54.2922 70.7737H49.9492C49.2334 70.7737 48.6537 71.3573 48.6537 72.0779C48.6537 72.7985 49.2366 73.3821 49.9492 73.3821Z" fill="#006EB7"/>
<path d="M64.7532 73.3821H69.0963C69.8121 73.3821 70.3918 72.7985 70.3918 72.0779C70.3918 71.3573 69.8088 70.7737 69.0963 70.7737H64.7532C64.0375 70.7737 63.4578 71.3573 63.4578 72.0779C63.4578 72.7985 64.0375 73.3821 64.7532 73.3821Z" fill="#006EB7"/>
<path d="M49.9492 82.0093H54.2922C55.008 82.0093 55.5877 81.4257 55.5877 80.7051C55.5877 79.9845 55.0047 79.4009 54.2922 79.4009H49.9492C49.2334 79.4009 48.6537 79.9845 48.6537 80.7051C48.6537 81.4257 49.2366 82.0093 49.9492 82.0093Z" fill="#006EB7"/>
<path d="M64.7532 82.0093H69.0963C69.8121 82.0093 70.3918 81.4257 70.3918 80.7051C70.3918 79.9845 69.8088 79.4009 69.0963 79.4009H64.7532C64.0375 79.4009 63.4578 79.9845 63.4578 80.7051C63.4578 81.4257 64.0375 82.0093 64.7532 82.0093Z" fill="#006EB7"/>
<path d="M64.7532 90.6365H69.0963C69.8121 90.6365 70.3918 90.0529 70.3918 89.3323C70.3918 88.6117 69.8088 88.0281 69.0963 88.0281H64.7532C64.0375 88.0281 63.4578 88.6117 63.4578 89.3323C63.4578 90.0529 64.0375 90.6365 64.7532 90.6365Z" fill="#006EB7"/>
<path d="M64.7532 100.685H69.0963C69.8121 100.685 70.3918 100.102 70.3918 99.3811C70.3918 98.6605 69.8088 98.0769 69.0963 98.0769H64.7532C64.0375 98.0769 63.4578 98.6605 63.4578 99.3811C63.4578 100.102 64.0375 100.685 64.7532 100.685Z" fill="#006EB7"/>
<path opacity="0.2" d="M107.706 36.8625H65.0126V63.6001H75.7938V112.763L107.706 113.625V36.8625Z" fill="#006EB7"/>
</svg>
