<svg width="180" height="180" viewBox="0 0 180 180" fill="none" xmlns="http://www.w3.org/2000/svg">
<path d="M10.1427 144V121.552H32.8895V76.9566L33.0392 68.7259H32.7399C31.842 70.7212 30.4452 72.6168 28.5496 74.4126L22.1147 80.249L7 64.0867L35.8825 37H58.4797V121.552H81.3762V144H10.1427Z" fill="url(#paint0_linear)"/>
<path d="M67.5 109V50.5L73 47H154L159.5 50.5V109L172 135V141H55L53.5 135L67.5 109Z" fill="white"/>
<path d="M173.798 133.015L161.9 109.241V53.2499C161.9 51.6454 161.262 50.1065 160.128 48.972C158.993 47.8374 157.454 47.2 155.85 47.2H153.833V51.2333H155.85C156.385 51.2333 156.898 51.4457 157.276 51.8239C157.654 52.2021 157.867 52.7151 157.867 53.2499V107.7H69.1333V53.2499C69.1333 52.7151 69.3458 52.2021 69.724 51.8239C70.1022 51.4457 70.6151 51.2333 71.15 51.2333H73.1666V47.2H71.15C69.5454 47.2 68.0066 47.8374 66.872 48.972C65.7374 50.1065 65.1 51.6454 65.1 53.2499V109.241L53.2118 133.015C53.0722 133.295 52.9997 133.604 53 133.917V139.967C53 141.036 53.4249 142.062 54.1813 142.819C54.9377 143.575 55.9636 144 57.0333 144H169.967C171.036 144 172.062 143.575 172.819 142.819C173.575 142.062 174 141.036 174 139.967V133.917C174.003 133.604 173.934 133.296 173.798 133.015ZM158.637 111.733L168.72 131.9H130.88L127.415 124.948C127.247 124.612 126.987 124.329 126.667 124.132C126.346 123.935 125.976 123.831 125.6 123.833H101.4C101.025 123.833 100.658 123.937 100.339 124.134C100.02 124.331 99.7626 124.613 99.595 124.948L96.1203 131.9H58.2796L68.363 111.733H158.637ZM126.37 131.9H100.63L102.646 127.867H124.354L126.37 131.9ZM57.0333 139.967V135.933H169.967V139.967H57.0333Z" fill="#006EB7"/>
<path d="M73.1666 123.833H69.1333V127.867H73.1666V123.833Z" fill="#006EB7"/>
<path d="M81.2333 123.833H77.2V127.867H81.2333V123.833Z" fill="#006EB7"/>
<path d="M149.8 123.833H145.767V127.867H149.8V123.833Z" fill="#006EB7"/>
<path d="M157.867 123.833H153.833V127.867H157.867V123.833Z" fill="#006EB7"/>
<path d="M83.2499 115.767H79.2166V119.8H83.2499V115.767Z" fill="#006EB7"/>
<path d="M75.1832 115.767H71.1499V119.8H75.1832V115.767Z" fill="#006EB7"/>
<path d="M91.3165 115.767H87.2832V119.8H91.3165V115.767Z" fill="#006EB7"/>
<path d="M99.3832 115.767H95.3499V119.8H99.3832V115.767Z" fill="#006EB7"/>
<path d="M107.45 115.767H103.417V119.8H107.45V115.767Z" fill="#006EB7"/>
<path d="M115.516 115.767H111.483V119.8H115.516V115.767Z" fill="#006EB7"/>
<path d="M123.583 115.767H119.55V119.8H123.583V115.767Z" fill="#006EB7"/>
<path d="M131.65 115.767H127.617V119.8H131.65V115.767Z" fill="#006EB7"/>
<path d="M139.717 115.767H135.683V119.8H139.717V115.767Z" fill="#006EB7"/>
<path d="M147.783 115.767H143.75V119.8H147.783V115.767Z" fill="#006EB7"/>
<path d="M155.85 115.767H151.817V119.8H155.85V115.767Z" fill="#006EB7"/>
<path d="M93.3333 123.833H85.2666V127.867H93.3333V123.833Z" fill="#006EB7"/>
<path d="M141.733 123.833H133.667V127.867H141.733V123.833Z" fill="#006EB7"/>
<rect x="79" y="25" width="69" height="15" fill="white"/>
<path d="M83.2499 99.6333H143.75C145.354 99.6332 146.893 98.9958 148.028 97.8612C149.162 96.7267 149.8 95.1878 149.8 93.5833V29.05C149.8 27.4454 149.162 25.9066 148.028 24.772C146.893 23.6374 145.354 23 143.75 23H83.2499C81.6454 23 80.1065 23.6374 78.972 24.772C77.8374 25.9066 77.2 27.4454 77.2 29.05V93.5833C77.2 95.1878 77.8374 96.7267 78.972 97.8612C80.1065 98.9958 81.6454 99.6333 83.2499 99.6333ZM143.75 95.5999H83.2499C82.7151 95.5999 82.2021 95.3875 81.8239 95.0093C81.4457 94.6311 81.2333 94.1181 81.2333 93.5833V43.1666H145.767V93.5833C145.767 94.1181 145.554 94.6311 145.176 95.0093C144.798 95.3875 144.285 95.5999 143.75 95.5999ZM83.2499 27.0333H143.75C144.285 27.0333 144.798 27.2458 145.176 27.624C145.554 28.0022 145.767 28.5151 145.767 29.05V39.1333H81.2333V29.05C81.2333 28.5151 81.4457 28.0022 81.8239 27.624C82.2021 27.2458 82.7151 27.0333 83.2499 27.0333Z" fill="#006EB7"/>
<path d="M89.2999 31.0667H85.2666V35.1H89.2999V31.0667Z" fill="#006EB7"/>
<path d="M97.3666 31.0667H93.3333V35.1H97.3666V31.0667Z" fill="#006EB7"/>
<path d="M105.433 31.0667H101.4V35.1H105.433V31.0667Z" fill="#006EB7"/>
<path d="M81 43H146V93C146 94.6569 144.657 96 143 96H84C82.3431 96 81 94.6569 81 93V43Z" fill="#C5E8FF"/>
<defs>
<linearGradient id="paint0_linear" x1="44.1881" y1="37" x2="44.1881" y2="144" gradientUnits="userSpaceOnUse">
<stop stop-color="#FD8A02"/>
<stop offset="1" stop-color="#FFAF00"/>
</linearGradient>
</defs>
</svg>
