<svg width="80" height="80" viewBox="0 0 80 80" fill="none" xmlns="http://www.w3.org/2000/svg">
<circle cx="48.5" cy="40.5" r="20.5" fill="#C5E8FF"/>
<path d="M40.5002 41.28C39.5622 41.28 38.8252 40.5408 38.8252 39.6V17.5584C38.8252 16.6176 39.5622 15.8784 40.5002 15.8784C41.4382 15.8784 42.1752 16.6176 42.1752 17.5584V39.6C42.1752 40.4736 41.4382 41.28 40.5002 41.28Z" fill="#006EB7"/>
<path d="M62.476 41.2802C63.4011 41.2802 64.151 40.528 64.151 39.6002C64.151 38.6723 63.4011 37.9202 62.476 37.9202C61.5509 37.9202 60.801 38.6723 60.801 39.6002C60.801 40.528 61.5509 41.2802 62.476 41.2802Z" fill="#006EB7"/>
<path d="M59.528 52.3009C60.4531 52.3009 61.203 51.5488 61.203 50.6209C61.203 49.6931 60.4531 48.9409 59.528 48.9409C58.603 48.9409 57.853 49.6931 57.853 50.6209C57.853 51.5488 58.603 52.3009 59.528 52.3009Z" fill="#006EB7"/>
<path d="M51.4882 60.3649C52.4133 60.3649 53.1632 59.6127 53.1632 58.6849C53.1632 57.757 52.4133 57.0049 51.4882 57.0049C50.5632 57.0049 49.8132 57.757 49.8132 58.6849C49.8132 59.6127 50.5632 60.3649 51.4882 60.3649Z" fill="#006EB7"/>
<path d="M40.5002 63.3217C41.4253 63.3217 42.1752 62.5695 42.1752 61.6417C42.1752 60.7138 41.4253 59.9617 40.5002 59.9617C39.5751 59.9617 38.8252 60.7138 38.8252 61.6417C38.8252 62.5695 39.5751 63.3217 40.5002 63.3217Z" fill="#006EB7"/>
<path d="M29.5122 60.3649C30.4372 60.3649 31.1872 59.6127 31.1872 58.6849C31.1872 57.757 30.4372 57.0049 29.5122 57.0049C28.5871 57.0049 27.8372 57.757 27.8372 58.6849C27.8372 59.6127 28.5871 60.3649 29.5122 60.3649Z" fill="#006EB7"/>
<path d="M21.4721 52.3009C22.3972 52.3009 23.1471 51.5488 23.1471 50.6209C23.1471 49.6931 22.3972 48.9409 21.4721 48.9409C20.547 48.9409 19.7971 49.6931 19.7971 50.6209C19.7971 51.5488 20.547 52.3009 21.4721 52.3009Z" fill="#006EB7"/>
<path d="M18.5241 41.2802C19.4492 41.2802 20.1991 40.528 20.1991 39.6002C20.1991 38.6723 19.4492 37.9202 18.5241 37.9202C17.599 37.9202 16.8491 38.6723 16.8491 39.6002C16.8491 40.528 17.599 41.2802 18.5241 41.2802Z" fill="#006EB7"/>
<path d="M21.4721 30.2594C22.3972 30.2594 23.1471 29.5073 23.1471 28.5794C23.1471 27.6516 22.3972 26.8994 21.4721 26.8994C20.547 26.8994 19.7971 27.6516 19.7971 28.5794C19.7971 29.5073 20.547 30.2594 21.4721 30.2594Z" fill="#006EB7"/>
<path d="M29.5122 22.1952C30.4372 22.1952 31.1872 21.443 31.1872 20.5152C31.1872 19.5874 30.4372 18.8352 29.5122 18.8352C28.5871 18.8352 27.8372 19.5874 27.8372 20.5152C27.8372 21.443 28.5871 22.1952 29.5122 22.1952Z" fill="#006EB7"/>
<path d="M40.5002 19.2384C41.4253 19.2384 42.1752 18.4863 42.1752 17.5584C42.1752 16.6306 41.4253 15.8784 40.5002 15.8784C39.5751 15.8784 38.8252 16.6306 38.8252 17.5584C38.8252 18.4863 39.5751 19.2384 40.5002 19.2384Z" fill="#006EB7"/>
<path d="M51.4882 22.1952C52.4133 22.1952 53.1632 21.443 53.1632 20.5152C53.1632 19.5874 52.4133 18.8352 51.4882 18.8352C50.5632 18.8352 49.8132 19.5874 49.8132 20.5152C49.8132 21.443 50.5632 22.1952 51.4882 22.1952Z" fill="#006EB7"/>
<path d="M59.5952 30.2594C60.5202 30.2594 61.2702 29.5073 61.2702 28.5794C61.2702 27.6516 60.5202 26.8994 59.5952 26.8994C58.6701 26.8994 57.9202 27.6516 57.9202 28.5794C57.9202 29.5073 58.6701 30.2594 59.5952 30.2594Z" fill="#006EB7"/>
<path d="M40.5001 12.7201C55.3071 12.7201 67.3001 24.7489 67.3001 39.6001C67.3001 54.4513 55.3071 66.4801 40.5001 66.4801C25.6931 66.4801 13.7001 54.4513 13.7001 39.6001C13.7001 24.7489 25.6931 12.7201 40.5001 12.7201ZM40.5001 9.36011C23.8171 9.36011 10.3501 22.8673 10.3501 39.6001C10.3501 56.3329 23.8171 69.8401 40.5001 69.8401C57.1831 69.8401 70.6501 56.3329 70.6501 39.6001C70.6501 22.8673 57.1831 9.36011 40.5001 9.36011Z" fill="#006EB7"/>
<path d="M33.398 53.5778C33.13 53.5778 32.795 53.5106 32.594 53.3762C31.79 52.9058 31.522 51.8978 31.991 51.0914L39.093 38.7938C39.562 37.9874 40.567 37.7186 41.371 38.189C42.175 38.6594 42.443 39.6674 41.974 40.4738L34.872 52.7714C34.537 53.309 34.001 53.5778 33.398 53.5778Z" fill="#006EB7"/>
</svg>
