<svg width="150" height="150" viewBox="0 0 150 150" fill="none" xmlns="http://www.w3.org/2000/svg">
<path d="M101.404 49.168C101.403 48.9373 101.566 48.562 101.642 48.3491C101.77 48.4125 102.096 48.5994 102.2 48.6757C102.184 48.9747 102.35 49.1664 102.383 49.4248C103.06 49.2217 102.989 48.4612 103.578 48.3491C104.033 48.263 104.989 48.9081 105.224 49.1713C104.922 49.4394 104.517 50.0682 105.07 50.2616C105.478 50.4046 106.153 49.5596 106.429 49.3289C107.086 48.7765 108.157 48.0372 109.278 47.8081C110.789 47.4993 111.487 48.3946 112.407 49.3257C112.991 49.9171 112.562 50.1186 113.506 50.4224C114.103 50.6142 114.656 50.5362 115.147 50.0861C115.258 50.1576 115.263 50.2664 115.364 50.3363C116.732 48.8626 119.079 49.5873 120.29 47.9738C120.114 47.938 119.935 47.8406 119.764 47.7837C119.587 47.0379 119.801 46.3473 120.68 46.6122C120.599 47.1662 120.76 47.6846 121.189 48.0518C121.137 48.1801 121.063 48.3085 121.023 48.4417C121.358 48.1704 121.818 48.0648 122.177 47.9657C122.136 49.129 123.054 51.3973 123.586 49.5986C123.906 48.5165 123.183 46.5651 121.817 46.5894C123.767 46.5098 127.224 43.4519 128.997 45.1986C129.054 45.0215 129.333 44.7566 129.387 44.5665C130.259 45.3123 131.477 45.4195 132.549 45.5382C132.904 45.5771 133.816 45.4634 134.013 45.5024C134.653 45.6243 135.111 46.0516 135.763 46.0744C135.794 46.1978 135.745 46.3262 135.804 46.4416C136.381 46.4708 137.753 46.2043 138.239 46.5114C138.87 46.9111 138.889 48.1509 139.548 48.6367C139.434 48.6107 139.307 48.6254 139.188 48.6059C139.232 48.5799 139.646 48.1818 139.718 48.0859C139.175 46.7584 138.214 45.9996 139.832 45.2116C140.949 44.6689 141.551 45.4683 142.842 45.6243C142.674 45.8745 142.634 46.4416 142.452 46.6902C144.643 48.5214 142.273 48.1103 141.772 49.2802C141.942 49.3452 142.113 49.2818 142.289 49.3127C142.386 49.5093 142.286 49.6799 142.431 49.87C142.575 49.883 142.687 49.8001 142.829 49.8586C142.935 50.0861 143.067 50.6694 143.111 50.931C142.986 51.0041 142.831 51.126 142.699 51.2088C143.912 50.9001 144.204 51.9872 144.603 52.7963C144.131 53.0563 143.716 52.9913 143.392 52.564C142.663 53.2838 142.169 53.4333 141.231 53.6152C141.386 52.5997 140.424 52.408 139.608 52.5737C139.675 53.118 139.168 54.3952 138.521 53.7517C138.118 53.3536 138.628 52.1643 138.098 51.6069C137.454 52.135 136.96 53.3959 138.206 53.3764C138.11 53.6705 138.258 54.1157 138.105 54.439C139.506 54.4602 139.334 56.8893 138.632 57.5863C138.558 57.4791 138.548 57.3654 138.473 57.2273C138.423 57.328 138.199 57.614 138.1 57.7212C137.607 57.3507 136.983 57.0095 136.34 57.1753C136.29 57.4889 136.347 58.0332 136.486 58.3273C136.879 58.3127 137.172 58.441 137.547 58.2265C137.937 58.5921 138.322 58.9935 138.772 59.2957C138.984 59.4387 139.39 59.3249 139.613 59.4419C139.884 59.5833 139.961 60.0025 140.261 60.1357C140.616 60.295 141.034 60.1715 141.353 60.3746C141.688 60.5874 141.691 60.8896 141.924 61.0879C142.42 61.5087 142.878 61.9994 143.376 62.4284C143.193 63.9102 140.843 64.2628 139.997 65.4067C139.303 66.341 139.224 67.5109 138.765 68.5345C138.247 69.693 138.4 69.8766 138.345 71.053C137.842 71.0157 137.281 70.6338 136.874 70.6988C136.159 70.8126 135.872 71.5291 135.354 71.5486C135.222 71.8395 134.855 72.0588 134.687 72.3188C134.564 72.244 134.551 72.1872 134.432 72.0653C133.831 72.426 133.217 72.6925 132.555 72.9931C133.377 73.5732 131.773 79.0749 134.679 78.0333C134.447 78.7012 134.873 79.4128 134.961 80.1375C135.018 79.9409 135.186 79.7118 135.233 79.5526C135.404 80.0676 136.409 80.7988 136.309 81.1644C136.13 81.8225 135.496 81.0247 135.399 80.8638C135.093 82.4968 136.83 83.3466 136.578 84.6237C134.08 84.3182 137.508 87.9725 135.396 88.1837C135.256 89.0676 136.101 91.9274 134.31 91.6706C134.193 89.2935 133.503 88.8337 131.673 87.1016C130.654 86.1364 129.582 83.951 128.469 83.267C128.395 81.9281 129.325 80.8362 129.24 79.6582C128.751 79.4421 128.863 79.3755 128.57 79.005C129.987 79.2845 129.944 77.567 130.336 76.6685C130.354 76.7513 130.046 76.5206 130.057 76.5304C130.199 76.3825 130.293 76.233 130.474 76.0852C130.406 76.0218 130.179 75.7781 130.091 75.679C130.466 74.9624 130.23 73.9745 130.463 73.1296C130.66 72.4114 131.068 71.8931 131.169 71.2383C131.375 69.9075 129.736 68.4955 130.201 66.6887C128.604 66.2922 129.721 67.8911 129.814 68.5329C129.953 69.4834 129.472 70.8304 128.992 71.6169C128.862 71.56 128.759 71.5129 128.606 71.4186C128.596 71.9808 128.196 72.2928 127.65 72.309C128.041 71.287 127.068 70.5899 127.619 69.7418C126.301 68.7636 123.284 71.9532 125.184 72.3497C123.689 73.4285 123.407 76.3354 125.952 75.7228C125.918 76.7026 124.646 76.7562 123.979 77.0698C123.306 77.3867 122.343 78.5468 121.774 77.4663C122.12 77.3379 122.389 76.9935 122.59 76.8196C122.479 76.7189 122.099 76.4719 121.957 76.4004C121.497 76.5921 121.009 76.5141 120.568 76.2525L118.801 78.1487C118.963 78.0138 119.11 77.8579 119.248 77.7003C117.787 78.6914 115.22 78.5354 113.521 78.9823C113.536 79.2146 113.389 79.3982 113.381 79.6127C113.469 79.6143 113.55 79.6419 113.624 79.6923C112.768 80.8297 112.751 83.1288 112.383 84.4076C111.941 85.9382 110.778 87.4834 110.944 89.2382C112.303 88.109 112.092 88.7004 112.715 89.9126C112.994 89.729 113.474 89.6932 113.748 89.5405C113.712 89.9792 113.947 90.127 114.041 90.4601C114.346 90.348 114.576 90.2034 114.739 89.9256C114.573 89.8199 114.312 89.4738 114.191 89.4105C116.349 89.0693 117.903 90.6226 118.664 92.4944C118.891 93.0501 118.958 93.7114 119.046 94.2866C119.132 94.8537 119.292 95.3899 119.354 95.8741C119.525 97.2016 119.768 98.0693 120.134 99.2993C120.52 100.607 120.044 101.085 119.636 102.193C119.203 103.374 118.85 104.552 118.296 105.791C117.663 107.206 117.603 108.444 116.085 109.299C114.591 110.139 115.122 109.354 114.762 108.114C114.586 109.035 114.038 109.89 112.971 109.95C113.278 109.266 113.195 108.801 113.2 108.106C113.205 107.383 113.249 106.809 113.529 105.916C115.116 106.681 115.46 101.962 114.884 101.415C115.39 98.9954 112.373 101.608 111.882 101.852C111.929 101.683 111.902 101.433 111.957 101.238C111.179 101.624 111.024 100.806 110.119 101.018C110.109 100.52 110.449 100.055 110.776 99.6974C109.335 98.7679 107.551 99.426 106.041 99.53C105.705 98.4251 104.606 96.446 104.765 95.2502C104.575 95.281 104.345 95.2095 104.169 95.2274C104.102 93.6269 103.833 92.7284 102.205 92.8032C100.149 92.8974 98.4853 93.2727 97.6291 95.2404C97.8248 94.9171 98.151 94.7075 98.394 94.4312C98.8392 95.6807 98.0955 95.9586 97.7319 97.0001C97.4432 97.8223 97.7938 98.7598 97.3291 99.6681C96.5006 99.5479 95.6869 99.5056 94.7475 99.4065C93.1249 99.2375 93.6647 100.068 92.7123 100.869C91.8692 101.577 86.791 102.235 86.8465 100.507C86.0653 100.404 84.7917 101.767 84.5699 100.398C83.735 100.687 82.8706 101.195 82.0275 100.625C82.0797 100.611 82.1042 100.575 82.1042 100.52C81.628 100.51 81.341 100.328 80.9072 100.198C80.93 99.9703 80.8208 99.647 80.8664 99.4228C80.3821 99.1807 80.1277 99.2164 79.7053 99.1612C79.4493 99.1287 79.2617 99.6405 78.8133 99.4959C78.4969 99.3935 78.4333 98.7452 78.2751 98.6883C77.6098 98.4511 77.4255 98.2122 77.2151 99.2765C77.114 99.7835 77.1499 100.186 77.5233 100.404C77.3815 100.547 77.2706 100.737 77.1189 100.877C77.3652 100.888 77.5755 101.022 77.7207 101.049C77.3016 102.169 76.0018 101.659 75.206 101.543C74.0433 101.374 73.3877 101.361 73.5377 99.9622C72.7436 99.9265 71.9265 99.9362 71.1307 99.9525C70.9204 100.697 70.0495 101.975 69.5048 102.429C68.7367 103.067 67.4762 102.705 66.6461 103.188C66.5858 103.014 66.3933 102.768 66.3526 102.653C66.1944 102.921 65.9171 103.111 65.7932 103.426C66.2727 101.631 63.5509 101.66 62.6703 101.434C62.2512 101.519 61.2124 100.895 60.9009 101.803C61.744 99.9784 57.4828 97.4502 56.0216 97.4876C56.2565 97.1983 56.1488 96.9904 56.2711 96.745C55.2829 96.6329 54.9453 97.1496 54.2441 97.6306C54.1674 97.5022 54.0337 97.3852 53.9522 97.2422C53.838 97.3885 53.2999 97.6208 53.1922 97.767C53.1596 97.6712 53.1042 97.5899 53.0292 97.5217C52.4388 97.5412 51.8909 96.8344 51.5435 96.8165C50.5634 96.7678 50.1394 97.7638 49.2605 97.8743C49.9878 96.9676 49.1805 95.7409 48.4271 95.2209C47.9917 95.3395 45.8685 96.3794 45.1199 95.9358C44.952 96.1454 44.6323 96.2657 44.4644 96.5549C44.3926 96.4428 44.2605 96.4087 44.1741 96.1861C43.4468 97.0245 43.2706 97.2162 42.2987 97.6338C41.6643 97.9068 40.9011 97.8028 40.9125 98.5697C40.8033 98.6022 40.6369 98.534 40.5456 98.6022C40.5815 98.9402 40.8424 99.4878 40.8016 99.7981C40.7168 100.468 40.2146 100.978 40.1298 101.691C40.438 101.909 40.5081 102.378 40.4021 102.859C41.1327 102.594 41.9464 103.222 41.0414 103.603C40.5733 103.8 39.5998 103.3 39.166 103.196C38.7436 103.095 37.8434 102.807 37.4374 102.921C36.7378 103.116 36.8258 103.943 35.9322 103.855C35.9044 103.654 35.668 103.34 35.6468 103.176C35.4462 103.249 35.1282 103.184 34.9733 103.231C34.9798 102.976 34.7613 102.681 34.7613 102.451C33.8448 102.677 32.9527 102.411 32.3803 101.689C31.8764 102.076 31.397 102.027 30.8686 102.352C30.3631 102.663 30.6713 103.175 29.8086 103.222C29.8657 104.006 29.6341 104.731 29.1318 105.35C29.1074 104.991 28.8334 104.564 28.8155 104.177C28.654 104.154 28.0621 104.229 27.899 104.297C27.8778 104.955 27.6332 106.709 28.0148 107.246C28.4176 107.813 29.4368 107.207 29.2688 108.468C29.626 108.286 30.1087 108.351 30.4577 108.223C30.5131 108.64 30.6452 109.318 30.487 109.684C30.1005 110.581 29.8184 110.137 29.383 110.481C28.6671 111.047 28.5138 111.211 28.2072 112.503C28.5105 112.638 28.5252 112.795 28.7258 112.925C28.9378 112.987 30.6958 115.14 30.7072 115.416C30.7561 116.729 29.2688 115.502 28.6687 115.921C28.822 116.006 29.0128 116.22 29.202 116.315C28.6964 116.15 28.049 116.157 27.4799 116.199C26.8749 116.245 25.8132 116.739 25.3338 116.578C25.0011 116.467 24.6293 115.622 24.4809 115.382C24.3472 115.169 24.5706 114.784 24.3945 114.524C24.2754 114.349 24.0471 114.516 23.9199 114.342C22.8387 112.87 21.7983 113.323 20.5621 112.266C19.6652 111.497 19.4614 110.709 20.6437 109.859C20.5263 109.799 20.4105 109.77 20.2947 109.71C20.5507 108.718 22.0217 108.171 22.3054 106.998C22.1391 106.998 21.9565 106.969 21.795 106.97C22.4277 105.415 21.1818 105.215 20.0028 104.689C19.0113 104.245 18.2823 103.651 17.2876 103.189C16.7168 102.923 15.8019 102.895 15.2719 102.533C15.1154 102.425 15.0567 101.772 14.7338 101.701C14.3098 101.608 13.938 102.149 13.6379 102.126C13.4145 102.109 12.0642 102.159 12.6937 101.052C12.86 100.76 13.8972 100.715 14.1842 100.49C13.6819 99.8712 13.1014 99.2895 12.8845 98.4771C11.9973 98.4105 11.3434 97.7329 11.314 96.8246C11.1771 96.9189 10.8819 97.0034 10.7563 97.096C10.4334 96.7596 10.1953 96.6654 9.82189 96.4412C8.10469 97.6988 8.67709 94.4702 8.59229 93.9584C8.48792 93.3312 8.22536 93.1655 8.31505 92.3596C8.36072 91.8981 8.75699 91.682 8.58576 91.1426L8.45041 89.3829C8.65752 88.291 10.2035 87.0675 9.80884 85.6262C9.74198 85.3825 9.23644 85.2671 9.15653 85.0234C9.03423 84.6513 9.47779 84.3426 9.40767 84.1103C9.19241 83.3953 9.02607 82.9355 8.86462 82.3359C8.69013 81.6892 8.68687 80.8004 8.42269 80.1911C8.20579 79.6891 7.52902 79.4372 7.3529 78.966C7.02838 78.0967 7.43281 78.3291 7.50293 77.736C7.63828 76.5824 7.74428 77.0048 6.92564 76.012C6.40379 75.38 5.87705 75.0826 6.02545 74.1045C6.77398 74.2491 7.30561 73.8136 7.25179 73.011C8.16013 72.9785 9.51856 71.6997 10.0714 72.5674C9.8594 72.6064 9.64576 72.7104 9.42072 72.7494C9.61152 73.3863 10.6454 73.4919 11.3059 73.5488C12.5534 73.6577 12.8682 73.5797 14.0537 74.2491C14.768 74.6537 15.4709 75.2825 16.2015 75.614C17.0886 76.0169 17.811 75.7537 18.1029 76.9285C18.5628 78.7775 16.42 79.6566 14.9735 79.3966C13.4716 79.1252 11.9957 78.1438 10.5296 78.0333C10.9112 78.5029 11.3597 78.8181 11.7413 79.2016C12.2892 79.7492 12.2305 79.512 12.6219 80.3211C12.9448 80.9889 13.2481 83.1841 14.0293 82.9014C14.3212 83.6699 14.9409 83.4668 15.5247 83.821C15.7807 83.8032 16.4591 83.6017 16.3515 83.1841C16.1982 82.5813 15.4056 83.0379 14.9637 82.8884C13.832 82.5114 13.6982 81.9297 14.3179 80.8589C15.4888 81.4536 16.345 81.3367 17.5289 81.6275C17.7181 81.0361 17.4425 80.5876 16.8978 80.4219C17.0658 79.5022 18.5498 78.4769 19.4663 78.4087C19.9245 78.3746 19.8903 79.3397 20.5181 78.797C20.7562 78.5923 20.4219 77.7263 20.3893 77.3558C20.2017 77.3834 19.9425 77.2908 19.7517 77.3184C19.7223 75.5863 19.0993 75.4872 18.1421 74.2117C19.1271 74.371 19.7223 73.9615 20.5165 74.1272C21.508 74.3336 21.5096 74.665 21.9972 75.4645C21.7412 75.8772 21.2829 76.272 20.9356 76.5157C21.252 76.8163 21.7069 77.1819 22.0429 77.4598C22.8632 76.0299 24.7565 73.7015 26.6384 73.6999C26.6498 73.7698 26.6678 73.8396 26.6922 73.9079C26.7265 73.656 27.0314 73.2644 27.0673 73.0142C27.2809 73.0077 27.8876 73.089 28.1436 73.1491C27.9822 73.4399 28.0262 73.8104 27.7979 74.0964C28.5203 74.0509 28.6671 73.4903 29.1433 73.3018C29.6243 73.1101 30.0516 73.1864 30.4609 73.037C31.3921 72.699 31.2388 72.2587 32.0787 72.7331C32.5516 73.0012 31.671 73.7649 32.7571 73.6593C32.6902 73.4724 32.7342 73.0808 32.6592 72.8875C32.8223 72.8875 33.0017 72.8582 33.1647 72.8469C33.3197 71.4462 31.8373 71.1538 31.5323 70.044C31.0692 70.0326 30.8654 69.7775 30.4854 69.5907C30.8784 68.3379 31.7558 69.2722 32.2727 69.8669C32.2743 69.8669 32.5793 69.7743 32.6119 69.7694C32.6804 69.9546 32.8076 70.1171 32.9071 70.2796C33.3278 70.0391 34.7075 69.7012 35.1967 69.7824C35.9207 69.9043 35.9044 70.5445 36.6954 70.4486C37.3591 71.5714 39.7319 71.9061 40.2211 73.0093C40.3483 71.3536 40.1086 72.0052 39.4008 71.2496C38.9344 70.7524 38.9931 70.226 38.2381 70.174C37.925 69.2121 37.7651 67.2249 36.6024 67.0234C36.5486 66.8122 36.5225 66.6026 36.4671 66.393C37.2939 65.6033 37.7961 64.1702 36.9008 63.2814C37.121 62.8232 37.2172 62.4446 37.2824 61.9182C37.863 61.6907 38.0995 62.0335 38.6148 62.0709C38.6767 62.0758 40.2684 62.1164 40.12 62.0238C40.6581 62.3569 40.7201 64.89 40.4331 65.3953C40.451 65.4766 40.6141 65.9689 40.6793 66.2094C41.9464 66.146 41.6529 67.4215 42.0149 68.1186C42.5009 69.0528 42.8727 69.563 43.1288 70.6777C43.6245 71.1521 44.391 72.1888 44.0713 72.9703C44.5361 73.2953 43.892 74.9868 43.6245 75.5522C42.8499 75.5717 42.165 75.5636 41.4849 75.8723C42.0736 75.8804 42.8156 76.0608 43.512 76.1128C43.6115 76.1209 44.6307 76.2444 44.6046 76.2623C45.1607 75.8366 44.422 75.7407 44.5916 75.302C44.9748 74.3206 45.6956 72.5398 44.4562 71.8622C44.3893 71.6201 44.4171 71.0839 44.4839 70.8532C45.9875 70.4957 47.2562 70.265 47.2024 72.4406C48.0455 72.4325 49.068 72.998 49.2099 71.7663C48.3081 71.495 48.0357 70.6858 47.3247 70.2504C46.6349 69.8263 45.8929 69.9823 45.1444 69.8815C44.0452 69.7337 44.2148 70.1236 43.6767 68.931C43.4027 68.3249 43.2087 67.5158 43.5006 66.8967C42.3085 66.367 41.3088 65.7869 41.5257 64.3051C41.6757 64.219 41.8453 64.0012 42.0052 63.8907C41.5763 63.2132 41.4018 62.4186 40.9468 61.7898C41.5436 61.8126 42.2384 63.8404 42.9412 64.4984C43.8153 65.3173 44.9422 65.5416 46.0788 66.0209C45.8424 64.5748 43.0325 64.8218 42.9885 63.4114C43.3326 63.374 44.7497 64.0776 44.74 64.0841C45.4526 63.7088 44.634 62.8931 44.2344 62.5454C45.0987 61.5347 45.5782 62.131 46.3675 62.599C47.1144 63.0426 47.8873 62.9093 48.5445 63.2489C49.5132 63.751 48.8691 64.0857 49.0762 64.8478C49.3713 65.9348 50.6825 66.367 51.4114 67.1372C51.3218 66.4564 50.508 64.8478 50.177 64.2271C49.7171 63.3643 49.0305 62.9841 48.1352 62.4722C46.6659 61.6306 45.6581 60.4948 45.3026 58.8034C46.5354 58.8911 48.432 58.1323 49.342 57.3053C49.1333 57.5782 49.0925 58.0771 48.9718 58.3533C49.9813 58.9301 50.8358 56.6423 48.9751 56.332C49.0599 54.8712 48.7435 54.3578 49.3828 52.8418C49.5426 52.8597 49.7481 52.8142 49.9128 52.8191C49.8965 52.6192 50.1003 52.2796 50.0595 52.0278C50.6303 52.057 51.1228 51.9287 51.3902 51.4851C51.475 51.4867 51.7213 51.5679 51.7816 51.5549C51.9838 51.3957 52.3654 50.9083 52.4829 50.6905C52.2872 50.6288 52.1322 50.4679 51.9724 50.4029C52.2121 49.9642 52.385 49.7367 52.8726 49.6929C52.9313 49.5694 52.8628 49.4524 52.9134 49.3257C53.0569 49.3175 53.2852 49.35 53.4157 49.3257C53.3325 49.636 53.4499 50.0406 53.3178 50.3331C54.1495 50.1267 54.4414 49.4443 55.5895 49.5954C55.6025 49.7839 55.658 50.0503 55.6335 50.2339C56.3298 49.8911 56.2532 48.1054 55.1035 48.224C55.883 48.1184 56.6642 47.8227 57.3784 47.5806C56.9316 47.2914 56.5386 46.9176 56.0412 46.708C55.8488 45.8907 56.2238 44.6087 55.8651 44.027C56.3233 43.3739 57.3246 42.8068 58.1726 42.9612C57.9525 43.3917 58.259 43.9539 58.2069 44.1522C58.0715 44.6559 57.703 44.7826 57.5529 45.2246C58.3031 45.3091 58.6276 44.7712 59.2848 44.69C59.6746 44.6429 60.2535 44.8817 60.7248 44.8492C60.8063 45.4732 60.4117 45.9444 60.3448 46.5732C60.2551 46.7113 60.1948 46.6642 60.1149 46.8461C61.3037 46.6609 61.3037 45.0231 62.2332 44.5242C62.8562 44.1895 64.0303 44.2074 63.8102 45.0881C64.562 44.7322 66.1797 46.8413 66.0965 44.872C66.8092 45.1677 66.7847 45.8647 66.9755 46.5001C66.4292 46.5959 66.2188 46.8185 66.0867 47.2442C66.7293 47.423 67.0734 47.605 67.6963 47.7008C67.6344 47.9803 67.3375 48.4596 67.3278 48.757C67.3131 49.2623 67.331 49.8066 67.3082 50.2486C67.2691 50.97 67.3783 51.8409 66.5075 52.1691C66.6282 52.369 66.5287 52.5867 66.7766 52.8142C65.9057 53.8265 65.7899 55.2027 65.5241 56.4392C66.4047 54.712 67.8137 54.1872 68.6405 52.5672C68.0795 52.7264 67.6588 53.1912 67.4256 53.7339C67.4109 52.694 67.2267 51.9465 68.3861 51.8718C69.3059 51.8133 69.394 52.8434 70.043 52.2991C70.211 52.5997 70.423 52.3999 70.4458 52.9344C70.8747 52.9019 71.2155 52.7053 71.465 52.3089C71.3264 52.2162 71.2057 52.0911 71.09 52.0066C72.3505 50.944 73.4888 51.8945 74.8945 51.4834C74.588 51.8409 74.2015 52.3121 74.6401 52.6972C75.1897 52.1903 75.6153 52.7573 76.2709 52.6842C77.0162 52.6013 78.2865 51.8799 78.9584 51.6183C79.0253 51.6979 79.0432 51.8035 79.1003 51.862C78.903 51.0659 77.7125 50.5475 78.2017 49.7237C79.0807 49.9805 79.7983 49.5483 80.736 49.8602C80.7653 49.9886 80.7311 50.1056 80.7751 50.2291C81.1812 49.9122 82.7304 49.389 82.4434 50.5069C82.5445 50.4484 82.5983 50.3477 82.6847 50.2664C83.3468 50.6385 84.4558 51.5728 85.219 51.4769C85.2222 51.6541 85.2336 51.8149 85.219 51.9936C84.914 52.0099 84.6009 52.2439 84.4036 52.2764C84.8292 52.4665 85.0901 52.8434 85.0836 53.339C84.8113 53.3 84.4411 53.4349 84.1736 53.3796C84.1785 53.4056 84.1785 53.7192 84.1736 53.7436C84.7509 53.872 85.4815 54.1401 85.7783 54.5219C86.1893 54.6145 86.5921 54.2489 87.0079 54.2977C87.5477 54.361 87.6651 54.9037 88.3402 54.8729C88.4821 55.1556 88.6713 55.2433 88.7675 55.4822C89.0757 54.6958 88.2995 53.3634 88.0451 52.551C88.774 53.8265 89.6807 52.5688 90.5092 52.382C91.3653 52.1886 92.7711 52.5461 93.756 52.6696C93.6615 52.0294 93.1983 51.8442 92.5949 51.9823C92.8363 51.2186 93.8376 51.4185 94.4491 51.7223C94.6872 51.4688 94.7475 51.2657 94.7296 50.9473C94.2746 50.6857 93.8327 50.3623 93.2733 50.3623C93.4201 50.2226 93.3386 50.1088 93.6435 49.9528C93.6435 49.9561 93.6631 49.5645 93.6435 49.5889C93.4054 49.6084 93.2179 49.4784 93.0157 49.4508C92.957 49.5564 92.9162 49.7075 92.8428 49.8001C92.7923 49.4426 92.7825 48.9259 92.7645 48.6124C93.0825 48.7017 93.4723 48.5425 93.7805 48.601C93.7935 48.4271 93.7952 48.276 93.7805 48.1005C93.3826 48.0372 93.2342 47.7934 92.8852 47.6488C93.8947 46.851 96.4436 47.3222 97.5949 47.3937C97.3992 47.5058 97.0404 47.9543 96.6784 48.0534C96.9034 48.1476 97.2165 48.2858 97.4318 48.3313C97.5737 48.2354 97.7123 48.1688 97.8542 48.094C98.0988 48.6367 98.2798 49.1875 97.9276 49.6912C98.9615 48.6091 99.5306 48.7976 98.8799 47.2621C99.0821 47.1191 99.511 47.0086 99.7573 47.0184C100.088 48.4076 101.297 47.925 102.063 47.1776C102.058 47.8519 101.633 48.8382 100.868 48.8935" stroke="#006EB7" stroke-width="2" stroke-miterlimit="10" stroke-linecap="round" stroke-linejoin="round"/>
<path d="M29.1057 67.9887C28.4273 67.6053 25.5718 63.6601 27.3232 62.8217C27.09 61.1985 28.4778 60.0546 28.3099 58.5874C28.468 58.4883 28.5268 58.576 28.6752 58.5013C28.7273 57.905 28.8252 57.7295 29.3845 57.697C29.3976 57.385 29.6928 56.9512 29.6781 56.6132C30.2978 56.662 30.5554 56.1534 30.6321 55.5376C31.3464 55.6334 33.574 53.2855 33.4386 52.426C33.3212 51.6932 32.2955 50.8905 31.5502 51.2252C30.6957 51.6103 31.2077 52.9638 30.2211 53.1052C30.1461 53.2693 30.1363 53.474 30.032 53.6219C29.3258 53.8656 28.6621 53.9988 27.9071 54.2279C27.7163 55.1281 26.746 55.4596 26.5013 56.3224C25.6957 56.3191 25.8914 57.151 25.1869 57.3103C25.3419 57.5134 25.3304 57.7652 25.4576 57.8253C25.3794 57.8692 25.1364 57.9748 25.0483 57.9943C25.1103 58.6101 24.758 59.4356 25.6794 59.4859C25.5963 59.5135 25.3288 59.7199 25.1739 59.7605C26.1556 60.2366 25.8392 60.9808 24.9048 61.3886C24.9456 61.478 25.0956 61.647 25.156 61.7266C24.6537 62.1539 24.414 62.7567 24.7401 63.3807C24.259 63.6764 23.8383 64.0241 23.8269 64.5798C24.2346 64.6513 24.4482 64.9373 24.7776 65.1306C24.4841 65.9577 23.6328 65.9024 23.8024 66.8822C23.9215 67.5663 24.4922 67.7694 25.1331 67.8457C25.1266 67.5906 25.3125 67.3112 25.2978 67.0674C26.2779 67.8051 25.7952 68.4258 27.0672 68.7605C27.7554 68.9409 27.6249 69.0319 28.2903 68.8271C28.9377 68.6257 28.729 68.2308 28.835 68.2552" stroke="#006EB7" stroke-width="2" stroke-miterlimit="10" stroke-linecap="round" stroke-linejoin="round"/>
<path d="M83.4659 38.3352C83.4822 38.3303 83.0974 38.5871 82.9294 38.86C83.9063 39.3605 84.5634 40.8212 84.053 41.8351C85.3772 41.9586 86.4046 42.9855 87.6668 42.6849C87.5021 42.5484 87.4418 42.3746 87.1759 42.2283C88.3207 42.2186 88.4316 41.1722 89.3971 40.9008C89.0089 40.9122 88.0647 40.7286 87.7777 40.4995C87.1287 39.9828 87.52 39.7049 87.1759 38.873C87.0439 38.5562 86.2627 37.6593 85.9382 37.8218C85.2614 38.1597 85.979 39.1817 86.0262 39.6692C84.9972 39.4807 84.0889 38.5481 83.0843 38.3531C82.9474 38.5221 82.9474 38.678 82.9213 38.8763" stroke="#006EB7" stroke-width="2" stroke-miterlimit="10" stroke-linecap="round" stroke-linejoin="round"/>
<path d="M90.9397 44.1587C90.5679 44.5194 90.1341 44.8444 89.8634 45.223C90.519 45.2636 90.5402 45.8794 90.3412 46.4497C91.5349 45.8063 92.7694 45.2912 94.061 45.0101C92.8069 44.2822 91.5284 44.6104 90.2597 44.1587" stroke="#006EB7" stroke-width="2" stroke-miterlimit="10" stroke-linecap="round" stroke-linejoin="round"/>
<path d="M43.1043 34.0034C43.0766 34.3446 42.0166 35.2301 42.0264 35.9369C42.0345 36.5219 42.8173 36.4033 42.6689 37.3619C42.5645 38.0395 41.4768 37.5829 42.1536 38.3742C42.4504 38.7219 44.21 38.5464 44.6013 38.3401C44.9862 38.137 46.5257 36.7835 46.449 36.3269C45.283 36.4406 45.9679 35.6705 45.7967 35.4933C45.4298 35.1148 45.3531 35.1586 44.7334 34.8125C44.254 34.5444 42.5286 33.2072 42.695 34.6809" stroke="#006EB7" stroke-width="2" stroke-miterlimit="10" stroke-linecap="round" stroke-linejoin="round"/>
<path d="M51.3935 38.3354C51.3755 38.6718 51.4016 39.1479 51.2793 39.5378C52.2953 39.7799 51.7751 40.711 51.9349 41.4535C52.0882 42.1652 52.6328 42.7274 52.7731 43.4602C52.8334 43.4537 53.0829 43.4505 53.1416 43.4602C53.0014 41.6696 55.5046 41.6794 54.9681 40.334C54.7659 39.8271 51.8827 38.2558 51.4147 38.3566C51.4456 38.4443 51.4081 38.7417 51.4147 38.8538C51.9936 39.1755 51.7669 39.7344 51.5304 40.3665" stroke="#006EB7" stroke-width="2" stroke-miterlimit="10" stroke-linecap="round" stroke-linejoin="round"/>
<ellipse opacity="0.2" cx="77.8005" cy="75.4495" rx="17.5797" ry="17.189" fill="#006EB7"/>
<path d="M71.6035 75.218C71.6035 80.1512 74.3535 83 77.5582 83C80.5897 83 82.6035 80.5218 82.6035 77.5109C82.6035 74.5232 80.7197 71.9986 77.6882 71.9986C76.5838 71.9986 75.3279 72.485 74.8082 73.1567H74.7649C75.133 70.9101 76.4323 68.7561 78.8358 68.7561C79.572 68.7561 80.5897 69.0109 81.0228 69.2657L81.8456 66.6948C80.8929 66.2084 79.7236 66 78.6842 66C73.9204 66 71.6035 70.8869 71.6035 75.218ZM77.5799 80.267C75.826 80.267 74.5051 78.1362 74.5051 76.3065C74.5051 75.1022 75.7177 74.4537 77.0386 74.4537C78.8791 74.4537 79.8535 75.8202 79.8535 77.5109C79.8535 79.0395 78.9657 80.267 77.5799 80.267Z" fill="#006EB7"/>
</svg>
