<svg xmlns="http://www.w3.org/2000/svg" width="58" height="50" viewBox="0 0 58 50"><g><g><g/><g><g><path fill="#fd8a02" d="M30.46 3.885l5.869 7.732c.559.745 1.583.839 2.235.28l1.025-.839c1.584-1.211 1.957-3.54.746-5.124L36.98 1.462C35.77-.12 33.44-.494 31.857.717l-1.118.932c-.745.559-.839 1.583-.28 2.236z"/></g><g><path fill="#fd8a02" d="M25.902 19.631L20.033 11.9c-.559-.745-1.584-.839-2.236-.28l-1.025.839c-1.583 1.21-1.956 3.54-.745 5.124l3.354 4.472c1.211 1.583 3.54 1.956 5.124.745l1.025-.839c.745-.652.931-1.677.372-2.329z"/></g><g><path fill="#fd8a02" d="M57.293 45.9L36.61 19.814l-.466-.465c.652-.56.745-1.491.186-2.236l-1.677-2.143.466-.373c.745-.559.839-1.584.28-2.236L29.53 4.63c-.559-.745-1.583-.839-2.236-.28L21.24 8.914c-.745.56-.839 1.584-.28 2.236l5.87 7.733c.559.745 1.583.838 2.235.28l.466-.374 1.677 2.143c.56.652 1.49.839 2.236.373l.28.559L53.38 48.788c.838 1.118 2.422 1.304 3.54.466.932-.652 1.211-2.236.373-3.354z"/></g></g><g><path fill="#fd8a02" d="M29.157 42.455H5.68a2.068 2.068 0 0 1-2.05-2.05v-.465c0-1.118.932-2.05 2.05-2.05h23.383c1.118 0 2.05.932 2.05 2.05v.465c.093 1.212-.839 2.05-1.956 2.05z"/></g><g><path fill="#fd8a02" d="M34.843 50.001H0v-.559a4.175 4.175 0 0 1 4.192-4.192H30.65a4.175 4.175 0 0 1 4.193 4.192z"/></g></g></g></svg>