<svg xmlns="http://www.w3.org/2000/svg" width="159" height="153" viewBox="0 0 159 153"><defs><mask id="fm51b" width="2" height="2" x="-1" y="-1"><path fill="#fff" d="M10 0h149v143H10z"/><path d="M10 71.21C10 31.54 22.717 0 61.831 0c39.114 0 51.831 31.541 51.831 71.21 0 39.668-12.717 71.79-51.831 71.79C22.717 143 10 110.878 10 71.21zm68.98 0c0-22.447-3.854-40.25-17.149-40.25-13.295 0-17.149 17.803-17.149 40.25 0 22.64 3.854 40.829 17.149 40.829 13.295 0 17.148-18.19 17.148-40.83zm49.623 69.468v-6.626h-4.933v-6.006h4.933v-4.83h-4.933v-7.678h4.933V96.466h14.058c5.672 0 9.803 1.156 12.393 3.468 2.631 2.311 3.946 5.49 3.946 9.535a14.7 14.7 0 0 1-1.603 6.75c-1.069 2.105-2.857 3.798-5.364 5.078-2.467 1.279-5.837 1.919-10.112 1.919h-4.008v4.83h9.495v6.006h-9.495v6.626zm9.31-25.14h3.083c2.631 0 4.706-.454 6.227-1.362 1.562-.909 2.343-2.374 2.343-4.397 0-3.756-2.466-5.635-7.399-5.635h-4.254z"/></mask><filter id="fm51a" width="179" height="173" x="-10" y="-10" filterUnits="userSpaceOnUse"><feOffset dx="-10" dy="10" in="SourceGraphic" result="FeOffset1023Out"/><feGaussianBlur in="FeOffset1023Out" result="FeGaussianBlur1024Out" stdDeviation="0 0"/></filter><linearGradient id="fm51c" x1="84.5" x2="84.5" y1="0" y2="143" gradientUnits="userSpaceOnUse"><stop offset="0" stop-color="#fd8a02"/><stop offset="1" stop-color="#ffaf00"/></linearGradient></defs><g><g><g filter="url(#fm51a)"><path fill="none" d="M10 71.21C10 31.54 22.717 0 61.831 0c39.114 0 51.831 31.541 51.831 71.21 0 39.668-12.717 71.79-51.831 71.79C22.717 143 10 110.878 10 71.21zm68.98 0c0-22.447-3.854-40.25-17.149-40.25-13.295 0-17.149 17.803-17.149 40.25 0 22.64 3.854 40.829 17.149 40.829 13.295 0 17.148-18.19 17.148-40.83zm49.623 69.468v-6.626h-4.933v-6.006h4.933v-4.83h-4.933v-7.678h4.933V96.466h14.058c5.672 0 9.803 1.156 12.393 3.468 2.631 2.311 3.946 5.49 3.946 9.535a14.7 14.7 0 0 1-1.603 6.75c-1.069 2.105-2.857 3.798-5.364 5.078-2.467 1.279-5.837 1.919-10.112 1.919h-4.008v4.83h9.495v6.006h-9.495v6.626zm9.31-25.14h3.083c2.631 0 4.706-.454 6.227-1.362 1.562-.909 2.343-2.374 2.343-4.397 0-3.756-2.466-5.635-7.399-5.635h-4.254z" mask="url(&quot;#fm51b&quot;)"/><path fill="#fd8a02" fill-opacity=".2" d="M10 71.21C10 31.54 22.717 0 61.831 0c39.114 0 51.831 31.541 51.831 71.21 0 39.668-12.717 71.79-51.831 71.79C22.717 143 10 110.878 10 71.21zm68.98 0c0-22.447-3.854-40.25-17.149-40.25-13.295 0-17.149 17.803-17.149 40.25 0 22.64 3.854 40.829 17.149 40.829 13.295 0 17.148-18.19 17.148-40.83zm49.623 69.468v-6.626h-4.933v-6.006h4.933v-4.83h-4.933v-7.678h4.933V96.466h14.058c5.672 0 9.803 1.156 12.393 3.468 2.631 2.311 3.946 5.49 3.946 9.535a14.7 14.7 0 0 1-1.603 6.75c-1.069 2.105-2.857 3.798-5.364 5.078-2.467 1.279-5.837 1.919-10.112 1.919h-4.008v4.83h9.495v6.006h-9.495v6.626zm9.31-25.14h3.083c2.631 0 4.706-.454 6.227-1.362 1.562-.909 2.343-2.374 2.343-4.397 0-3.756-2.466-5.635-7.399-5.635h-4.254z"/></g><path fill="url(#fm51c)" d="M10 71.21C10 31.54 22.717 0 61.831 0c39.114 0 51.831 31.541 51.831 71.21 0 39.668-12.717 71.79-51.831 71.79C22.717 143 10 110.878 10 71.21zm68.98 0c0-22.447-3.854-40.25-17.149-40.25-13.295 0-17.149 17.803-17.149 40.25 0 22.64 3.854 40.829 17.149 40.829 13.295 0 17.148-18.19 17.148-40.83zm49.623 69.468v-6.626h-4.933v-6.006h4.933v-4.83h-4.933v-7.678h4.933V96.466h14.058c5.672 0 9.803 1.156 12.393 3.468 2.631 2.311 3.946 5.49 3.946 9.535a14.7 14.7 0 0 1-1.603 6.75c-1.069 2.105-2.857 3.798-5.364 5.078-2.467 1.279-5.837 1.919-10.112 1.919h-4.008v4.83h9.495v6.006h-9.495v6.626zm9.31-25.14h3.083c2.631 0 4.706-.454 6.227-1.362 1.562-.909 2.343-2.374 2.343-4.397 0-3.756-2.466-5.635-7.399-5.635h-4.254z"/></g></g></svg>