<?xml version="1.0" encoding="utf-8"?>
<!-- Generator: Adobe Illustrator 17.1.0, SVG Export Plug-In . SVG Version: 6.00 Build 0)  -->
<!DOCTYPE svg PUBLIC "-//W3C//DTD SVG 1.1//EN" "http://www.w3.org/Graphics/SVG/1.1/DTD/svg11.dtd">
<svg version="1.1" id="Layer_1" xmlns="http://www.w3.org/2000/svg" xmlns:xlink="http://www.w3.org/1999/xlink" x="0px" y="0px"
	 width="131px" height="33px" viewBox="0 0 131 33" enable-background="new 0 0 131 33" xml:space="preserve">
<linearGradient id="SVGID_1_" gradientUnits="userSpaceOnUse" x1="0" y1="16.5" x2="131" y2="16.5">
	<stop  offset="0" style="stop-color:#FDA085"/>
	<stop  offset="1" style="stop-color:#F6D365"/>
</linearGradient>
<path fill="url(#SVGID_1_)" d="M38.3,33c-0.3,0-0.6,0-1,0c-9.3-0.3-14.7-4.8-19.4-8.7c-4-3.3-7.2-6-12.7-6.5C2,17.4-0.3,14.6,0,11.3
	c0.3-3.2,3.1-5.6,6.3-5.3c8.9,0.9,14.4,5.4,18.8,9.1c4.2,3.4,7.2,5.9,12.5,6.1c7.1,0.3,12.1-4,18-8.9C62.4,6.7,70,0.4,81.6,0
	c11.9-0.3,19.7,5.7,26.6,11.1c6.5,5,10.7,8.1,16.6,7.6c3.2-0.2,6,2.1,6.2,5.4c0.3,3.2-2.1,6.1-5.3,6.4c-10.6,0.9-18-4.9-24.5-10
	c-6.2-4.8-11.5-9-19.2-8.7C74.3,12,69.1,16.4,63,21.4C56.5,26.8,49.2,33,38.3,33z"/>
</svg>
