<svg width="29" height="29" viewBox="0 0 29 29" fill="none" xmlns="http://www.w3.org/2000/svg">
<path d="M0.32373 1.6908C0.32373 1.13851 0.771446 0.690796 1.32373 0.690796H27.3237C27.876 0.690796 28.3237 1.13851 28.3237 1.6908V27.6908C28.3237 28.2431 27.876 28.6908 27.3237 28.6908H1.32373C0.771445 28.6908 0.32373 28.2431 0.32373 27.6908V1.6908Z" fill="white"/>
<path fill-rule="evenodd" clip-rule="evenodd" d="M1.82373 2.1908V27.1908H26.8237V2.1908H1.82373ZM1.32373 0.690796C0.771446 0.690796 0.32373 1.13851 0.32373 1.6908V27.6908C0.32373 28.2431 0.771445 28.6908 1.32373 28.6908H27.3237C27.876 28.6908 28.3237 28.2431 28.3237 27.6908V1.6908C28.3237 1.13851 27.876 0.690796 27.3237 0.690796H1.32373Z" fill="#0053A3"/>
<path fill-rule="evenodd" clip-rule="evenodd" d="M4.75781 23.6635C4.75781 23.2493 5.0936 22.9135 5.50781 22.9135H11.7001C12.1143 22.9135 12.4501 23.2493 12.4501 23.6635C12.4501 24.0777 12.1143 24.4135 11.7001 24.4135H5.50781C5.0936 24.4135 4.75781 24.0777 4.75781 23.6635Z" fill="#CDE7F7"/>
<path fill-rule="evenodd" clip-rule="evenodd" d="M16.1968 23.6635C16.1968 23.2493 16.5326 22.9135 16.9468 22.9135H23.1391C23.5533 22.9135 23.8891 23.2493 23.8891 23.6635C23.8891 24.0777 23.5533 24.4135 23.1391 24.4135H16.9468C16.5326 24.4135 16.1968 24.0777 16.1968 23.6635Z" fill="#CDE7F7"/>
<path fill-rule="evenodd" clip-rule="evenodd" d="M4.75781 18.6635C4.75781 18.2493 5.0936 17.9135 5.50781 17.9135H11.7001C12.1143 17.9135 12.4501 18.2493 12.4501 18.6635C12.4501 19.0777 12.1143 19.4135 11.7001 19.4135H5.50781C5.0936 19.4135 4.75781 19.0777 4.75781 18.6635Z" fill="#0053A3"/>
<path fill-rule="evenodd" clip-rule="evenodd" d="M16.1968 18.6635C16.1968 18.2493 16.5326 17.9135 16.9468 17.9135H23.1391C23.5533 17.9135 23.8891 18.2493 23.8891 18.6635C23.8891 19.0777 23.5533 19.4135 23.1391 19.4135H16.9468C16.5326 19.4135 16.1968 19.0777 16.1968 18.6635Z" fill="#0053A3"/>
<path d="M1.8125 2.21307H26.8347V14.9187H1.8125V2.21307Z" fill="#CDE7F7"/>
<path d="M6.88485 7.66973L7.60195 5.6534H12.8607L13.5778 7.66973H6.88485ZM12.8607 9.9101C12.6705 9.9101 12.4881 9.83929 12.3536 9.71325C12.2192 9.5872 12.1436 9.41625 12.1436 9.23799C12.1436 9.05974 12.2192 8.88878 12.3536 8.76274C12.4881 8.63669 12.6705 8.56588 12.8607 8.56588C13.0509 8.56588 13.2333 8.63669 13.3678 8.76274C13.5023 8.88878 13.5778 9.05974 13.5778 9.23799C13.5778 9.41625 13.5023 9.5872 13.3678 9.71325C13.2333 9.83929 13.0509 9.9101 12.8607 9.9101ZM7.60195 9.9101C7.41177 9.9101 7.22937 9.83929 7.09488 9.71325C6.9604 9.5872 6.88485 9.41625 6.88485 9.23799C6.88485 9.05974 6.9604 8.88878 7.09488 8.76274C7.22937 8.63669 7.41177 8.56588 7.60195 8.56588C7.79214 8.56588 7.97454 8.63669 8.10902 8.76274C8.24351 8.88878 8.31906 9.05974 8.31906 9.23799C8.31906 9.41625 8.24351 9.5872 8.10902 9.71325C7.97454 9.83929 7.79214 9.9101 7.60195 9.9101ZM13.5396 5.42937C13.4392 5.16052 13.1667 4.98129 12.8607 4.98129H7.60195C7.29599 4.98129 7.02349 5.16052 6.9231 5.42937L5.92871 8.11781V11.7024C5.92871 11.8212 5.97908 11.9352 6.06873 12.0192C6.15839 12.1033 6.27999 12.1505 6.40678 12.1505H6.88485C7.01164 12.1505 7.13324 12.1033 7.2229 12.0192C7.31255 11.9352 7.36292 11.8212 7.36292 11.7024V11.2543H13.0998V11.7024C13.0998 11.8212 13.1501 11.9352 13.2398 12.0192C13.3294 12.1033 13.451 12.1505 13.5778 12.1505H14.0559C14.1827 12.1505 14.3043 12.1033 14.3939 12.0192C14.4836 11.9352 14.534 11.8212 14.534 11.7024V8.11781L13.5396 5.42937Z" fill="#0053A3"/>
</svg>
