<svg xmlns="http://www.w3.org/2000/svg" viewBox="0 0 207.8 95"><path d="M47.2 95V46.9h7.7v3.5c1.1-1.7 3.2-2.9 4.8-3.5 1.6-.5 3.3-.8 5.1-.8 4.3 0 8.9 1.4 12.6 5.3 3.4 3.6 5.3 7.9 5.3 13.1 0 2.4-.5 4.7-1.4 6.9-.9 2.2-2.1 4.2-3.7 5.8-1.7 1.8-3.6 3.1-5.7 4s-4.1 1.4-6.7 1.4c-1.9 0-3.7-.3-5.4-.9-1.7-.6-4.1-1.9-4.9-3.4V95h-7.7zm17.4-42.1c-2.8 0-5.3.9-7.3 3-2.1 2.2-2.9 5.2-2.9 8.3 0 3.3.8 6.5 2.8 8.6 2 2.2 4.5 2.9 7.4 2.9 3 0 5.3-1.2 7.2-3 2.1-2.1 3.1-5 3.1-8.1 0-3.4-1-6.4-3-8.6-1.8-1.9-4.3-3.1-7.3-3.1M135.8 95l6.5-15.2-15-32.9h8.2l10.7 24.7 9.8-24.7h8.2L143.8 95zM115 81.9v-3.6c-.9 1.5-3.2 2.8-4.9 3.4-1.7.6-3.5.9-5.4.9-2.6 0-4.6-.5-6.7-1.4-2.1-.9-4-2.2-5.7-4-1.6-1.6-2.9-3.6-3.7-5.8-.9-2.2-1.4-4.6-1.4-6.9 0-5.1 1.8-9.5 5.3-13.1 3.7-3.9 8.3-5.3 12.6-5.3 1.7 0 3.4.3 5.1.8 1.6.5 3.7 1.8 4.8 3.5v-3.5h7.7V82H115v-.1zM98 56c-2 2.2-3 5.2-3 8.6 0 3.1 1 6 3.1 8.1 1.8 1.8 4.2 3 7.2 3 2.9 0 5.4-.8 7.4-2.9 2-2.2 2.8-5.3 2.8-8.6 0-3.1-.8-6.1-2.9-8.3-2-2.1-4.5-3-7.3-3-3 0-5.5 1.2-7.3 3.1M172 24.3L171.6 1h7.3v29.4h-10.6L161 6.3h-.2l.4 24.1H154V1h11l6.8 23.3zM38.4 3.8l-4.1 26.9h-8L31.8 1H45l5.5 29.7h-8L38.6 3.8zM73 23.7L76.7 1h12.1l.6 29.7H82L81.8 4h-.1l-5 26.7h-7.5L64.2 4H64l-.1 26.7h-7.5L57.1 1h12.1l3.7 22.7zM135.2 26.2c2.1 0 2.7-1.4 2.9-2.1.1-.3.1-.7.1-1.1V1h7.5v21.3c0 .6-.1 1.7-.1 2-.5 5.5-4.9 7.3-10.4 7.3s-9.8-1.8-10.3-7.3c0-.3-.1-1.4-.1-2V1h7.5v21.9c0 .4 0 .8.1 1.1.1.8.8 2.2 2.8 2.2M13.8 22.3c.3.7.2 1.6.1 2.2-.2 1-.9 2-2.9 2-1.9 0-3-1.1-3-2.7v-2.9H0v2.3c0 6.6 5.2 8.6 10.8 8.6 5.4 0 9.8-1.8 10.5-6.8.4-2.6.1-4.3 0-4.9C20 13.9 8.8 12 7.9 8.6c-.1-.6-.1-1.2 0-1.6.2-1 .9-2 2.7-2s2.8 1.1 2.8 2.7v1.9h7.4V7.5C20.8 1 15 0 10.8 0 5.5 0 1.2 1.8.4 6.6c-.2 1.3-.2 2.5.1 4 1.3 6.1 11.8 7.9 13.3 11.7M110.3 22.3c.3.7.2 1.6.1 2.2-.2 1-.9 2-2.9 2-1.8 0-3-1-3-2.7v-2.9h-7.9v2.3c0 6.6 5.2 8.5 10.7 8.5 5.3 0 9.7-1.8 10.4-6.7.4-2.5.1-4.2 0-4.8-1.2-6.1-12.4-8-13.2-11.4-.1-.6-.1-1.2 0-1.5.2-.9.8-2 2.7-2 1.7 0 2.7 1.1 2.7 2.6v1.8h7.3V7.6c0-6.4-5.7-7.4-9.9-7.4-5.2 0-9.5 1.7-10.3 6.5-.2 1.3-.3 2.5.1 4 1.3 6 11.7 7.8 13.2 11.6M197.2 25.9c2.1 0 2.9-1.3 3-2.2.1-.3.1-.7.1-1.1v-4.3h-3v-4.4h10.5v8c0 .6 0 1-.1 2-.5 5.4-5.2 7.3-10.5 7.3-5.2 0-9.9-1.9-10.4-7.3-.1-1-.1-1.4-.1-2V9.5c0-.5.1-1.5.1-1.9.6-5.6 5.1-7.3 10.4-7.3 5.3 0 9.9 1.7 10.4 7.3.1.9.1 1.9.1 1.9v1h-7.5V8.8s0-.7-.1-1.1c-.1-.6-.7-2.1-3-2.1-2.1 0-2.8 1.4-2.9 2.1-.1.4-.1.9-.1 1.4v13.6c0 .4 0 .8.1 1.1.1.8.8 2.1 3 2.1"/></svg>