<svg width="336" height="121" viewBox="0 0 336 121" fill="none" xmlns="http://www.w3.org/2000/svg">
<path d="M229.092 0.5H231.959C235.174 0.703908 238.389 1.5778 241.104 3.34743C244.051 5.24815 246.359 8.05189 247.89 11.1979C244.936 12.5816 242.004 13.9944 239.057 15.378C237.678 12.2247 234.557 9.84337 231.102 9.61033C228.003 9.42099 224.809 10.5862 222.661 12.8583C218.538 17.1549 218.466 24.6486 222.443 29.0617C224.722 31.6179 228.293 32.8923 231.676 32.4772C234.905 32.033 237.758 29.739 239.05 26.7605C241.997 28.166 244.943 29.5642 247.89 30.9552C246.845 33.0234 245.517 34.9605 243.84 36.5699C241.089 39.3081 237.395 40.9976 233.57 41.4783C229.912 41.9371 226.138 41.5875 222.639 40.3932C218.959 39.1406 215.613 36.8612 213.225 33.7735C209.473 28.9962 208.333 22.5148 209.495 16.616C210.424 11.7586 213.254 7.27995 217.312 4.45436C220.745 2.00746 224.904 0.754885 229.084 0.5H229.092ZM51.7901 1.00249C52.1893 0.900534 52.6103 0.871404 53.024 0.871404C59.3749 0.878687 65.7257 0.871404 72.0766 0.878687C74.3556 0.864122 76.417 2.91777 76.3734 5.21174C76.3734 16.3903 76.3734 27.5615 76.3734 38.7401C76.3299 40.9685 74.3048 42.9202 72.0911 42.8983C65.6096 42.8983 59.1281 42.8983 52.6466 42.8983C50.3893 42.8692 48.4151 40.8156 48.4587 38.558C48.4587 27.4523 48.4587 16.3466 48.4587 5.24815C48.4369 3.28917 49.903 1.454 51.8047 1.01705L51.7901 1.00249ZM166.911 1.25737H176.768C176.768 6.54442 176.768 11.8242 176.768 17.1112C182.095 17.1112 187.423 17.1112 192.75 17.1112V1.25737H202.607V40.8156H192.75C192.75 35.8781 192.75 30.9406 192.75 26.0104C187.423 26.0104 182.088 26.0104 176.761 26.0104V40.8229H166.904V1.25737H166.911ZM254.299 1.25737H289.951V40.8156H280.145V10.1055C274.811 10.1128 269.483 10.091 264.156 10.1201C264.17 20.3519 264.156 30.5837 264.156 40.8156H254.299V1.25737V1.25737ZM298.298 1.25737C301.535 1.25737 304.779 1.25737 308.017 1.25737C308.017 7.36006 308.017 13.47 308.017 19.5727C312.952 13.47 317.873 7.36006 322.801 1.25009H334.545C329.428 7.57125 324.304 13.8851 319.172 20.199C324.703 27.059 330.263 33.8973 335.793 40.7573V40.8083H323.534C318.367 34.2177 313.192 27.6344 308.017 21.051C308.017 27.6344 308.017 34.225 308.017 40.8083C304.779 40.8083 301.535 40.8083 298.298 40.8083C298.298 27.6271 298.298 14.4386 298.298 1.25737V1.25737ZM6.34701 34.6765C7.05105 32.5209 9.56236 31.2683 11.718 31.9237C22.2568 35.3465 32.7956 38.7838 43.3272 42.2284C45.5554 42.8911 46.9054 45.5055 46.1723 47.7193C44.2054 53.822 42.2239 59.9247 40.2497 66.0201C39.7634 67.6368 38.2828 68.8675 36.6207 69.0641C35.5682 69.2389 34.5448 68.853 33.5577 68.518C23.4472 65.219 13.3438 61.9346 3.23327 58.6284C1.64374 58.1551 0.482443 56.6913 0.206635 55.0673V53.771C0.504218 52.5621 0.946963 51.4042 1.30987 50.2172C2.9865 45.0321 4.66312 39.847 6.34701 34.6619V34.6765ZM113.317 31.8655C115.393 31.3557 117.737 32.55 118.449 34.5891C120.365 40.4369 122.245 46.3065 124.146 52.1543C124.437 53.0137 124.749 53.9094 124.625 54.8343C124.48 56.582 123.21 58.1696 121.519 58.6503C111.263 62.0002 101.007 65.3355 90.7518 68.6855C89.8518 69.0132 88.8719 69.2316 87.9211 69.0059C86.3388 68.7219 84.9961 67.4839 84.5461 65.94C82.6154 59.9393 80.663 53.9531 78.725 47.9524C78.3404 46.8236 78.3694 45.5273 78.9138 44.4568C79.4436 43.3353 80.4815 42.4905 81.6646 42.1483C92.2106 38.7182 102.749 35.2518 113.303 31.8509L113.317 31.8655ZM173.001 58.0749C173.596 58.0749 174.184 58.0749 174.786 58.0749C174.801 61.0899 174.786 64.1048 174.786 67.127H172.994C172.994 65.8526 172.994 64.5782 172.994 63.311C171.564 63.311 170.134 63.311 168.704 63.311V67.127H166.911C166.911 64.1121 166.911 61.0972 166.911 58.0822C167.506 58.0822 168.102 58.0822 168.697 58.0822C168.697 59.2838 168.697 60.4782 168.697 61.6725C170.127 61.6725 171.556 61.6725 172.986 61.6725C172.986 60.4709 172.986 59.2765 172.986 58.0749H173.001ZM182.705 58.0749C183.409 58.0677 184.113 58.0677 184.817 58.0749C185.993 61.0899 187.183 64.1048 188.359 67.1197C187.67 67.127 186.973 67.1343 186.29 67.1052C186.102 66.5371 185.884 65.9764 185.666 65.4229H181.87C181.653 65.9837 181.435 66.5444 181.239 67.1125C180.549 67.1343 179.86 67.127 179.17 67.127C180.346 64.1121 181.529 61.0972 182.712 58.0822L182.705 58.0749ZM182.386 63.8062C183.3 63.8062 184.215 63.8062 185.129 63.8062C184.679 62.6119 184.236 61.4176 183.772 60.2305C183.242 61.3957 182.85 62.6192 182.386 63.8062ZM192.714 58.0749C193.309 58.0749 193.904 58.0749 194.499 58.0749C194.507 60.551 194.499 63.0343 194.499 65.5176C195.922 65.5176 197.352 65.503 198.774 65.5249C198.803 63.0416 198.774 60.5583 198.789 58.0822C199.399 58.0822 200.008 58.0822 200.625 58.0822C200.633 60.5655 200.625 63.0416 200.625 65.5249C200.887 65.5249 201.155 65.5176 201.424 65.5103C201.453 66.5881 201.438 67.6586 201.438 68.7364C200.836 68.7364 200.233 68.7364 199.631 68.7364C199.631 68.1975 199.624 67.6659 199.631 67.127H192.714C192.714 64.1121 192.714 61.0972 192.714 58.0822V58.0749ZM206.062 58.0749C206.671 58.0749 207.281 58.0749 207.891 58.0749C207.905 59.9975 207.891 61.9201 207.898 63.8354C209.321 61.9201 210.721 59.9975 212.129 58.0822C212.725 58.0677 213.327 58.0677 213.929 58.0677C213.937 61.0826 213.929 64.0975 213.929 67.1197H212.137C212.137 65.1316 212.137 63.1435 212.137 61.1554C210.649 63.129 209.233 65.1535 207.753 67.127C207.187 67.1197 206.62 67.1197 206.054 67.1197C206.054 64.1048 206.054 61.0899 206.054 58.0749H206.062ZM222.262 58.0749C223.779 57.7254 225.499 58.0313 226.653 59.1163C228.54 60.8641 228.576 64.1922 226.769 66.0055C225.027 67.7315 221.892 67.7315 220.171 65.9837C218.379 64.1631 218.422 60.8787 220.288 59.1236C220.839 58.6138 221.529 58.257 222.262 58.0749V58.0749ZM222.697 59.6844C220.382 60.3107 220.041 63.8645 221.928 65.1753C223.009 65.94 224.642 65.7652 225.513 64.7529C226.377 63.7334 226.457 62.1822 225.876 61.0098C225.325 59.8664 223.895 59.3202 222.704 59.6916L222.697 59.6844ZM233.033 58.0822C233.642 58.0822 234.252 58.0822 234.862 58.0822C234.862 59.2838 234.862 60.4782 234.862 61.6725C236.292 61.6725 237.722 61.6725 239.151 61.6725C239.151 60.4709 239.151 59.2765 239.151 58.0822C239.747 58.0822 240.342 58.0822 240.937 58.0822V67.127H239.144V63.311C237.714 63.311 236.284 63.311 234.855 63.311C234.855 64.5854 234.855 65.8599 234.855 67.127C234.238 67.127 233.628 67.127 233.018 67.127C233.018 64.1121 233.018 61.0972 233.018 58.0822H233.033ZM248.848 58.0822C249.538 58.0895 250.227 58.0531 250.917 58.0968C252.158 61.0826 253.297 64.1267 254.481 67.1343H252.441C252.223 66.5663 251.998 65.9982 251.788 65.4302C250.518 65.4302 249.24 65.4084 247.97 65.4448C247.767 66.0128 247.549 66.5736 247.339 67.1343H245.292C246.482 64.1194 247.636 61.0899 248.848 58.0822V58.0822ZM249.879 60.1723C249.451 61.3957 248.972 62.5973 248.529 63.8208C249.436 63.8208 250.351 63.8208 251.265 63.8208C250.793 62.6046 250.358 61.3812 249.872 60.1723H249.879ZM260.548 58.0822C262.617 58.0895 264.678 58.0822 266.747 58.0822C266.754 61.0972 266.747 64.1121 266.747 67.127C266.144 67.127 265.542 67.127 264.947 67.1125C264.969 64.6437 264.947 62.175 264.954 59.7135C264.025 59.7135 263.096 59.7135 262.167 59.7135C261.84 61.789 261.956 63.9956 261.027 65.9254C260.541 66.9522 259.373 67.3819 258.298 67.2872C258.291 66.7556 258.291 66.224 258.291 65.6997C259.111 65.7288 259.641 65.0297 259.757 64.2796C260.171 62.2332 260.273 60.1432 260.548 58.0749V58.0822ZM272.082 58.0895C272.677 58.0822 273.279 58.0822 273.874 58.0895C273.882 59.1819 273.874 60.267 273.874 61.3593C275.152 61.4322 276.538 61.119 277.714 61.7817C279.311 62.6483 279.507 65.1389 278.207 66.3478C277.67 66.8721 276.908 67.127 276.168 67.1343C274.803 67.1343 273.432 67.1343 272.067 67.1343C272.067 64.1194 272.067 61.1044 272.067 58.0895H272.082ZM273.882 62.976C273.882 63.8281 273.882 64.6728 273.882 65.5249C274.753 65.4812 275.653 65.6487 276.502 65.3865C277.424 65.0297 277.467 63.5441 276.56 63.1508C275.711 62.8158 274.767 63.027 273.889 62.976H273.882ZM283.825 58.0895C284.42 58.0895 285.016 58.0895 285.611 58.0895C285.611 59.2838 285.611 60.4854 285.611 61.6798C287.041 61.6798 288.47 61.6798 289.9 61.6798C289.9 60.4782 289.9 59.2838 289.9 58.0895C290.495 58.0895 291.091 58.0895 291.686 58.0895C291.686 61.1044 291.686 64.1194 291.686 67.1343H289.893C289.893 65.8599 289.893 64.5854 289.893 63.3183C288.463 63.3183 287.033 63.3183 285.603 63.3183C285.603 64.5927 285.603 65.8672 285.603 67.1343H283.811C283.811 64.1194 283.803 61.0972 283.811 58.0822L283.825 58.0895ZM299.604 58.0895C300.308 58.1114 301.012 58.0385 301.724 58.1332C302.914 61.1263 304.075 64.1412 305.258 67.1416C304.569 67.1416 303.887 67.1416 303.204 67.1416C302.994 66.5736 302.776 66.0055 302.558 65.4448C301.288 65.4448 300.025 65.4521 298.762 65.4375C298.537 66.0128 298.327 66.5881 298.087 67.1561C297.405 67.1416 296.73 67.1489 296.055 67.1489C297.238 64.1339 298.414 61.1117 299.604 58.0968V58.0895ZM300.642 60.2087C300.192 61.4176 299.735 62.6192 299.285 63.8281C300.2 63.8281 301.114 63.8281 302.029 63.8281C301.564 62.6192 301.136 61.3957 300.642 60.2014V60.2087ZM310.259 58.7595C310.847 58.257 311.646 58.0749 312.4 58.0895C313.685 58.0895 314.963 58.1041 316.247 58.0895C316.276 61.1117 316.247 64.1267 316.262 67.1489H314.469C314.469 66.0638 314.469 64.9714 314.469 63.8863H313.148C312.495 64.9714 311.863 66.0711 311.21 67.1489C310.506 67.1489 309.809 67.1489 309.112 67.1489C309.817 65.991 310.528 64.8403 311.254 63.697C310.615 63.4712 309.991 63.1071 309.657 62.4954C308.996 61.3156 309.178 59.6407 310.252 58.7668L310.259 58.7595ZM311.892 59.8373C310.876 60.1796 310.891 61.8036 311.914 62.1313C312.742 62.3206 313.62 62.175 314.476 62.2187C314.476 61.3885 314.476 60.5583 314.476 59.7208C313.62 59.7718 312.734 59.597 311.9 59.83L311.892 59.8373ZM38.965 73.288C40.2642 72.9238 41.7231 73.1496 42.8191 73.9652C47.9869 77.7375 53.1619 81.5026 58.3297 85.2749C60.2531 86.644 60.6596 89.6152 59.2152 91.4795C52.7337 100.43 46.2522 109.38 39.7634 118.33C38.4207 120.216 35.5319 120.646 33.6811 119.277C28.5061 115.504 23.331 111.732 18.1632 107.96C16.2689 106.634 15.7971 103.758 17.1253 101.879C23.4762 93.1035 29.827 84.3281 36.1852 75.5601C36.8384 74.526 37.7529 73.6084 38.965 73.2952V73.288ZM83.6098 73.2297C84.8291 72.9603 86.1574 73.186 87.1735 73.9215C87.7832 74.3221 88.2042 74.9338 88.6179 75.5164C94.9687 84.2917 101.327 93.0598 107.67 101.842C109.035 103.707 108.585 106.598 106.698 107.931C101.494 111.732 96.2897 115.526 91.0784 119.32C89.213 120.653 86.3533 120.18 85.0396 118.293C78.6234 109.445 72.2218 100.59 65.8056 91.7417C64.5281 90.2488 64.383 87.9038 65.5153 86.2944C65.987 85.5661 66.7346 85.1001 67.4241 84.5903C72.229 81.0874 77.0339 77.5846 81.8388 74.0817C82.3686 73.6885 82.9565 73.3681 83.6025 73.2297H83.6098ZM166.664 79.1576C167.027 77.5482 168.37 76.2155 169.974 75.8587C171.223 75.5819 172.631 75.6766 173.698 76.4485C174.235 76.8054 174.627 77.3297 174.975 77.8686C174.46 78.1308 173.944 78.4075 173.436 78.6842C172.87 77.7739 171.796 77.1476 170.707 77.4025C169.248 77.6283 168.24 79.1212 168.37 80.5631C168.363 81.9759 169.495 83.3304 170.932 83.4178C171.934 83.5635 172.914 82.9809 173.415 82.1288C173.93 82.391 174.452 82.6459 174.968 82.9081C174.445 83.7528 173.698 84.5175 172.74 84.8379C170.852 85.4715 168.537 84.8597 167.369 83.1994C166.527 82.056 166.367 80.5267 166.657 79.1649L166.664 79.1576ZM179.613 75.8732C180.208 75.8732 180.803 75.8732 181.398 75.8732C181.406 77.8104 181.398 79.7548 181.398 81.6919C182.821 79.7548 184.251 77.8031 185.681 75.8659C186.283 75.8659 186.878 75.8659 187.481 75.8732C187.488 78.8882 187.481 81.9031 187.481 84.918C186.864 84.918 186.254 84.918 185.637 84.918C185.637 82.9372 185.645 80.9564 185.63 78.9828C184.171 80.9564 182.749 82.9518 181.29 84.9253C180.723 84.9253 180.165 84.9253 179.606 84.9253C179.606 81.9104 179.606 78.8954 179.606 75.8732H179.613ZM195.53 75.9533C196.858 75.5528 198.419 75.6038 199.58 76.4485C200.117 76.8054 200.502 77.3297 200.872 77.8468C200.357 78.1381 199.834 78.4075 199.312 78.6842C198.644 77.4462 196.982 76.9729 195.77 77.6865C193.716 78.7352 193.759 82.2089 195.878 83.1557C197.083 83.7965 198.644 83.3013 199.312 82.1288C199.834 82.391 200.364 82.6459 200.872 82.9518C200.291 83.7747 199.558 84.5612 198.564 84.867C196.72 85.4496 194.492 84.867 193.316 83.2867C192.445 82.1507 192.249 80.6214 192.525 79.245C192.845 77.723 194.035 76.4194 195.523 75.9679L195.53 75.9533ZM204.922 75.8732C207.295 75.8587 209.669 75.8659 212.05 75.8732C212.05 76.4194 212.05 76.9583 212.05 77.5045C211.171 77.5045 210.293 77.5045 209.415 77.5045C209.415 79.9732 209.415 82.4493 209.415 84.918C208.798 84.918 208.188 84.918 207.571 84.918C207.571 82.4493 207.571 79.9732 207.571 77.5045C206.686 77.5045 205.808 77.5045 204.922 77.4972C204.922 76.9583 204.922 76.4194 204.922 75.8805V75.8732ZM216.811 75.8732C218.901 75.8587 220.992 75.8732 223.082 75.8659C223.096 76.4121 223.089 76.9583 223.082 77.5045C221.594 77.4972 220.106 77.5045 218.625 77.5045C218.625 78.1599 218.625 78.8226 218.625 79.478C220.084 79.478 221.536 79.478 222.995 79.478C222.995 80.0315 222.995 80.585 222.995 81.1384C221.536 81.1384 220.077 81.1384 218.625 81.1384C218.625 81.8667 218.625 82.5876 218.625 83.3159C220.113 83.3159 221.601 83.3159 223.089 83.3159C223.089 83.8475 223.089 84.3864 223.089 84.9253C220.992 84.9253 218.901 84.9253 216.811 84.9253C216.811 81.9104 216.804 78.8954 216.811 75.8878V75.8732ZM228.126 75.8732C228.925 75.8587 229.73 75.8659 230.536 75.8732C231.313 77.6938 231.995 79.5581 232.83 81.3569C233.592 79.529 234.332 77.6938 235.109 75.8659C235.907 75.8659 236.713 75.8659 237.518 75.8659C237.533 78.8809 237.518 81.8958 237.518 84.9107C236.901 84.9107 236.292 84.9107 235.675 84.9107C235.66 82.9954 235.711 81.0802 235.646 79.1722C234.775 81.0438 234.034 82.9736 233.258 84.8889C232.967 84.9034 232.684 84.918 232.401 84.9326C231.559 83.0246 230.863 81.051 229.963 79.1649C229.89 81.0802 229.948 82.9954 229.926 84.9107C229.324 84.9107 228.714 84.9107 228.112 84.9107C228.112 81.8958 228.105 78.8809 228.112 75.8732H228.126ZM245.386 75.9388C246.025 75.764 246.801 75.9169 247.498 75.8659C248.696 78.8736 249.872 81.8958 251.04 84.918H249.001C248.783 84.3573 248.565 83.7965 248.369 83.2285C247.092 83.1921 245.814 83.2212 244.537 83.2139C244.319 83.782 244.101 84.35 243.891 84.918H241.844C243.027 81.9249 244.16 78.91 245.386 75.9388V75.9388ZM245.067 81.6045C245.981 81.6045 246.903 81.6045 247.825 81.6045C247.368 80.3883 246.91 79.1795 246.46 77.956C245.974 79.1649 245.546 80.3956 245.074 81.6045H245.067ZM166.919 93.6278H174.794C174.794 96.6427 174.801 99.6649 174.786 102.68C174.191 102.68 173.596 102.68 173.008 102.68C173.001 100.204 173.008 97.7205 173.008 95.2445C171.571 95.2445 170.141 95.2299 168.704 95.2591C168.726 97.7351 168.704 100.211 168.711 102.687C168.116 102.687 167.521 102.687 166.926 102.687C166.911 99.6722 166.926 96.6573 166.926 93.6351L166.919 93.6278ZM181.841 93.6278C183.91 93.6278 185.986 93.6278 188.061 93.6278C188.061 96.6427 188.069 99.6577 188.061 102.665C187.459 102.673 186.857 102.673 186.261 102.665C186.247 100.189 186.254 97.7133 186.261 95.2445C185.332 95.2227 184.403 95.2299 183.474 95.2445C183.307 96.6719 183.191 98.1065 182.959 99.5193C182.756 100.524 182.487 101.624 181.66 102.301C181.101 102.796 180.317 102.796 179.62 102.869C179.62 102.323 179.62 101.784 179.62 101.245C180.498 101.296 180.985 100.481 181.101 99.7086C181.478 97.706 181.594 95.6596 181.856 93.6351L181.841 93.6278ZM195.922 93.6424C196.633 93.6278 197.345 93.6278 198.056 93.6351C199.232 96.65 200.422 99.6577 201.591 102.68C200.916 102.68 200.241 102.68 199.566 102.687C199.341 102.141 199.13 101.588 198.941 101.034C197.657 100.998 196.379 101.027 195.095 101.012C194.87 101.566 194.659 102.126 194.449 102.68C193.766 102.68 193.091 102.68 192.409 102.68C193.563 99.6649 194.775 96.6646 195.922 93.6497V93.6424ZM195.624 99.3518C196.539 99.3518 197.453 99.3518 198.368 99.3518C197.911 98.1429 197.453 96.9413 197.003 95.7324C196.517 96.9268 196.082 98.1429 195.624 99.3518ZM205.401 93.6278H212.478C212.478 94.1667 212.478 94.6983 212.478 95.2372H209.836C209.836 97.7133 209.836 100.197 209.836 102.673C209.241 102.673 208.645 102.673 208.05 102.673C208.036 100.189 208.05 97.7133 208.05 95.2299H205.408C205.408 94.691 205.408 94.1594 205.408 93.6205L205.401 93.6278ZM217.283 93.6278H223.554C223.554 94.1667 223.554 94.7056 223.539 95.2445C222.051 95.2299 220.556 95.2372 219.068 95.2445C219.068 95.9145 219.068 96.5918 219.068 97.2617C220.527 97.2617 221.986 97.2617 223.452 97.2617C223.452 97.8079 223.452 98.3468 223.452 98.893C221.993 98.893 220.527 98.8857 219.068 98.9003C219.068 99.614 219.068 100.328 219.068 101.041C220.556 101.041 222.051 101.041 223.539 101.041C223.539 101.58 223.539 102.126 223.539 102.673C221.449 102.673 219.359 102.673 217.275 102.673C217.275 99.6577 217.275 96.6427 217.275 93.6278H217.283ZM227.851 93.6278C228.605 93.6278 229.367 93.6278 230.122 93.6278C231.095 94.8003 232.046 95.9946 233.026 97.1598C233.026 95.98 233.026 94.8076 233.026 93.6278C233.628 93.6278 234.223 93.6278 234.826 93.6278C234.826 94.7857 234.811 95.9436 234.833 97.1015C235.82 95.9655 236.727 94.7639 237.707 93.6205C238.462 93.6205 239.217 93.6205 239.972 93.6205C238.759 95.0552 237.518 96.468 236.313 97.9026C237.62 99.4829 238.934 101.056 240.218 102.658C239.463 102.673 238.709 102.673 237.954 102.658C237.032 101.449 236.045 100.291 235.138 99.0751C234.956 99.2353 234.767 99.4101 234.826 99.6795C234.811 100.67 234.826 101.668 234.826 102.665C234.223 102.665 233.628 102.665 233.033 102.665C232.997 101.602 233.069 100.539 233.004 99.4756C232.938 99.3664 232.815 99.1479 232.75 99.0387C231.784 100.24 230.826 101.449 229.876 102.665C229.121 102.68 228.366 102.68 227.611 102.665C228.903 101.07 230.231 99.4975 231.523 97.8953C230.297 96.4752 229.077 95.0552 227.865 93.6278H227.851ZM244.588 93.6278H246.381C246.381 94.8294 246.381 96.0237 246.381 97.2253C247.81 97.2253 249.24 97.2253 250.677 97.2253C250.677 96.031 250.677 94.8294 250.677 93.6278H252.47V102.673C251.868 102.673 251.272 102.673 250.685 102.673C250.685 101.391 250.685 100.109 250.685 98.8275C249.255 98.8348 247.825 98.8275 246.395 98.8275C246.395 100.109 246.395 101.391 246.395 102.673C245.8 102.673 245.205 102.673 244.61 102.673C244.595 99.6577 244.61 96.6427 244.61 93.6205L244.588 93.6278ZM257.79 93.6278H259.627C259.627 94.7129 259.627 95.8053 259.627 96.8976C260.897 96.9632 262.29 96.6646 263.452 97.3273C265.034 98.223 265.23 100.743 263.88 101.93C263.292 102.491 262.45 102.702 261.652 102.68C260.36 102.68 259.075 102.68 257.783 102.68C257.769 99.6649 257.783 96.65 257.783 93.6278H257.79ZM259.627 98.5507C259.627 99.3809 259.627 100.211 259.627 101.049C260.461 101.005 261.332 101.165 262.152 100.947C263.183 100.634 263.176 98.9731 262.152 98.6381C261.325 98.4488 260.461 98.6017 259.619 98.5507H259.627ZM265.331 93.6278H267.124C267.124 96.6427 267.124 99.6577 267.124 102.68H265.339C265.324 99.6649 265.339 96.65 265.339 93.6278H265.331ZM271.646 93.6278C272.379 93.6278 273.112 93.6205 273.852 93.6424C274.549 94.6765 275.275 95.696 276.001 96.7156C276.734 95.7033 277.445 94.6765 278.142 93.6424C278.882 93.6278 279.623 93.6278 280.363 93.6351C279.318 95.1061 278.251 96.5626 277.206 98.0337C278.316 99.5848 279.456 101.114 280.552 102.68C279.819 102.687 279.086 102.694 278.36 102.673C277.583 101.566 276.792 100.466 276.008 99.3664C275.217 100.459 274.426 101.558 273.664 102.673C272.931 102.702 272.19 102.694 271.457 102.687C272.561 101.129 273.693 99.5994 274.818 98.0555C273.773 96.5772 272.698 95.1207 271.653 93.6424L271.646 93.6278ZM166.911 111.368H168.704C168.704 112.686 168.704 114.004 168.704 115.315C169.793 114.011 170.867 112.693 171.934 111.368C172.696 111.368 173.451 111.368 174.213 111.368C173.001 112.81 171.76 114.23 170.54 115.664C171.854 117.274 173.211 118.847 174.482 120.5H172.369C171.23 119.393 170.366 118.039 169.343 116.83C169.125 117.077 168.915 117.318 168.704 117.565C168.704 118.526 168.704 119.495 168.704 120.456H166.911C166.911 117.427 166.911 114.397 166.911 111.368ZM181.348 111.382C182.059 111.361 182.77 111.361 183.482 111.382C184.636 114.412 185.848 117.42 187.009 120.449C186.32 120.456 185.623 120.464 184.933 120.434C184.744 119.866 184.534 119.313 184.316 118.767C183.039 118.767 181.769 118.767 180.491 118.767C180.273 119.335 180.056 119.903 179.823 120.471C179.148 120.456 178.473 120.464 177.798 120.456C178.96 117.427 180.172 114.412 181.333 111.39L181.348 111.382ZM182.407 113.494C181.943 114.703 181.486 115.912 181.043 117.128C181.957 117.128 182.872 117.128 183.786 117.128C183.322 115.919 182.886 114.696 182.407 113.494ZM191.386 111.368C192.678 111.368 193.962 111.368 195.254 111.368C196.06 111.368 196.916 111.579 197.504 112.176C198.825 113.392 198.593 115.897 196.989 116.764C195.82 117.405 194.441 117.055 193.186 117.143C193.186 118.25 193.186 119.349 193.186 120.456H191.393C191.393 117.427 191.393 114.397 191.393 111.368H191.386ZM193.178 113.021C193.178 113.858 193.178 114.689 193.178 115.526C194.006 115.482 194.848 115.628 195.661 115.446C196.706 115.177 196.807 113.531 195.806 113.137C194.957 112.89 194.049 113.072 193.178 113.021ZM202.512 111.368H209.633C209.633 111.921 209.633 112.475 209.633 113.021H206.991C206.991 115.497 206.991 117.973 206.991 120.449H205.198C205.198 117.973 205.198 115.497 205.198 113.021H202.512C202.512 112.467 202.512 111.914 202.512 111.368Z" fill="#E72400"/>
</svg>
