<svg width="207" height="207" viewBox="0 0 207 207" fill="none" xmlns="http://www.w3.org/2000/svg">
<g clip-path="url(#clip0_227_1081)">
<path d="M5.89795 1.4873H1.37061V6.01465H5.89795V1.4873Z" fill="black"/>
<path d="M10.4253 1.4873H5.89795V6.01465H10.4253V1.4873Z" fill="black"/>
<path d="M14.9526 1.4873H10.4253V6.01465H14.9526V1.4873Z" fill="black"/>
<path d="M19.48 1.4873H14.9526V6.01465H19.48V1.4873Z" fill="black"/>
<path d="M24.0073 1.4873H19.48V6.01465H24.0073V1.4873Z" fill="black"/>
<path d="M28.5346 1.4873H24.0073V6.01465H28.5346V1.4873Z" fill="black"/>
<path d="M33.0619 1.4873H28.5346V6.01465H33.0619V1.4873Z" fill="black"/>
<path d="M42.1166 1.4873H37.5893V6.01465H42.1166V1.4873Z" fill="black"/>
<path d="M73.808 1.4873H69.2807V6.01465H73.808V1.4873Z" fill="black"/>
<path d="M82.8627 1.4873H78.3354V6.01465H82.8627V1.4873Z" fill="black"/>
<path d="M87.3901 1.4873H82.8627V6.01465H87.3901V1.4873Z" fill="black"/>
<path d="M110.027 1.4873H105.5V6.01465H110.027V1.4873Z" fill="black"/>
<path d="M128.136 1.4873H123.609V6.01465H128.136V1.4873Z" fill="black"/>
<path d="M132.664 1.4873H128.136V6.01465H132.664V1.4873Z" fill="black"/>
<path d="M137.191 1.4873H132.664V6.01465H137.191V1.4873Z" fill="black"/>
<path d="M150.773 1.4873H146.246V6.01465H150.773V1.4873Z" fill="black"/>
<path d="M168.882 1.4873H164.355V6.01465H168.882V1.4873Z" fill="black"/>
<path d="M177.937 1.4873H173.41V6.01465H177.937V1.4873Z" fill="black"/>
<path d="M182.464 1.4873H177.937V6.01465H182.464V1.4873Z" fill="black"/>
<path d="M186.992 1.4873H182.464V6.01465H186.992V1.4873Z" fill="black"/>
<path d="M191.519 1.4873H186.992V6.01465H191.519V1.4873Z" fill="black"/>
<path d="M196.046 1.4873H191.519V6.01465H196.046V1.4873Z" fill="black"/>
<path d="M200.574 1.4873H196.046V6.01465H200.574V1.4873Z" fill="black"/>
<path d="M205.101 1.4873H200.574V6.01465H205.101V1.4873Z" fill="black"/>
<path d="M5.89795 6.01465H1.37061V10.542H5.89795V6.01465Z" fill="black"/>
<path d="M33.0619 6.01465H28.5346V10.542H33.0619V6.01465Z" fill="black"/>
<path d="M42.1166 6.01465H37.5893V10.542H42.1166V6.01465Z" fill="black"/>
<path d="M55.6987 6.01465H51.1713V10.542H55.6987V6.01465Z" fill="black"/>
<path d="M60.226 6.01465H55.6987V10.542H60.226V6.01465Z" fill="black"/>
<path d="M64.7534 6.01465H60.226V10.542H64.7534V6.01465Z" fill="black"/>
<path d="M73.808 6.01465H69.2807V10.542H73.808V6.01465Z" fill="black"/>
<path d="M91.9175 6.01465H87.3901V10.542H91.9175V6.01465Z" fill="black"/>
<path d="M100.972 6.01465H96.4448V10.542H100.972V6.01465Z" fill="black"/>
<path d="M105.5 6.01465H100.972V10.542H105.5V6.01465Z" fill="black"/>
<path d="M110.027 6.01465H105.5V10.542H110.027V6.01465Z" fill="black"/>
<path d="M119.082 6.01465H114.554V10.542H119.082V6.01465Z" fill="black"/>
<path d="M128.136 6.01465H123.609V10.542H128.136V6.01465Z" fill="black"/>
<path d="M132.664 6.01465H128.136V10.542H132.664V6.01465Z" fill="black"/>
<path d="M141.718 6.01465H137.191V10.542H141.718V6.01465Z" fill="black"/>
<path d="M146.246 6.01465H141.718V10.542H146.246V6.01465Z" fill="black"/>
<path d="M164.355 6.01465H159.828V10.542H164.355V6.01465Z" fill="black"/>
<path d="M177.937 6.01465H173.41V10.542H177.937V6.01465Z" fill="black"/>
<path d="M205.101 6.01465H200.574V10.542H205.101V6.01465Z" fill="black"/>
<path d="M5.89795 10.542H1.37061V15.0693H5.89795V10.542Z" fill="black"/>
<path d="M14.9526 10.542H10.4253V15.0693H14.9526V10.542Z" fill="black"/>
<path d="M19.48 10.542H14.9526V15.0693H19.48V10.542Z" fill="black"/>
<path d="M24.0073 10.542H19.48V15.0693H24.0073V10.542Z" fill="black"/>
<path d="M33.0619 10.542H28.5346V15.0693H33.0619V10.542Z" fill="black"/>
<path d="M42.1166 10.542H37.5893V15.0693H42.1166V10.542Z" fill="black"/>
<path d="M46.644 10.542H42.1166V15.0693H46.644V10.542Z" fill="black"/>
<path d="M51.1713 10.542H46.644V15.0693H51.1713V10.542Z" fill="black"/>
<path d="M60.226 10.542H55.6987V15.0693H60.226V10.542Z" fill="black"/>
<path d="M64.7534 10.542H60.226V15.0693H64.7534V10.542Z" fill="black"/>
<path d="M69.2807 10.542H64.7534V15.0693H69.2807V10.542Z" fill="black"/>
<path d="M73.808 10.542H69.2807V15.0693H73.808V10.542Z" fill="black"/>
<path d="M82.8627 10.542H78.3354V15.0693H82.8627V10.542Z" fill="black"/>
<path d="M96.4448 10.542H91.9175V15.0693H96.4448V10.542Z" fill="black"/>
<path d="M100.972 10.542H96.4448V15.0693H100.972V10.542Z" fill="black"/>
<path d="M119.082 10.542H114.554V15.0693H119.082V10.542Z" fill="black"/>
<path d="M123.609 10.542H119.082V15.0693H123.609V10.542Z" fill="black"/>
<path d="M132.664 10.542H128.136V15.0693H132.664V10.542Z" fill="black"/>
<path d="M137.191 10.542H132.664V15.0693H137.191V10.542Z" fill="black"/>
<path d="M141.718 10.542H137.191V15.0693H141.718V10.542Z" fill="black"/>
<path d="M155.3 10.542H150.773V15.0693H155.3V10.542Z" fill="black"/>
<path d="M164.355 10.542H159.828V15.0693H164.355V10.542Z" fill="black"/>
<path d="M177.937 10.542H173.41V15.0693H177.937V10.542Z" fill="black"/>
<path d="M186.992 10.542H182.464V15.0693H186.992V10.542Z" fill="black"/>
<path d="M191.519 10.542H186.992V15.0693H191.519V10.542Z" fill="black"/>
<path d="M196.046 10.542H191.519V15.0693H196.046V10.542Z" fill="black"/>
<path d="M205.101 10.542H200.574V15.0693H205.101V10.542Z" fill="black"/>
<path d="M5.89795 15.0693H1.37061V19.5967H5.89795V15.0693Z" fill="black"/>
<path d="M14.9526 15.0693H10.4253V19.5967H14.9526V15.0693Z" fill="black"/>
<path d="M19.48 15.0693H14.9526V19.5967H19.48V15.0693Z" fill="black"/>
<path d="M24.0073 15.0693H19.48V19.5967H24.0073V15.0693Z" fill="black"/>
<path d="M33.0619 15.0693H28.5346V19.5967H33.0619V15.0693Z" fill="black"/>
<path d="M51.1713 15.0693H46.644V19.5967H51.1713V15.0693Z" fill="black"/>
<path d="M69.2807 15.0693H64.7534V19.5967H69.2807V15.0693Z" fill="black"/>
<path d="M73.808 15.0693H69.2807V19.5967H73.808V15.0693Z" fill="black"/>
<path d="M78.3354 15.0693H73.808V19.5967H78.3354V15.0693Z" fill="black"/>
<path d="M87.3901 15.0693H82.8627V19.5967H87.3901V15.0693Z" fill="black"/>
<path d="M96.4448 15.0693H91.9175V19.5967H96.4448V15.0693Z" fill="black"/>
<path d="M132.664 15.0693H128.136V19.5967H132.664V15.0693Z" fill="black"/>
<path d="M155.3 15.0693H150.773V19.5967H155.3V15.0693Z" fill="black"/>
<path d="M164.355 15.0693H159.828V19.5967H164.355V15.0693Z" fill="black"/>
<path d="M168.882 15.0693H164.355V19.5967H168.882V15.0693Z" fill="black"/>
<path d="M177.937 15.0693H173.41V19.5967H177.937V15.0693Z" fill="black"/>
<path d="M186.992 15.0693H182.464V19.5967H186.992V15.0693Z" fill="black"/>
<path d="M191.519 15.0693H186.992V19.5967H191.519V15.0693Z" fill="black"/>
<path d="M196.046 15.0693H191.519V19.5967H196.046V15.0693Z" fill="black"/>
<path d="M205.101 15.0693H200.574V19.5967H205.101V15.0693Z" fill="black"/>
<path d="M5.89795 19.5967H1.37061V24.124H5.89795V19.5967Z" fill="black"/>
<path d="M14.9526 19.5967H10.4253V24.124H14.9526V19.5967Z" fill="black"/>
<path d="M19.48 19.5967H14.9526V24.124H19.48V19.5967Z" fill="black"/>
<path d="M24.0073 19.5967H19.48V24.124H24.0073V19.5967Z" fill="black"/>
<path d="M33.0619 19.5967H28.5346V24.124H33.0619V19.5967Z" fill="black"/>
<path d="M46.644 19.5967H42.1166V24.124H46.644V19.5967Z" fill="black"/>
<path d="M51.1713 19.5967H46.644V24.124H51.1713V19.5967Z" fill="black"/>
<path d="M60.226 19.5967H55.6987V24.124H60.226V19.5967Z" fill="black"/>
<path d="M64.7534 19.5967H60.226V24.124H64.7534V19.5967Z" fill="black"/>
<path d="M69.2807 19.5967H64.7534V24.124H69.2807V19.5967Z" fill="black"/>
<path d="M78.3354 19.5967H73.808V24.124H78.3354V19.5967Z" fill="black"/>
<path d="M87.3901 19.5967H82.8627V24.124H87.3901V19.5967Z" fill="black"/>
<path d="M91.9175 19.5967H87.3901V24.124H91.9175V19.5967Z" fill="black"/>
<path d="M96.4448 19.5967H91.9175V24.124H96.4448V19.5967Z" fill="black"/>
<path d="M100.972 19.5967H96.4448V24.124H100.972V19.5967Z" fill="black"/>
<path d="M105.5 19.5967H100.972V24.124H105.5V19.5967Z" fill="black"/>
<path d="M110.027 19.5967H105.5V24.124H110.027V19.5967Z" fill="black"/>
<path d="M114.554 19.5967H110.027V24.124H114.554V19.5967Z" fill="black"/>
<path d="M119.082 19.5967H114.554V24.124H119.082V19.5967Z" fill="black"/>
<path d="M132.664 19.5967H128.136V24.124H132.664V19.5967Z" fill="black"/>
<path d="M137.191 19.5967H132.664V24.124H137.191V19.5967Z" fill="black"/>
<path d="M159.828 19.5967H155.3V24.124H159.828V19.5967Z" fill="black"/>
<path d="M164.355 19.5967H159.828V24.124H164.355V19.5967Z" fill="black"/>
<path d="M168.882 19.5967H164.355V24.124H168.882V19.5967Z" fill="black"/>
<path d="M177.937 19.5967H173.41V24.124H177.937V19.5967Z" fill="black"/>
<path d="M186.992 19.5967H182.464V24.124H186.992V19.5967Z" fill="black"/>
<path d="M191.519 19.5967H186.992V24.124H191.519V19.5967Z" fill="black"/>
<path d="M196.046 19.5967H191.519V24.124H196.046V19.5967Z" fill="black"/>
<path d="M205.101 19.5967H200.574V24.124H205.101V19.5967Z" fill="black"/>
<path d="M5.89795 24.124H1.37061V28.6514H5.89795V24.124Z" fill="black"/>
<path d="M33.0619 24.124H28.5346V28.6514H33.0619V24.124Z" fill="black"/>
<path d="M42.1166 24.124H37.5893V28.6514H42.1166V24.124Z" fill="black"/>
<path d="M46.644 24.124H42.1166V28.6514H46.644V24.124Z" fill="black"/>
<path d="M51.1713 24.124H46.644V28.6514H51.1713V24.124Z" fill="black"/>
<path d="M60.226 24.124H55.6987V28.6514H60.226V24.124Z" fill="black"/>
<path d="M64.7534 24.124H60.226V28.6514H64.7534V24.124Z" fill="black"/>
<path d="M69.2807 24.124H64.7534V28.6514H69.2807V24.124Z" fill="black"/>
<path d="M96.4448 24.124H91.9175V28.6514H96.4448V24.124Z" fill="black"/>
<path d="M114.554 24.124H110.027V28.6514H114.554V24.124Z" fill="black"/>
<path d="M132.664 24.124H128.136V28.6514H132.664V24.124Z" fill="black"/>
<path d="M137.191 24.124H132.664V28.6514H137.191V24.124Z" fill="black"/>
<path d="M141.718 24.124H137.191V28.6514H141.718V24.124Z" fill="black"/>
<path d="M155.3 24.124H150.773V28.6514H155.3V24.124Z" fill="black"/>
<path d="M177.937 24.124H173.41V28.6514H177.937V24.124Z" fill="black"/>
<path d="M205.101 24.124H200.574V28.6514H205.101V24.124Z" fill="black"/>
<path d="M5.89795 28.6514H1.37061V33.1787H5.89795V28.6514Z" fill="black"/>
<path d="M10.4253 28.6514H5.89795V33.1787H10.4253V28.6514Z" fill="black"/>
<path d="M14.9526 28.6514H10.4253V33.1787H14.9526V28.6514Z" fill="black"/>
<path d="M19.48 28.6514H14.9526V33.1787H19.48V28.6514Z" fill="black"/>
<path d="M24.0073 28.6514H19.48V33.1787H24.0073V28.6514Z" fill="black"/>
<path d="M28.5346 28.6514H24.0073V33.1787H28.5346V28.6514Z" fill="black"/>
<path d="M33.0619 28.6514H28.5346V33.1787H33.0619V28.6514Z" fill="black"/>
<path d="M42.1166 28.6514H37.5893V33.1787H42.1166V28.6514Z" fill="black"/>
<path d="M51.1713 28.6514H46.644V33.1787H51.1713V28.6514Z" fill="black"/>
<path d="M60.226 28.6514H55.6987V33.1787H60.226V28.6514Z" fill="black"/>
<path d="M69.2807 28.6514H64.7534V33.1787H69.2807V28.6514Z" fill="black"/>
<path d="M78.3354 28.6514H73.808V33.1787H78.3354V28.6514Z" fill="black"/>
<path d="M87.3901 28.6514H82.8627V33.1787H87.3901V28.6514Z" fill="black"/>
<path d="M96.4448 28.6514H91.9175V33.1787H96.4448V28.6514Z" fill="black"/>
<path d="M105.5 28.6514H100.972V33.1787H105.5V28.6514Z" fill="black"/>
<path d="M114.554 28.6514H110.027V33.1787H114.554V28.6514Z" fill="black"/>
<path d="M123.609 28.6514H119.082V33.1787H123.609V28.6514Z" fill="black"/>
<path d="M132.664 28.6514H128.136V33.1787H132.664V28.6514Z" fill="black"/>
<path d="M141.718 28.6514H137.191V33.1787H141.718V28.6514Z" fill="black"/>
<path d="M150.773 28.6514H146.246V33.1787H150.773V28.6514Z" fill="black"/>
<path d="M159.828 28.6514H155.3V33.1787H159.828V28.6514Z" fill="black"/>
<path d="M168.882 28.6514H164.355V33.1787H168.882V28.6514Z" fill="black"/>
<path d="M177.937 28.6514H173.41V33.1787H177.937V28.6514Z" fill="black"/>
<path d="M182.464 28.6514H177.937V33.1787H182.464V28.6514Z" fill="black"/>
<path d="M186.992 28.6514H182.464V33.1787H186.992V28.6514Z" fill="black"/>
<path d="M191.519 28.6514H186.992V33.1787H191.519V28.6514Z" fill="black"/>
<path d="M196.046 28.6514H191.519V33.1787H196.046V28.6514Z" fill="black"/>
<path d="M200.574 28.6514H196.046V33.1787H200.574V28.6514Z" fill="black"/>
<path d="M205.101 28.6514H200.574V33.1787H205.101V28.6514Z" fill="black"/>
<path d="M42.1166 33.1787H37.5893V37.7061H42.1166V33.1787Z" fill="black"/>
<path d="M60.226 33.1787H55.6987V37.7061H60.226V33.1787Z" fill="black"/>
<path d="M73.808 33.1787H69.2807V37.7061H73.808V33.1787Z" fill="black"/>
<path d="M78.3354 33.1787H73.808V37.7061H78.3354V33.1787Z" fill="black"/>
<path d="M82.8627 33.1787H78.3354V37.7061H82.8627V33.1787Z" fill="black"/>
<path d="M87.3901 33.1787H82.8627V37.7061H87.3901V33.1787Z" fill="black"/>
<path d="M96.4448 33.1787H91.9175V37.7061H96.4448V33.1787Z" fill="black"/>
<path d="M114.554 33.1787H110.027V37.7061H114.554V33.1787Z" fill="black"/>
<path d="M132.664 33.1787H128.136V37.7061H132.664V33.1787Z" fill="black"/>
<path d="M137.191 33.1787H132.664V37.7061H137.191V33.1787Z" fill="black"/>
<path d="M141.718 33.1787H137.191V37.7061H141.718V33.1787Z" fill="black"/>
<path d="M146.246 33.1787H141.718V37.7061H146.246V33.1787Z" fill="black"/>
<path d="M155.3 33.1787H150.773V37.7061H155.3V33.1787Z" fill="black"/>
<path d="M164.355 33.1787H159.828V37.7061H164.355V33.1787Z" fill="black"/>
<path d="M168.882 33.1787H164.355V37.7061H168.882V33.1787Z" fill="black"/>
<path d="M14.9526 37.7061H10.4253V42.2334H14.9526V37.7061Z" fill="black"/>
<path d="M19.48 37.7061H14.9526V42.2334H19.48V37.7061Z" fill="black"/>
<path d="M24.0073 37.7061H19.48V42.2334H24.0073V37.7061Z" fill="black"/>
<path d="M33.0619 37.7061H28.5346V42.2334H33.0619V37.7061Z" fill="black"/>
<path d="M42.1166 37.7061H37.5893V42.2334H42.1166V37.7061Z" fill="black"/>
<path d="M46.644 37.7061H42.1166V42.2334H46.644V37.7061Z" fill="black"/>
<path d="M55.6987 37.7061H51.1713V42.2334H55.6987V37.7061Z" fill="black"/>
<path d="M82.8627 37.7061H78.3354V42.2334H82.8627V37.7061Z" fill="black"/>
<path d="M91.9175 37.7061H87.3901V42.2334H91.9175V37.7061Z" fill="black"/>
<path d="M96.4448 37.7061H91.9175V42.2334H96.4448V37.7061Z" fill="black"/>
<path d="M100.972 37.7061H96.4448V42.2334H100.972V37.7061Z" fill="black"/>
<path d="M105.5 37.7061H100.972V42.2334H105.5V37.7061Z" fill="black"/>
<path d="M110.027 37.7061H105.5V42.2334H110.027V37.7061Z" fill="black"/>
<path d="M114.554 37.7061H110.027V42.2334H114.554V37.7061Z" fill="black"/>
<path d="M123.609 37.7061H119.082V42.2334H123.609V37.7061Z" fill="black"/>
<path d="M146.246 37.7061H141.718V42.2334H146.246V37.7061Z" fill="black"/>
<path d="M159.828 37.7061H155.3V42.2334H159.828V37.7061Z" fill="black"/>
<path d="M164.355 37.7061H159.828V42.2334H164.355V37.7061Z" fill="black"/>
<path d="M168.882 37.7061H164.355V42.2334H168.882V37.7061Z" fill="black"/>
<path d="M173.41 37.7061H168.882V42.2334H173.41V37.7061Z" fill="black"/>
<path d="M177.937 37.7061H173.41V42.2334H177.937V37.7061Z" fill="black"/>
<path d="M182.464 37.7061H177.937V42.2334H182.464V37.7061Z" fill="black"/>
<path d="M196.046 37.7061H191.519V42.2334H196.046V37.7061Z" fill="black"/>
<path d="M200.574 37.7061H196.046V42.2334H200.574V37.7061Z" fill="black"/>
<path d="M205.101 37.7061H200.574V42.2334H205.101V37.7061Z" fill="black"/>
<path d="M5.89795 42.2334H1.37061V46.7607H5.89795V42.2334Z" fill="black"/>
<path d="M19.48 42.2334H14.9526V46.7607H19.48V42.2334Z" fill="black"/>
<path d="M28.5346 42.2334H24.0073V46.7607H28.5346V42.2334Z" fill="black"/>
<path d="M37.5893 42.2334H33.062V46.7607H37.5893V42.2334Z" fill="black"/>
<path d="M51.1713 42.2334H46.644V46.7607H51.1713V42.2334Z" fill="black"/>
<path d="M64.7534 42.2334H60.226V46.7607H64.7534V42.2334Z" fill="black"/>
<path d="M69.2807 42.2334H64.7534V46.7607H69.2807V42.2334Z" fill="black"/>
<path d="M82.8627 42.2334H78.3354V46.7607H82.8627V42.2334Z" fill="black"/>
<path d="M87.3901 42.2334H82.8627V46.7607H87.3901V42.2334Z" fill="black"/>
<path d="M96.4448 42.2334H91.9175V46.7607H96.4448V42.2334Z" fill="black"/>
<path d="M105.5 42.2334H100.972V46.7607H105.5V42.2334Z" fill="black"/>
<path d="M110.027 42.2334H105.5V46.7607H110.027V42.2334Z" fill="black"/>
<path d="M128.136 42.2334H123.609V46.7607H128.136V42.2334Z" fill="black"/>
<path d="M132.664 42.2334H128.136V46.7607H132.664V42.2334Z" fill="black"/>
<path d="M137.191 42.2334H132.664V46.7607H137.191V42.2334Z" fill="black"/>
<path d="M141.718 42.2334H137.191V46.7607H141.718V42.2334Z" fill="black"/>
<path d="M146.246 42.2334H141.718V46.7607H146.246V42.2334Z" fill="black"/>
<path d="M150.773 42.2334H146.246V46.7607H150.773V42.2334Z" fill="black"/>
<path d="M155.3 42.2334H150.773V46.7607H155.3V42.2334Z" fill="black"/>
<path d="M159.828 42.2334H155.3V46.7607H159.828V42.2334Z" fill="black"/>
<path d="M173.41 42.2334H168.882V46.7607H173.41V42.2334Z" fill="black"/>
<path d="M177.937 42.2334H173.41V46.7607H177.937V42.2334Z" fill="black"/>
<path d="M182.464 42.2334H177.937V46.7607H182.464V42.2334Z" fill="black"/>
<path d="M186.992 42.2334H182.464V46.7607H186.992V42.2334Z" fill="black"/>
<path d="M191.519 42.2334H186.992V46.7607H191.519V42.2334Z" fill="black"/>
<path d="M196.046 42.2334H191.519V46.7607H196.046V42.2334Z" fill="black"/>
<path d="M5.89795 46.7607H1.37061V51.2881H5.89795V46.7607Z" fill="black"/>
<path d="M14.9526 46.7607H10.4253V51.2881H14.9526V46.7607Z" fill="black"/>
<path d="M24.0073 46.7607H19.48V51.2881H24.0073V46.7607Z" fill="black"/>
<path d="M28.5346 46.7607H24.0073V51.2881H28.5346V46.7607Z" fill="black"/>
<path d="M33.0619 46.7607H28.5346V51.2881H33.0619V46.7607Z" fill="black"/>
<path d="M37.5893 46.7607H33.062V51.2881H37.5893V46.7607Z" fill="black"/>
<path d="M51.1713 46.7607H46.644V51.2881H51.1713V46.7607Z" fill="black"/>
<path d="M73.808 46.7607H69.2807V51.2881H73.808V46.7607Z" fill="black"/>
<path d="M78.3354 46.7607H73.808V51.2881H78.3354V46.7607Z" fill="black"/>
<path d="M82.8627 46.7607H78.3354V51.2881H82.8627V46.7607Z" fill="black"/>
<path d="M87.3901 46.7607H82.8627V51.2881H87.3901V46.7607Z" fill="black"/>
<path d="M91.9175 46.7607H87.3901V51.2881H91.9175V46.7607Z" fill="black"/>
<path d="M96.4448 46.7607H91.9175V51.2881H96.4448V46.7607Z" fill="black"/>
<path d="M100.972 46.7607H96.4448V51.2881H100.972V46.7607Z" fill="black"/>
<path d="M119.082 46.7607H114.554V51.2881H119.082V46.7607Z" fill="black"/>
<path d="M123.609 46.7607H119.082V51.2881H123.609V46.7607Z" fill="black"/>
<path d="M141.718 46.7607H137.191V51.2881H141.718V46.7607Z" fill="black"/>
<path d="M146.246 46.7607H141.718V51.2881H146.246V46.7607Z" fill="black"/>
<path d="M155.3 46.7607H150.773V51.2881H155.3V46.7607Z" fill="black"/>
<path d="M159.828 46.7607H155.3V51.2881H159.828V46.7607Z" fill="black"/>
<path d="M177.937 46.7607H173.41V51.2881H177.937V46.7607Z" fill="black"/>
<path d="M182.464 46.7607H177.937V51.2881H182.464V46.7607Z" fill="black"/>
<path d="M191.519 46.7607H186.992V51.2881H191.519V46.7607Z" fill="black"/>
<path d="M200.574 46.7607H196.046V51.2881H200.574V46.7607Z" fill="black"/>
<path d="M10.4253 51.2881H5.89795V55.8154H10.4253V51.2881Z" fill="black"/>
<path d="M24.0073 51.2881H19.48V55.8154H24.0073V51.2881Z" fill="black"/>
<path d="M28.5346 51.2881H24.0073V55.8154H28.5346V51.2881Z" fill="black"/>
<path d="M46.644 51.2881H42.1166V55.8154H46.644V51.2881Z" fill="black"/>
<path d="M51.1713 51.2881H46.644V55.8154H51.1713V51.2881Z" fill="black"/>
<path d="M60.226 51.2881H55.6987V55.8154H60.226V51.2881Z" fill="black"/>
<path d="M73.808 51.2881H69.2807V55.8154H73.808V51.2881Z" fill="black"/>
<path d="M78.3354 51.2881H73.808V55.8154H78.3354V51.2881Z" fill="black"/>
<path d="M82.8627 51.2881H78.3354V55.8154H82.8627V51.2881Z" fill="black"/>
<path d="M87.3901 51.2881H82.8627V55.8154H87.3901V51.2881Z" fill="black"/>
<path d="M91.9175 51.2881H87.3901V55.8154H91.9175V51.2881Z" fill="black"/>
<path d="M119.082 51.2881H114.554V55.8154H119.082V51.2881Z" fill="black"/>
<path d="M128.136 51.2881H123.609V55.8154H128.136V51.2881Z" fill="black"/>
<path d="M141.718 51.2881H137.191V55.8154H141.718V51.2881Z" fill="black"/>
<path d="M146.246 51.2881H141.718V55.8154H146.246V51.2881Z" fill="black"/>
<path d="M150.773 51.2881H146.246V55.8154H150.773V51.2881Z" fill="black"/>
<path d="M164.355 51.2881H159.828V55.8154H164.355V51.2881Z" fill="black"/>
<path d="M168.882 51.2881H164.355V55.8154H168.882V51.2881Z" fill="black"/>
<path d="M173.41 51.2881H168.882V55.8154H173.41V51.2881Z" fill="black"/>
<path d="M182.464 51.2881H177.937V55.8154H182.464V51.2881Z" fill="black"/>
<path d="M196.046 51.2881H191.519V55.8154H196.046V51.2881Z" fill="black"/>
<path d="M200.574 51.2881H196.046V55.8154H200.574V51.2881Z" fill="black"/>
<path d="M205.101 51.2881H200.574V55.8154H205.101V51.2881Z" fill="black"/>
<path d="M10.4253 55.8154H5.89795V60.3428H10.4253V55.8154Z" fill="black"/>
<path d="M19.48 55.8154H14.9526V60.3428H19.48V55.8154Z" fill="black"/>
<path d="M33.0619 55.8154H28.5346V60.3428H33.0619V55.8154Z" fill="black"/>
<path d="M42.1166 55.8154H37.5893V60.3428H42.1166V55.8154Z" fill="black"/>
<path d="M46.644 55.8154H42.1166V60.3428H46.644V55.8154Z" fill="black"/>
<path d="M51.1713 55.8154H46.644V60.3428H51.1713V55.8154Z" fill="black"/>
<path d="M60.226 55.8154H55.6987V60.3428H60.226V55.8154Z" fill="black"/>
<path d="M64.7534 55.8154H60.226V60.3428H64.7534V55.8154Z" fill="black"/>
<path d="M69.2807 55.8154H64.7534V60.3428H69.2807V55.8154Z" fill="black"/>
<path d="M91.9175 55.8154H87.3901V60.3428H91.9175V55.8154Z" fill="black"/>
<path d="M100.972 55.8154H96.4448V60.3428H100.972V55.8154Z" fill="black"/>
<path d="M105.5 55.8154H100.972V60.3428H105.5V55.8154Z" fill="black"/>
<path d="M114.554 55.8154H110.027V60.3428H114.554V55.8154Z" fill="black"/>
<path d="M119.082 55.8154H114.554V60.3428H119.082V55.8154Z" fill="black"/>
<path d="M123.609 55.8154H119.082V60.3428H123.609V55.8154Z" fill="black"/>
<path d="M128.136 55.8154H123.609V60.3428H128.136V55.8154Z" fill="black"/>
<path d="M146.246 55.8154H141.718V60.3428H146.246V55.8154Z" fill="black"/>
<path d="M150.773 55.8154H146.246V60.3428H150.773V55.8154Z" fill="black"/>
<path d="M155.3 55.8154H150.773V60.3428H155.3V55.8154Z" fill="black"/>
<path d="M159.828 55.8154H155.3V60.3428H159.828V55.8154Z" fill="black"/>
<path d="M164.355 55.8154H159.828V60.3428H164.355V55.8154Z" fill="black"/>
<path d="M168.882 55.8154H164.355V60.3428H168.882V55.8154Z" fill="black"/>
<path d="M173.41 55.8154H168.882V60.3428H173.41V55.8154Z" fill="black"/>
<path d="M177.937 55.8154H173.41V60.3428H177.937V55.8154Z" fill="black"/>
<path d="M186.992 55.8154H182.464V60.3428H186.992V55.8154Z" fill="black"/>
<path d="M191.519 55.8154H186.992V60.3428H191.519V55.8154Z" fill="black"/>
<path d="M200.574 55.8154H196.046V60.3428H200.574V55.8154Z" fill="black"/>
<path d="M5.89795 60.3428H1.37061V64.8701H5.89795V60.3428Z" fill="black"/>
<path d="M10.4253 60.3428H5.89795V64.8701H10.4253V60.3428Z" fill="black"/>
<path d="M14.9526 60.3428H10.4253V64.8701H14.9526V60.3428Z" fill="black"/>
<path d="M37.5893 60.3428H33.062V64.8701H37.5893V60.3428Z" fill="black"/>
<path d="M42.1166 60.3428H37.5893V64.8701H42.1166V60.3428Z" fill="black"/>
<path d="M46.644 60.3428H42.1166V64.8701H46.644V60.3428Z" fill="black"/>
<path d="M51.1713 60.3428H46.644V64.8701H51.1713V60.3428Z" fill="black"/>
<path d="M55.6987 60.3428H51.1713V64.8701H55.6987V60.3428Z" fill="black"/>
<path d="M64.7534 60.3428H60.226V64.8701H64.7534V60.3428Z" fill="black"/>
<path d="M69.2807 60.3428H64.7534V64.8701H69.2807V60.3428Z" fill="black"/>
<path d="M78.3354 60.3428H73.808V64.8701H78.3354V60.3428Z" fill="black"/>
<path d="M91.9175 60.3428H87.3901V64.8701H91.9175V60.3428Z" fill="black"/>
<path d="M114.554 60.3428H110.027V64.8701H114.554V60.3428Z" fill="black"/>
<path d="M119.082 60.3428H114.554V64.8701H119.082V60.3428Z" fill="black"/>
<path d="M128.136 60.3428H123.609V64.8701H128.136V60.3428Z" fill="black"/>
<path d="M132.664 60.3428H128.136V64.8701H132.664V60.3428Z" fill="black"/>
<path d="M137.191 60.3428H132.664V64.8701H137.191V60.3428Z" fill="black"/>
<path d="M150.773 60.3428H146.246V64.8701H150.773V60.3428Z" fill="black"/>
<path d="M168.882 60.3428H164.355V64.8701H168.882V60.3428Z" fill="black"/>
<path d="M173.41 60.3428H168.882V64.8701H173.41V60.3428Z" fill="black"/>
<path d="M182.464 60.3428H177.937V64.8701H182.464V60.3428Z" fill="black"/>
<path d="M186.992 60.3428H182.464V64.8701H186.992V60.3428Z" fill="black"/>
<path d="M196.046 60.3428H191.519V64.8701H196.046V60.3428Z" fill="black"/>
<path d="M200.574 60.3428H196.046V64.8701H200.574V60.3428Z" fill="black"/>
<path d="M205.101 60.3428H200.574V64.8701H205.101V60.3428Z" fill="black"/>
<path d="M5.89795 64.8701H1.37061V69.3975H5.89795V64.8701Z" fill="black"/>
<path d="M10.4253 64.8701H5.89795V69.3975H10.4253V64.8701Z" fill="black"/>
<path d="M14.9526 64.8701H10.4253V69.3975H14.9526V64.8701Z" fill="black"/>
<path d="M19.48 64.8701H14.9526V69.3975H19.48V64.8701Z" fill="black"/>
<path d="M24.0073 64.8701H19.48V69.3975H24.0073V64.8701Z" fill="black"/>
<path d="M33.0619 64.8701H28.5346V69.3975H33.0619V64.8701Z" fill="black"/>
<path d="M37.5893 64.8701H33.062V69.3975H37.5893V64.8701Z" fill="black"/>
<path d="M55.6987 64.8701H51.1713V69.3975H55.6987V64.8701Z" fill="black"/>
<path d="M60.226 64.8701H55.6987V69.3975H60.226V64.8701Z" fill="black"/>
<path d="M64.7534 64.8701H60.226V69.3975H64.7534V64.8701Z" fill="black"/>
<path d="M78.3354 64.8701H73.808V69.3975H78.3354V64.8701Z" fill="black"/>
<path d="M82.8627 64.8701H78.3354V69.3975H82.8627V64.8701Z" fill="black"/>
<path d="M128.136 64.8701H123.609V69.3975H128.136V64.8701Z" fill="black"/>
<path d="M132.664 64.8701H128.136V69.3975H132.664V64.8701Z" fill="black"/>
<path d="M191.519 64.8701H186.992V69.3975H191.519V64.8701Z" fill="black"/>
<path d="M10.4253 69.3975H5.89795V73.9248H10.4253V69.3975Z" fill="black"/>
<path d="M14.9526 69.3975H10.4253V73.9248H14.9526V69.3975Z" fill="black"/>
<path d="M19.48 69.3975H14.9526V73.9248H19.48V69.3975Z" fill="black"/>
<path d="M28.5346 69.3975H24.0073V73.9248H28.5346V69.3975Z" fill="black"/>
<path d="M51.1713 69.3975H46.644V73.9248H51.1713V69.3975Z" fill="black"/>
<path d="M60.226 69.3975H55.6987V73.9248H60.226V69.3975Z" fill="black"/>
<path d="M73.808 69.3975H69.2807V73.9248H73.808V69.3975Z" fill="black"/>
<path d="M82.8627 69.3975H78.3354V73.9248H82.8627V69.3975Z" fill="black"/>
<path d="M87.3901 69.3975H82.8627V73.9248H87.3901V69.3975Z" fill="black"/>
<path d="M91.9175 69.3975H87.3901V73.9248H91.9175V69.3975Z" fill="black"/>
<path d="M96.4448 69.3975H91.9175V73.9248H96.4448V69.3975Z" fill="black"/>
<path d="M100.972 69.3975H96.4448V73.9248H100.972V69.3975Z" fill="black"/>
<path d="M105.5 69.3975H100.972V73.9248H105.5V69.3975Z" fill="black"/>
<path d="M114.554 69.3975H110.027V73.9248H114.554V69.3975Z" fill="black"/>
<path d="M132.664 69.3975H128.136V73.9248H132.664V69.3975Z" fill="black"/>
<path d="M137.191 69.3975H132.664V73.9248H137.191V69.3975Z" fill="black"/>
<path d="M146.246 69.3975H141.718V73.9248H146.246V69.3975Z" fill="black"/>
<path d="M150.773 69.3975H146.246V73.9248H150.773V69.3975Z" fill="black"/>
<path d="M164.355 69.3975H159.828V73.9248H164.355V69.3975Z" fill="black"/>
<path d="M168.882 69.3975H164.355V73.9248H168.882V69.3975Z" fill="black"/>
<path d="M173.41 69.3975H168.882V73.9248H173.41V69.3975Z" fill="black"/>
<path d="M182.464 69.3975H177.937V73.9248H182.464V69.3975Z" fill="black"/>
<path d="M186.992 69.3975H182.464V73.9248H186.992V69.3975Z" fill="black"/>
<path d="M191.519 69.3975H186.992V73.9248H191.519V69.3975Z" fill="black"/>
<path d="M200.574 69.3975H196.046V73.9248H200.574V69.3975Z" fill="black"/>
<path d="M205.101 69.3975H200.574V73.9248H205.101V69.3975Z" fill="black"/>
<path d="M10.4253 73.9248H5.89795V78.4521H10.4253V73.9248Z" fill="black"/>
<path d="M19.48 73.9248H14.9526V78.4521H19.48V73.9248Z" fill="black"/>
<path d="M24.0073 73.9248H19.48V78.4521H24.0073V73.9248Z" fill="black"/>
<path d="M33.0619 73.9248H28.5346V78.4521H33.0619V73.9248Z" fill="black"/>
<path d="M37.5893 73.9248H33.062V78.4521H37.5893V73.9248Z" fill="black"/>
<path d="M42.1166 73.9248H37.5893V78.4521H42.1166V73.9248Z" fill="black"/>
<path d="M46.644 73.9248H42.1166V78.4521H46.644V73.9248Z" fill="black"/>
<path d="M51.1713 73.9248H46.644V78.4521H51.1713V73.9248Z" fill="black"/>
<path d="M55.6987 73.9248H51.1713V78.4521H55.6987V73.9248Z" fill="black"/>
<path d="M60.226 73.9248H55.6987V78.4521H60.226V73.9248Z" fill="black"/>
<path d="M64.7534 73.9248H60.226V78.4521H64.7534V73.9248Z" fill="black"/>
<path d="M78.3354 73.9248H73.808V78.4521H78.3354V73.9248Z" fill="black"/>
<path d="M87.3901 73.9248H82.8627V78.4521H87.3901V73.9248Z" fill="black"/>
<path d="M91.9175 73.9248H87.3901V78.4521H91.9175V73.9248Z" fill="black"/>
<path d="M105.5 73.9248H100.972V78.4521H105.5V73.9248Z" fill="black"/>
<path d="M119.082 73.9248H114.554V78.4521H119.082V73.9248Z" fill="black"/>
<path d="M123.609 73.9248H119.082V78.4521H123.609V73.9248Z" fill="black"/>
<path d="M146.246 73.9248H141.718V78.4521H146.246V73.9248Z" fill="black"/>
<path d="M150.773 73.9248H146.246V78.4521H150.773V73.9248Z" fill="black"/>
<path d="M159.828 73.9248H155.3V78.4521H159.828V73.9248Z" fill="black"/>
<path d="M168.882 73.9248H164.355V78.4521H168.882V73.9248Z" fill="black"/>
<path d="M177.937 73.9248H173.41V78.4521H177.937V73.9248Z" fill="black"/>
<path d="M182.464 73.9248H177.937V78.4521H182.464V73.9248Z" fill="black"/>
<path d="M196.046 73.9248H191.519V78.4521H196.046V73.9248Z" fill="black"/>
<path d="M200.574 73.9248H196.046V78.4521H200.574V73.9248Z" fill="black"/>
<path d="M5.89795 78.4521H1.37061V82.9795H5.89795V78.4521Z" fill="black"/>
<path d="M10.4253 78.4521H5.89795V82.9795H10.4253V78.4521Z" fill="black"/>
<path d="M14.9526 78.4521H10.4253V82.9795H14.9526V78.4521Z" fill="black"/>
<path d="M37.5893 78.4521H33.062V82.9795H37.5893V78.4521Z" fill="black"/>
<path d="M42.1166 78.4521H37.5893V82.9795H42.1166V78.4521Z" fill="black"/>
<path d="M46.644 78.4521H42.1166V82.9795H46.644V78.4521Z" fill="black"/>
<path d="M51.1713 78.4521H46.644V82.9795H51.1713V78.4521Z" fill="black"/>
<path d="M55.6987 78.4521H51.1713V82.9795H55.6987V78.4521Z" fill="black"/>
<path d="M64.7534 78.4521H60.226V82.9795H64.7534V78.4521Z" fill="black"/>
<path d="M91.9175 78.4521H87.3901V82.9795H91.9175V78.4521Z" fill="black"/>
<path d="M96.4448 78.4521H91.9175V82.9795H96.4448V78.4521Z" fill="black"/>
<path d="M105.5 78.4521H100.972V82.9795H105.5V78.4521Z" fill="black"/>
<path d="M110.027 78.4521H105.5V82.9795H110.027V78.4521Z" fill="black"/>
<path d="M114.554 78.4521H110.027V82.9795H114.554V78.4521Z" fill="black"/>
<path d="M119.082 78.4521H114.554V82.9795H119.082V78.4521Z" fill="black"/>
<path d="M132.664 78.4521H128.136V82.9795H132.664V78.4521Z" fill="black"/>
<path d="M137.191 78.4521H132.664V82.9795H137.191V78.4521Z" fill="black"/>
<path d="M150.773 78.4521H146.246V82.9795H150.773V78.4521Z" fill="black"/>
<path d="M155.3 78.4521H150.773V82.9795H155.3V78.4521Z" fill="black"/>
<path d="M164.355 78.4521H159.828V82.9795H164.355V78.4521Z" fill="black"/>
<path d="M173.41 78.4521H168.882V82.9795H173.41V78.4521Z" fill="black"/>
<path d="M177.937 78.4521H173.41V82.9795H177.937V78.4521Z" fill="black"/>
<path d="M186.992 78.4521H182.464V82.9795H186.992V78.4521Z" fill="black"/>
<path d="M196.046 78.4521H191.519V82.9795H196.046V78.4521Z" fill="black"/>
<path d="M200.574 78.4521H196.046V82.9795H200.574V78.4521Z" fill="black"/>
<path d="M10.4253 82.9795H5.89795V87.5068H10.4253V82.9795Z" fill="black"/>
<path d="M24.0073 82.9795H19.48V87.5068H24.0073V82.9795Z" fill="black"/>
<path d="M28.5346 82.9795H24.0073V87.5068H28.5346V82.9795Z" fill="black"/>
<path d="M33.0619 82.9795H28.5346V87.5068H33.0619V82.9795Z" fill="black"/>
<path d="M42.1166 82.9795H37.5893V87.5068H42.1166V82.9795Z" fill="black"/>
<path d="M46.644 82.9795H42.1166V87.5068H46.644V82.9795Z" fill="black"/>
<path d="M60.226 82.9795H55.6987V87.5068H60.226V82.9795Z" fill="black"/>
<path d="M64.7534 82.9795H60.226V87.5068H64.7534V82.9795Z" fill="black"/>
<path d="M69.2807 82.9795H64.7534V87.5068H69.2807V82.9795Z" fill="black"/>
<path d="M78.3354 82.9795H73.808V87.5068H78.3354V82.9795Z" fill="black"/>
<path d="M100.972 82.9795H96.4448V87.5068H100.972V82.9795Z" fill="black"/>
<path d="M110.027 82.9795H105.5V87.5068H110.027V82.9795Z" fill="black"/>
<path d="M123.609 82.9795H119.082V87.5068H123.609V82.9795Z" fill="black"/>
<path d="M141.718 82.9795H137.191V87.5068H141.718V82.9795Z" fill="black"/>
<path d="M146.246 82.9795H141.718V87.5068H146.246V82.9795Z" fill="black"/>
<path d="M155.3 82.9795H150.773V87.5068H155.3V82.9795Z" fill="black"/>
<path d="M173.41 82.9795H168.882V87.5068H173.41V82.9795Z" fill="black"/>
<path d="M177.937 82.9795H173.41V87.5068H177.937V82.9795Z" fill="black"/>
<path d="M205.101 82.9795H200.574V87.5068H205.101V82.9795Z" fill="black"/>
<path d="M5.89795 87.5068H1.37061V92.0342H5.89795V87.5068Z" fill="black"/>
<path d="M10.4253 87.5068H5.89795V92.0342H10.4253V87.5068Z" fill="black"/>
<path d="M42.1166 87.5068H37.5893V92.0342H42.1166V87.5068Z" fill="black"/>
<path d="M51.1713 87.5068H46.644V92.0342H51.1713V87.5068Z" fill="black"/>
<path d="M60.226 87.5068H55.6987V92.0342H60.226V87.5068Z" fill="black"/>
<path d="M69.2807 87.5068H64.7534V92.0342H69.2807V87.5068Z" fill="black"/>
<path d="M73.808 87.5068H69.2807V92.0342H73.808V87.5068Z" fill="black"/>
<path d="M78.3354 87.5068H73.808V92.0342H78.3354V87.5068Z" fill="black"/>
<path d="M82.8627 87.5068H78.3354V92.0342H82.8627V87.5068Z" fill="black"/>
<path d="M87.3901 87.5068H82.8627V92.0342H87.3901V87.5068Z" fill="black"/>
<path d="M96.4448 87.5068H91.9175V92.0342H96.4448V87.5068Z" fill="black"/>
<path d="M100.972 87.5068H96.4448V92.0342H100.972V87.5068Z" fill="black"/>
<path d="M110.027 87.5068H105.5V92.0342H110.027V87.5068Z" fill="black"/>
<path d="M114.554 87.5068H110.027V92.0342H114.554V87.5068Z" fill="black"/>
<path d="M119.082 87.5068H114.554V92.0342H119.082V87.5068Z" fill="black"/>
<path d="M123.609 87.5068H119.082V92.0342H123.609V87.5068Z" fill="black"/>
<path d="M132.664 87.5068H128.136V92.0342H132.664V87.5068Z" fill="black"/>
<path d="M141.718 87.5068H137.191V92.0342H141.718V87.5068Z" fill="black"/>
<path d="M164.355 87.5068H159.828V92.0342H164.355V87.5068Z" fill="black"/>
<path d="M168.882 87.5068H164.355V92.0342H168.882V87.5068Z" fill="black"/>
<path d="M173.41 87.5068H168.882V92.0342H173.41V87.5068Z" fill="black"/>
<path d="M186.992 87.5068H182.464V92.0342H186.992V87.5068Z" fill="black"/>
<path d="M191.519 87.5068H186.992V92.0342H191.519V87.5068Z" fill="black"/>
<path d="M200.574 87.5068H196.046V92.0342H200.574V87.5068Z" fill="black"/>
<path d="M205.101 87.5068H200.574V92.0342H205.101V87.5068Z" fill="black"/>
<path d="M5.89795 92.0342H1.37061V96.5615H5.89795V92.0342Z" fill="black"/>
<path d="M10.4253 92.0342H5.89795V96.5615H10.4253V92.0342Z" fill="black"/>
<path d="M14.9526 92.0342H10.4253V96.5615H14.9526V92.0342Z" fill="black"/>
<path d="M19.48 92.0342H14.9526V96.5615H19.48V92.0342Z" fill="black"/>
<path d="M24.0073 92.0342H19.48V96.5615H24.0073V92.0342Z" fill="black"/>
<path d="M28.5346 92.0342H24.0073V96.5615H28.5346V92.0342Z" fill="black"/>
<path d="M33.0619 92.0342H28.5346V96.5615H33.0619V92.0342Z" fill="black"/>
<path d="M37.5893 92.0342H33.062V96.5615H37.5893V92.0342Z" fill="black"/>
<path d="M42.1166 92.0342H37.5893V96.5615H42.1166V92.0342Z" fill="black"/>
<path d="M51.1713 92.0342H46.644V96.5615H51.1713V92.0342Z" fill="black"/>
<path d="M55.6987 92.0342H51.1713V96.5615H55.6987V92.0342Z" fill="black"/>
<path d="M60.226 92.0342H55.6987V96.5615H60.226V92.0342Z" fill="black"/>
<path d="M64.7534 92.0342H60.226V96.5615H64.7534V92.0342Z" fill="black"/>
<path d="M78.3354 92.0342H73.808V96.5615H78.3354V92.0342Z" fill="black"/>
<path d="M82.8627 92.0342H78.3354V96.5615H82.8627V92.0342Z" fill="black"/>
<path d="M91.9175 92.0342H87.3901V96.5615H91.9175V92.0342Z" fill="black"/>
<path d="M96.4448 92.0342H91.9175V96.5615H96.4448V92.0342Z" fill="black"/>
<path d="M100.972 92.0342H96.4448V96.5615H100.972V92.0342Z" fill="black"/>
<path d="M105.5 92.0342H100.972V96.5615H105.5V92.0342Z" fill="black"/>
<path d="M110.027 92.0342H105.5V96.5615H110.027V92.0342Z" fill="black"/>
<path d="M114.554 92.0342H110.027V96.5615H114.554V92.0342Z" fill="black"/>
<path d="M123.609 92.0342H119.082V96.5615H123.609V92.0342Z" fill="black"/>
<path d="M132.664 92.0342H128.136V96.5615H132.664V92.0342Z" fill="black"/>
<path d="M137.191 92.0342H132.664V96.5615H137.191V92.0342Z" fill="black"/>
<path d="M141.718 92.0342H137.191V96.5615H141.718V92.0342Z" fill="black"/>
<path d="M155.3 92.0342H150.773V96.5615H155.3V92.0342Z" fill="black"/>
<path d="M159.828 92.0342H155.3V96.5615H159.828V92.0342Z" fill="black"/>
<path d="M164.355 92.0342H159.828V96.5615H164.355V92.0342Z" fill="black"/>
<path d="M168.882 92.0342H164.355V96.5615H168.882V92.0342Z" fill="black"/>
<path d="M173.41 92.0342H168.882V96.5615H173.41V92.0342Z" fill="black"/>
<path d="M177.937 92.0342H173.41V96.5615H177.937V92.0342Z" fill="black"/>
<path d="M182.464 92.0342H177.937V96.5615H182.464V92.0342Z" fill="black"/>
<path d="M186.992 92.0342H182.464V96.5615H186.992V92.0342Z" fill="black"/>
<path d="M200.574 92.0342H196.046V96.5615H200.574V92.0342Z" fill="black"/>
<path d="M5.89795 96.5615H1.37061V101.089H5.89795V96.5615Z" fill="black"/>
<path d="M10.4253 96.5615H5.89795V101.089H10.4253V96.5615Z" fill="black"/>
<path d="M19.48 96.5615H14.9526V101.089H19.48V96.5615Z" fill="black"/>
<path d="M24.0073 96.5615H19.48V101.089H24.0073V96.5615Z" fill="black"/>
<path d="M42.1166 96.5615H37.5893V101.089H42.1166V96.5615Z" fill="black"/>
<path d="M46.644 96.5615H42.1166V101.089H46.644V96.5615Z" fill="black"/>
<path d="M51.1713 96.5615H46.644V101.089H51.1713V96.5615Z" fill="black"/>
<path d="M55.6987 96.5615H51.1713V101.089H55.6987V96.5615Z" fill="black"/>
<path d="M60.226 96.5615H55.6987V101.089H60.226V96.5615Z" fill="black"/>
<path d="M69.2807 96.5615H64.7534V101.089H69.2807V96.5615Z" fill="black"/>
<path d="M73.808 96.5615H69.2807V101.089H73.808V96.5615Z" fill="black"/>
<path d="M78.3354 96.5615H73.808V101.089H78.3354V96.5615Z" fill="black"/>
<path d="M82.8627 96.5615H78.3354V101.089H82.8627V96.5615Z" fill="black"/>
<path d="M87.3901 96.5615H82.8627V101.089H87.3901V96.5615Z" fill="black"/>
<path d="M96.4448 96.5615H91.9175V101.089H96.4448V96.5615Z" fill="black"/>
<path d="M114.554 96.5615H110.027V101.089H114.554V96.5615Z" fill="black"/>
<path d="M141.718 96.5615H137.191V101.089H141.718V96.5615Z" fill="black"/>
<path d="M146.246 96.5615H141.718V101.089H146.246V96.5615Z" fill="black"/>
<path d="M150.773 96.5615H146.246V101.089H150.773V96.5615Z" fill="black"/>
<path d="M164.355 96.5615H159.828V101.089H164.355V96.5615Z" fill="black"/>
<path d="M168.882 96.5615H164.355V101.089H168.882V96.5615Z" fill="black"/>
<path d="M186.992 96.5615H182.464V101.089H186.992V96.5615Z" fill="black"/>
<path d="M191.519 96.5615H186.992V101.089H191.519V96.5615Z" fill="black"/>
<path d="M196.046 96.5615H191.519V101.089H196.046V96.5615Z" fill="black"/>
<path d="M5.89795 101.089H1.37061V105.616H5.89795V101.089Z" fill="black"/>
<path d="M10.4253 101.089H5.89795V105.616H10.4253V101.089Z" fill="black"/>
<path d="M24.0073 101.089H19.48V105.616H24.0073V101.089Z" fill="black"/>
<path d="M33.0619 101.089H28.5346V105.616H33.0619V101.089Z" fill="black"/>
<path d="M42.1166 101.089H37.5893V105.616H42.1166V101.089Z" fill="black"/>
<path d="M64.7534 101.089H60.226V105.616H64.7534V101.089Z" fill="black"/>
<path d="M82.8627 101.089H78.3354V105.616H82.8627V101.089Z" fill="black"/>
<path d="M87.3901 101.089H82.8627V105.616H87.3901V101.089Z" fill="black"/>
<path d="M91.9175 101.089H87.3901V105.616H91.9175V101.089Z" fill="black"/>
<path d="M96.4448 101.089H91.9175V105.616H96.4448V101.089Z" fill="black"/>
<path d="M105.5 101.089H100.972V105.616H105.5V101.089Z" fill="black"/>
<path d="M114.554 101.089H110.027V105.616H114.554V101.089Z" fill="black"/>
<path d="M123.609 101.089H119.082V105.616H123.609V101.089Z" fill="black"/>
<path d="M137.191 101.089H132.664V105.616H137.191V101.089Z" fill="black"/>
<path d="M141.718 101.089H137.191V105.616H141.718V101.089Z" fill="black"/>
<path d="M146.246 101.089H141.718V105.616H146.246V101.089Z" fill="black"/>
<path d="M155.3 101.089H150.773V105.616H155.3V101.089Z" fill="black"/>
<path d="M168.882 101.089H164.355V105.616H168.882V101.089Z" fill="black"/>
<path d="M177.937 101.089H173.41V105.616H177.937V101.089Z" fill="black"/>
<path d="M186.992 101.089H182.464V105.616H186.992V101.089Z" fill="black"/>
<path d="M191.519 101.089H186.992V105.616H191.519V101.089Z" fill="black"/>
<path d="M200.574 101.089H196.046V105.616H200.574V101.089Z" fill="black"/>
<path d="M5.89795 105.616H1.37061V110.144H5.89795V105.616Z" fill="black"/>
<path d="M19.48 105.616H14.9526V110.144H19.48V105.616Z" fill="black"/>
<path d="M24.0073 105.616H19.48V110.144H24.0073V105.616Z" fill="black"/>
<path d="M42.1166 105.616H37.5893V110.144H42.1166V105.616Z" fill="black"/>
<path d="M51.1713 105.616H46.644V110.144H51.1713V105.616Z" fill="black"/>
<path d="M55.6987 105.616H51.1713V110.144H55.6987V105.616Z" fill="black"/>
<path d="M60.226 105.616H55.6987V110.144H60.226V105.616Z" fill="black"/>
<path d="M78.3354 105.616H73.808V110.144H78.3354V105.616Z" fill="black"/>
<path d="M96.4448 105.616H91.9175V110.144H96.4448V105.616Z" fill="black"/>
<path d="M114.554 105.616H110.027V110.144H114.554V105.616Z" fill="black"/>
<path d="M119.082 105.616H114.554V110.144H119.082V105.616Z" fill="black"/>
<path d="M128.136 105.616H123.609V110.144H128.136V105.616Z" fill="black"/>
<path d="M137.191 105.616H132.664V110.144H137.191V105.616Z" fill="black"/>
<path d="M141.718 105.616H137.191V110.144H141.718V105.616Z" fill="black"/>
<path d="M146.246 105.616H141.718V110.144H146.246V105.616Z" fill="black"/>
<path d="M168.882 105.616H164.355V110.144H168.882V105.616Z" fill="black"/>
<path d="M186.992 105.616H182.464V110.144H186.992V105.616Z" fill="black"/>
<path d="M191.519 105.616H186.992V110.144H191.519V105.616Z" fill="black"/>
<path d="M196.046 105.616H191.519V110.144H196.046V105.616Z" fill="black"/>
<path d="M205.101 105.616H200.574V110.144H205.101V105.616Z" fill="black"/>
<path d="M5.89795 110.144H1.37061V114.671H5.89795V110.144Z" fill="black"/>
<path d="M24.0073 110.144H19.48V114.671H24.0073V110.144Z" fill="black"/>
<path d="M28.5346 110.144H24.0073V114.671H28.5346V110.144Z" fill="black"/>
<path d="M33.0619 110.144H28.5346V114.671H33.0619V110.144Z" fill="black"/>
<path d="M37.5893 110.144H33.062V114.671H37.5893V110.144Z" fill="black"/>
<path d="M42.1166 110.144H37.5893V114.671H42.1166V110.144Z" fill="black"/>
<path d="M46.644 110.144H42.1166V114.671H46.644V110.144Z" fill="black"/>
<path d="M55.6987 110.144H51.1713V114.671H55.6987V110.144Z" fill="black"/>
<path d="M60.226 110.144H55.6987V114.671H60.226V110.144Z" fill="black"/>
<path d="M64.7534 110.144H60.226V114.671H64.7534V110.144Z" fill="black"/>
<path d="M69.2807 110.144H64.7534V114.671H69.2807V110.144Z" fill="black"/>
<path d="M73.808 110.144H69.2807V114.671H73.808V110.144Z" fill="black"/>
<path d="M82.8627 110.144H78.3354V114.671H82.8627V110.144Z" fill="black"/>
<path d="M91.9175 110.144H87.3901V114.671H91.9175V110.144Z" fill="black"/>
<path d="M96.4448 110.144H91.9175V114.671H96.4448V110.144Z" fill="black"/>
<path d="M100.972 110.144H96.4448V114.671H100.972V110.144Z" fill="black"/>
<path d="M105.5 110.144H100.972V114.671H105.5V110.144Z" fill="black"/>
<path d="M110.027 110.144H105.5V114.671H110.027V110.144Z" fill="black"/>
<path d="M114.554 110.144H110.027V114.671H114.554V110.144Z" fill="black"/>
<path d="M123.609 110.144H119.082V114.671H123.609V110.144Z" fill="black"/>
<path d="M128.136 110.144H123.609V114.671H128.136V110.144Z" fill="black"/>
<path d="M132.664 110.144H128.136V114.671H132.664V110.144Z" fill="black"/>
<path d="M141.718 110.144H137.191V114.671H141.718V110.144Z" fill="black"/>
<path d="M150.773 110.144H146.246V114.671H150.773V110.144Z" fill="black"/>
<path d="M159.828 110.144H155.3V114.671H159.828V110.144Z" fill="black"/>
<path d="M164.355 110.144H159.828V114.671H164.355V110.144Z" fill="black"/>
<path d="M168.882 110.144H164.355V114.671H168.882V110.144Z" fill="black"/>
<path d="M173.41 110.144H168.882V114.671H173.41V110.144Z" fill="black"/>
<path d="M177.937 110.144H173.41V114.671H177.937V110.144Z" fill="black"/>
<path d="M182.464 110.144H177.937V114.671H182.464V110.144Z" fill="black"/>
<path d="M186.992 110.144H182.464V114.671H186.992V110.144Z" fill="black"/>
<path d="M196.046 110.144H191.519V114.671H196.046V110.144Z" fill="black"/>
<path d="M205.101 110.144H200.574V114.671H205.101V110.144Z" fill="black"/>
<path d="M5.89795 114.671H1.37061V119.198H5.89795V114.671Z" fill="black"/>
<path d="M10.4253 114.671H5.89795V119.198H10.4253V114.671Z" fill="black"/>
<path d="M14.9526 114.671H10.4253V119.198H14.9526V114.671Z" fill="black"/>
<path d="M24.0073 114.671H19.48V119.198H24.0073V114.671Z" fill="black"/>
<path d="M28.5346 114.671H24.0073V119.198H28.5346V114.671Z" fill="black"/>
<path d="M46.644 114.671H42.1166V119.198H46.644V114.671Z" fill="black"/>
<path d="M51.1713 114.671H46.644V119.198H51.1713V114.671Z" fill="black"/>
<path d="M60.226 114.671H55.6987V119.198H60.226V114.671Z" fill="black"/>
<path d="M73.808 114.671H69.2807V119.198H73.808V114.671Z" fill="black"/>
<path d="M78.3354 114.671H73.808V119.198H78.3354V114.671Z" fill="black"/>
<path d="M82.8627 114.671H78.3354V119.198H82.8627V114.671Z" fill="black"/>
<path d="M114.554 114.671H110.027V119.198H114.554V114.671Z" fill="black"/>
<path d="M119.082 114.671H114.554V119.198H119.082V114.671Z" fill="black"/>
<path d="M123.609 114.671H119.082V119.198H123.609V114.671Z" fill="black"/>
<path d="M132.664 114.671H128.136V119.198H132.664V114.671Z" fill="black"/>
<path d="M137.191 114.671H132.664V119.198H137.191V114.671Z" fill="black"/>
<path d="M141.718 114.671H137.191V119.198H141.718V114.671Z" fill="black"/>
<path d="M146.246 114.671H141.718V119.198H146.246V114.671Z" fill="black"/>
<path d="M150.773 114.671H146.246V119.198H150.773V114.671Z" fill="black"/>
<path d="M155.3 114.671H150.773V119.198H155.3V114.671Z" fill="black"/>
<path d="M164.355 114.671H159.828V119.198H164.355V114.671Z" fill="black"/>
<path d="M177.937 114.671H173.41V119.198H177.937V114.671Z" fill="black"/>
<path d="M186.992 114.671H182.464V119.198H186.992V114.671Z" fill="black"/>
<path d="M191.519 114.671H186.992V119.198H191.519V114.671Z" fill="black"/>
<path d="M196.046 114.671H191.519V119.198H196.046V114.671Z" fill="black"/>
<path d="M205.101 114.671H200.574V119.198H205.101V114.671Z" fill="black"/>
<path d="M14.9526 119.198H10.4253V123.726H14.9526V119.198Z" fill="black"/>
<path d="M28.5346 119.198H24.0073V123.726H28.5346V119.198Z" fill="black"/>
<path d="M33.0619 119.198H28.5346V123.726H33.0619V119.198Z" fill="black"/>
<path d="M42.1166 119.198H37.5893V123.726H42.1166V119.198Z" fill="black"/>
<path d="M51.1713 119.198H46.644V123.726H51.1713V119.198Z" fill="black"/>
<path d="M82.8627 119.198H78.3354V123.726H82.8627V119.198Z" fill="black"/>
<path d="M128.136 119.198H123.609V123.726H128.136V119.198Z" fill="black"/>
<path d="M132.664 119.198H128.136V123.726H132.664V119.198Z" fill="black"/>
<path d="M146.246 119.198H141.718V123.726H146.246V119.198Z" fill="black"/>
<path d="M155.3 119.198H150.773V123.726H155.3V119.198Z" fill="black"/>
<path d="M173.41 119.198H168.882V123.726H173.41V119.198Z" fill="black"/>
<path d="M182.464 119.198H177.937V123.726H182.464V119.198Z" fill="black"/>
<path d="M186.992 119.198H182.464V123.726H186.992V119.198Z" fill="black"/>
<path d="M200.574 119.198H196.046V123.726H200.574V119.198Z" fill="black"/>
<path d="M205.101 119.198H200.574V123.726H205.101V119.198Z" fill="black"/>
<path d="M10.4253 123.726H5.89795V128.253H10.4253V123.726Z" fill="black"/>
<path d="M14.9526 123.726H10.4253V128.253H14.9526V123.726Z" fill="black"/>
<path d="M19.48 123.726H14.9526V128.253H19.48V123.726Z" fill="black"/>
<path d="M51.1713 123.726H46.644V128.253H51.1713V123.726Z" fill="black"/>
<path d="M55.6987 123.726H51.1713V128.253H55.6987V123.726Z" fill="black"/>
<path d="M60.226 123.726H55.6987V128.253H60.226V123.726Z" fill="black"/>
<path d="M78.3354 123.726H73.808V128.253H78.3354V123.726Z" fill="black"/>
<path d="M87.3901 123.726H82.8627V128.253H87.3901V123.726Z" fill="black"/>
<path d="M96.4448 123.726H91.9175V128.253H96.4448V123.726Z" fill="black"/>
<path d="M114.554 123.726H110.027V128.253H114.554V123.726Z" fill="black"/>
<path d="M132.664 123.726H128.136V128.253H132.664V123.726Z" fill="black"/>
<path d="M137.191 123.726H132.664V128.253H137.191V123.726Z" fill="black"/>
<path d="M141.718 123.726H137.191V128.253H141.718V123.726Z" fill="black"/>
<path d="M150.773 123.726H146.246V128.253H150.773V123.726Z" fill="black"/>
<path d="M155.3 123.726H150.773V128.253H155.3V123.726Z" fill="black"/>
<path d="M168.882 123.726H164.355V128.253H168.882V123.726Z" fill="black"/>
<path d="M173.41 123.726H168.882V128.253H173.41V123.726Z" fill="black"/>
<path d="M196.046 123.726H191.519V128.253H196.046V123.726Z" fill="black"/>
<path d="M205.101 123.726H200.574V128.253H205.101V123.726Z" fill="black"/>
<path d="M10.4253 128.253H5.89795V132.78H10.4253V128.253Z" fill="black"/>
<path d="M19.48 128.253H14.9526V132.78H19.48V128.253Z" fill="black"/>
<path d="M24.0073 128.253H19.48V132.78H24.0073V128.253Z" fill="black"/>
<path d="M28.5346 128.253H24.0073V132.78H28.5346V128.253Z" fill="black"/>
<path d="M33.0619 128.253H28.5346V132.78H33.0619V128.253Z" fill="black"/>
<path d="M46.644 128.253H42.1166V132.78H46.644V128.253Z" fill="black"/>
<path d="M55.6987 128.253H51.1713V132.78H55.6987V128.253Z" fill="black"/>
<path d="M60.226 128.253H55.6987V132.78H60.226V128.253Z" fill="black"/>
<path d="M64.7534 128.253H60.226V132.78H64.7534V128.253Z" fill="black"/>
<path d="M78.3354 128.253H73.808V132.78H78.3354V128.253Z" fill="black"/>
<path d="M82.8627 128.253H78.3354V132.78H82.8627V128.253Z" fill="black"/>
<path d="M87.3901 128.253H82.8627V132.78H87.3901V128.253Z" fill="black"/>
<path d="M91.9175 128.253H87.3901V132.78H91.9175V128.253Z" fill="black"/>
<path d="M100.972 128.253H96.4448V132.78H100.972V128.253Z" fill="black"/>
<path d="M105.5 128.253H100.972V132.78H105.5V128.253Z" fill="black"/>
<path d="M110.027 128.253H105.5V132.78H110.027V128.253Z" fill="black"/>
<path d="M114.554 128.253H110.027V132.78H114.554V128.253Z" fill="black"/>
<path d="M123.609 128.253H119.082V132.78H123.609V128.253Z" fill="black"/>
<path d="M132.664 128.253H128.136V132.78H132.664V128.253Z" fill="black"/>
<path d="M137.191 128.253H132.664V132.78H137.191V128.253Z" fill="black"/>
<path d="M141.718 128.253H137.191V132.78H141.718V128.253Z" fill="black"/>
<path d="M155.3 128.253H150.773V132.78H155.3V128.253Z" fill="black"/>
<path d="M159.828 128.253H155.3V132.78H159.828V128.253Z" fill="black"/>
<path d="M164.355 128.253H159.828V132.78H164.355V128.253Z" fill="black"/>
<path d="M168.882 128.253H164.355V132.78H168.882V128.253Z" fill="black"/>
<path d="M173.41 128.253H168.882V132.78H173.41V128.253Z" fill="black"/>
<path d="M182.464 128.253H177.937V132.78H182.464V128.253Z" fill="black"/>
<path d="M191.519 128.253H186.992V132.78H191.519V128.253Z" fill="black"/>
<path d="M196.046 128.253H191.519V132.78H196.046V128.253Z" fill="black"/>
<path d="M200.574 128.253H196.046V132.78H200.574V128.253Z" fill="black"/>
<path d="M5.89795 132.78H1.37061V137.308H5.89795V132.78Z" fill="black"/>
<path d="M10.4253 132.78H5.89795V137.308H10.4253V132.78Z" fill="black"/>
<path d="M24.0073 132.78H19.48V137.308H24.0073V132.78Z" fill="black"/>
<path d="M60.226 132.78H55.6987V137.308H60.226V132.78Z" fill="black"/>
<path d="M69.2807 132.78H64.7534V137.308H69.2807V132.78Z" fill="black"/>
<path d="M73.808 132.78H69.2807V137.308H73.808V132.78Z" fill="black"/>
<path d="M87.3901 132.78H82.8627V137.308H87.3901V132.78Z" fill="black"/>
<path d="M96.4448 132.78H91.9175V137.308H96.4448V132.78Z" fill="black"/>
<path d="M100.972 132.78H96.4448V137.308H100.972V132.78Z" fill="black"/>
<path d="M123.609 132.78H119.082V137.308H123.609V132.78Z" fill="black"/>
<path d="M128.136 132.78H123.609V137.308H128.136V132.78Z" fill="black"/>
<path d="M146.246 132.78H141.718V137.308H146.246V132.78Z" fill="black"/>
<path d="M150.773 132.78H146.246V137.308H150.773V132.78Z" fill="black"/>
<path d="M159.828 132.78H155.3V137.308H159.828V132.78Z" fill="black"/>
<path d="M164.355 132.78H159.828V137.308H164.355V132.78Z" fill="black"/>
<path d="M173.41 132.78H168.882V137.308H173.41V132.78Z" fill="black"/>
<path d="M177.937 132.78H173.41V137.308H177.937V132.78Z" fill="black"/>
<path d="M191.519 132.78H186.992V137.308H191.519V132.78Z" fill="black"/>
<path d="M196.046 132.78H191.519V137.308H196.046V132.78Z" fill="black"/>
<path d="M200.574 132.78H196.046V137.308H200.574V132.78Z" fill="black"/>
<path d="M5.89795 137.308H1.37061V141.835H5.89795V137.308Z" fill="black"/>
<path d="M14.9526 137.308H10.4253V141.835H14.9526V137.308Z" fill="black"/>
<path d="M24.0073 137.308H19.48V141.835H24.0073V137.308Z" fill="black"/>
<path d="M33.0619 137.308H28.5346V141.835H33.0619V137.308Z" fill="black"/>
<path d="M37.5893 137.308H33.062V141.835H37.5893V137.308Z" fill="black"/>
<path d="M42.1166 137.308H37.5893V141.835H42.1166V137.308Z" fill="black"/>
<path d="M46.644 137.308H42.1166V141.835H46.644V137.308Z" fill="black"/>
<path d="M51.1713 137.308H46.644V141.835H51.1713V137.308Z" fill="black"/>
<path d="M55.6987 137.308H51.1713V141.835H55.6987V137.308Z" fill="black"/>
<path d="M60.226 137.308H55.6987V141.835H60.226V137.308Z" fill="black"/>
<path d="M64.7534 137.308H60.226V141.835H64.7534V137.308Z" fill="black"/>
<path d="M69.2807 137.308H64.7534V141.835H69.2807V137.308Z" fill="black"/>
<path d="M73.808 137.308H69.2807V141.835H73.808V137.308Z" fill="black"/>
<path d="M91.9175 137.308H87.3901V141.835H91.9175V137.308Z" fill="black"/>
<path d="M96.4448 137.308H91.9175V141.835H96.4448V137.308Z" fill="black"/>
<path d="M100.972 137.308H96.4448V141.835H100.972V137.308Z" fill="black"/>
<path d="M105.5 137.308H100.972V141.835H105.5V137.308Z" fill="black"/>
<path d="M119.082 137.308H114.554V141.835H119.082V137.308Z" fill="black"/>
<path d="M123.609 137.308H119.082V141.835H123.609V137.308Z" fill="black"/>
<path d="M128.136 137.308H123.609V141.835H128.136V137.308Z" fill="black"/>
<path d="M132.664 137.308H128.136V141.835H132.664V137.308Z" fill="black"/>
<path d="M141.718 137.308H137.191V141.835H141.718V137.308Z" fill="black"/>
<path d="M146.246 137.308H141.718V141.835H146.246V137.308Z" fill="black"/>
<path d="M159.828 137.308H155.3V141.835H159.828V137.308Z" fill="black"/>
<path d="M186.992 137.308H182.464V141.835H186.992V137.308Z" fill="black"/>
<path d="M191.519 137.308H186.992V141.835H191.519V137.308Z" fill="black"/>
<path d="M200.574 137.308H196.046V141.835H200.574V137.308Z" fill="black"/>
<path d="M14.9526 141.835H10.4253V146.362H14.9526V141.835Z" fill="black"/>
<path d="M19.48 141.835H14.9526V146.362H19.48V141.835Z" fill="black"/>
<path d="M24.0073 141.835H19.48V146.362H24.0073V141.835Z" fill="black"/>
<path d="M28.5346 141.835H24.0073V146.362H28.5346V141.835Z" fill="black"/>
<path d="M37.5893 141.835H33.062V146.362H37.5893V141.835Z" fill="black"/>
<path d="M64.7534 141.835H60.226V146.362H64.7534V141.835Z" fill="black"/>
<path d="M73.808 141.835H69.2807V146.362H73.808V141.835Z" fill="black"/>
<path d="M87.3901 141.835H82.8627V146.362H87.3901V141.835Z" fill="black"/>
<path d="M100.972 141.835H96.4448V146.362H100.972V141.835Z" fill="black"/>
<path d="M105.5 141.835H100.972V146.362H105.5V141.835Z" fill="black"/>
<path d="M110.027 141.835H105.5V146.362H110.027V141.835Z" fill="black"/>
<path d="M114.554 141.835H110.027V146.362H114.554V141.835Z" fill="black"/>
<path d="M132.664 141.835H128.136V146.362H132.664V141.835Z" fill="black"/>
<path d="M137.191 141.835H132.664V146.362H137.191V141.835Z" fill="black"/>
<path d="M146.246 141.835H141.718V146.362H146.246V141.835Z" fill="black"/>
<path d="M150.773 141.835H146.246V146.362H150.773V141.835Z" fill="black"/>
<path d="M155.3 141.835H150.773V146.362H155.3V141.835Z" fill="black"/>
<path d="M164.355 141.835H159.828V146.362H164.355V141.835Z" fill="black"/>
<path d="M173.41 141.835H168.882V146.362H173.41V141.835Z" fill="black"/>
<path d="M177.937 141.835H173.41V146.362H177.937V141.835Z" fill="black"/>
<path d="M196.046 141.835H191.519V146.362H196.046V141.835Z" fill="black"/>
<path d="M205.101 141.835H200.574V146.362H205.101V141.835Z" fill="black"/>
<path d="M19.48 146.362H14.9526V150.89H19.48V146.362Z" fill="black"/>
<path d="M24.0073 146.362H19.48V150.89H24.0073V146.362Z" fill="black"/>
<path d="M28.5346 146.362H24.0073V150.89H28.5346V146.362Z" fill="black"/>
<path d="M33.0619 146.362H28.5346V150.89H33.0619V146.362Z" fill="black"/>
<path d="M42.1166 146.362H37.5893V150.89H42.1166V146.362Z" fill="black"/>
<path d="M46.644 146.362H42.1166V150.89H46.644V146.362Z" fill="black"/>
<path d="M51.1713 146.362H46.644V150.89H51.1713V146.362Z" fill="black"/>
<path d="M64.7534 146.362H60.226V150.89H64.7534V146.362Z" fill="black"/>
<path d="M69.2807 146.362H64.7534V150.89H69.2807V146.362Z" fill="black"/>
<path d="M73.808 146.362H69.2807V150.89H73.808V146.362Z" fill="black"/>
<path d="M91.9175 146.362H87.3901V150.89H91.9175V146.362Z" fill="black"/>
<path d="M96.4448 146.362H91.9175V150.89H96.4448V146.362Z" fill="black"/>
<path d="M100.972 146.362H96.4448V150.89H100.972V146.362Z" fill="black"/>
<path d="M110.027 146.362H105.5V150.89H110.027V146.362Z" fill="black"/>
<path d="M114.554 146.362H110.027V150.89H114.554V146.362Z" fill="black"/>
<path d="M132.664 146.362H128.136V150.89H132.664V146.362Z" fill="black"/>
<path d="M155.3 146.362H150.773V150.89H155.3V146.362Z" fill="black"/>
<path d="M159.828 146.362H155.3V150.89H159.828V146.362Z" fill="black"/>
<path d="M164.355 146.362H159.828V150.89H164.355V146.362Z" fill="black"/>
<path d="M173.41 146.362H168.882V150.89H173.41V146.362Z" fill="black"/>
<path d="M186.992 146.362H182.464V150.89H186.992V146.362Z" fill="black"/>
<path d="M196.046 146.362H191.519V150.89H196.046V146.362Z" fill="black"/>
<path d="M200.574 146.362H196.046V150.89H200.574V146.362Z" fill="black"/>
<path d="M5.89795 150.89H1.37061V155.417H5.89795V150.89Z" fill="black"/>
<path d="M10.4253 150.89H5.89795V155.417H10.4253V150.89Z" fill="black"/>
<path d="M14.9526 150.89H10.4253V155.417H14.9526V150.89Z" fill="black"/>
<path d="M24.0073 150.89H19.48V155.417H24.0073V150.89Z" fill="black"/>
<path d="M28.5346 150.89H24.0073V155.417H28.5346V150.89Z" fill="black"/>
<path d="M46.644 150.89H42.1166V155.417H46.644V150.89Z" fill="black"/>
<path d="M60.226 150.89H55.6987V155.417H60.226V150.89Z" fill="black"/>
<path d="M69.2807 150.89H64.7534V155.417H69.2807V150.89Z" fill="black"/>
<path d="M91.9175 150.89H87.3901V155.417H91.9175V150.89Z" fill="black"/>
<path d="M100.972 150.89H96.4448V155.417H100.972V150.89Z" fill="black"/>
<path d="M105.5 150.89H100.972V155.417H105.5V150.89Z" fill="black"/>
<path d="M110.027 150.89H105.5V155.417H110.027V150.89Z" fill="black"/>
<path d="M123.609 150.89H119.082V155.417H123.609V150.89Z" fill="black"/>
<path d="M132.664 150.89H128.136V155.417H132.664V150.89Z" fill="black"/>
<path d="M141.718 150.89H137.191V155.417H141.718V150.89Z" fill="black"/>
<path d="M146.246 150.89H141.718V155.417H146.246V150.89Z" fill="black"/>
<path d="M150.773 150.89H146.246V155.417H150.773V150.89Z" fill="black"/>
<path d="M159.828 150.89H155.3V155.417H159.828V150.89Z" fill="black"/>
<path d="M164.355 150.89H159.828V155.417H164.355V150.89Z" fill="black"/>
<path d="M168.882 150.89H164.355V155.417H168.882V150.89Z" fill="black"/>
<path d="M177.937 150.89H173.41V155.417H177.937V150.89Z" fill="black"/>
<path d="M182.464 150.89H177.937V155.417H182.464V150.89Z" fill="black"/>
<path d="M186.992 150.89H182.464V155.417H186.992V150.89Z" fill="black"/>
<path d="M191.519 150.89H186.992V155.417H191.519V150.89Z" fill="black"/>
<path d="M196.046 150.89H191.519V155.417H196.046V150.89Z" fill="black"/>
<path d="M200.574 150.89H196.046V155.417H200.574V150.89Z" fill="black"/>
<path d="M205.101 150.89H200.574V155.417H205.101V150.89Z" fill="black"/>
<path d="M24.0073 155.417H19.48V159.944H24.0073V155.417Z" fill="black"/>
<path d="M33.0619 155.417H28.5346V159.944H33.0619V155.417Z" fill="black"/>
<path d="M37.5893 155.417H33.062V159.944H37.5893V155.417Z" fill="black"/>
<path d="M51.1713 155.417H46.644V159.944H51.1713V155.417Z" fill="black"/>
<path d="M55.6987 155.417H51.1713V159.944H55.6987V155.417Z" fill="black"/>
<path d="M60.226 155.417H55.6987V159.944H60.226V155.417Z" fill="black"/>
<path d="M64.7534 155.417H60.226V159.944H64.7534V155.417Z" fill="black"/>
<path d="M69.2807 155.417H64.7534V159.944H69.2807V155.417Z" fill="black"/>
<path d="M87.3901 155.417H82.8627V159.944H87.3901V155.417Z" fill="black"/>
<path d="M105.5 155.417H100.972V159.944H105.5V155.417Z" fill="black"/>
<path d="M110.027 155.417H105.5V159.944H110.027V155.417Z" fill="black"/>
<path d="M123.609 155.417H119.082V159.944H123.609V155.417Z" fill="black"/>
<path d="M132.664 155.417H128.136V159.944H132.664V155.417Z" fill="black"/>
<path d="M137.191 155.417H132.664V159.944H137.191V155.417Z" fill="black"/>
<path d="M146.246 155.417H141.718V159.944H146.246V155.417Z" fill="black"/>
<path d="M155.3 155.417H150.773V159.944H155.3V155.417Z" fill="black"/>
<path d="M159.828 155.417H155.3V159.944H159.828V155.417Z" fill="black"/>
<path d="M173.41 155.417H168.882V159.944H173.41V155.417Z" fill="black"/>
<path d="M177.937 155.417H173.41V159.944H177.937V155.417Z" fill="black"/>
<path d="M182.464 155.417H177.937V159.944H182.464V155.417Z" fill="black"/>
<path d="M186.992 155.417H182.464V159.944H186.992V155.417Z" fill="black"/>
<path d="M200.574 155.417H196.046V159.944H200.574V155.417Z" fill="black"/>
<path d="M205.101 155.417H200.574V159.944H205.101V155.417Z" fill="black"/>
<path d="M10.4253 159.944H5.89795V164.472H10.4253V159.944Z" fill="black"/>
<path d="M14.9526 159.944H10.4253V164.472H14.9526V159.944Z" fill="black"/>
<path d="M19.48 159.944H14.9526V164.472H19.48V159.944Z" fill="black"/>
<path d="M24.0073 159.944H19.48V164.472H24.0073V159.944Z" fill="black"/>
<path d="M46.644 159.944H42.1166V164.472H46.644V159.944Z" fill="black"/>
<path d="M55.6987 159.944H51.1713V164.472H55.6987V159.944Z" fill="black"/>
<path d="M60.226 159.944H55.6987V164.472H60.226V159.944Z" fill="black"/>
<path d="M73.808 159.944H69.2807V164.472H73.808V159.944Z" fill="black"/>
<path d="M78.3354 159.944H73.808V164.472H78.3354V159.944Z" fill="black"/>
<path d="M87.3901 159.944H82.8627V164.472H87.3901V159.944Z" fill="black"/>
<path d="M96.4448 159.944H91.9175V164.472H96.4448V159.944Z" fill="black"/>
<path d="M100.972 159.944H96.4448V164.472H100.972V159.944Z" fill="black"/>
<path d="M105.5 159.944H100.972V164.472H105.5V159.944Z" fill="black"/>
<path d="M110.027 159.944H105.5V164.472H110.027V159.944Z" fill="black"/>
<path d="M114.554 159.944H110.027V164.472H114.554V159.944Z" fill="black"/>
<path d="M123.609 159.944H119.082V164.472H123.609V159.944Z" fill="black"/>
<path d="M132.664 159.944H128.136V164.472H132.664V159.944Z" fill="black"/>
<path d="M137.191 159.944H132.664V164.472H137.191V159.944Z" fill="black"/>
<path d="M141.718 159.944H137.191V164.472H141.718V159.944Z" fill="black"/>
<path d="M146.246 159.944H141.718V164.472H146.246V159.944Z" fill="black"/>
<path d="M150.773 159.944H146.246V164.472H150.773V159.944Z" fill="black"/>
<path d="M164.355 159.944H159.828V164.472H164.355V159.944Z" fill="black"/>
<path d="M173.41 159.944H168.882V164.472H173.41V159.944Z" fill="black"/>
<path d="M205.101 159.944H200.574V164.472H205.101V159.944Z" fill="black"/>
<path d="M5.89795 164.472H1.37061V168.999H5.89795V164.472Z" fill="black"/>
<path d="M19.48 164.472H14.9526V168.999H19.48V164.472Z" fill="black"/>
<path d="M24.0073 164.472H19.48V168.999H24.0073V164.472Z" fill="black"/>
<path d="M33.0619 164.472H28.5346V168.999H33.0619V164.472Z" fill="black"/>
<path d="M51.1713 164.472H46.644V168.999H51.1713V164.472Z" fill="black"/>
<path d="M55.6987 164.472H51.1713V168.999H55.6987V164.472Z" fill="black"/>
<path d="M60.226 164.472H55.6987V168.999H60.226V164.472Z" fill="black"/>
<path d="M64.7534 164.472H60.226V168.999H64.7534V164.472Z" fill="black"/>
<path d="M69.2807 164.472H64.7534V168.999H69.2807V164.472Z" fill="black"/>
<path d="M73.808 164.472H69.2807V168.999H73.808V164.472Z" fill="black"/>
<path d="M82.8627 164.472H78.3354V168.999H82.8627V164.472Z" fill="black"/>
<path d="M96.4448 164.472H91.9175V168.999H96.4448V164.472Z" fill="black"/>
<path d="M100.972 164.472H96.4448V168.999H100.972V164.472Z" fill="black"/>
<path d="M105.5 164.472H100.972V168.999H105.5V164.472Z" fill="black"/>
<path d="M110.027 164.472H105.5V168.999H110.027V164.472Z" fill="black"/>
<path d="M114.554 164.472H110.027V168.999H114.554V164.472Z" fill="black"/>
<path d="M119.082 164.472H114.554V168.999H119.082V164.472Z" fill="black"/>
<path d="M123.609 164.472H119.082V168.999H123.609V164.472Z" fill="black"/>
<path d="M128.136 164.472H123.609V168.999H128.136V164.472Z" fill="black"/>
<path d="M141.718 164.472H137.191V168.999H141.718V164.472Z" fill="black"/>
<path d="M159.828 164.472H155.3V168.999H159.828V164.472Z" fill="black"/>
<path d="M164.355 164.472H159.828V168.999H164.355V164.472Z" fill="black"/>
<path d="M168.882 164.472H164.355V168.999H168.882V164.472Z" fill="black"/>
<path d="M173.41 164.472H168.882V168.999H173.41V164.472Z" fill="black"/>
<path d="M177.937 164.472H173.41V168.999H177.937V164.472Z" fill="black"/>
<path d="M182.464 164.472H177.937V168.999H182.464V164.472Z" fill="black"/>
<path d="M186.992 164.472H182.464V168.999H186.992V164.472Z" fill="black"/>
<path d="M196.046 164.472H191.519V168.999H196.046V164.472Z" fill="black"/>
<path d="M42.1166 168.999H37.5893V173.526H42.1166V168.999Z" fill="black"/>
<path d="M46.644 168.999H42.1166V173.526H46.644V168.999Z" fill="black"/>
<path d="M51.1713 168.999H46.644V173.526H51.1713V168.999Z" fill="black"/>
<path d="M55.6987 168.999H51.1713V173.526H55.6987V168.999Z" fill="black"/>
<path d="M73.808 168.999H69.2807V173.526H73.808V168.999Z" fill="black"/>
<path d="M82.8627 168.999H78.3354V173.526H82.8627V168.999Z" fill="black"/>
<path d="M96.4448 168.999H91.9175V173.526H96.4448V168.999Z" fill="black"/>
<path d="M114.554 168.999H110.027V173.526H114.554V168.999Z" fill="black"/>
<path d="M123.609 168.999H119.082V173.526H123.609V168.999Z" fill="black"/>
<path d="M128.136 168.999H123.609V173.526H128.136V168.999Z" fill="black"/>
<path d="M132.664 168.999H128.136V173.526H132.664V168.999Z" fill="black"/>
<path d="M137.191 168.999H132.664V173.526H137.191V168.999Z" fill="black"/>
<path d="M150.773 168.999H146.246V173.526H150.773V168.999Z" fill="black"/>
<path d="M155.3 168.999H150.773V173.526H155.3V168.999Z" fill="black"/>
<path d="M168.882 168.999H164.355V173.526H168.882V168.999Z" fill="black"/>
<path d="M186.992 168.999H182.464V173.526H186.992V168.999Z" fill="black"/>
<path d="M191.519 168.999H186.992V173.526H191.519V168.999Z" fill="black"/>
<path d="M196.046 168.999H191.519V173.526H196.046V168.999Z" fill="black"/>
<path d="M200.574 168.999H196.046V173.526H200.574V168.999Z" fill="black"/>
<path d="M5.89795 173.526H1.37061V178.054H5.89795V173.526Z" fill="black"/>
<path d="M10.4253 173.526H5.89795V178.054H10.4253V173.526Z" fill="black"/>
<path d="M14.9526 173.526H10.4253V178.054H14.9526V173.526Z" fill="black"/>
<path d="M19.48 173.526H14.9526V178.054H19.48V173.526Z" fill="black"/>
<path d="M24.0073 173.526H19.48V178.054H24.0073V173.526Z" fill="black"/>
<path d="M28.5346 173.526H24.0073V178.054H28.5346V173.526Z" fill="black"/>
<path d="M33.0619 173.526H28.5346V178.054H33.0619V173.526Z" fill="black"/>
<path d="M64.7534 173.526H60.226V178.054H64.7534V173.526Z" fill="black"/>
<path d="M69.2807 173.526H64.7534V178.054H69.2807V173.526Z" fill="black"/>
<path d="M73.808 173.526H69.2807V178.054H73.808V173.526Z" fill="black"/>
<path d="M78.3354 173.526H73.808V178.054H78.3354V173.526Z" fill="black"/>
<path d="M87.3901 173.526H82.8627V178.054H87.3901V173.526Z" fill="black"/>
<path d="M91.9175 173.526H87.3901V178.054H91.9175V173.526Z" fill="black"/>
<path d="M96.4448 173.526H91.9175V178.054H96.4448V173.526Z" fill="black"/>
<path d="M105.5 173.526H100.972V178.054H105.5V173.526Z" fill="black"/>
<path d="M114.554 173.526H110.027V178.054H114.554V173.526Z" fill="black"/>
<path d="M132.664 173.526H128.136V178.054H132.664V173.526Z" fill="black"/>
<path d="M137.191 173.526H132.664V178.054H137.191V173.526Z" fill="black"/>
<path d="M141.718 173.526H137.191V178.054H141.718V173.526Z" fill="black"/>
<path d="M146.246 173.526H141.718V178.054H146.246V173.526Z" fill="black"/>
<path d="M155.3 173.526H150.773V178.054H155.3V173.526Z" fill="black"/>
<path d="M164.355 173.526H159.828V178.054H164.355V173.526Z" fill="black"/>
<path d="M168.882 173.526H164.355V178.054H168.882V173.526Z" fill="black"/>
<path d="M177.937 173.526H173.41V178.054H177.937V173.526Z" fill="black"/>
<path d="M186.992 173.526H182.464V178.054H186.992V173.526Z" fill="black"/>
<path d="M5.89795 178.054H1.37061V182.581H5.89795V178.054Z" fill="black"/>
<path d="M33.0619 178.054H28.5346V182.581H33.0619V178.054Z" fill="black"/>
<path d="M46.644 178.054H42.1166V182.581H46.644V178.054Z" fill="black"/>
<path d="M60.226 178.054H55.6987V182.581H60.226V178.054Z" fill="black"/>
<path d="M64.7534 178.054H60.226V182.581H64.7534V178.054Z" fill="black"/>
<path d="M73.808 178.054H69.2807V182.581H73.808V178.054Z" fill="black"/>
<path d="M78.3354 178.054H73.808V182.581H78.3354V178.054Z" fill="black"/>
<path d="M82.8627 178.054H78.3354V182.581H82.8627V178.054Z" fill="black"/>
<path d="M87.3901 178.054H82.8627V182.581H87.3901V178.054Z" fill="black"/>
<path d="M91.9175 178.054H87.3901V182.581H91.9175V178.054Z" fill="black"/>
<path d="M96.4448 178.054H91.9175V182.581H96.4448V178.054Z" fill="black"/>
<path d="M114.554 178.054H110.027V182.581H114.554V178.054Z" fill="black"/>
<path d="M128.136 178.054H123.609V182.581H128.136V178.054Z" fill="black"/>
<path d="M137.191 178.054H132.664V182.581H137.191V178.054Z" fill="black"/>
<path d="M141.718 178.054H137.191V182.581H141.718V178.054Z" fill="black"/>
<path d="M146.246 178.054H141.718V182.581H146.246V178.054Z" fill="black"/>
<path d="M150.773 178.054H146.246V182.581H150.773V178.054Z" fill="black"/>
<path d="M155.3 178.054H150.773V182.581H155.3V178.054Z" fill="black"/>
<path d="M168.882 178.054H164.355V182.581H168.882V178.054Z" fill="black"/>
<path d="M186.992 178.054H182.464V182.581H186.992V178.054Z" fill="black"/>
<path d="M191.519 178.054H186.992V182.581H191.519V178.054Z" fill="black"/>
<path d="M196.046 178.054H191.519V182.581H196.046V178.054Z" fill="black"/>
<path d="M205.101 178.054H200.574V182.581H205.101V178.054Z" fill="black"/>
<path d="M5.89795 182.581H1.37061V187.108H5.89795V182.581Z" fill="black"/>
<path d="M14.9526 182.581H10.4253V187.108H14.9526V182.581Z" fill="black"/>
<path d="M19.48 182.581H14.9526V187.108H19.48V182.581Z" fill="black"/>
<path d="M24.0073 182.581H19.48V187.108H24.0073V182.581Z" fill="black"/>
<path d="M33.0619 182.581H28.5346V187.108H33.0619V182.581Z" fill="black"/>
<path d="M42.1166 182.581H37.5893V187.108H42.1166V182.581Z" fill="black"/>
<path d="M60.226 182.581H55.6987V187.108H60.226V182.581Z" fill="black"/>
<path d="M64.7534 182.581H60.226V187.108H64.7534V182.581Z" fill="black"/>
<path d="M78.3354 182.581H73.808V187.108H78.3354V182.581Z" fill="black"/>
<path d="M82.8627 182.581H78.3354V187.108H82.8627V182.581Z" fill="black"/>
<path d="M96.4448 182.581H91.9175V187.108H96.4448V182.581Z" fill="black"/>
<path d="M100.972 182.581H96.4448V187.108H100.972V182.581Z" fill="black"/>
<path d="M105.5 182.581H100.972V187.108H105.5V182.581Z" fill="black"/>
<path d="M110.027 182.581H105.5V187.108H110.027V182.581Z" fill="black"/>
<path d="M114.554 182.581H110.027V187.108H114.554V182.581Z" fill="black"/>
<path d="M123.609 182.581H119.082V187.108H123.609V182.581Z" fill="black"/>
<path d="M128.136 182.581H123.609V187.108H128.136V182.581Z" fill="black"/>
<path d="M132.664 182.581H128.136V187.108H132.664V182.581Z" fill="black"/>
<path d="M141.718 182.581H137.191V187.108H141.718V182.581Z" fill="black"/>
<path d="M146.246 182.581H141.718V187.108H146.246V182.581Z" fill="black"/>
<path d="M150.773 182.581H146.246V187.108H150.773V182.581Z" fill="black"/>
<path d="M159.828 182.581H155.3V187.108H159.828V182.581Z" fill="black"/>
<path d="M168.882 182.581H164.355V187.108H168.882V182.581Z" fill="black"/>
<path d="M173.41 182.581H168.882V187.108H173.41V182.581Z" fill="black"/>
<path d="M177.937 182.581H173.41V187.108H177.937V182.581Z" fill="black"/>
<path d="M182.464 182.581H177.937V187.108H182.464V182.581Z" fill="black"/>
<path d="M186.992 182.581H182.464V187.108H186.992V182.581Z" fill="black"/>
<path d="M191.519 182.581H186.992V187.108H191.519V182.581Z" fill="black"/>
<path d="M200.574 182.581H196.046V187.108H200.574V182.581Z" fill="black"/>
<path d="M5.89795 187.108H1.37061V191.636H5.89795V187.108Z" fill="black"/>
<path d="M14.9526 187.108H10.4253V191.636H14.9526V187.108Z" fill="black"/>
<path d="M19.48 187.108H14.9526V191.636H19.48V187.108Z" fill="black"/>
<path d="M24.0073 187.108H19.48V191.636H24.0073V187.108Z" fill="black"/>
<path d="M33.0619 187.108H28.5346V191.636H33.0619V187.108Z" fill="black"/>
<path d="M42.1166 187.108H37.5893V191.636H42.1166V187.108Z" fill="black"/>
<path d="M51.1713 187.108H46.644V191.636H51.1713V187.108Z" fill="black"/>
<path d="M60.226 187.108H55.6987V191.636H60.226V187.108Z" fill="black"/>
<path d="M64.7534 187.108H60.226V191.636H64.7534V187.108Z" fill="black"/>
<path d="M73.808 187.108H69.2807V191.636H73.808V187.108Z" fill="black"/>
<path d="M91.9175 187.108H87.3901V191.636H91.9175V187.108Z" fill="black"/>
<path d="M100.972 187.108H96.4448V191.636H100.972V187.108Z" fill="black"/>
<path d="M105.5 187.108H100.972V191.636H105.5V187.108Z" fill="black"/>
<path d="M110.027 187.108H105.5V191.636H110.027V187.108Z" fill="black"/>
<path d="M123.609 187.108H119.082V191.636H123.609V187.108Z" fill="black"/>
<path d="M128.136 187.108H123.609V191.636H128.136V187.108Z" fill="black"/>
<path d="M132.664 187.108H128.136V191.636H132.664V187.108Z" fill="black"/>
<path d="M137.191 187.108H132.664V191.636H137.191V187.108Z" fill="black"/>
<path d="M141.718 187.108H137.191V191.636H141.718V187.108Z" fill="black"/>
<path d="M150.773 187.108H146.246V191.636H150.773V187.108Z" fill="black"/>
<path d="M159.828 187.108H155.3V191.636H159.828V187.108Z" fill="black"/>
<path d="M164.355 187.108H159.828V191.636H164.355V187.108Z" fill="black"/>
<path d="M173.41 187.108H168.882V191.636H173.41V187.108Z" fill="black"/>
<path d="M191.519 187.108H186.992V191.636H191.519V187.108Z" fill="black"/>
<path d="M196.046 187.108H191.519V191.636H196.046V187.108Z" fill="black"/>
<path d="M200.574 187.108H196.046V191.636H200.574V187.108Z" fill="black"/>
<path d="M5.89795 191.636H1.37061V196.163H5.89795V191.636Z" fill="black"/>
<path d="M14.9526 191.636H10.4253V196.163H14.9526V191.636Z" fill="black"/>
<path d="M19.48 191.636H14.9526V196.163H19.48V191.636Z" fill="black"/>
<path d="M24.0073 191.636H19.48V196.163H24.0073V191.636Z" fill="black"/>
<path d="M33.0619 191.636H28.5346V196.163H33.0619V191.636Z" fill="black"/>
<path d="M42.1166 191.636H37.5893V196.163H42.1166V191.636Z" fill="black"/>
<path d="M46.644 191.636H42.1166V196.163H46.644V191.636Z" fill="black"/>
<path d="M51.1713 191.636H46.644V196.163H51.1713V191.636Z" fill="black"/>
<path d="M55.6987 191.636H51.1713V196.163H55.6987V191.636Z" fill="black"/>
<path d="M64.7534 191.636H60.226V196.163H64.7534V191.636Z" fill="black"/>
<path d="M69.2807 191.636H64.7534V196.163H69.2807V191.636Z" fill="black"/>
<path d="M96.4448 191.636H91.9175V196.163H96.4448V191.636Z" fill="black"/>
<path d="M100.972 191.636H96.4448V196.163H100.972V191.636Z" fill="black"/>
<path d="M105.5 191.636H100.972V196.163H105.5V191.636Z" fill="black"/>
<path d="M110.027 191.636H105.5V196.163H110.027V191.636Z" fill="black"/>
<path d="M132.664 191.636H128.136V196.163H132.664V191.636Z" fill="black"/>
<path d="M137.191 191.636H132.664V196.163H137.191V191.636Z" fill="black"/>
<path d="M141.718 191.636H137.191V196.163H141.718V191.636Z" fill="black"/>
<path d="M164.355 191.636H159.828V196.163H164.355V191.636Z" fill="black"/>
<path d="M168.882 191.636H164.355V196.163H168.882V191.636Z" fill="black"/>
<path d="M173.41 191.636H168.882V196.163H173.41V191.636Z" fill="black"/>
<path d="M177.937 191.636H173.41V196.163H177.937V191.636Z" fill="black"/>
<path d="M182.464 191.636H177.937V196.163H182.464V191.636Z" fill="black"/>
<path d="M186.992 191.636H182.464V196.163H186.992V191.636Z" fill="black"/>
<path d="M5.89795 196.163H1.37061V200.69H5.89795V196.163Z" fill="black"/>
<path d="M33.0619 196.163H28.5346V200.69H33.0619V196.163Z" fill="black"/>
<path d="M51.1713 196.163H46.644V200.69H51.1713V196.163Z" fill="black"/>
<path d="M60.226 196.163H55.6987V200.69H60.226V196.163Z" fill="black"/>
<path d="M69.2807 196.163H64.7534V200.69H69.2807V196.163Z" fill="black"/>
<path d="M73.808 196.163H69.2807V200.69H73.808V196.163Z" fill="black"/>
<path d="M82.8627 196.163H78.3354V200.69H82.8627V196.163Z" fill="black"/>
<path d="M96.4448 196.163H91.9175V200.69H96.4448V196.163Z" fill="black"/>
<path d="M105.5 196.163H100.972V200.69H105.5V196.163Z" fill="black"/>
<path d="M119.082 196.163H114.554V200.69H119.082V196.163Z" fill="black"/>
<path d="M132.664 196.163H128.136V200.69H132.664V196.163Z" fill="black"/>
<path d="M137.191 196.163H132.664V200.69H137.191V196.163Z" fill="black"/>
<path d="M146.246 196.163H141.718V200.69H146.246V196.163Z" fill="black"/>
<path d="M182.464 196.163H177.937V200.69H182.464V196.163Z" fill="black"/>
<path d="M186.992 196.163H182.464V200.69H186.992V196.163Z" fill="black"/>
<path d="M191.519 196.163H186.992V200.69H191.519V196.163Z" fill="black"/>
<path d="M200.574 196.163H196.046V200.69H200.574V196.163Z" fill="black"/>
<path d="M205.101 196.163H200.574V200.69H205.101V196.163Z" fill="black"/>
<path d="M5.89795 200.69H1.37061V205.218H5.89795V200.69Z" fill="black"/>
<path d="M10.4253 200.69H5.89795V205.218H10.4253V200.69Z" fill="black"/>
<path d="M14.9526 200.69H10.4253V205.218H14.9526V200.69Z" fill="black"/>
<path d="M19.48 200.69H14.9526V205.218H19.48V200.69Z" fill="black"/>
<path d="M24.0073 200.69H19.48V205.218H24.0073V200.69Z" fill="black"/>
<path d="M28.5346 200.69H24.0073V205.218H28.5346V200.69Z" fill="black"/>
<path d="M33.0619 200.69H28.5346V205.218H33.0619V200.69Z" fill="black"/>
<path d="M55.6987 200.69H51.1713V205.218H55.6987V200.69Z" fill="black"/>
<path d="M60.226 200.69H55.6987V205.218H60.226V200.69Z" fill="black"/>
<path d="M64.7534 200.69H60.226V205.218H64.7534V200.69Z" fill="black"/>
<path d="M69.2807 200.69H64.7534V205.218H69.2807V200.69Z" fill="black"/>
<path d="M91.9175 200.69H87.3901V205.218H91.9175V200.69Z" fill="black"/>
<path d="M96.4448 200.69H91.9175V205.218H96.4448V200.69Z" fill="black"/>
<path d="M100.972 200.69H96.4448V205.218H100.972V200.69Z" fill="black"/>
<path d="M114.554 200.69H110.027V205.218H114.554V200.69Z" fill="black"/>
<path d="M119.082 200.69H114.554V205.218H119.082V200.69Z" fill="black"/>
<path d="M132.664 200.69H128.136V205.218H132.664V200.69Z" fill="black"/>
<path d="M137.191 200.69H132.664V205.218H137.191V200.69Z" fill="black"/>
<path d="M141.718 200.69H137.191V205.218H141.718V200.69Z" fill="black"/>
<path d="M155.3 200.69H150.773V205.218H155.3V200.69Z" fill="black"/>
<path d="M159.828 200.69H155.3V205.218H159.828V200.69Z" fill="black"/>
<path d="M164.355 200.69H159.828V205.218H164.355V200.69Z" fill="black"/>
<path d="M168.882 200.69H164.355V205.218H168.882V200.69Z" fill="black"/>
<path d="M191.519 200.69H186.992V205.218H191.519V200.69Z" fill="black"/>
<path d="M200.574 200.69H196.046V205.218H200.574V200.69Z" fill="black"/>
</g>
<defs>
<clipPath id="clip0_227_1081">
<rect width="205.788" height="205.788" fill="white" transform="translate(0.547424 0.664062)"/>
</clipPath>
</defs>
</svg>
