<svg width="206" height="206" viewBox="0 0 206 206" fill="none" xmlns="http://www.w3.org/2000/svg">
<path d="M7.02886 2.23096H2.11035V7.14947H7.02886V2.23096Z" fill="black"/>
<path d="M11.9473 2.23096H7.02881V7.14947H11.9473V2.23096Z" fill="black"/>
<path d="M16.8659 2.23096H11.9474V7.14947H16.8659V2.23096Z" fill="black"/>
<path d="M21.7844 2.23096H16.8658V7.14947H21.7844V2.23096Z" fill="black"/>
<path d="M26.7029 2.23096H21.7844V7.14947H26.7029V2.23096Z" fill="black"/>
<path d="M31.6214 2.23096H26.7029V7.14947H31.6214V2.23096Z" fill="black"/>
<path d="M36.5398 2.23096H31.6213V7.14947H36.5398V2.23096Z" fill="black"/>
<path d="M46.3769 2.23096H41.4584V7.14947H46.3769V2.23096Z" fill="black"/>
<path d="M51.2955 2.23096H46.377V7.14947H51.2955V2.23096Z" fill="black"/>
<path d="M61.1325 2.23096H56.214V7.14947H61.1325V2.23096Z" fill="black"/>
<path d="M70.9695 2.23096H66.051V7.14947H70.9695V2.23096Z" fill="black"/>
<path d="M75.888 2.23096H70.9695V7.14947H75.888V2.23096Z" fill="black"/>
<path d="M80.8065 2.23096H75.8879V7.14947H80.8065V2.23096Z" fill="black"/>
<path d="M85.725 2.23096H80.8065V7.14947H85.725V2.23096Z" fill="black"/>
<path d="M90.6435 2.23096H85.725V7.14947H90.6435V2.23096Z" fill="black"/>
<path d="M120.155 2.23096H115.236V7.14947H120.155V2.23096Z" fill="black"/>
<path d="M125.073 2.23096H120.155V7.14947H125.073V2.23096Z" fill="black"/>
<path d="M134.91 2.23096H129.992V7.14947H134.91V2.23096Z" fill="black"/>
<path d="M139.829 2.23096H134.91V7.14947H139.829V2.23096Z" fill="black"/>
<path d="M149.666 2.23096H144.747V7.14947H149.666V2.23096Z" fill="black"/>
<path d="M159.503 2.23096H154.584V7.14947H159.503V2.23096Z" fill="black"/>
<path d="M174.258 2.23096H169.34V7.14947H174.258V2.23096Z" fill="black"/>
<path d="M179.177 2.23096H174.258V7.14947H179.177V2.23096Z" fill="black"/>
<path d="M184.095 2.23096H179.177V7.14947H184.095V2.23096Z" fill="black"/>
<path d="M189.014 2.23096H184.095V7.14947H189.014V2.23096Z" fill="black"/>
<path d="M193.932 2.23096H189.014V7.14947H193.932V2.23096Z" fill="black"/>
<path d="M198.851 2.23096H193.932V7.14947H198.851V2.23096Z" fill="black"/>
<path d="M203.769 2.23096H198.851V7.14947H203.769V2.23096Z" fill="black"/>
<path d="M7.02886 7.14941H2.11035V12.0679H7.02886V7.14941Z" fill="black"/>
<path d="M36.5398 7.14941H31.6213V12.0679H36.5398V7.14941Z" fill="black"/>
<path d="M46.3769 7.14941H41.4584V12.0679H46.3769V7.14941Z" fill="black"/>
<path d="M61.1325 7.14941H56.214V12.0679H61.1325V7.14941Z" fill="black"/>
<path d="M70.9695 7.14941H66.051V12.0679H70.9695V7.14941Z" fill="black"/>
<path d="M100.481 7.14941H95.562V12.0679H100.481V7.14941Z" fill="black"/>
<path d="M105.399 7.14941H100.481V12.0679H105.399V7.14941Z" fill="black"/>
<path d="M110.318 7.14941H105.399V12.0679H110.318V7.14941Z" fill="black"/>
<path d="M144.747 7.14941H139.829V12.0679H144.747V7.14941Z" fill="black"/>
<path d="M149.666 7.14941H144.747V12.0679H149.666V7.14941Z" fill="black"/>
<path d="M174.258 7.14941H169.34V12.0679H174.258V7.14941Z" fill="black"/>
<path d="M203.769 7.14941H198.851V12.0679H203.769V7.14941Z" fill="black"/>
<path d="M7.02886 12.0679H2.11035V16.9864H7.02886V12.0679Z" fill="black"/>
<path d="M16.8659 12.0679H11.9474V16.9864H16.8659V12.0679Z" fill="black"/>
<path d="M21.7844 12.0679H16.8658V16.9864H21.7844V12.0679Z" fill="black"/>
<path d="M26.7029 12.0679H21.7844V16.9864H26.7029V12.0679Z" fill="black"/>
<path d="M36.5398 12.0679H31.6213V16.9864H36.5398V12.0679Z" fill="black"/>
<path d="M46.3769 12.0679H41.4584V16.9864H46.3769V12.0679Z" fill="black"/>
<path d="M56.2139 12.0679H51.2954V16.9864H56.2139V12.0679Z" fill="black"/>
<path d="M80.8065 12.0679H75.8879V16.9864H80.8065V12.0679Z" fill="black"/>
<path d="M85.725 12.0679H80.8065V16.9864H85.725V12.0679Z" fill="black"/>
<path d="M90.6435 12.0679H85.725V16.9864H90.6435V12.0679Z" fill="black"/>
<path d="M100.481 12.0679H95.562V16.9864H100.481V12.0679Z" fill="black"/>
<path d="M110.318 12.0679H105.399V16.9864H110.318V12.0679Z" fill="black"/>
<path d="M115.236 12.0679H110.318V16.9864H115.236V12.0679Z" fill="black"/>
<path d="M120.155 12.0679H115.236V16.9864H120.155V12.0679Z" fill="black"/>
<path d="M125.073 12.0679H120.155V16.9864H125.073V12.0679Z" fill="black"/>
<path d="M134.91 12.0679H129.992V16.9864H134.91V12.0679Z" fill="black"/>
<path d="M149.666 12.0679H144.747V16.9864H149.666V12.0679Z" fill="black"/>
<path d="M154.584 12.0679H149.666V16.9864H154.584V12.0679Z" fill="black"/>
<path d="M164.421 12.0679H159.503V16.9864H164.421V12.0679Z" fill="black"/>
<path d="M174.258 12.0679H169.34V16.9864H174.258V12.0679Z" fill="black"/>
<path d="M184.095 12.0679H179.177V16.9864H184.095V12.0679Z" fill="black"/>
<path d="M189.014 12.0679H184.095V16.9864H189.014V12.0679Z" fill="black"/>
<path d="M193.932 12.0679H189.014V16.9864H193.932V12.0679Z" fill="black"/>
<path d="M203.769 12.0679H198.851V16.9864H203.769V12.0679Z" fill="black"/>
<path d="M7.02886 16.9863H2.11035V21.9048H7.02886V16.9863Z" fill="black"/>
<path d="M16.8659 16.9863H11.9474V21.9048H16.8659V16.9863Z" fill="black"/>
<path d="M21.7844 16.9863H16.8658V21.9048H21.7844V16.9863Z" fill="black"/>
<path d="M26.7029 16.9863H21.7844V21.9048H26.7029V16.9863Z" fill="black"/>
<path d="M36.5398 16.9863H31.6213V21.9048H36.5398V16.9863Z" fill="black"/>
<path d="M61.1325 16.9863H56.214V21.9048H61.1325V16.9863Z" fill="black"/>
<path d="M70.9695 16.9863H66.051V21.9048H70.9695V16.9863Z" fill="black"/>
<path d="M75.888 16.9863H70.9695V21.9048H75.888V16.9863Z" fill="black"/>
<path d="M80.8065 16.9863H75.8879V21.9048H80.8065V16.9863Z" fill="black"/>
<path d="M95.5621 16.9863H90.6436V21.9048H95.5621V16.9863Z" fill="black"/>
<path d="M105.399 16.9863H100.481V21.9048H105.399V16.9863Z" fill="black"/>
<path d="M110.318 16.9863H105.399V21.9048H110.318V16.9863Z" fill="black"/>
<path d="M139.829 16.9863H134.91V21.9048H139.829V16.9863Z" fill="black"/>
<path d="M144.747 16.9863H139.829V21.9048H144.747V16.9863Z" fill="black"/>
<path d="M164.421 16.9863H159.503V21.9048H164.421V16.9863Z" fill="black"/>
<path d="M174.258 16.9863H169.34V21.9048H174.258V16.9863Z" fill="black"/>
<path d="M184.095 16.9863H179.177V21.9048H184.095V16.9863Z" fill="black"/>
<path d="M189.014 16.9863H184.095V21.9048H189.014V16.9863Z" fill="black"/>
<path d="M193.932 16.9863H189.014V21.9048H193.932V16.9863Z" fill="black"/>
<path d="M203.769 16.9863H198.851V21.9048H203.769V16.9863Z" fill="black"/>
<path d="M7.02886 21.9048H2.11035V26.8233H7.02886V21.9048Z" fill="black"/>
<path d="M16.8659 21.9048H11.9474V26.8233H16.8659V21.9048Z" fill="black"/>
<path d="M21.7844 21.9048H16.8658V26.8233H21.7844V21.9048Z" fill="black"/>
<path d="M26.7029 21.9048H21.7844V26.8233H26.7029V21.9048Z" fill="black"/>
<path d="M36.5398 21.9048H31.6213V26.8233H36.5398V21.9048Z" fill="black"/>
<path d="M51.2955 21.9048H46.377V26.8233H51.2955V21.9048Z" fill="black"/>
<path d="M66.051 21.9048H61.1324V26.8233H66.051V21.9048Z" fill="black"/>
<path d="M95.5621 21.9048H90.6436V26.8233H95.5621V21.9048Z" fill="black"/>
<path d="M100.481 21.9048H95.562V26.8233H100.481V21.9048Z" fill="black"/>
<path d="M110.318 21.9048H105.399V26.8233H110.318V21.9048Z" fill="black"/>
<path d="M120.155 21.9048H115.236V26.8233H120.155V21.9048Z" fill="black"/>
<path d="M125.073 21.9048H120.155V26.8233H125.073V21.9048Z" fill="black"/>
<path d="M134.91 21.9048H129.992V26.8233H134.91V21.9048Z" fill="black"/>
<path d="M154.584 21.9048H149.666V26.8233H154.584V21.9048Z" fill="black"/>
<path d="M174.258 21.9048H169.34V26.8233H174.258V21.9048Z" fill="black"/>
<path d="M184.095 21.9048H179.177V26.8233H184.095V21.9048Z" fill="black"/>
<path d="M189.014 21.9048H184.095V26.8233H189.014V21.9048Z" fill="black"/>
<path d="M193.932 21.9048H189.014V26.8233H193.932V21.9048Z" fill="black"/>
<path d="M203.769 21.9048H198.851V26.8233H203.769V21.9048Z" fill="black"/>
<path d="M7.02886 26.8232H2.11035V31.7418H7.02886V26.8232Z" fill="black"/>
<path d="M36.5398 26.8232H31.6213V31.7418H36.5398V26.8232Z" fill="black"/>
<path d="M46.3769 26.8232H41.4584V31.7418H46.3769V26.8232Z" fill="black"/>
<path d="M51.2955 26.8232H46.377V31.7418H51.2955V26.8232Z" fill="black"/>
<path d="M56.2139 26.8232H51.2954V31.7418H56.2139V26.8232Z" fill="black"/>
<path d="M61.1325 26.8232H56.214V31.7418H61.1325V26.8232Z" fill="black"/>
<path d="M66.051 26.8232H61.1324V31.7418H66.051V26.8232Z" fill="black"/>
<path d="M90.6435 26.8232H85.725V31.7418H90.6435V26.8232Z" fill="black"/>
<path d="M105.399 26.8232H100.481V31.7418H105.399V26.8232Z" fill="black"/>
<path d="M115.236 26.8232H110.318V31.7418H115.236V26.8232Z" fill="black"/>
<path d="M129.992 26.8232H125.073V31.7418H129.992V26.8232Z" fill="black"/>
<path d="M134.91 26.8232H129.992V31.7418H134.91V26.8232Z" fill="black"/>
<path d="M139.829 26.8232H134.91V31.7418H139.829V26.8232Z" fill="black"/>
<path d="M149.666 26.8232H144.747V31.7418H149.666V26.8232Z" fill="black"/>
<path d="M154.584 26.8232H149.666V31.7418H154.584V26.8232Z" fill="black"/>
<path d="M174.258 26.8232H169.34V31.7418H174.258V26.8232Z" fill="black"/>
<path d="M203.769 26.8232H198.851V31.7418H203.769V26.8232Z" fill="black"/>
<path d="M7.02886 31.7417H2.11035V36.6602H7.02886V31.7417Z" fill="black"/>
<path d="M11.9473 31.7417H7.02881V36.6602H11.9473V31.7417Z" fill="black"/>
<path d="M16.8659 31.7417H11.9474V36.6602H16.8659V31.7417Z" fill="black"/>
<path d="M21.7844 31.7417H16.8658V36.6602H21.7844V31.7417Z" fill="black"/>
<path d="M26.7029 31.7417H21.7844V36.6602H26.7029V31.7417Z" fill="black"/>
<path d="M31.6214 31.7417H26.7029V36.6602H31.6214V31.7417Z" fill="black"/>
<path d="M36.5398 31.7417H31.6213V36.6602H36.5398V31.7417Z" fill="black"/>
<path d="M46.3769 31.7417H41.4584V36.6602H46.3769V31.7417Z" fill="black"/>
<path d="M56.2139 31.7417H51.2954V36.6602H56.2139V31.7417Z" fill="black"/>
<path d="M66.051 31.7417H61.1324V36.6602H66.051V31.7417Z" fill="black"/>
<path d="M75.888 31.7417H70.9695V36.6602H75.888V31.7417Z" fill="black"/>
<path d="M85.725 31.7417H80.8065V36.6602H85.725V31.7417Z" fill="black"/>
<path d="M95.5621 31.7417H90.6436V36.6602H95.5621V31.7417Z" fill="black"/>
<path d="M105.399 31.7417H100.481V36.6602H105.399V31.7417Z" fill="black"/>
<path d="M115.236 31.7417H110.318V36.6602H115.236V31.7417Z" fill="black"/>
<path d="M125.073 31.7417H120.155V36.6602H125.073V31.7417Z" fill="black"/>
<path d="M134.91 31.7417H129.992V36.6602H134.91V31.7417Z" fill="black"/>
<path d="M144.747 31.7417H139.829V36.6602H144.747V31.7417Z" fill="black"/>
<path d="M154.584 31.7417H149.666V36.6602H154.584V31.7417Z" fill="black"/>
<path d="M164.421 31.7417H159.503V36.6602H164.421V31.7417Z" fill="black"/>
<path d="M174.258 31.7417H169.34V36.6602H174.258V31.7417Z" fill="black"/>
<path d="M179.177 31.7417H174.258V36.6602H179.177V31.7417Z" fill="black"/>
<path d="M184.095 31.7417H179.177V36.6602H184.095V31.7417Z" fill="black"/>
<path d="M189.014 31.7417H184.095V36.6602H189.014V31.7417Z" fill="black"/>
<path d="M193.932 31.7417H189.014V36.6602H193.932V31.7417Z" fill="black"/>
<path d="M198.851 31.7417H193.932V36.6602H198.851V31.7417Z" fill="black"/>
<path d="M203.769 31.7417H198.851V36.6602H203.769V31.7417Z" fill="black"/>
<path d="M46.3769 36.6602H41.4584V41.5787H46.3769V36.6602Z" fill="black"/>
<path d="M51.2955 36.6602H46.377V41.5787H51.2955V36.6602Z" fill="black"/>
<path d="M61.1325 36.6602H56.214V41.5787H61.1325V36.6602Z" fill="black"/>
<path d="M70.9695 36.6602H66.051V41.5787H70.9695V36.6602Z" fill="black"/>
<path d="M75.888 36.6602H70.9695V41.5787H75.888V36.6602Z" fill="black"/>
<path d="M80.8065 36.6602H75.8879V41.5787H80.8065V36.6602Z" fill="black"/>
<path d="M85.725 36.6602H80.8065V41.5787H85.725V36.6602Z" fill="black"/>
<path d="M90.6435 36.6602H85.725V41.5787H90.6435V36.6602Z" fill="black"/>
<path d="M95.5621 36.6602H90.6436V41.5787H95.5621V36.6602Z" fill="black"/>
<path d="M100.481 36.6602H95.562V41.5787H100.481V36.6602Z" fill="black"/>
<path d="M110.318 36.6602H105.399V41.5787H110.318V36.6602Z" fill="black"/>
<path d="M115.236 36.6602H110.318V41.5787H115.236V36.6602Z" fill="black"/>
<path d="M120.155 36.6602H115.236V41.5787H120.155V36.6602Z" fill="black"/>
<path d="M125.073 36.6602H120.155V41.5787H125.073V36.6602Z" fill="black"/>
<path d="M144.747 36.6602H139.829V41.5787H144.747V36.6602Z" fill="black"/>
<path d="M149.666 36.6602H144.747V41.5787H149.666V36.6602Z" fill="black"/>
<path d="M154.584 36.6602H149.666V41.5787H154.584V36.6602Z" fill="black"/>
<path d="M159.503 36.6602H154.584V41.5787H159.503V36.6602Z" fill="black"/>
<path d="M164.421 36.6602H159.503V41.5787H164.421V36.6602Z" fill="black"/>
<path d="M16.8659 41.5791H11.9474V46.4976H16.8659V41.5791Z" fill="black"/>
<path d="M21.7844 41.5791H16.8658V46.4976H21.7844V41.5791Z" fill="black"/>
<path d="M26.7029 41.5791H21.7844V46.4976H26.7029V41.5791Z" fill="black"/>
<path d="M36.5398 41.5791H31.6213V46.4976H36.5398V41.5791Z" fill="black"/>
<path d="M46.3769 41.5791H41.4584V46.4976H46.3769V41.5791Z" fill="black"/>
<path d="M51.2955 41.5791H46.377V46.4976H51.2955V41.5791Z" fill="black"/>
<path d="M56.2139 41.5791H51.2954V46.4976H56.2139V41.5791Z" fill="black"/>
<path d="M85.725 41.5791H80.8065V46.4976H85.725V41.5791Z" fill="black"/>
<path d="M90.6435 41.5791H85.725V46.4976H90.6435V41.5791Z" fill="black"/>
<path d="M100.481 41.5791H95.562V46.4976H100.481V41.5791Z" fill="black"/>
<path d="M105.399 41.5791H100.481V46.4976H105.399V41.5791Z" fill="black"/>
<path d="M110.318 41.5791H105.399V46.4976H110.318V41.5791Z" fill="black"/>
<path d="M120.155 41.5791H115.236V46.4976H120.155V41.5791Z" fill="black"/>
<path d="M129.992 41.5791H125.073V46.4976H129.992V41.5791Z" fill="black"/>
<path d="M139.829 41.5791H134.91V46.4976H139.829V41.5791Z" fill="black"/>
<path d="M144.747 41.5791H139.829V46.4976H144.747V41.5791Z" fill="black"/>
<path d="M149.666 41.5791H144.747V46.4976H149.666V41.5791Z" fill="black"/>
<path d="M164.421 41.5791H159.503V46.4976H164.421V41.5791Z" fill="black"/>
<path d="M169.34 41.5791H164.421V46.4976H169.34V41.5791Z" fill="black"/>
<path d="M174.258 41.5791H169.34V46.4976H174.258V41.5791Z" fill="black"/>
<path d="M179.177 41.5791H174.258V46.4976H179.177V41.5791Z" fill="black"/>
<path d="M193.932 41.5791H189.014V46.4976H193.932V41.5791Z" fill="black"/>
<path d="M198.851 41.5791H193.932V46.4976H198.851V41.5791Z" fill="black"/>
<path d="M203.769 41.5791H198.851V46.4976H203.769V41.5791Z" fill="black"/>
<path d="M21.7844 46.4976H16.8658V51.4161H21.7844V46.4976Z" fill="black"/>
<path d="M26.7029 46.4976H21.7844V51.4161H26.7029V46.4976Z" fill="black"/>
<path d="M41.4584 46.4976H36.5399V51.4161H41.4584V46.4976Z" fill="black"/>
<path d="M51.2955 46.4976H46.377V51.4161H51.2955V46.4976Z" fill="black"/>
<path d="M61.1325 46.4976H56.214V51.4161H61.1325V46.4976Z" fill="black"/>
<path d="M66.051 46.4976H61.1324V51.4161H66.051V46.4976Z" fill="black"/>
<path d="M85.725 46.4976H80.8065V51.4161H85.725V46.4976Z" fill="black"/>
<path d="M90.6435 46.4976H85.725V51.4161H90.6435V46.4976Z" fill="black"/>
<path d="M95.5621 46.4976H90.6436V51.4161H95.5621V46.4976Z" fill="black"/>
<path d="M110.318 46.4976H105.399V51.4161H110.318V46.4976Z" fill="black"/>
<path d="M120.155 46.4976H115.236V51.4161H120.155V46.4976Z" fill="black"/>
<path d="M129.992 46.4976H125.073V51.4161H129.992V46.4976Z" fill="black"/>
<path d="M134.91 46.4976H129.992V51.4161H134.91V46.4976Z" fill="black"/>
<path d="M144.747 46.4976H139.829V51.4161H144.747V46.4976Z" fill="black"/>
<path d="M159.503 46.4976H154.584V51.4161H159.503V46.4976Z" fill="black"/>
<path d="M164.421 46.4976H159.503V51.4161H164.421V46.4976Z" fill="black"/>
<path d="M184.095 46.4976H179.177V51.4161H184.095V46.4976Z" fill="black"/>
<path d="M7.02886 51.416H2.11035V56.3345H7.02886V51.416Z" fill="black"/>
<path d="M16.8659 51.416H11.9474V56.3345H16.8659V51.416Z" fill="black"/>
<path d="M21.7844 51.416H16.8658V56.3345H21.7844V51.416Z" fill="black"/>
<path d="M36.5398 51.416H31.6213V56.3345H36.5398V51.416Z" fill="black"/>
<path d="M41.4584 51.416H36.5399V56.3345H41.4584V51.416Z" fill="black"/>
<path d="M51.2955 51.416H46.377V56.3345H51.2955V51.416Z" fill="black"/>
<path d="M56.2139 51.416H51.2954V56.3345H56.2139V51.416Z" fill="black"/>
<path d="M66.051 51.416H61.1324V56.3345H66.051V51.416Z" fill="black"/>
<path d="M70.9695 51.416H66.051V56.3345H70.9695V51.416Z" fill="black"/>
<path d="M75.888 51.416H70.9695V56.3345H75.888V51.416Z" fill="black"/>
<path d="M85.725 51.416H80.8065V56.3345H85.725V51.416Z" fill="black"/>
<path d="M95.5621 51.416H90.6436V56.3345H95.5621V51.416Z" fill="black"/>
<path d="M100.481 51.416H95.562V56.3345H100.481V51.416Z" fill="black"/>
<path d="M105.399 51.416H100.481V56.3345H105.399V51.416Z" fill="black"/>
<path d="M115.236 51.416H110.318V56.3345H115.236V51.416Z" fill="black"/>
<path d="M125.073 51.416H120.155V56.3345H125.073V51.416Z" fill="black"/>
<path d="M129.992 51.416H125.073V56.3345H129.992V51.416Z" fill="black"/>
<path d="M134.91 51.416H129.992V56.3345H134.91V51.416Z" fill="black"/>
<path d="M139.829 51.416H134.91V56.3345H139.829V51.416Z" fill="black"/>
<path d="M149.666 51.416H144.747V56.3345H149.666V51.416Z" fill="black"/>
<path d="M159.503 51.416H154.584V56.3345H159.503V51.416Z" fill="black"/>
<path d="M174.258 51.416H169.34V56.3345H174.258V51.416Z" fill="black"/>
<path d="M193.932 51.416H189.014V56.3345H193.932V51.416Z" fill="black"/>
<path d="M16.8659 56.3345H11.9474V61.253H16.8659V56.3345Z" fill="black"/>
<path d="M21.7844 56.3345H16.8658V61.253H21.7844V56.3345Z" fill="black"/>
<path d="M26.7029 56.3345H21.7844V61.253H26.7029V56.3345Z" fill="black"/>
<path d="M31.6214 56.3345H26.7029V61.253H31.6214V56.3345Z" fill="black"/>
<path d="M41.4584 56.3345H36.5399V61.253H41.4584V56.3345Z" fill="black"/>
<path d="M46.3769 56.3345H41.4584V61.253H46.3769V56.3345Z" fill="black"/>
<path d="M51.2955 56.3345H46.377V61.253H51.2955V56.3345Z" fill="black"/>
<path d="M56.2139 56.3345H51.2954V61.253H56.2139V56.3345Z" fill="black"/>
<path d="M70.9695 56.3345H66.051V61.253H70.9695V56.3345Z" fill="black"/>
<path d="M80.8065 56.3345H75.8879V61.253H80.8065V56.3345Z" fill="black"/>
<path d="M90.6435 56.3345H85.725V61.253H90.6435V56.3345Z" fill="black"/>
<path d="M95.5621 56.3345H90.6436V61.253H95.5621V56.3345Z" fill="black"/>
<path d="M105.399 56.3345H100.481V61.253H105.399V56.3345Z" fill="black"/>
<path d="M110.318 56.3345H105.399V61.253H110.318V56.3345Z" fill="black"/>
<path d="M120.155 56.3345H115.236V61.253H120.155V56.3345Z" fill="black"/>
<path d="M129.992 56.3345H125.073V61.253H129.992V56.3345Z" fill="black"/>
<path d="M134.91 56.3345H129.992V61.253H134.91V56.3345Z" fill="black"/>
<path d="M144.747 56.3345H139.829V61.253H144.747V56.3345Z" fill="black"/>
<path d="M159.503 56.3345H154.584V61.253H159.503V56.3345Z" fill="black"/>
<path d="M169.34 56.3345H164.421V61.253H169.34V56.3345Z" fill="black"/>
<path d="M174.258 56.3345H169.34V61.253H174.258V56.3345Z" fill="black"/>
<path d="M179.177 56.3345H174.258V61.253H179.177V56.3345Z" fill="black"/>
<path d="M184.095 56.3345H179.177V61.253H184.095V56.3345Z" fill="black"/>
<path d="M189.014 56.3345H184.095V61.253H189.014V56.3345Z" fill="black"/>
<path d="M193.932 56.3345H189.014V61.253H193.932V56.3345Z" fill="black"/>
<path d="M203.769 56.3345H198.851V61.253H203.769V56.3345Z" fill="black"/>
<path d="M11.9473 61.2529H7.02881V66.1714H11.9473V61.2529Z" fill="black"/>
<path d="M31.6214 61.2529H26.7029V66.1714H31.6214V61.2529Z" fill="black"/>
<path d="M36.5398 61.2529H31.6213V66.1714H36.5398V61.2529Z" fill="black"/>
<path d="M51.2955 61.2529H46.377V66.1714H51.2955V61.2529Z" fill="black"/>
<path d="M56.2139 61.2529H51.2954V66.1714H56.2139V61.2529Z" fill="black"/>
<path d="M61.1325 61.2529H56.214V66.1714H61.1325V61.2529Z" fill="black"/>
<path d="M66.051 61.2529H61.1324V66.1714H66.051V61.2529Z" fill="black"/>
<path d="M70.9695 61.2529H66.051V66.1714H70.9695V61.2529Z" fill="black"/>
<path d="M80.8065 61.2529H75.8879V66.1714H80.8065V61.2529Z" fill="black"/>
<path d="M90.6435 61.2529H85.725V66.1714H90.6435V61.2529Z" fill="black"/>
<path d="M95.5621 61.2529H90.6436V66.1714H95.5621V61.2529Z" fill="black"/>
<path d="M115.236 61.2529H110.318V66.1714H115.236V61.2529Z" fill="black"/>
<path d="M120.155 61.2529H115.236V66.1714H120.155V61.2529Z" fill="black"/>
<path d="M129.992 61.2529H125.073V66.1714H129.992V61.2529Z" fill="black"/>
<path d="M134.91 61.2529H129.992V66.1714H134.91V61.2529Z" fill="black"/>
<path d="M139.829 61.2529H134.91V66.1714H139.829V61.2529Z" fill="black"/>
<path d="M149.666 61.2529H144.747V66.1714H149.666V61.2529Z" fill="black"/>
<path d="M164.421 61.2529H159.503V66.1714H164.421V61.2529Z" fill="black"/>
<path d="M174.258 61.2529H169.34V66.1714H174.258V61.2529Z" fill="black"/>
<path d="M179.177 61.2529H174.258V66.1714H179.177V61.2529Z" fill="black"/>
<path d="M184.095 61.2529H179.177V66.1714H184.095V61.2529Z" fill="black"/>
<path d="M193.932 61.2529H189.014V66.1714H193.932V61.2529Z" fill="black"/>
<path d="M198.851 61.2529H193.932V66.1714H198.851V61.2529Z" fill="black"/>
<path d="M7.02886 66.1714H2.11035V71.0899H7.02886V66.1714Z" fill="black"/>
<path d="M16.8659 66.1714H11.9474V71.0899H16.8659V66.1714Z" fill="black"/>
<path d="M21.7844 66.1714H16.8658V71.0899H21.7844V66.1714Z" fill="black"/>
<path d="M26.7029 66.1714H21.7844V71.0899H26.7029V66.1714Z" fill="black"/>
<path d="M41.4584 66.1714H36.5399V71.0899H41.4584V66.1714Z" fill="black"/>
<path d="M46.3769 66.1714H41.4584V71.0899H46.3769V66.1714Z" fill="black"/>
<path d="M56.2139 66.1714H51.2954V71.0899H56.2139V66.1714Z" fill="black"/>
<path d="M66.051 66.1714H61.1324V71.0899H66.051V66.1714Z" fill="black"/>
<path d="M75.888 66.1714H70.9695V71.0899H75.888V66.1714Z" fill="black"/>
<path d="M85.725 66.1714H80.8065V71.0899H85.725V66.1714Z" fill="black"/>
<path d="M95.5621 66.1714H90.6436V71.0899H95.5621V66.1714Z" fill="black"/>
<path d="M105.399 66.1714H100.481V71.0899H105.399V66.1714Z" fill="black"/>
<path d="M115.236 66.1714H110.318V71.0899H115.236V66.1714Z" fill="black"/>
<path d="M120.155 66.1714H115.236V71.0899H120.155V66.1714Z" fill="black"/>
<path d="M125.073 66.1714H120.155V71.0899H125.073V66.1714Z" fill="black"/>
<path d="M139.829 66.1714H134.91V71.0899H139.829V66.1714Z" fill="black"/>
<path d="M144.747 66.1714H139.829V71.0899H144.747V66.1714Z" fill="black"/>
<path d="M169.34 66.1714H164.421V71.0899H169.34V66.1714Z" fill="black"/>
<path d="M189.014 66.1714H184.095V71.0899H189.014V66.1714Z" fill="black"/>
<path d="M7.02886 71.0898H2.11035V76.0084H7.02886V71.0898Z" fill="black"/>
<path d="M11.9473 71.0898H7.02881V76.0084H11.9473V71.0898Z" fill="black"/>
<path d="M16.8659 71.0898H11.9474V76.0084H16.8659V71.0898Z" fill="black"/>
<path d="M26.7029 71.0898H21.7844V76.0084H26.7029V71.0898Z" fill="black"/>
<path d="M31.6214 71.0898H26.7029V76.0084H31.6214V71.0898Z" fill="black"/>
<path d="M36.5398 71.0898H31.6213V76.0084H36.5398V71.0898Z" fill="black"/>
<path d="M41.4584 71.0898H36.5399V76.0084H41.4584V71.0898Z" fill="black"/>
<path d="M46.3769 71.0898H41.4584V76.0084H46.3769V71.0898Z" fill="black"/>
<path d="M70.9695 71.0898H66.051V76.0084H70.9695V71.0898Z" fill="black"/>
<path d="M75.888 71.0898H70.9695V76.0084H75.888V71.0898Z" fill="black"/>
<path d="M95.5621 71.0898H90.6436V76.0084H95.5621V71.0898Z" fill="black"/>
<path d="M105.399 71.0898H100.481V76.0084H105.399V71.0898Z" fill="black"/>
<path d="M120.155 71.0898H115.236V76.0084H120.155V71.0898Z" fill="black"/>
<path d="M129.992 71.0898H125.073V76.0084H129.992V71.0898Z" fill="black"/>
<path d="M149.666 71.0898H144.747V76.0084H149.666V71.0898Z" fill="black"/>
<path d="M154.584 71.0898H149.666V76.0084H154.584V71.0898Z" fill="black"/>
<path d="M164.421 71.0898H159.503V76.0084H164.421V71.0898Z" fill="black"/>
<path d="M179.177 71.0898H174.258V76.0084H179.177V71.0898Z" fill="black"/>
<path d="M193.932 71.0898H189.014V76.0084H193.932V71.0898Z" fill="black"/>
<path d="M203.769 71.0898H198.851V76.0084H203.769V71.0898Z" fill="black"/>
<path d="M16.8659 76.0083H11.9474V80.9268H16.8659V76.0083Z" fill="black"/>
<path d="M26.7029 76.0083H21.7844V80.9268H26.7029V76.0083Z" fill="black"/>
<path d="M46.3769 76.0083H41.4584V80.9268H46.3769V76.0083Z" fill="black"/>
<path d="M70.9695 76.0083H66.051V80.9268H70.9695V76.0083Z" fill="black"/>
<path d="M90.6435 76.0083H85.725V80.9268H90.6435V76.0083Z" fill="black"/>
<path d="M95.5621 76.0083H90.6436V80.9268H95.5621V76.0083Z" fill="black"/>
<path d="M110.318 76.0083H105.399V80.9268H110.318V76.0083Z" fill="black"/>
<path d="M125.073 76.0083H120.155V80.9268H125.073V76.0083Z" fill="black"/>
<path d="M144.747 76.0083H139.829V80.9268H144.747V76.0083Z" fill="black"/>
<path d="M174.258 76.0083H169.34V80.9268H174.258V76.0083Z" fill="black"/>
<path d="M179.177 76.0083H174.258V80.9268H179.177V76.0083Z" fill="black"/>
<path d="M184.095 76.0083H179.177V80.9268H184.095V76.0083Z" fill="black"/>
<path d="M189.014 76.0083H184.095V80.9268H189.014V76.0083Z" fill="black"/>
<path d="M193.932 76.0083H189.014V80.9268H193.932V76.0083Z" fill="black"/>
<path d="M198.851 76.0083H193.932V80.9268H198.851V76.0083Z" fill="black"/>
<path d="M203.769 76.0083H198.851V80.9268H203.769V76.0083Z" fill="black"/>
<path d="M7.02886 80.9268H2.11035V85.8453H7.02886V80.9268Z" fill="black"/>
<path d="M11.9473 80.9268H7.02881V85.8453H11.9473V80.9268Z" fill="black"/>
<path d="M16.8659 80.9268H11.9474V85.8453H16.8659V80.9268Z" fill="black"/>
<path d="M21.7844 80.9268H16.8658V85.8453H21.7844V80.9268Z" fill="black"/>
<path d="M26.7029 80.9268H21.7844V85.8453H26.7029V80.9268Z" fill="black"/>
<path d="M31.6214 80.9268H26.7029V85.8453H31.6214V80.9268Z" fill="black"/>
<path d="M36.5398 80.9268H31.6213V85.8453H36.5398V80.9268Z" fill="black"/>
<path d="M46.3769 80.9268H41.4584V85.8453H46.3769V80.9268Z" fill="black"/>
<path d="M61.1325 80.9268H56.214V85.8453H61.1325V80.9268Z" fill="black"/>
<path d="M70.9695 80.9268H66.051V85.8453H70.9695V80.9268Z" fill="black"/>
<path d="M85.725 80.9268H80.8065V85.8453H85.725V80.9268Z" fill="black"/>
<path d="M90.6435 80.9268H85.725V85.8453H90.6435V80.9268Z" fill="black"/>
<path d="M95.5621 80.9268H90.6436V85.8453H95.5621V80.9268Z" fill="black"/>
<path d="M100.481 80.9268H95.562V85.8453H100.481V80.9268Z" fill="black"/>
<path d="M115.236 80.9268H110.318V85.8453H115.236V80.9268Z" fill="black"/>
<path d="M120.155 80.9268H115.236V85.8453H120.155V80.9268Z" fill="black"/>
<path d="M129.992 80.9268H125.073V85.8453H129.992V80.9268Z" fill="black"/>
<path d="M134.91 80.9268H129.992V85.8453H134.91V80.9268Z" fill="black"/>
<path d="M144.747 80.9268H139.829V85.8453H144.747V80.9268Z" fill="black"/>
<path d="M154.584 80.9268H149.666V85.8453H154.584V80.9268Z" fill="black"/>
<path d="M164.421 80.9268H159.503V85.8453H164.421V80.9268Z" fill="black"/>
<path d="M169.34 80.9268H164.421V85.8453H169.34V80.9268Z" fill="black"/>
<path d="M184.095 80.9268H179.177V85.8453H184.095V80.9268Z" fill="black"/>
<path d="M7.02886 85.8457H2.11035V90.7642H7.02886V85.8457Z" fill="black"/>
<path d="M11.9473 85.8457H7.02881V90.7642H11.9473V85.8457Z" fill="black"/>
<path d="M16.8659 85.8457H11.9474V90.7642H16.8659V85.8457Z" fill="black"/>
<path d="M21.7844 85.8457H16.8658V90.7642H21.7844V85.8457Z" fill="black"/>
<path d="M26.7029 85.8457H21.7844V90.7642H26.7029V85.8457Z" fill="black"/>
<path d="M31.6214 85.8457H26.7029V90.7642H31.6214V85.8457Z" fill="black"/>
<path d="M51.2955 85.8457H46.377V90.7642H51.2955V85.8457Z" fill="black"/>
<path d="M56.2139 85.8457H51.2954V90.7642H56.2139V85.8457Z" fill="black"/>
<path d="M61.1325 85.8457H56.214V90.7642H61.1325V85.8457Z" fill="black"/>
<path d="M66.051 85.8457H61.1324V90.7642H66.051V85.8457Z" fill="black"/>
<path d="M70.9695 85.8457H66.051V90.7642H70.9695V85.8457Z" fill="black"/>
<path d="M80.8065 85.8457H75.8879V90.7642H80.8065V85.8457Z" fill="black"/>
<path d="M90.6435 85.8457H85.725V90.7642H90.6435V85.8457Z" fill="black"/>
<path d="M95.5621 85.8457H90.6436V90.7642H95.5621V85.8457Z" fill="black"/>
<path d="M100.481 85.8457H95.562V90.7642H100.481V85.8457Z" fill="black"/>
<path d="M125.073 85.8457H120.155V90.7642H125.073V85.8457Z" fill="black"/>
<path d="M129.992 85.8457H125.073V90.7642H129.992V85.8457Z" fill="black"/>
<path d="M134.91 85.8457H129.992V90.7642H134.91V85.8457Z" fill="black"/>
<path d="M139.829 85.8457H134.91V90.7642H139.829V85.8457Z" fill="black"/>
<path d="M159.503 85.8457H154.584V90.7642H159.503V85.8457Z" fill="black"/>
<path d="M164.421 85.8457H159.503V90.7642H164.421V85.8457Z" fill="black"/>
<path d="M169.34 85.8457H164.421V90.7642H169.34V85.8457Z" fill="black"/>
<path d="M179.177 85.8457H174.258V90.7642H179.177V85.8457Z" fill="black"/>
<path d="M184.095 85.8457H179.177V90.7642H184.095V85.8457Z" fill="black"/>
<path d="M198.851 85.8457H193.932V90.7642H198.851V85.8457Z" fill="black"/>
<path d="M7.02886 90.7642H2.11035V95.6827H7.02886V90.7642Z" fill="black"/>
<path d="M21.7844 90.7642H16.8658V95.6827H21.7844V90.7642Z" fill="black"/>
<path d="M36.5398 90.7642H31.6213V95.6827H36.5398V90.7642Z" fill="black"/>
<path d="M46.3769 90.7642H41.4584V95.6827H46.3769V90.7642Z" fill="black"/>
<path d="M51.2955 90.7642H46.377V95.6827H51.2955V90.7642Z" fill="black"/>
<path d="M56.2139 90.7642H51.2954V95.6827H56.2139V90.7642Z" fill="black"/>
<path d="M61.1325 90.7642H56.214V95.6827H61.1325V90.7642Z" fill="black"/>
<path d="M66.051 90.7642H61.1324V95.6827H66.051V90.7642Z" fill="black"/>
<path d="M85.725 90.7642H80.8065V95.6827H85.725V90.7642Z" fill="black"/>
<path d="M95.5621 90.7642H90.6436V95.6827H95.5621V90.7642Z" fill="black"/>
<path d="M105.399 90.7642H100.481V95.6827H105.399V90.7642Z" fill="black"/>
<path d="M110.318 90.7642H105.399V95.6827H110.318V90.7642Z" fill="black"/>
<path d="M115.236 90.7642H110.318V95.6827H115.236V90.7642Z" fill="black"/>
<path d="M129.992 90.7642H125.073V95.6827H129.992V90.7642Z" fill="black"/>
<path d="M139.829 90.7642H134.91V95.6827H139.829V90.7642Z" fill="black"/>
<path d="M144.747 90.7642H139.829V95.6827H144.747V90.7642Z" fill="black"/>
<path d="M154.584 90.7642H149.666V95.6827H154.584V90.7642Z" fill="black"/>
<path d="M159.503 90.7642H154.584V95.6827H159.503V90.7642Z" fill="black"/>
<path d="M169.34 90.7642H164.421V95.6827H169.34V90.7642Z" fill="black"/>
<path d="M179.177 90.7642H174.258V95.6827H179.177V90.7642Z" fill="black"/>
<path d="M193.932 90.7642H189.014V95.6827H193.932V90.7642Z" fill="black"/>
<path d="M203.769 90.7642H198.851V95.6827H203.769V90.7642Z" fill="black"/>
<path d="M7.02886 95.6826H2.11035V100.601H7.02886V95.6826Z" fill="black"/>
<path d="M11.9473 95.6826H7.02881V100.601H11.9473V95.6826Z" fill="black"/>
<path d="M16.8659 95.6826H11.9474V100.601H16.8659V95.6826Z" fill="black"/>
<path d="M21.7844 95.6826H16.8658V100.601H21.7844V95.6826Z" fill="black"/>
<path d="M41.4584 95.6826H36.5399V100.601H41.4584V95.6826Z" fill="black"/>
<path d="M46.3769 95.6826H41.4584V100.601H46.3769V95.6826Z" fill="black"/>
<path d="M51.2955 95.6826H46.377V100.601H51.2955V95.6826Z" fill="black"/>
<path d="M61.1325 95.6826H56.214V100.601H61.1325V95.6826Z" fill="black"/>
<path d="M80.8065 95.6826H75.8879V100.601H80.8065V95.6826Z" fill="black"/>
<path d="M85.725 95.6826H80.8065V100.601H85.725V95.6826Z" fill="black"/>
<path d="M115.236 95.6826H110.318V100.601H115.236V95.6826Z" fill="black"/>
<path d="M159.503 95.6826H154.584V100.601H159.503V95.6826Z" fill="black"/>
<path d="M169.34 95.6826H164.421V100.601H169.34V95.6826Z" fill="black"/>
<path d="M174.258 95.6826H169.34V100.601H174.258V95.6826Z" fill="black"/>
<path d="M179.177 95.6826H174.258V100.601H179.177V95.6826Z" fill="black"/>
<path d="M184.095 95.6826H179.177V100.601H184.095V95.6826Z" fill="black"/>
<path d="M189.014 95.6826H184.095V100.601H189.014V95.6826Z" fill="black"/>
<path d="M193.932 95.6826H189.014V100.601H193.932V95.6826Z" fill="black"/>
<path d="M198.851 95.6826H193.932V100.601H198.851V95.6826Z" fill="black"/>
<path d="M203.769 95.6826H198.851V100.601H203.769V95.6826Z" fill="black"/>
<path d="M16.8659 100.601H11.9474V105.52H16.8659V100.601Z" fill="black"/>
<path d="M21.7844 100.601H16.8658V105.52H21.7844V100.601Z" fill="black"/>
<path d="M26.7029 100.601H21.7844V105.52H26.7029V100.601Z" fill="black"/>
<path d="M31.6214 100.601H26.7029V105.52H31.6214V100.601Z" fill="black"/>
<path d="M36.5398 100.601H31.6213V105.52H36.5398V100.601Z" fill="black"/>
<path d="M61.1325 100.601H56.214V105.52H61.1325V100.601Z" fill="black"/>
<path d="M70.9695 100.601H66.051V105.52H70.9695V100.601Z" fill="black"/>
<path d="M75.888 100.601H70.9695V105.52H75.888V100.601Z" fill="black"/>
<path d="M80.8065 100.601H75.8879V105.52H80.8065V100.601Z" fill="black"/>
<path d="M90.6435 100.601H85.725V105.52H90.6435V100.601Z" fill="black"/>
<path d="M95.5621 100.601H90.6436V105.52H95.5621V100.601Z" fill="black"/>
<path d="M100.481 100.601H95.562V105.52H100.481V100.601Z" fill="black"/>
<path d="M125.073 100.601H120.155V105.52H125.073V100.601Z" fill="black"/>
<path d="M139.829 100.601H134.91V105.52H139.829V100.601Z" fill="black"/>
<path d="M154.584 100.601H149.666V105.52H154.584V100.601Z" fill="black"/>
<path d="M164.421 100.601H159.503V105.52H164.421V100.601Z" fill="black"/>
<path d="M174.258 100.601H169.34V105.52H174.258V100.601Z" fill="black"/>
<path d="M184.095 100.601H179.177V105.52H184.095V100.601Z" fill="black"/>
<path d="M189.014 100.601H184.095V105.52H189.014V100.601Z" fill="black"/>
<path d="M193.932 100.601H189.014V105.52H193.932V100.601Z" fill="black"/>
<path d="M7.02886 105.52H2.11035V110.438H7.02886V105.52Z" fill="black"/>
<path d="M16.8659 105.52H11.9474V110.438H16.8659V105.52Z" fill="black"/>
<path d="M26.7029 105.52H21.7844V110.438H26.7029V105.52Z" fill="black"/>
<path d="M61.1325 105.52H56.214V110.438H61.1325V105.52Z" fill="black"/>
<path d="M80.8065 105.52H75.8879V110.438H80.8065V105.52Z" fill="black"/>
<path d="M85.725 105.52H80.8065V110.438H85.725V105.52Z" fill="black"/>
<path d="M90.6435 105.52H85.725V110.438H90.6435V105.52Z" fill="black"/>
<path d="M100.481 105.52H95.562V110.438H100.481V105.52Z" fill="black"/>
<path d="M110.318 105.52H105.399V110.438H110.318V105.52Z" fill="black"/>
<path d="M134.91 105.52H129.992V110.438H134.91V105.52Z" fill="black"/>
<path d="M144.747 105.52H139.829V110.438H144.747V105.52Z" fill="black"/>
<path d="M164.421 105.52H159.503V110.438H164.421V105.52Z" fill="black"/>
<path d="M169.34 105.52H164.421V110.438H169.34V105.52Z" fill="black"/>
<path d="M174.258 105.52H169.34V110.438H174.258V105.52Z" fill="black"/>
<path d="M184.095 105.52H179.177V110.438H184.095V105.52Z" fill="black"/>
<path d="M198.851 105.52H193.932V110.438H198.851V105.52Z" fill="black"/>
<path d="M7.02886 110.438H2.11035V115.356H7.02886V110.438Z" fill="black"/>
<path d="M26.7029 110.438H21.7844V115.356H26.7029V110.438Z" fill="black"/>
<path d="M31.6214 110.438H26.7029V115.356H31.6214V110.438Z" fill="black"/>
<path d="M36.5398 110.438H31.6213V115.356H36.5398V110.438Z" fill="black"/>
<path d="M41.4584 110.438H36.5399V115.356H41.4584V110.438Z" fill="black"/>
<path d="M56.2139 110.438H51.2954V115.356H56.2139V110.438Z" fill="black"/>
<path d="M61.1325 110.438H56.214V115.356H61.1325V110.438Z" fill="black"/>
<path d="M66.051 110.438H61.1324V115.356H66.051V110.438Z" fill="black"/>
<path d="M70.9695 110.438H66.051V115.356H70.9695V110.438Z" fill="black"/>
<path d="M75.888 110.438H70.9695V115.356H75.888V110.438Z" fill="black"/>
<path d="M90.6435 110.438H85.725V115.356H90.6435V110.438Z" fill="black"/>
<path d="M115.236 110.438H110.318V115.356H115.236V110.438Z" fill="black"/>
<path d="M120.155 110.438H115.236V115.356H120.155V110.438Z" fill="black"/>
<path d="M149.666 110.438H144.747V115.356H149.666V110.438Z" fill="black"/>
<path d="M164.421 110.438H159.503V115.356H164.421V110.438Z" fill="black"/>
<path d="M184.095 110.438H179.177V115.356H184.095V110.438Z" fill="black"/>
<path d="M189.014 110.438H184.095V115.356H189.014V110.438Z" fill="black"/>
<path d="M193.932 110.438H189.014V115.356H193.932V110.438Z" fill="black"/>
<path d="M7.02886 115.356H2.11035V120.275H7.02886V115.356Z" fill="black"/>
<path d="M21.7844 115.356H16.8658V120.275H21.7844V115.356Z" fill="black"/>
<path d="M26.7029 115.356H21.7844V120.275H26.7029V115.356Z" fill="black"/>
<path d="M41.4584 115.356H36.5399V120.275H41.4584V115.356Z" fill="black"/>
<path d="M46.3769 115.356H41.4584V120.275H46.3769V115.356Z" fill="black"/>
<path d="M56.2139 115.356H51.2954V120.275H56.2139V115.356Z" fill="black"/>
<path d="M66.051 115.356H61.1324V120.275H66.051V115.356Z" fill="black"/>
<path d="M75.888 115.356H70.9695V120.275H75.888V115.356Z" fill="black"/>
<path d="M80.8065 115.356H75.8879V120.275H80.8065V115.356Z" fill="black"/>
<path d="M85.725 115.356H80.8065V120.275H85.725V115.356Z" fill="black"/>
<path d="M90.6435 115.356H85.725V120.275H90.6435V115.356Z" fill="black"/>
<path d="M95.5621 115.356H90.6436V120.275H95.5621V115.356Z" fill="black"/>
<path d="M105.399 115.356H100.481V120.275H105.399V115.356Z" fill="black"/>
<path d="M129.992 115.356H125.073V120.275H129.992V115.356Z" fill="black"/>
<path d="M134.91 115.356H129.992V120.275H134.91V115.356Z" fill="black"/>
<path d="M154.584 115.356H149.666V120.275H154.584V115.356Z" fill="black"/>
<path d="M159.503 115.356H154.584V120.275H159.503V115.356Z" fill="black"/>
<path d="M164.421 115.356H159.503V120.275H164.421V115.356Z" fill="black"/>
<path d="M174.258 115.356H169.34V120.275H174.258V115.356Z" fill="black"/>
<path d="M184.095 115.356H179.177V120.275H184.095V115.356Z" fill="black"/>
<path d="M189.014 115.356H184.095V120.275H189.014V115.356Z" fill="black"/>
<path d="M198.851 115.356H193.932V120.275H198.851V115.356Z" fill="black"/>
<path d="M203.769 115.356H198.851V120.275H203.769V115.356Z" fill="black"/>
<path d="M11.9473 120.275H7.02881V125.193H11.9473V120.275Z" fill="black"/>
<path d="M16.8659 120.275H11.9474V125.193H16.8659V120.275Z" fill="black"/>
<path d="M21.7844 120.275H16.8658V125.193H21.7844V120.275Z" fill="black"/>
<path d="M26.7029 120.275H21.7844V125.193H26.7029V120.275Z" fill="black"/>
<path d="M31.6214 120.275H26.7029V125.193H31.6214V120.275Z" fill="black"/>
<path d="M36.5398 120.275H31.6213V125.193H36.5398V120.275Z" fill="black"/>
<path d="M46.3769 120.275H41.4584V125.193H46.3769V120.275Z" fill="black"/>
<path d="M66.051 120.275H61.1324V125.193H66.051V120.275Z" fill="black"/>
<path d="M70.9695 120.275H66.051V125.193H70.9695V120.275Z" fill="black"/>
<path d="M80.8065 120.275H75.8879V125.193H80.8065V120.275Z" fill="black"/>
<path d="M90.6435 120.275H85.725V125.193H90.6435V120.275Z" fill="black"/>
<path d="M100.481 120.275H95.562V125.193H100.481V120.275Z" fill="black"/>
<path d="M115.236 120.275H110.318V125.193H115.236V120.275Z" fill="black"/>
<path d="M125.073 120.275H120.155V125.193H125.073V120.275Z" fill="black"/>
<path d="M129.992 120.275H125.073V125.193H129.992V120.275Z" fill="black"/>
<path d="M139.829 120.275H134.91V125.193H139.829V120.275Z" fill="black"/>
<path d="M154.584 120.275H149.666V125.193H154.584V120.275Z" fill="black"/>
<path d="M169.34 120.275H164.421V125.193H169.34V120.275Z" fill="black"/>
<path d="M179.177 120.275H174.258V125.193H179.177V120.275Z" fill="black"/>
<path d="M193.932 120.275H189.014V125.193H193.932V120.275Z" fill="black"/>
<path d="M198.851 120.275H193.932V125.193H198.851V120.275Z" fill="black"/>
<path d="M203.769 120.275H198.851V125.193H203.769V120.275Z" fill="black"/>
<path d="M11.9473 125.193H7.02881V130.112H11.9473V125.193Z" fill="black"/>
<path d="M21.7844 125.193H16.8658V130.112H21.7844V125.193Z" fill="black"/>
<path d="M26.7029 125.193H21.7844V130.112H26.7029V125.193Z" fill="black"/>
<path d="M31.6214 125.193H26.7029V130.112H31.6214V125.193Z" fill="black"/>
<path d="M46.3769 125.193H41.4584V130.112H46.3769V125.193Z" fill="black"/>
<path d="M61.1325 125.193H56.214V130.112H61.1325V125.193Z" fill="black"/>
<path d="M66.051 125.193H61.1324V130.112H66.051V125.193Z" fill="black"/>
<path d="M70.9695 125.193H66.051V130.112H70.9695V125.193Z" fill="black"/>
<path d="M75.888 125.193H70.9695V130.112H75.888V125.193Z" fill="black"/>
<path d="M80.8065 125.193H75.8879V130.112H80.8065V125.193Z" fill="black"/>
<path d="M85.725 125.193H80.8065V130.112H85.725V125.193Z" fill="black"/>
<path d="M90.6435 125.193H85.725V130.112H90.6435V125.193Z" fill="black"/>
<path d="M100.481 125.193H95.562V130.112H100.481V125.193Z" fill="black"/>
<path d="M105.399 125.193H100.481V130.112H105.399V125.193Z" fill="black"/>
<path d="M115.236 125.193H110.318V130.112H115.236V125.193Z" fill="black"/>
<path d="M120.155 125.193H115.236V130.112H120.155V125.193Z" fill="black"/>
<path d="M134.91 125.193H129.992V130.112H134.91V125.193Z" fill="black"/>
<path d="M139.829 125.193H134.91V130.112H139.829V125.193Z" fill="black"/>
<path d="M159.503 125.193H154.584V130.112H159.503V125.193Z" fill="black"/>
<path d="M169.34 125.193H164.421V130.112H169.34V125.193Z" fill="black"/>
<path d="M179.177 125.193H174.258V130.112H179.177V125.193Z" fill="black"/>
<path d="M189.014 125.193H184.095V130.112H189.014V125.193Z" fill="black"/>
<path d="M11.9473 130.112H7.02881V135.031H11.9473V130.112Z" fill="black"/>
<path d="M21.7844 130.112H16.8658V135.031H21.7844V130.112Z" fill="black"/>
<path d="M31.6214 130.112H26.7029V135.031H31.6214V130.112Z" fill="black"/>
<path d="M36.5398 130.112H31.6213V135.031H36.5398V130.112Z" fill="black"/>
<path d="M46.3769 130.112H41.4584V135.031H46.3769V130.112Z" fill="black"/>
<path d="M61.1325 130.112H56.214V135.031H61.1325V130.112Z" fill="black"/>
<path d="M70.9695 130.112H66.051V135.031H70.9695V130.112Z" fill="black"/>
<path d="M75.888 130.112H70.9695V135.031H75.888V130.112Z" fill="black"/>
<path d="M95.5621 130.112H90.6436V135.031H95.5621V130.112Z" fill="black"/>
<path d="M100.481 130.112H95.562V135.031H100.481V130.112Z" fill="black"/>
<path d="M105.399 130.112H100.481V135.031H105.399V130.112Z" fill="black"/>
<path d="M115.236 130.112H110.318V135.031H115.236V130.112Z" fill="black"/>
<path d="M139.829 130.112H134.91V135.031H139.829V130.112Z" fill="black"/>
<path d="M144.747 130.112H139.829V135.031H144.747V130.112Z" fill="black"/>
<path d="M149.666 130.112H144.747V135.031H149.666V130.112Z" fill="black"/>
<path d="M159.503 130.112H154.584V135.031H159.503V130.112Z" fill="black"/>
<path d="M164.421 130.112H159.503V135.031H164.421V130.112Z" fill="black"/>
<path d="M169.34 130.112H164.421V135.031H169.34V130.112Z" fill="black"/>
<path d="M193.932 130.112H189.014V135.031H193.932V130.112Z" fill="black"/>
<path d="M198.851 130.112H193.932V135.031H198.851V130.112Z" fill="black"/>
<path d="M11.9473 135.031H7.02881V139.949H11.9473V135.031Z" fill="black"/>
<path d="M16.8659 135.031H11.9474V139.949H16.8659V135.031Z" fill="black"/>
<path d="M21.7844 135.031H16.8658V139.949H21.7844V135.031Z" fill="black"/>
<path d="M26.7029 135.031H21.7844V139.949H26.7029V135.031Z" fill="black"/>
<path d="M31.6214 135.031H26.7029V139.949H31.6214V135.031Z" fill="black"/>
<path d="M61.1325 135.031H56.214V139.949H61.1325V135.031Z" fill="black"/>
<path d="M80.8065 135.031H75.8879V139.949H80.8065V135.031Z" fill="black"/>
<path d="M85.725 135.031H80.8065V139.949H85.725V135.031Z" fill="black"/>
<path d="M90.6435 135.031H85.725V139.949H90.6435V135.031Z" fill="black"/>
<path d="M100.481 135.031H95.562V139.949H100.481V135.031Z" fill="black"/>
<path d="M110.318 135.031H105.399V139.949H110.318V135.031Z" fill="black"/>
<path d="M120.155 135.031H115.236V139.949H120.155V135.031Z" fill="black"/>
<path d="M125.073 135.031H120.155V139.949H125.073V135.031Z" fill="black"/>
<path d="M144.747 135.031H139.829V139.949H144.747V135.031Z" fill="black"/>
<path d="M154.584 135.031H149.666V139.949H154.584V135.031Z" fill="black"/>
<path d="M159.503 135.031H154.584V139.949H159.503V135.031Z" fill="black"/>
<path d="M184.095 135.031H179.177V139.949H184.095V135.031Z" fill="black"/>
<path d="M193.932 135.031H189.014V139.949H193.932V135.031Z" fill="black"/>
<path d="M203.769 135.031H198.851V139.949H203.769V135.031Z" fill="black"/>
<path d="M11.9473 139.949H7.02881V144.868H11.9473V139.949Z" fill="black"/>
<path d="M26.7029 139.949H21.7844V144.868H26.7029V139.949Z" fill="black"/>
<path d="M31.6214 139.949H26.7029V144.868H31.6214V139.949Z" fill="black"/>
<path d="M36.5398 139.949H31.6213V144.868H36.5398V139.949Z" fill="black"/>
<path d="M61.1325 139.949H56.214V144.868H61.1325V139.949Z" fill="black"/>
<path d="M66.051 139.949H61.1324V144.868H66.051V139.949Z" fill="black"/>
<path d="M85.725 139.949H80.8065V144.868H85.725V139.949Z" fill="black"/>
<path d="M95.5621 139.949H90.6436V144.868H95.5621V139.949Z" fill="black"/>
<path d="M105.399 139.949H100.481V144.868H105.399V139.949Z" fill="black"/>
<path d="M115.236 139.949H110.318V144.868H115.236V139.949Z" fill="black"/>
<path d="M125.073 139.949H120.155V144.868H125.073V139.949Z" fill="black"/>
<path d="M139.829 139.949H134.91V144.868H139.829V139.949Z" fill="black"/>
<path d="M144.747 139.949H139.829V144.868H144.747V139.949Z" fill="black"/>
<path d="M169.34 139.949H164.421V144.868H169.34V139.949Z" fill="black"/>
<path d="M198.851 139.949H193.932V144.868H198.851V139.949Z" fill="black"/>
<path d="M7.02886 144.868H2.11035V149.786H7.02886V144.868Z" fill="black"/>
<path d="M11.9473 144.868H7.02881V149.786H11.9473V144.868Z" fill="black"/>
<path d="M16.8659 144.868H11.9474V149.786H16.8659V144.868Z" fill="black"/>
<path d="M21.7844 144.868H16.8658V149.786H21.7844V144.868Z" fill="black"/>
<path d="M26.7029 144.868H21.7844V149.786H26.7029V144.868Z" fill="black"/>
<path d="M51.2955 144.868H46.377V149.786H51.2955V144.868Z" fill="black"/>
<path d="M61.1325 144.868H56.214V149.786H61.1325V144.868Z" fill="black"/>
<path d="M70.9695 144.868H66.051V149.786H70.9695V144.868Z" fill="black"/>
<path d="M80.8065 144.868H75.8879V149.786H80.8065V144.868Z" fill="black"/>
<path d="M95.5621 144.868H90.6436V149.786H95.5621V144.868Z" fill="black"/>
<path d="M100.481 144.868H95.562V149.786H100.481V144.868Z" fill="black"/>
<path d="M105.399 144.868H100.481V149.786H105.399V144.868Z" fill="black"/>
<path d="M110.318 144.868H105.399V149.786H110.318V144.868Z" fill="black"/>
<path d="M120.155 144.868H115.236V149.786H120.155V144.868Z" fill="black"/>
<path d="M125.073 144.868H120.155V149.786H125.073V144.868Z" fill="black"/>
<path d="M129.992 144.868H125.073V149.786H129.992V144.868Z" fill="black"/>
<path d="M134.91 144.868H129.992V149.786H134.91V144.868Z" fill="black"/>
<path d="M139.829 144.868H134.91V149.786H139.829V144.868Z" fill="black"/>
<path d="M164.421 144.868H159.503V149.786H164.421V144.868Z" fill="black"/>
<path d="M184.095 144.868H179.177V149.786H184.095V144.868Z" fill="black"/>
<path d="M189.014 144.868H184.095V149.786H189.014V144.868Z" fill="black"/>
<path d="M203.769 144.868H198.851V149.786H203.769V144.868Z" fill="black"/>
<path d="M7.02886 149.786H2.11035V154.705H7.02886V149.786Z" fill="black"/>
<path d="M16.8659 149.786H11.9474V154.705H16.8659V149.786Z" fill="black"/>
<path d="M26.7029 149.786H21.7844V154.705H26.7029V149.786Z" fill="black"/>
<path d="M31.6214 149.786H26.7029V154.705H31.6214V149.786Z" fill="black"/>
<path d="M36.5398 149.786H31.6213V154.705H36.5398V149.786Z" fill="black"/>
<path d="M66.051 149.786H61.1324V154.705H66.051V149.786Z" fill="black"/>
<path d="M70.9695 149.786H66.051V154.705H70.9695V149.786Z" fill="black"/>
<path d="M80.8065 149.786H75.8879V154.705H80.8065V149.786Z" fill="black"/>
<path d="M90.6435 149.786H85.725V154.705H90.6435V149.786Z" fill="black"/>
<path d="M100.481 149.786H95.562V154.705H100.481V149.786Z" fill="black"/>
<path d="M110.318 149.786H105.399V154.705H110.318V149.786Z" fill="black"/>
<path d="M115.236 149.786H110.318V154.705H115.236V149.786Z" fill="black"/>
<path d="M120.155 149.786H115.236V154.705H120.155V149.786Z" fill="black"/>
<path d="M125.073 149.786H120.155V154.705H125.073V149.786Z" fill="black"/>
<path d="M134.91 149.786H129.992V154.705H134.91V149.786Z" fill="black"/>
<path d="M139.829 149.786H134.91V154.705H139.829V149.786Z" fill="black"/>
<path d="M144.747 149.786H139.829V154.705H144.747V149.786Z" fill="black"/>
<path d="M149.666 149.786H144.747V154.705H149.666V149.786Z" fill="black"/>
<path d="M154.584 149.786H149.666V154.705H154.584V149.786Z" fill="black"/>
<path d="M159.503 149.786H154.584V154.705H159.503V149.786Z" fill="black"/>
<path d="M179.177 149.786H174.258V154.705H179.177V149.786Z" fill="black"/>
<path d="M193.932 149.786H189.014V154.705H193.932V149.786Z" fill="black"/>
<path d="M203.769 149.786H198.851V154.705H203.769V149.786Z" fill="black"/>
<path d="M7.02886 154.705H2.11035V159.623H7.02886V154.705Z" fill="black"/>
<path d="M16.8659 154.705H11.9474V159.623H16.8659V154.705Z" fill="black"/>
<path d="M21.7844 154.705H16.8658V159.623H21.7844V154.705Z" fill="black"/>
<path d="M51.2955 154.705H46.377V159.623H51.2955V154.705Z" fill="black"/>
<path d="M56.2139 154.705H51.2954V159.623H56.2139V154.705Z" fill="black"/>
<path d="M61.1325 154.705H56.214V159.623H61.1325V154.705Z" fill="black"/>
<path d="M66.051 154.705H61.1324V159.623H66.051V154.705Z" fill="black"/>
<path d="M75.888 154.705H70.9695V159.623H75.888V154.705Z" fill="black"/>
<path d="M80.8065 154.705H75.8879V159.623H80.8065V154.705Z" fill="black"/>
<path d="M85.725 154.705H80.8065V159.623H85.725V154.705Z" fill="black"/>
<path d="M100.481 154.705H95.562V159.623H100.481V154.705Z" fill="black"/>
<path d="M105.399 154.705H100.481V159.623H105.399V154.705Z" fill="black"/>
<path d="M110.318 154.705H105.399V159.623H110.318V154.705Z" fill="black"/>
<path d="M115.236 154.705H110.318V159.623H115.236V154.705Z" fill="black"/>
<path d="M120.155 154.705H115.236V159.623H120.155V154.705Z" fill="black"/>
<path d="M125.073 154.705H120.155V159.623H125.073V154.705Z" fill="black"/>
<path d="M129.992 154.705H125.073V159.623H129.992V154.705Z" fill="black"/>
<path d="M134.91 154.705H129.992V159.623H134.91V154.705Z" fill="black"/>
<path d="M139.829 154.705H134.91V159.623H139.829V154.705Z" fill="black"/>
<path d="M159.503 154.705H154.584V159.623H159.503V154.705Z" fill="black"/>
<path d="M164.421 154.705H159.503V159.623H164.421V154.705Z" fill="black"/>
<path d="M174.258 154.705H169.34V159.623H174.258V154.705Z" fill="black"/>
<path d="M179.177 154.705H174.258V159.623H179.177V154.705Z" fill="black"/>
<path d="M184.095 154.705H179.177V159.623H184.095V154.705Z" fill="black"/>
<path d="M189.014 154.705H184.095V159.623H189.014V154.705Z" fill="black"/>
<path d="M198.851 154.705H193.932V159.623H198.851V154.705Z" fill="black"/>
<path d="M203.769 154.705H198.851V159.623H203.769V154.705Z" fill="black"/>
<path d="M7.02886 159.623H2.11035V164.542H7.02886V159.623Z" fill="black"/>
<path d="M21.7844 159.623H16.8658V164.542H21.7844V159.623Z" fill="black"/>
<path d="M26.7029 159.623H21.7844V164.542H26.7029V159.623Z" fill="black"/>
<path d="M31.6214 159.623H26.7029V164.542H31.6214V159.623Z" fill="black"/>
<path d="M36.5398 159.623H31.6213V164.542H36.5398V159.623Z" fill="black"/>
<path d="M41.4584 159.623H36.5399V164.542H41.4584V159.623Z" fill="black"/>
<path d="M51.2955 159.623H46.377V164.542H51.2955V159.623Z" fill="black"/>
<path d="M56.2139 159.623H51.2954V164.542H56.2139V159.623Z" fill="black"/>
<path d="M75.888 159.623H70.9695V164.542H75.888V159.623Z" fill="black"/>
<path d="M80.8065 159.623H75.8879V164.542H80.8065V159.623Z" fill="black"/>
<path d="M85.725 159.623H80.8065V164.542H85.725V159.623Z" fill="black"/>
<path d="M95.5621 159.623H90.6436V164.542H95.5621V159.623Z" fill="black"/>
<path d="M100.481 159.623H95.562V164.542H100.481V159.623Z" fill="black"/>
<path d="M105.399 159.623H100.481V164.542H105.399V159.623Z" fill="black"/>
<path d="M115.236 159.623H110.318V164.542H115.236V159.623Z" fill="black"/>
<path d="M120.155 159.623H115.236V164.542H120.155V159.623Z" fill="black"/>
<path d="M134.91 159.623H129.992V164.542H134.91V159.623Z" fill="black"/>
<path d="M139.829 159.623H134.91V164.542H139.829V159.623Z" fill="black"/>
<path d="M144.747 159.623H139.829V164.542H144.747V159.623Z" fill="black"/>
<path d="M154.584 159.623H149.666V164.542H154.584V159.623Z" fill="black"/>
<path d="M159.503 159.623H154.584V164.542H159.503V159.623Z" fill="black"/>
<path d="M164.421 159.623H159.503V164.542H164.421V159.623Z" fill="black"/>
<path d="M169.34 159.623H164.421V164.542H169.34V159.623Z" fill="black"/>
<path d="M174.258 159.623H169.34V164.542H174.258V159.623Z" fill="black"/>
<path d="M179.177 159.623H174.258V164.542H179.177V159.623Z" fill="black"/>
<path d="M184.095 159.623H179.177V164.542H184.095V159.623Z" fill="black"/>
<path d="M189.014 159.623H184.095V164.542H189.014V159.623Z" fill="black"/>
<path d="M46.3769 164.542H41.4584V169.46H46.3769V164.542Z" fill="black"/>
<path d="M51.2955 164.542H46.377V169.46H51.2955V164.542Z" fill="black"/>
<path d="M61.1325 164.542H56.214V169.46H61.1325V164.542Z" fill="black"/>
<path d="M66.051 164.542H61.1324V169.46H66.051V164.542Z" fill="black"/>
<path d="M70.9695 164.542H66.051V169.46H70.9695V164.542Z" fill="black"/>
<path d="M80.8065 164.542H75.8879V169.46H80.8065V164.542Z" fill="black"/>
<path d="M85.725 164.542H80.8065V169.46H85.725V164.542Z" fill="black"/>
<path d="M90.6435 164.542H85.725V169.46H90.6435V164.542Z" fill="black"/>
<path d="M105.399 164.542H100.481V169.46H105.399V164.542Z" fill="black"/>
<path d="M120.155 164.542H115.236V169.46H120.155V164.542Z" fill="black"/>
<path d="M125.073 164.542H120.155V169.46H125.073V164.542Z" fill="black"/>
<path d="M134.91 164.542H129.992V169.46H134.91V164.542Z" fill="black"/>
<path d="M149.666 164.542H144.747V169.46H149.666V164.542Z" fill="black"/>
<path d="M154.584 164.542H149.666V169.46H154.584V164.542Z" fill="black"/>
<path d="M164.421 164.542H159.503V169.46H164.421V164.542Z" fill="black"/>
<path d="M184.095 164.542H179.177V169.46H184.095V164.542Z" fill="black"/>
<path d="M7.02886 169.46H2.11035V174.378H7.02886V169.46Z" fill="black"/>
<path d="M11.9473 169.46H7.02881V174.378H11.9473V169.46Z" fill="black"/>
<path d="M16.8659 169.46H11.9474V174.378H16.8659V169.46Z" fill="black"/>
<path d="M21.7844 169.46H16.8658V174.378H21.7844V169.46Z" fill="black"/>
<path d="M26.7029 169.46H21.7844V174.378H26.7029V169.46Z" fill="black"/>
<path d="M31.6214 169.46H26.7029V174.378H31.6214V169.46Z" fill="black"/>
<path d="M36.5398 169.46H31.6213V174.378H36.5398V169.46Z" fill="black"/>
<path d="M51.2955 169.46H46.377V174.378H51.2955V169.46Z" fill="black"/>
<path d="M61.1325 169.46H56.214V174.378H61.1325V169.46Z" fill="black"/>
<path d="M75.888 169.46H70.9695V174.378H75.888V169.46Z" fill="black"/>
<path d="M80.8065 169.46H75.8879V174.378H80.8065V169.46Z" fill="black"/>
<path d="M85.725 169.46H80.8065V174.378H85.725V169.46Z" fill="black"/>
<path d="M90.6435 169.46H85.725V174.378H90.6435V169.46Z" fill="black"/>
<path d="M115.236 169.46H110.318V174.378H115.236V169.46Z" fill="black"/>
<path d="M120.155 169.46H115.236V174.378H120.155V169.46Z" fill="black"/>
<path d="M134.91 169.46H129.992V174.378H134.91V169.46Z" fill="black"/>
<path d="M139.829 169.46H134.91V174.378H139.829V169.46Z" fill="black"/>
<path d="M144.747 169.46H139.829V174.378H144.747V169.46Z" fill="black"/>
<path d="M149.666 169.46H144.747V174.378H149.666V169.46Z" fill="black"/>
<path d="M164.421 169.46H159.503V174.378H164.421V169.46Z" fill="black"/>
<path d="M174.258 169.46H169.34V174.378H174.258V169.46Z" fill="black"/>
<path d="M184.095 169.46H179.177V174.378H184.095V169.46Z" fill="black"/>
<path d="M193.932 169.46H189.014V174.378H193.932V169.46Z" fill="black"/>
<path d="M198.851 169.46H193.932V174.378H198.851V169.46Z" fill="black"/>
<path d="M7.02886 174.379H2.11035V179.297H7.02886V174.379Z" fill="black"/>
<path d="M36.5398 174.379H31.6213V179.297H36.5398V174.379Z" fill="black"/>
<path d="M51.2955 174.379H46.377V179.297H51.2955V174.379Z" fill="black"/>
<path d="M56.2139 174.379H51.2954V179.297H56.2139V174.379Z" fill="black"/>
<path d="M70.9695 174.379H66.051V179.297H70.9695V174.379Z" fill="black"/>
<path d="M80.8065 174.379H75.8879V179.297H80.8065V174.379Z" fill="black"/>
<path d="M110.318 174.379H105.399V179.297H110.318V174.379Z" fill="black"/>
<path d="M115.236 174.379H110.318V179.297H115.236V174.379Z" fill="black"/>
<path d="M125.073 174.379H120.155V179.297H125.073V174.379Z" fill="black"/>
<path d="M149.666 174.379H144.747V179.297H149.666V174.379Z" fill="black"/>
<path d="M154.584 174.379H149.666V179.297H154.584V174.379Z" fill="black"/>
<path d="M164.421 174.379H159.503V179.297H164.421V174.379Z" fill="black"/>
<path d="M184.095 174.379H179.177V179.297H184.095V174.379Z" fill="black"/>
<path d="M198.851 174.379H193.932V179.297H198.851V174.379Z" fill="black"/>
<path d="M203.769 174.379H198.851V179.297H203.769V174.379Z" fill="black"/>
<path d="M7.02886 179.297H2.11035V184.216H7.02886V179.297Z" fill="black"/>
<path d="M16.8659 179.297H11.9474V184.216H16.8659V179.297Z" fill="black"/>
<path d="M21.7844 179.297H16.8658V184.216H21.7844V179.297Z" fill="black"/>
<path d="M26.7029 179.297H21.7844V184.216H26.7029V179.297Z" fill="black"/>
<path d="M36.5398 179.297H31.6213V184.216H36.5398V179.297Z" fill="black"/>
<path d="M46.3769 179.297H41.4584V184.216H46.3769V179.297Z" fill="black"/>
<path d="M51.2955 179.297H46.377V184.216H51.2955V179.297Z" fill="black"/>
<path d="M61.1325 179.297H56.214V184.216H61.1325V179.297Z" fill="black"/>
<path d="M66.051 179.297H61.1324V184.216H66.051V179.297Z" fill="black"/>
<path d="M70.9695 179.297H66.051V184.216H70.9695V179.297Z" fill="black"/>
<path d="M90.6435 179.297H85.725V184.216H90.6435V179.297Z" fill="black"/>
<path d="M105.399 179.297H100.481V184.216H105.399V179.297Z" fill="black"/>
<path d="M115.236 179.297H110.318V184.216H115.236V179.297Z" fill="black"/>
<path d="M125.073 179.297H120.155V184.216H125.073V179.297Z" fill="black"/>
<path d="M134.91 179.297H129.992V184.216H134.91V179.297Z" fill="black"/>
<path d="M139.829 179.297H134.91V184.216H139.829V179.297Z" fill="black"/>
<path d="M144.747 179.297H139.829V184.216H144.747V179.297Z" fill="black"/>
<path d="M164.421 179.297H159.503V184.216H164.421V179.297Z" fill="black"/>
<path d="M169.34 179.297H164.421V184.216H169.34V179.297Z" fill="black"/>
<path d="M174.258 179.297H169.34V184.216H174.258V179.297Z" fill="black"/>
<path d="M179.177 179.297H174.258V184.216H179.177V179.297Z" fill="black"/>
<path d="M184.095 179.297H179.177V184.216H184.095V179.297Z" fill="black"/>
<path d="M189.014 179.297H184.095V184.216H189.014V179.297Z" fill="black"/>
<path d="M193.932 179.297H189.014V184.216H193.932V179.297Z" fill="black"/>
<path d="M7.02886 184.216H2.11035V189.134H7.02886V184.216Z" fill="black"/>
<path d="M16.8659 184.216H11.9474V189.134H16.8659V184.216Z" fill="black"/>
<path d="M21.7844 184.216H16.8658V189.134H21.7844V184.216Z" fill="black"/>
<path d="M26.7029 184.216H21.7844V189.134H26.7029V184.216Z" fill="black"/>
<path d="M36.5398 184.216H31.6213V189.134H36.5398V184.216Z" fill="black"/>
<path d="M46.3769 184.216H41.4584V189.134H46.3769V184.216Z" fill="black"/>
<path d="M51.2955 184.216H46.377V189.134H51.2955V184.216Z" fill="black"/>
<path d="M66.051 184.216H61.1324V189.134H66.051V184.216Z" fill="black"/>
<path d="M70.9695 184.216H66.051V189.134H70.9695V184.216Z" fill="black"/>
<path d="M80.8065 184.216H75.8879V189.134H80.8065V184.216Z" fill="black"/>
<path d="M90.6435 184.216H85.725V189.134H90.6435V184.216Z" fill="black"/>
<path d="M100.481 184.216H95.562V189.134H100.481V184.216Z" fill="black"/>
<path d="M129.992 184.216H125.073V189.134H129.992V184.216Z" fill="black"/>
<path d="M134.91 184.216H129.992V189.134H134.91V184.216Z" fill="black"/>
<path d="M139.829 184.216H134.91V189.134H139.829V184.216Z" fill="black"/>
<path d="M154.584 184.216H149.666V189.134H154.584V184.216Z" fill="black"/>
<path d="M159.503 184.216H154.584V189.134H159.503V184.216Z" fill="black"/>
<path d="M164.421 184.216H159.503V189.134H164.421V184.216Z" fill="black"/>
<path d="M169.34 184.216H164.421V189.134H169.34V184.216Z" fill="black"/>
<path d="M184.095 184.216H179.177V189.134H184.095V184.216Z" fill="black"/>
<path d="M7.02886 189.134H2.11035V194.053H7.02886V189.134Z" fill="black"/>
<path d="M16.8659 189.134H11.9474V194.053H16.8659V189.134Z" fill="black"/>
<path d="M21.7844 189.134H16.8658V194.053H21.7844V189.134Z" fill="black"/>
<path d="M26.7029 189.134H21.7844V194.053H26.7029V189.134Z" fill="black"/>
<path d="M36.5398 189.134H31.6213V194.053H36.5398V189.134Z" fill="black"/>
<path d="M46.3769 189.134H41.4584V194.053H46.3769V189.134Z" fill="black"/>
<path d="M51.2955 189.134H46.377V194.053H51.2955V189.134Z" fill="black"/>
<path d="M70.9695 189.134H66.051V194.053H70.9695V189.134Z" fill="black"/>
<path d="M90.6435 189.134H85.725V194.053H90.6435V189.134Z" fill="black"/>
<path d="M95.5621 189.134H90.6436V194.053H95.5621V189.134Z" fill="black"/>
<path d="M110.318 189.134H105.399V194.053H110.318V189.134Z" fill="black"/>
<path d="M120.155 189.134H115.236V194.053H120.155V189.134Z" fill="black"/>
<path d="M134.91 189.134H129.992V194.053H134.91V189.134Z" fill="black"/>
<path d="M149.666 189.134H144.747V194.053H149.666V189.134Z" fill="black"/>
<path d="M159.503 189.134H154.584V194.053H159.503V189.134Z" fill="black"/>
<path d="M174.258 189.134H169.34V194.053H174.258V189.134Z" fill="black"/>
<path d="M179.177 189.134H174.258V194.053H179.177V189.134Z" fill="black"/>
<path d="M184.095 189.134H179.177V194.053H184.095V189.134Z" fill="black"/>
<path d="M189.014 189.134H184.095V194.053H189.014V189.134Z" fill="black"/>
<path d="M193.932 189.134H189.014V194.053H193.932V189.134Z" fill="black"/>
<path d="M198.851 189.134H193.932V194.053H198.851V189.134Z" fill="black"/>
<path d="M7.02886 194.053H2.11035V198.971H7.02886V194.053Z" fill="black"/>
<path d="M36.5398 194.053H31.6213V198.971H36.5398V194.053Z" fill="black"/>
<path d="M51.2955 194.053H46.377V198.971H51.2955V194.053Z" fill="black"/>
<path d="M70.9695 194.053H66.051V198.971H70.9695V194.053Z" fill="black"/>
<path d="M80.8065 194.053H75.8879V198.971H80.8065V194.053Z" fill="black"/>
<path d="M85.725 194.053H80.8065V198.971H85.725V194.053Z" fill="black"/>
<path d="M90.6435 194.053H85.725V198.971H90.6435V194.053Z" fill="black"/>
<path d="M95.5621 194.053H90.6436V198.971H95.5621V194.053Z" fill="black"/>
<path d="M110.318 194.053H105.399V198.971H110.318V194.053Z" fill="black"/>
<path d="M115.236 194.053H110.318V198.971H115.236V194.053Z" fill="black"/>
<path d="M125.073 194.053H120.155V198.971H125.073V194.053Z" fill="black"/>
<path d="M144.747 194.053H139.829V198.971H144.747V194.053Z" fill="black"/>
<path d="M179.177 194.053H174.258V198.971H179.177V194.053Z" fill="black"/>
<path d="M189.014 194.053H184.095V198.971H189.014V194.053Z" fill="black"/>
<path d="M203.769 194.053H198.851V198.971H203.769V194.053Z" fill="black"/>
<path d="M7.02886 198.971H2.11035V203.89H7.02886V198.971Z" fill="black"/>
<path d="M11.9473 198.971H7.02881V203.89H11.9473V198.971Z" fill="black"/>
<path d="M16.8659 198.971H11.9474V203.89H16.8659V198.971Z" fill="black"/>
<path d="M21.7844 198.971H16.8658V203.89H21.7844V198.971Z" fill="black"/>
<path d="M26.7029 198.971H21.7844V203.89H26.7029V198.971Z" fill="black"/>
<path d="M31.6214 198.971H26.7029V203.89H31.6214V198.971Z" fill="black"/>
<path d="M36.5398 198.971H31.6213V203.89H36.5398V198.971Z" fill="black"/>
<path d="M56.2139 198.971H51.2954V203.89H56.2139V198.971Z" fill="black"/>
<path d="M61.1325 198.971H56.214V203.89H61.1325V198.971Z" fill="black"/>
<path d="M75.888 198.971H70.9695V203.89H75.888V198.971Z" fill="black"/>
<path d="M80.8065 198.971H75.8879V203.89H80.8065V198.971Z" fill="black"/>
<path d="M105.399 198.971H100.481V203.89H105.399V198.971Z" fill="black"/>
<path d="M125.073 198.971H120.155V203.89H125.073V198.971Z" fill="black"/>
<path d="M139.829 198.971H134.91V203.89H139.829V198.971Z" fill="black"/>
<path d="M154.584 198.971H149.666V203.89H154.584V198.971Z" fill="black"/>
<path d="M164.421 198.971H159.503V203.89H164.421V198.971Z" fill="black"/>
<path d="M169.34 198.971H164.421V203.89H169.34V198.971Z" fill="black"/>
<path d="M174.258 198.971H169.34V203.89H174.258V198.971Z" fill="black"/>
<path d="M179.177 198.971H174.258V203.89H179.177V198.971Z" fill="black"/>
<path d="M184.095 198.971H179.177V203.89H184.095V198.971Z" fill="black"/>
<path d="M189.014 198.971H184.095V203.89H189.014V198.971Z" fill="black"/>
<path d="M193.932 198.971H189.014V203.89H193.932V198.971Z" fill="black"/>
</svg>
