<svg xmlns="http://www.w3.org/2000/svg" style="display:none"><symbol id="bag-util" viewBox="0 0 21.9 18"><path fill="#CDE7F7" d="M15.1 8.8H3.2L1 3.6h19.9l-1.8 5.2z"/><path fill="#0053A3" d="M21.3 2.9h-5.8V.6c0-.4-.2-.6-.5-.6H6.9c-.3 0-.5.2-.5.6v2.3H.6c-.4 0-.6.2-.6.5v14c0 .4.2.6.6.6h20.8c.3 0 .6-.2.6-.6v-14c-.1-.3-.4-.5-.7-.5zM7.5 1.1h7v1.8h-7V1.1zM20.4 4l-1.5 4.5H12V7.3c0-.3-.3-.5-.8-.6-.4 0-.8.2-.8.5v1.2h-7L1.5 4h18.9zm.4 12.9H1.1v-11l1.4 3.3c.1.2.3.4.5.4h7.4v.4c0 .3.3.5.8.6.4 0 .8-.2.8-.5v-.5h7.4c.2 0 .4-.2.5-.4l.9-2.8v10.5z"/></symbol><symbol id="calc-depo-util" viewBox="0 0 27.9 28"><path fill="#CDE7F7" d="M1.1 1.1h25.8v10.4H1.1z"/><path fill="#0053A3" d="M27.1 28H.8c-.4 0-.8-.4-.8-.8V.8C0 .4.4 0 .8 0h26c.2 0 .5.1.6.3.3.1.4.4.4.7v26.2c.1.4-.3.8-.7.8zM1.6 26.4h24.6V1.6H1.6v24.8z"/><path fill="#0053A3" d="M6.1 7.6c.4.3 1.1.7 1.6.4.8-.6-.7-1-1-1.1-1.3-.6-1-2.7.5-2.8v-.7h.6v.8c.4 0 .8.2 1.2.4l-.5 1c-.9-.7-2 .1-.8.6.7.2 1.4.6 1.4 1.4 0 .9-.6 1.4-1.4 1.6v.8h-.5v-.9c-.6 0-1.2-.2-1.6-.6l.5-.9zM8.5 15.9H4.6c-.5 0-.8-.4-.8-.8s.4-.8.8-.8h3.8c.5 0 .8.4.8.8s-.3.8-.7.8zM15.9 16.2H12c-.5 0-.8-.4-.8-.8s.4-.8.8-.8h3.8c.5 0 .8.4.8.8s-.3.8-.7.8zM23.3 16.4h-3.8c-.5 0-.8-.4-.8-.8 0-.5.4-.8.8-.8h3.8c.5 0 .8.4.8.8 0 .5-.4.8-.8.8zM8.5 19.2H4.6c-.5 0-.8-.4-.8-.8s.4-.8.8-.8h3.8c.5 0 .8.4.8.8s-.3.8-.7.8zM15.9 19.5H12c-.5 0-.8-.4-.8-.8s.4-.8.8-.8h3.8c.5 0 .8.4.8.8s-.3.8-.7.8zM23.3 19.7h-3.8c-.5 0-.8-.4-.8-.8 0-.5.4-.8.8-.8h3.8c.5 0 .8.4.8.8 0 .5-.4.8-.8.8zM8.5 22.5H4.6c-.5 0-.8-.4-.8-.8s.4-.8.8-.8h3.8c.5 0 .8.4.8.8s-.3.8-.7.8zM23.5 22.7H12c-.5 0-.8-.4-.8-.8s.4-.8.8-.8h11.5c.5 0 .8.4.8.8s-.3.8-.8.8z"/></symbol><symbol id="calc-util" viewBox="0 0 27.9 28"><path fill="#CDE7F7" d="M1.1 1.1h25.8v10.4H1.1z"/><path fill="#0053A3" d="M27.1 28H.8c-.4 0-.8-.4-.8-.8V.8C0 .4.4 0 .8 0h26c.2 0 .5.1.6.3.3.1.4.4.4.7v26.2c.1.4-.3.8-.7.8zM1.6 26.4h24.6V1.6H1.6v24.8z"/><path fill="#0053A3" stroke="#0053A3" stroke-width=".25" stroke-miterlimit="10" d="M8 5.3c0 .8-.6 1.2-1.4 1.2-.8 0-1.4-.4-1.4-1.2 0-.8.6-1.2 1.4-1.2.7 0 1.4.4 1.4 1.2zm-2 0c0 .3.3.6.6.6s.6-.2.6-.6c0-.3-.3-.6-.6-.6S6 5 6 5.3zm4.1-1.1l-2.9 5h-.6l2.9-5h.6zM11.4 8c0 .8-.6 1.2-1.4 1.2-.7 0-1.3-.4-1.3-1.2 0-.8.6-1.2 1.4-1.2.7 0 1.3.4 1.3 1.2zM9.5 8c0 .3.3.6.6.6s.6-.2.6-.6c0-.3-.3-.6-.6-.6s-.6.3-.6.6z"/><path fill="#0053A3" d="M8.5 15.9H4.6c-.5 0-.8-.4-.8-.8s.4-.8.8-.8h3.8c.5 0 .8.4.8.8s-.3.8-.7.8zM15.9 16.2H12c-.5 0-.8-.4-.8-.8s.4-.8.8-.8h3.8c.5 0 .8.4.8.8s-.3.8-.7.8zM23.3 16.4h-3.8c-.5 0-.8-.4-.8-.8 0-.5.4-.8.8-.8h3.8c.5 0 .8.4.8.8 0 .5-.4.8-.8.8zM8.5 19.2H4.6c-.5 0-.8-.4-.8-.8s.4-.8.8-.8h3.8c.5 0 .8.4.8.8s-.3.8-.7.8zM15.9 19.5H12c-.5 0-.8-.4-.8-.8s.4-.8.8-.8h3.8c.5 0 .8.4.8.8s-.3.8-.7.8zM23.3 19.7h-3.8c-.5 0-.8-.4-.8-.8 0-.5.4-.8.8-.8h3.8c.5 0 .8.4.8.8 0 .5-.4.8-.8.8zM8.5 22.5H4.6c-.5 0-.8-.4-.8-.8s.4-.8.8-.8h3.8c.5 0 .8.4.8.8s-.3.8-.7.8zM23.5 22.7H12c-.5 0-.8-.4-.8-.8s.4-.8.8-.8h11.5c.5 0 .8.4.8.8s-.3.8-.8.8z"/></symbol><symbol id="calendar-util" viewBox="0 0 61 60"><path fill="#CDE7F7" d="M1.7 5.7h56.8v10.4H1.7z"/><path fill="#0053A3" d="M45.3 4.1A5.7 5.7 0 0 0 39.8 0c-.8 0-1.5.7-1.5 1.5S39 3 39.8 3c1.4 0 2.6 1.2 2.6 2.6s-1.2 2.6-2.6 2.6c-.8 0-1.5.7-1.5 1.5s.7 1.5 1.5 1.5c2.5 0 4.8-1.7 5.5-4.1H58v8.3H3.1V7.2h17.1c.8 0 1.5-.7 1.5-1.5s-.7-1.5-1.5-1.5h-1.1c.5-.7 1.3-1.1 2.1-1.1 1.4 0 2.6 1.2 2.6 2.6s-1.2 2.6-2.6 2.6c-.8 0-1.5.7-1.5 1.5s.7 1.5 1.5 1.5c3.1 0 5.7-2.5 5.7-5.7 0-3.1-2.5-5.7-5.7-5.7-2.5 0-4.8 1.7-5.5 4.1H0v56h61V4.1H45.3zM3.1 56.9V18.6H58v38.3H3.1z"/><path fill="#0053A3" d="M27.4 0c-.8 0-1.5.7-1.5 1.5S26.6 3 27.4 3C28.8 3 30 4.2 30 5.6s-1.2 2.6-2.6 2.6c-.8 0-1.5.7-1.5 1.5s.7 1.5 1.5 1.5c3.1 0 5.7-2.5 5.7-5.7 0-3-2.6-5.5-5.7-5.5z"/><path fill="#0053A3" d="M33.6 0c-.8 0-1.5.7-1.5 1.5S32.8 3 33.6 3c1.4 0 2.6 1.2 2.6 2.6S35 8.3 33.6 8.3c-.8 0-1.5.7-1.5 1.5s.7 1.5 1.5 1.5c3.1 0 5.7-2.5 5.7-5.7 0-3.1-2.6-5.6-5.7-5.6z"/><path fill="#CDE7F7" d="M13.9 34.7c3.4 0 6.2-2.8 6.2-6.2 0-3.4-2.8-6.2-6.2-6.2-3.4 0-6.2 2.8-6.2 6.2 0 3.4 2.8 6.2 6.2 6.2zm0-10.4M30.5 34.7c3.4 0 6.2-2.8 6.2-6.2 0-3.4-2.8-6.2-6.2-6.2-3.4 0-6.2 2.8-6.2 6.2 0 3.4 2.8 6.2 6.2 6.2zm0-10.4M47.1 34.7c3.4 0 6.2-2.8 6.2-6.2 0-3.4-2.8-6.2-6.2-6.2-3.4 0-6.2 2.8-6.2 6.2-.1 3.4 2.7 6.2 6.2 6.2zm0-10.4M13.9 51.2c3.4 0 6.2-2.8 6.2-6.2 0-3.4-2.8-6.2-6.2-6.2-3.4 0-6.2 2.8-6.2 6.2 0 3.4 2.8 6.2 6.2 6.2zm0-10.3M30.5 51.2c3.4 0 6.2-2.8 6.2-6.2 0-3.4-2.8-6.2-6.2-6.2-3.4 0-6.2 2.8-6.2 6.2 0 3.4 2.8 6.2 6.2 6.2zm0-10.3"/><g fill="#0053A3"><path d="M47.1 48.6c-.8 0-1.5.7-1.5 1.5s.7 1.5 1.5 1.5 1.5-.7 1.5-1.5-.7-1.5-1.5-1.5z"/><path d="M51.2 47.6c-.3 0-.5.1-.7.2.1-.2.2-.5.2-.7 0-.8-.7-1.5-1.5-1.5-.3 0-.5.1-.7.2.1-.2.2-.5.2-.7 0-.3-.1-.5-.2-.7.2.1.5.2.7.2.8 0 1.5-.7 1.5-1.5 0-.3-.1-.5-.2-.7.2.1.5.2.7.2.8 0 1.5-.7 1.5-1.5s-.7-1.5-1.5-1.5-1.5.7-1.5 1.5c0 .3.1.5.2.7-.2-.1-.5-.2-.7-.2-.8 0-1.5.7-1.5 1.5 0 .3.1.5.2.7-.2-.1-.5-.2-.7-.2s-.5.1-.7.2c.1-.2.2-.5.2-.7 0-.8-.7-1.5-1.5-1.5-.3 0-.5.1-.7.2.1-.2.2-.5.2-.7 0-.8-.7-1.5-1.5-1.5s-1.5.7-1.5 1.5.7 1.5 1.5 1.5c.3 0 .5-.1.7-.2-.1.2-.2.5-.2.7 0 .8.7 1.5 1.5 1.5.3 0 .5-.1.7-.2-.1.2-.2.5-.2.7 0 .3.1.5.2.7-.2-.1-.5-.2-.7-.2-.8 0-1.5.7-1.5 1.5 0 .3.1.5.2.7-.2-.1-.5-.2-.7-.2-.8 0-1.5.7-1.5 1.5s.7 1.5 1.5 1.5 1.5-.7 1.5-1.5c0-.3-.1-.5-.2-.7.2.1.5.2.7.2.8 0 1.5-.7 1.5-1.5 0-.3-.1-.5-.2-.7.2.1.5.2.7.2s.5-.1.7-.2c-.1.2-.2.5-.2.7 0 .8.7 1.5 1.5 1.5.3 0 .5-.1.7-.2-.1.2-.2.5-.2.7 0 .8.7 1.5 1.5 1.5s1.5-.7 1.5-1.5-.7-1.5-1.5-1.5z"/><path d="M52.2 43.5c-.8 0-1.5.7-1.5 1.5s.7 1.5 1.5 1.5 1.5-.7 1.5-1.5c.1-.8-.6-1.5-1.5-1.5zM41.9 43.5c-.8 0-1.5.7-1.5 1.5s.7 1.5 1.5 1.5 1.5-.7 1.5-1.5-.7-1.5-1.5-1.5zM47.1 38.3c-.8 0-1.5.7-1.5 1.5s.7 1.5 1.5 1.5 1.5-.7 1.5-1.5-.7-1.5-1.5-1.5z"/></g></symbol><symbol id="car-util" viewBox="0 0 118 86"><path fill="#CDE7F7" d="M106.9 30H10.8l9.6-28h77.1l9.4 28z"/><path fill="#2F549E" d="M118 38.9c0-5.6-4.2-10.2-9.6-10.9L99 0H19L9.3 28.1C4.1 28.9 0 33.4 0 38.9v20.6c0 .7.1 1.5.2 2.1-.1.6-.2 1-.2 1.5V81c0 2.7 2.3 5 5 5h13c2.8 0 5-2.2 5-5V70.5h71.8V81c0 2.7 2.3 5 5 5h13c2.8 0 5-2.2 5-5V63.1c0-.5-.1-1-.2-1.4.1-.7.2-1.4.2-2.2V38.9zM21.9 4h74.3l8 23.9H13.6L21.9 4zm-2.8 77c0 .5-.5 1-1 1H5c-.6 0-1-.4-1-1V68c1.9 1.6 4.4 2.5 7 2.5h8V81zm94.9 0c0 .5-.5 1-1 1h-13c-.6 0-1-.4-1-1V70.5h8c2.7 0 5.1-.9 7-2.5v13zm0-21.4c0 1-.2 1.9-.5 2.7-1.1 2.5-3.6 4.3-6.5 4.3H11.1c-2.9 0-5.4-1.8-6.5-4.3-.4-.9-.6-1.8-.6-2.7V38.9c0-3.9 3.2-7 7-7h95.9c3.9 0 7 3.1 7 7v20.7z"/><path fill="#CDE7F7" d="M14.591 43.4h14.6c1.7 0 3 1.3 3 3v7.9c0 1.7-1.4 3-3 3h-14.6c-1.7 0-3-1.3-3-3v-7.9c0-1.7 1.3-3 3-3z"/><path fill="#2F549E" d="M29.191 57.3h-14.6c-1.7 0-3-1.3-3-3v-7.9c0-1.7 1.4-3 3-3h14.6c1.7 0 3 1.3 3 3v7.9c0 1.7-1.4 3-3 3zm-13.6-4h12.6v-5.9h-12.6v5.9z"/><path fill="#CDE7F7" d="M88.858 43.4h14.6c1.7 0 3 1.3 3 3v7.9c0 1.7-1.4 3-3 3h-14.6c-1.7 0-3-1.3-3-3v-7.9c0-1.7 1.3-3 3-3z"/><path fill="#2F549E" d="M103.458 57.3h-14.6c-1.7 0-3-1.3-3-3v-7.9c0-1.7 1.4-3 3-3h14.6c1.7 0 3 1.3 3 3v7.9c0 1.7-1.4 3-3 3zm-13.6-4h12.6v-5.9h-12.6v5.9zM72.4 47.1H45.6c-1 0-1.9-.8-1.9-1.9 0-1 .8-1.9 1.9-1.9h26.8c1 0 1.9.8 1.9 1.9 0 1.1-.9 1.9-1.9 1.9zM45.6 53.6h26.8c1 0 1.9.8 1.9 1.9 0 1-.8 1.9-1.9 1.9H45.6c-1 0-1.9-.8-1.9-1.9 0-1.1.9-1.9 1.9-1.9z"/></symbol><symbol id="client-type-1" viewBox="0 0 188 111"><path d="M187 111h-4c-.6 0-1-.4-1-1s.4-1 1-1h4c.6 0 1 .4 1 1s-.4 1-1 1zM178.5 111H47.9c-.6 0-1-.4-1-1s.4-1 1-1h130.7c.6 0 1 .4 1 1-.1.6-.5 1-1.1 1zM39.9 111H1c-.6 0-1-.4-1-1s.4-1 1-1h38.9c.6 0 1 .4 1 1s-.5 1-1 1zM16.2 86c-.2 0-.4-.1-.6-.2-.4-.4-.5-.9-.2-1.4L34.5 59l9.1 9.1 21.7-24.7c.4-.4 1-.5 1.4-.1.4.4.5 1 .1 1.4L43.7 71l-8.9-9L17 85.6c-.1.3-.4.4-.8.4zM43.5 42.6l4.9-5.5H33.2v17.1c0 .5.5.9 1 .9.6 0 1-.4 1-1v-6h13.2l-4.9-5.5zm-8.3-3.5h8.7l-3.1 3.5 3.1 3.5h-8.7v-7zM137.2 5.5l4.9-5.5H127v17.1c0 .5.5.9 1 .9.6 0 1-.4 1-1v-6h13.2l-5-5.5zM129 2h8.7l-3 3.5 3.1 3.5H129V2zM151.9 8.9l.3-1.5-6.7 2.7c-.5.2-.8.8-.6 1.3.2.5.8.8 1.3.6l1.3-.5-14.5 16-4-5-9.8 9.8c-.4.4-.4 1 0 1.4.2.2.4.3.7.3.3 0 .5-.1.8-.2l8.2-8.2 4 5 16.2-18-.2 1.2c-.1.5.3 1.1.8 1.2h.2c.5 0 .9-.4.9-.9l.9-4.4c.2-.3.2-.6.2-.8zM104.3 58.1l-10.8 5.7-10.2-5.7h-.1c-.5-.3-1.1-.1-1.4.4-.3.5-.1 1.1.4 1.4l7.2 4.1-2 26.4 6 8.4 6-8.4-2-26.3 7.8-4.2c.5-.3.6-.9.4-1.4-.2-.5-.8-.7-1.3-.4zM93.6 95.3l-4-5.6L91.5 65l2.1 1.2 2.1-1.1 1.9 24.7-4 5.5z"/><path d="M122.8 57.1c-5.4-1.8-18.4-4.3-21.4-4.9v-4.4c7.3-2.7 11.9-9.7 13.5-20.6 1.2-7.9-.7-15.2-5.1-20.3-4-4.6-9.8-7.1-15.9-6.9C87.8-.2 82 2.4 78 6.9c-4.3 5.1-6.2 12.5-5.1 20.3 1.6 10.9 6.2 17.9 13.5 20.6v4.5c-3.6.7-15.9 3.1-21 4.8-6.6 2.1-7.7 11.4-7.7 11.8V95c0 7.9 6.9 8 7 8h58.8s7-.1 7-8.1V68.8c-.1-.4-1.2-9.5-7.7-11.7zM74.9 27c-1-7.3.7-14.1 4.7-18.7 3.5-4.1 8.4-6.2 14.3-6.2s10.8 2.1 14.3 6.2c4 4.6 5.7 11.4 4.7 18.7-1.9 13.3-8.3 20.1-18.9 20.1-10.8 0-17.2-6.8-19.1-20.1zm19 22.1c2 0 3.8-.2 5.5-.7v4.8c-4.5 3.4-9.5.8-11-.1v-4.7c1.7.4 3.5.7 5.5.7zM128.5 95c0 5.8-4.5 6-5 6H64.6c-.2 0-5-.1-5-6V69.2c.1-.7 1.2-8.4 6.3-10.1 5-1.7 17.2-4.1 20.8-4.8 2.3 1.5 4.9 2.3 7.6 2.4 2.4 0 4.7-.8 6.6-2.4l.2-.1c3.3.7 15.9 3.1 21.1 4.8 5.1 1.7 6.2 9.4 6.3 10.1V95z"/></symbol><symbol id="client-type-2" viewBox="0 0 188 111"><path d="M39.9 111H1c-.6 0-1-.4-1-1s.4-1 1-1h38.9c.6 0 1 .4 1 1s-.5 1-1 1zM187 111h-4c-.6 0-1-.4-1-1s.4-1 1-1h4c.6 0 1 .4 1 1s-.4 1-1 1zM178.5 111H47.8c-.6 0-1-.4-1-1s.4-1 1-1h130.7c.6 0 1 .4 1 1s-.4 1-1 1zM105.7 58.5c-.3-.5-.9-.7-1.4-.4l-10.8 5.7-10.2-5.7c-.5-.3-1.1-.1-1.4.4-.3.5-.1 1.1.4 1.4l7.2 4.1-2 26.4 6 8.4 6-8.4-2-26.3 7.8-4.2c.5-.3.7-.9.4-1.4zm-8.2 31.2l-4 5.6-4-5.6L91.4 65l2.1 1.2 2.1-1.1 1.9 24.6z"/><path d="M122.8 57c-5.4-1.8-18.4-4.3-21.4-4.9v-4.4c7.3-2.7 11.9-9.7 13.5-20.6 1.2-7.9-.7-15.2-5.1-20.3-.3-.4-.7-.7-1-1-8.8-8.2-22.5-7.7-30.7 1-4.3 5.1-6.2 12.5-5.1 20.3C74.6 38 79.2 45 86.5 47.7v4.5c-3.6.7-15.9 3.1-21 4.8-6.6 2.1-7.7 11.4-7.7 11.8v26.1c0 7.9 6.9 8 7 8h58.8s7-.1 7-8.1V68.7c-.2-.3-1.3-9.5-7.8-11.7zM74.9 27c-1-7.3.7-14.1 4.7-18.7 3.5-4.1 8.4-6.2 14.3-6.2s10.8 2.1 14.3 6.2c4 4.6 5.7 11.4 4.7 18.7-1.9 13.3-8.3 20.1-18.9 20.1S76.8 40.4 74.9 27zm19 22.1c2 0 3.8-.2 5.5-.7v4.8c-4.5 3.4-9.5.8-11-.1v-4.7c1.7.4 3.5.7 5.5.7zM128.5 95c0 5.8-4.5 6-5 6H64.7c-.2 0-5-.1-5-6V69.2c.1-.7 1.2-8.4 6.3-10.1 5-1.7 17.2-4.1 20.8-4.8 2.3 1.5 4.9 2.3 7.6 2.4 2.4 0 4.7-.8 6.6-2.4l.2-.1c3.3.7 15.9 3.1 21.1 4.8 5.1 1.7 6.2 9.4 6.3 10.1V95z"/><g><path d="M171.6 79.2h-4.5c-.8 0-1.5.7-1.5 1.5v4.5c0 .8.7 1.5 1.5 1.5h8.3c.3 0 .6-.1.7-.4.1-.3.1-.5 0-.8l-3.8-6c-.2-.1-.4-.2-.7-.3zm-4.4 6v-4.5h4.1l2.8 4.5h-6.9zM154.5 86.7h6c.8 0 1.5-.7 1.5-1.5v-4.5c0-.8-.7-1.5-1.5-1.5h-6c-.8 0-1.5.7-1.5 1.5v4.5c0 .8.5 1.5 1.3 1.5h.2zm0-6h6v4.5h-6v-4.5zM148.5 79.2h-6c-.8 0-1.5.7-1.5 1.5v4.5c0 .8.7 1.5 1.5 1.5h6c.8 0 1.5-.7 1.5-1.5v-4.5c0-.8-.7-1.5-1.5-1.5zm-6 6v-4.5h6v4.5h-6z"/><path d="M174.2 77.3c-.1-.1-.2-.3-.3-.4-.4-.5-1-.8-1.6-.7h-33.6c-1.3 0-2.3 1-2.3 2.3v18c0 1.3 1 2.3 2.3 2.3h2.3c.4 2.4 2.7 4.1 5.2 3.6 1.9-.3 3.3-1.8 3.6-3.6h17.4c.4 2.4 2.7 4.1 5.2 3.6 1.9-.3 3.3-1.8 3.6-3.6h3.1c1.3 0 2.3-1 2.3-2.3v-7.1c0-.4-.1-.8-.3-1.2l-6.9-10.9zM145.5 101c-1.7 0-3-1.3-3-3s1.3-3 3-3 3 1.3 3 3-1.3 3-3 3zm26.1 0c-1.7 0-3-1.3-3-3s1.3-3 3-3 3 1.3 3 3c0 1.6-1.3 3-2.9 3h-.1zm8.3-6.8h-2.3c-.4 0-.8.3-.8.8 0 .4.3.8.7.8h2.4v.8c0 .4-.3.8-.8.8H176c-.4-2.4-2.7-4.1-5.2-3.6-1.9.3-3.3 1.8-3.6 3.6h-17.4c-.4-2.4-2.7-4.1-5.2-3.6-1.9.3-3.3 1.8-3.6 3.6h-2.3c-.4 0-.8-.3-.8-.8v-.8h1.5c.4 0 .8-.3.8-.8 0-.4-.3-.8-.7-.8h-1.6V78.5c0-.4.3-.8.8-.8h33.6c.3 0 .5.1.6.4l6.8 10.9c.1.1.1.3.1.4v4.8z"/></g><g><path d="M51.1 75.2c0-.4-.3-.7-.7-.7h-3.7v-2.4c0-.4-.3-.7-.7-.7h-3.7v-2.5c0-.4-.3-.7-.7-.7h-9c-.4 0-.7.3-.7.7v2.5h-3.7c-.4 0-.7.3-.7.7v2.4h-3.7c-.4 0-.7.3-.7.7v27.1H51V75.2zm-17.7-5.6h7.7v1.9h-7.7v-1.9zm6.6 31.3h-5.6v-8H40v8zm9.8 0h-8.4v-8h.2c.4 0 .7-.3.7-.7 0-.4-.3-.7-.7-.7h-8.7c-.4 0-.7.3-.7.7 0 .4.3.7.7.7h.2v8h-8.4V75.8h7.4c.4 0 .7-.3.7-.7 0-.4-.3-.7-.7-.7h-3v-1.7h16.3v1.7h-8.1c-.4 0-.7.3-.7.7 0 .4.3.7.7.7h12.4l.1 25.1z"/><path d="M34.7 75.8c.9 0 .9-1.4 0-1.4s-.9 1.4 0 1.4z"/></g><g><path d="M155 20.6c.8.8 1.9 1.3 3 1.4.7 0 1.6-.4 1.6-1.2 0-.9-1.3-1.2-2-1.4-1.8-.6-3.2-1.5-3.2-3.5-.1-2 1.4-3.7 3.4-4v-2h1.6v2c1.1.1 2.2.4 3.1 1l-1.2 2.4c-.6-.5-1.4-.8-2.2-.8-.7 0-1.8.4-1.3 1.3.3.5 1 .7 1.5.9 2 .6 3.8 1.6 3.7 4-.1 2.1-1.5 3.4-3.5 3.8v2.1h-1.6v-2c-.7 0-1.5-.2-2.2-.4-.7-.3-1.4-.6-2-1.1l1.3-2.5z"/><path d="M136.8 42.9V3.1h43.5v30.2h-34.9l-8.6 9.6zm2-37.8v32.6l5.7-6.4h33.8V5.1h-39.5z"/></g></symbol><symbol id="client-type-3" viewBox="0 0 188 111"><path d="M39.9 111H1c-.6 0-1-.4-1-1s.4-1 1-1h38.9c.6 0 1 .4 1 1s-.5 1-1 1zM187 111h-4c-.6 0-1-.4-1-1s.4-1 1-1h4c.6 0 1 .4 1 1s-.4 1-1 1zM178.5 111H47.8c-.6 0-1-.4-1-1s.4-1 1-1h130.7c.6 0 1 .4 1 1s-.4 1-1 1zM42.4 102.8h-8.5c-3.7 0-6.8-3-6.8-6.8V77.5H49V96c.1 3.7-2.9 6.8-6.6 6.8zM28.7 79v17c0 2.9 2.4 5.3 5.3 5.3h8.5c2.9 0 5.3-2.4 5.3-5.3V79H28.7zM24.3 94.6c-2 0-3.6-1.6-3.6-3.6v-5c0-2 1.6-3.6 3.6-3.6.4 0 .8.3.8.8 0 .4-.3.8-.7.8h-.1c-1.1 0-2.1.9-2.1 2v5c0 1.1.9 2.1 2 2.1h.1c.4 0 .8.3.8.8 0 .4-.3.7-.8.7.1 0 .1 0 0 0zM33.7 74.9c-.4 0-.8-.3-.8-.8V69c0-.4.3-.8.8-.8.4 0 .8.3.8.7v5.3c-.1.4-.4.7-.8.7zM38.6 74.9c-.4 0-.8-.3-.8-.8v-9.8c0-.4.3-.8.8-.8.4 0 .8.3.8.7v9.9c-.1.5-.4.8-.8.8zM43.5 74.9c-.4 0-.8-.3-.8-.8V69c0-.4.3-.8.8-.8.4 0 .8.3.8.7v5.3c-.1.4-.4.7-.8.7z"/><path d="M43.5 95.4c-.4 0-.8-.3-.8-.8V83.2c0-.4.3-.8.8-.8.4 0 .8.3.8.7v11.6c-.1.4-.4.7-.8.7z"/><g><path d="M122.8 57c-5.4-1.8-18.4-4.3-21.4-4.9v-4.4c7.3-2.7 11.9-9.7 13.5-20.6 1.2-7.9-.7-15.2-5.1-20.3-.3-.4-.7-.7-1-1-8.8-8.2-22.5-7.7-30.7 1-4.3 5.1-6.2 12.5-5.1 20.3C74.6 38 79.2 45 86.5 47.7v4.5c-3.6.7-15.9 3.1-21 4.8-6.6 2.1-7.7 11.4-7.7 11.8v26.1c0 7.9 6.9 8 7 8h58.8s7-.1 7-8.1V68.7c-.2-.3-1.3-9.5-7.8-11.7zM74.9 27c-1-7.3.7-14.1 4.7-18.7 3.5-4.1 8.4-6.2 14.3-6.2s10.8 2.1 14.3 6.2c4 4.6 5.7 11.4 4.7 18.7-1.9 13.3-8.3 20.1-18.9 20.1S76.8 40.4 74.9 27zm19 22.1c2 0 3.8-.2 5.5-.7v4.8c-4.5 3.4-9.5.8-11-.1v-4.7c1.7.4 3.5.7 5.5.7zM128.5 95c0 5.8-4.5 6-5 6H64.7c-.2 0-5-.1-5-6V69.2c.1-.7 1.2-8.4 6.3-10.1 5-1.7 17.2-4.1 20.8-4.8 2.3 1.5 4.9 2.3 7.6 2.4 2.4 0 4.7-.8 6.6-2.4l.2-.1c3.3.7 15.9 3.1 21.1 4.8 5.1 1.7 6.2 9.4 6.3 10.1V95z"/><path d="M105.7 58.4c-.3-.5-.9-.6-1.4-.4l-10.8 5.7L83.3 58h-.1c-.5-.3-1.1-.1-1.4.4-.3.5-.1 1.1.4 1.4l7.2 4.1-2 26.4 6 8.4 6-8.4-2-26.3 7.8-4.2h.1c.6-.3.7-.9.4-1.4zm-8.2 31.3l-4 5.6-4-5.6L91.4 65l2.1 1.2 2.1-1.1 1.9 24.6z"/></g><g><path d="M174.6 62.5V67h-7.3v-7.3H157v4.1h-8.8v4.8h-8.9v34.2h10.3v-.1h35.3V62.5h-10.3zm-26.4 38.8h-7.3V70.1h7.3v31.2zm8.9-.1h-7.3V65.3h7.3v35.9zm8.8 0h-7.3v-40h7.3v40zm8.7 0h-7.3V68.5h7.3v32.7zm8.8 0h-7.3V64h7.3v37.2z"/><path d="M146.5 99.5h-4.1c-.4 0-.8-.3-.8-.8 0-.4.3-.8.7-.8H146.5c.4 0 .8.4.8.8 0 .5-.3.8-.8.8zM146.5 97h-4.1c-.4 0-.8-.3-.8-.8 0-.4.3-.8.7-.8H146.5c.4 0 .8.4.8.8 0 .5-.3.8-.8.8zM172.9 99.4h-4.1c-.4 0-.8-.3-.8-.8 0-.4.3-.8.7-.8H172.9c.4 0 .8.4.8.8 0 .5-.3.8-.8.8zM172.9 96.9h-4.1c-.4 0-.8-.3-.8-.8 0-.4.3-.8.7-.8H172.9c.4 0 .8.4.8.8 0 .5-.3.8-.8.8zM181.8 71.8h-4.1c-.4 0-.8-.3-.8-.8 0-.4.3-.8.7-.8H181.8c.4 0 .8.4.8.8 0 .5-.3.8-.8.8zM181.8 69.3h-4.1c-.4 0-.8-.3-.8-.8 0-.4.3-.8.7-.8H181.8c.4 0 .8.4.8.8 0 .5-.3.8-.8.8zM144.3 94.4c-1.4 0-2.6-1.2-2.6-2.6s1.2-2.6 2.6-2.6c1.4 0 2.6 1.2 2.6 2.6 0 1.4-1.1 2.6-2.6 2.6zm0-3.7c-.6 0-1.1.5-1.1 1.1 0 .6.5 1.1 1.1 1.1.6 0 1.1-.5 1.1-1.1 0-.6-.5-1.1-1.1-1.1zM170.7 94.3c-1.4 0-2.6-1.2-2.6-2.6 0-1.4 1.2-2.6 2.6-2.6 1.4 0 2.6 1.2 2.6 2.6 0 1.4-1.1 2.6-2.6 2.6.1 0 .1 0 0 0zm0-3.7c-.6 0-1.1.5-1.1 1.1 0 .6.5 1.1 1.1 1.1.6 0 1.1-.5 1.1-1.1 0-.6-.4-1.1-1-1.1h-.1zM153.5 72.5c-1.4 0-2.6-1.2-2.6-2.6s1.2-2.6 2.6-2.6c1.4 0 2.6 1.2 2.6 2.6 0 1.5-1.2 2.6-2.6 2.6zm0-3.7c-.6 0-1.1.5-1.1 1.1 0 .6.5 1.1 1.1 1.1.6 0 1.1-.5 1.1-1.1 0-.6-.5-1.1-1.1-1.1zM164.5 77.2h-4.9V63.8h4.9v13.4zm-3.4-1.5h1.9V65.3h-1.9v10.4z"/></g></symbol><symbol id="client-type-4" viewBox="0 0 188 111"><path d="M39.9 111H1c-.6 0-1-.4-1-1s.4-1 1-1h38.9c.6 0 1 .4 1 1s-.5 1-1 1zM187 111h-4c-.6 0-1-.4-1-1s.4-1 1-1h4c.6 0 1 .4 1 1s-.4 1-1 1zM178.5 111H47.8c-.6 0-1-.4-1-1s.4-1 1-1h130.7c.6 0 1 .4 1 1s-.4 1-1 1zM122.8 57.1c-5.4-1.8-18.4-4.3-21.4-4.9v-4.4c7.3-2.7 11.9-9.6 13.5-20.6 1.2-7.9-.7-15.2-5.1-20.3-4-4.6-9.8-7.1-15.9-6.9C87.8-.2 82 2.4 78 6.9c-4.3 5.1-6.2 12.5-5.1 20.3 1.6 10.9 6.2 17.9 13.5 20.6v4.5c-3.6.7-15.9 3.1-21 4.8-6.6 2.1-7.7 11.4-7.7 11.8V95c0 7.9 6.9 8 7 8h58.8s7-.1 7-8.1V68.8c-.1-.4-1.2-9.5-7.7-11.7zM74.9 27c-1-7.3.7-14.1 4.7-18.7 3.5-4.1 8.4-6.2 14.3-6.2 5.4-.2 10.7 2.1 14.3 6.2 4 4.6 5.7 11.4 4.7 18.7-1.9 13.3-8.3 20.1-18.9 20.1-10.8 0-17.2-6.7-19.1-20.1zm19 22.1c2 0 3.8-.2 5.5-.6v4.7c-4.5 3.4-9.5.8-11-.1v-4.7c1.7.4 3.5.7 5.5.7zM128.5 95c0 5.8-4.5 6-5 6H93.6v.1h-29c-.2 0-5-.1-5-6V69.2c.1-.7 1.2-8.4 6.3-10.1 5-1.7 17.2-4.1 20.8-4.8 2.3 1.5 4.9 2.3 7.6 2.4 2.4 0 4.7-.8 6.6-2.3l.3-.2c3.4.7 15.9 3.1 21 4.8 5.1 1.7 6.2 9.4 6.3 10.1V95z"/><g><path d="M21.4 96.5h1.1v1.1h-1.1zM31.2 96.5h1.1v1.1h-1.1zM28 96.5h1.1v1.1H28zM24.7 96.5h1.1v1.1h-1.1zM26.3 94.3h1.1v1.1h-1.1zM23.1 94.3h1.1v1.1h-1.1zM29.6 94.3h1.1v1.1h-1.1zM38.9 96.5H40v1.1h-1.1zM48.7 96.5h1.1v1.1h-1.1zM45.4 96.5h1.1v1.1h-1.1zM42.2 96.5h1.1v1.1h-1.1zM40.5 94.3h1.1v1.1h-1.1zM43.8 94.3h1.1v1.1h-1.1zM47.1 94.3h1.1v1.1h-1.1zM30.2 82.3h1.1v1.1h-1.1zM40 82.3h1.1v1.1H40zM36.7 82.3h1.1v1.1h-1.1zM33.4 82.3h1.1v1.1h-1.1zM35.1 80.1h1.1v1.1h-1.1zM31.8 80.1h1.1v1.1h-1.1zM38.3 80.1h1.1v1.1h-1.1z"/><path d="M49.2 84.5h-6.5c.4-.5.5-1 .5-1.6v-9.8c0-1.5-1.2-2.7-2.7-2.7h-9.8c-1.5 0-2.7 1.2-2.7 2.7v9.8c0 .6.2 1.1.5 1.6H22c-1.5 0-2.7 1.2-2.7 2.7V97c0 1.5 1.2 2.7 2.7 2.7h9.8c1.5 0 2.7-1.2 2.7-2.7v-9.8c0-.6-.2-1.1-.5-1.6h3.3c-.4.5-.5 1-.5 1.6V97c0 1.5 1.2 2.7 2.7 2.7h9.8c1.5 0 2.7-1.2 2.7-2.7v-9.8c-.1-1.5-1.3-2.7-2.8-2.7zm-20.1-1.7V73c0-.9.7-1.6 1.6-1.6h9.8c.9 0 1.6.7 1.6 1.6v9.8c0 .9-.7 1.6-1.6 1.6h-9.8c-.8 0-1.6-.6-1.6-1.4v-.2zm4.3 4.4V97c0 .9-.7 1.6-1.6 1.6H22c-.9 0-1.6-.7-1.6-1.6v-9.8c0-.9.7-1.6 1.6-1.6h9.8c.9 0 1.6.7 1.6 1.6zM50.9 97c0 .9-.7 1.6-1.6 1.6h-9.8c-.9 0-1.6-.7-1.6-1.6v-9.8c0-.9.7-1.6 1.6-1.6h9.8c.9 0 1.6.7 1.6 1.6V97z"/></g><g><path d="M136.6 97.9h1.1V99h-1.1zM146.4 97.9h1.1V99h-1.1zM143.1 97.9h1.1V99h-1.1zM139.8 97.9h1.1V99h-1.1zM141.5 95.7h1.1v1.1h-1.1zM138.2 95.7h1.1v1.1h-1.1zM144.7 95.7h1.1v1.1h-1.1zM154 97.9h1.1V99H154zM163.8 97.9h1.1V99h-1.1zM160.5 97.9h1.1V99h-1.1zM157.3 97.9h1.1V99h-1.1zM158.9 95.7h1.1v1.1h-1.1zM155.6 95.7h1.1v1.1h-1.1zM162.2 95.7h1.1v1.1h-1.1z"/><path d="M181.8 85.9h-7.1c.4-.5.6-1 .6-1.7v-9.8c-.1-1.5-1.3-2.7-2.8-2.7H166c.4-.5.5-1 .5-1.6v-9.8c0-1.5-1.2-2.7-2.7-2.7H154c-1.5 0-2.7 1.2-2.7 2.7v9.8c0 .6.2 1.1.5 1.6h-6.5c-1.5 0-2.7 1.2-2.7 2.7v9.8c0 .6.2 1.2.6 1.7h-6.1c-1.5 0-2.7 1.2-2.7 2.7v9.8c0 1.5 1.2 2.7 2.7 2.7h9.8c1.5 0 2.7-1.2 2.7-2.7v-9.8c0-.6-.2-1.1-.5-1.6v-.1h3.4l-.1.1c-.4.5-.5 1-.5 1.6v9.8c0 1.5 1.2 2.7 2.7 2.7h9.8c1.5 0 2.7-1.2 2.7-2.7v-9.8c0-.6-.2-1.2-.6-1.7h3.3l-.1.1c-.4.5-.5 1-.5 1.6v9.8c0 1.5 1.2 2.7 2.7 2.7h9.8c1.5 0 2.7-1.2 2.7-2.7v-9.8c-.1-1.4-1.2-2.6-2.6-2.7zm-9.3-13c.9 0 1.6.7 1.6 1.6v9.8c0 .9-.7 1.6-1.6 1.6h-9.8c-.9 0-1.6-.7-1.6-1.6v-9.8c0-.9.7-1.6 1.6-1.6h9.8zm-15.2-.1h3.3c-.4.5-.5 1-.5 1.6v9.8c0 .6.2 1.2.6 1.7h-3.5c.4-.5.6-1 .6-1.7v-9.8c0-.5-.2-1.1-.5-1.6zm-4.9-2.7v-9.8c0-.9.7-1.6 1.6-1.6h9.8c.9 0 1.6.7 1.6 1.6v9.8c0 .9-.7 1.6-1.6 1.6H154c-.9 0-1.6-.6-1.6-1.6 0 .1 0 .1 0 0zm-8.7 14.2v-9.8c0-.9.7-1.6 1.6-1.6h9.8c.8 0 1.6.6 1.6 1.4v10c0 .9-.7 1.6-1.6 1.6h-9.8c-.9 0-1.6-.7-1.6-1.6 0 .1 0 0 0 0zm4.8 4.3v9.8c0 .9-.7 1.6-1.6 1.6h-9.8c-.9 0-1.6-.7-1.6-1.6v-9.8c0-.9.7-1.6 1.6-1.6h9.8c.9 0 1.6.7 1.6 1.6zm17.5 0v9.8c0 .9-.7 1.6-1.6 1.6h-9.8c-.9 0-1.6-.7-1.6-1.6v-9.8c0-.9.7-1.6 1.6-1.6h9.8c.8 0 1.5.7 1.6 1.6zm17.3 0v9.8c0 .9-.7 1.6-1.6 1.6h-9.8c-.9 0-1.6-.7-1.6-1.6v-9.8c0-.9.7-1.6 1.6-1.6h9.8c.9 0 1.6.7 1.6 1.6z"/><path d="M171.3 97.9h1.1V99h-1.1zM181.1 97.9h1.1V99h-1.1zM177.8 97.9h1.1V99h-1.1zM174.6 97.9h1.1V99h-1.1zM176.2 95.7h1.1v1.1h-1.1zM172.9 95.7h1.1v1.1h-1.1zM179.5 95.7h1.1v1.1h-1.1zM144.7 83.7h1.1v1.1h-1.1zM154.5 83.7h1.1v1.1h-1.1zM151.3 83.7h1.1v1.1h-1.1zM148 83.7h1.1v1.1H148zM149.6 81.6h1.1v1.1h-1.1zM146.4 81.6h1.1v1.1h-1.1zM152.9 81.6h1.1v1.1h-1.1zM162.2 83.7h1.1v1.1h-1.1zM171.9 83.7h1.1v1.1h-1.1zM168.7 83.7h1.1v1.1h-1.1zM165.4 83.7h1.1v1.1h-1.1zM167.1 81.6h1.1v1.1h-1.1zM163.8 81.6h1.1v1.1h-1.1zM170.2 81.6h1.1v1.1h-1.1zM153.4 69.6h1.1v1.1h-1.1zM163.3 69.6h1.1v1.1h-1.1zM160 69.6h1.1v1.1H160zM156.7 69.6h1.1v1.1h-1.1zM158.4 67.4h1.1v1.1h-1.1zM155.1 67.4h1.1v1.1h-1.1zM161.6 67.4h1.1v1.1h-1.1z"/></g></symbol><symbol id="client-type-5" viewBox="0 0 188 111"><path d="M39.9 111H1c-.6 0-1-.4-1-1s.4-1 1-1h38.9c.6 0 1 .4 1 1s-.5 1-1 1zM187 111h-4c-.6 0-1-.4-1-1s.4-1 1-1h4c.6 0 1 .4 1 1s-.4 1-1 1zM178.5 111H47.8c-.6 0-1-.4-1-1s.4-1 1-1h130.7c.6 0 1 .4 1 1s-.4 1-1 1zM122.8 57c-5.4-1.8-18.4-4.3-21.4-4.9v-4.4c7.3-2.7 11.9-9.7 13.5-20.6 1.2-7.9-.7-15.2-5.1-20.3-.3-.4-.7-.7-1-1-8.8-8.2-22.5-7.7-30.7 1-4.3 5.1-6.2 12.5-5.1 20.3C74.6 38 79.2 45 86.5 47.7v4.5c-3.6.7-15.9 3.1-21 4.8-6.6 2.1-7.7 11.4-7.7 11.8V95c0 7.9 6.9 8 7 8h58.8s7-.1 7-8.1V68.8c-.2-.4-1.3-9.6-7.8-11.8zM74.9 27c-1-7.3.7-14.1 4.7-18.7 3.5-4.1 8.4-6.2 14.3-6.2s10.8 2.1 14.3 6.2c4 4.6 5.7 11.4 4.7 18.7-1.9 13.3-8.3 20.1-18.9 20.1S76.8 40.4 74.9 27zm19 22.1c2 0 3.8-.2 5.5-.7v4.8c-4.5 3.4-9.5.8-11-.1v-4.7c1.7.4 3.5.7 5.5.7zM128.5 95c0 5.8-4.5 6-5 6H93.6v.1h-29c-.2 0-5-.1-5-6V69.2c.1-.7 1.2-8.4 6.3-10.1 5-1.7 17.2-4.1 20.8-4.8 2.3 1.5 4.9 2.3 7.6 2.4 2.4 0 4.7-.8 6.6-2.4l.2-.1c3.3.7 15.9 3.1 21.1 4.8 5.1 1.7 6.2 9.4 6.3 10.1V95z"/><g><path d="M155 20.6c.8.8 1.9 1.3 3 1.4.7 0 1.6-.4 1.6-1.2 0-.9-1.3-1.2-2-1.4-1.8-.6-3.2-1.5-3.2-3.5-.1-2 1.4-3.7 3.4-4v-2h1.6v2c1.1.1 2.2.4 3.1 1l-1.2 2.4c-.6-.5-1.4-.8-2.2-.8-.7 0-1.8.4-1.3 1.3.3.5 1 .7 1.5.9 2 .6 3.8 1.6 3.7 4-.1 2.1-1.5 3.4-3.5 3.8v2.1h-1.6v-2c-.7 0-1.5-.2-2.2-.4-.7-.3-1.4-.6-2-1.1l1.3-2.5z"/><path d="M136.8 42.9V3.1h43.5v30.2h-34.9l-8.6 9.6zm2-37.8v32.6l5.7-6.4h33.8V5.1h-39.5z"/></g><g><path d="M48.5 74.9H5V44.8h34.9l8.6-9.6v39.7zM7 72.9h39.5V40.4l-5.7 6.4H7v26.1z"/><path d="M28 61.8h-3v1.1h4.4c.5 0 .4.6.4.9 0 .4.1.8-.4.8h-4.5v1.6c0 .6-.6.4-1 .4s-1 .2-1-.4v-1.6h-1.6c-.6 0-.6-.2-.6-.8 0-.5-.1-.9.5-.9H23v-1.1h-1.6c-.7 0-.6-.3-.6-.9 0-.5-.1-.9.5-.9h1.8v-4.7c0-.3-.2-1.2.3-1.2H26c2 0 4.3-.3 5.6 1.7 1.4 2.5-.4 6.2-3.6 6zm-.2-5.9h-2.9v4c1.1 0 2.3.2 3.4 0 2.4-.4 1.9-4.1-.5-4z"/></g></symbol><symbol id="client-type-6" viewBox="0 0 188 111"><path d="M39.9 111H1c-.6 0-1-.4-1-1s.4-1 1-1h38.9c.6 0 1 .4 1 1s-.5 1-1 1zM187 111h-4c-.6 0-1-.4-1-1s.4-1 1-1h4c.6 0 1 .4 1 1s-.4 1-1 1zM178.5 111H47.8c-.6 0-1-.4-1-1s.4-1 1-1h130.7c.6 0 1 .4 1 1s-.4 1-1 1zM122.8 57c-5.4-1.8-18.4-4.3-21.4-4.9v-4.4c7.3-2.7 11.9-9.7 13.5-20.6 1.2-7.9-.7-15.2-5.1-20.3-.3-.4-.7-.7-1-1-8.8-8.2-22.5-7.7-30.7 1-4.3 5.1-6.2 12.5-5.1 20.3C74.6 38 79.2 45 86.5 47.7v4.5c-3.6.7-15.9 3.1-21 4.8-6.6 2.1-7.7 11.4-7.7 11.8V95c0 7.9 6.9 8 7 8h58.8s7-.1 7-8.1V68.8c-.2-.4-1.3-9.6-7.8-11.8zM74.9 27c-1-7.3.7-14.1 4.7-18.7 3.5-4.1 8.4-6.2 14.3-6.2s10.8 2.1 14.3 6.2c4 4.6 5.7 11.4 4.7 18.7-1.9 13.3-8.3 20.1-18.9 20.1S76.8 40.4 74.9 27zm19 22.1c2 0 3.8-.2 5.5-.7v4.8c-4.5 3.4-9.5.8-11-.1v-4.7c1.7.4 3.5.7 5.5.7zM128.5 95c0 5.8-4.5 6-5 6H93.6v.1h-29c-.2 0-5-.1-5-6V69.2c.1-.7 1.2-8.4 6.3-10.1 5-1.7 17.2-4.1 20.8-4.8 2.3 1.5 4.9 2.3 7.6 2.4 2.4 0 4.7-.8 6.6-2.4l.2-.1c3.3.7 15.9 3.1 21.1 4.8 5.1 1.7 6.2 9.4 6.3 10.1V95z"/><path d="M175.3 57c-5.4-1.8-18.4-4.3-21.4-4.9v-4.4c7.3-2.7 11.9-9.7 13.5-20.6 1.2-7.9-.7-15.2-5.1-20.3-.3-.4-.7-.7-1-1-8.8-8.2-22.5-7.7-30.7 1-4.3 5.1-6.2 12.5-5.1 20.3C127.1 38 131.7 45 139 47.7v4.5c-1.3.3-3.6.7-6.3 1.2-1.5.3-3.1.6-4.7 1-.7.1-1.3.2-2 .4-.5.1-.9.6-.8 1.2.1.5.5.8 1 .8.1 0 .2 0 .2-.1.7-.1 1.3-.3 2-.4 1.6-.4 3.2-.7 4.7-1 2.6-.5 4.9-1 6.2-1.2l.1.1c2.3 1.5 4.9 2.3 7.6 2.4 2.4 0 4.7-.8 6.6-2.4.1 0 .1-.1.2-.1 3.2.6 15.9 3.1 21.1 4.8 5.1 1.7 6.2 9.4 6.3 10.1v26c0 5.8-4.5 6-5 6h-44.9c-.6 0-1 .4-1 1s.4 1 1 1H176c.1 0 7-.1 7-8.1V68.8c-.1-.4-1.2-9.6-7.7-11.8zm-47.8-30c-1-7.3.7-14.1 4.7-18.7 3.5-4.1 8.4-6.2 14.3-6.2s10.9 2.1 14.3 6.2c4 4.6 5.7 11.4 4.7 18.7-1.9 13.3-8.3 20.1-18.9 20.1s-17.2-6.7-19.1-20.1zm13.6 26.2v-.3c0-.2-.1-.3-.2-.4v-4.1c1.7.4 3.5.7 5.5.7s3.8-.2 5.5-.7v4.8c-4.3 3.2-9.1.9-10.8 0z"/><g><path d="M28 69.1c.5.5 1.1.7 1.7.8.4 0 .9-.2.9-.7s-.7-.6-1.5-.9c-.7-.3-1.5-.7-1.5-1.8s.8-2.1 1.9-2.2v-1.1h.9v1.1c.6.1 1.2.2 1.7.5l-.7 1.4c-.3-.3-.8-.5-1.2-.5-.4 0-.8.1-.8.5s.6.6.9.7c1.1.4 2 .7 2 2 .1 1.2-.8 2.2-2 2.3v1.2h-.7v-1.1c-.4 0-.8-.1-1.2-.2-.4-.1-.8-.3-1.1-.6l.7-1.4z"/><path d="M48.5 77c.3 0 .6-.3.6-.6V59.5c0-.3-.3-.6-.6-.6H13.4c-.3 0-.6.3-.6.6v16.9c0 .3.3.6.6.6h34.7c.3 0 .6-.3.6-.6s-.3-.6-.6-.6H14V60.1h33.9v16.3c0 .4.3.6.6.6z"/><path d="M30.2 74.1c3.4 0 6.2-2.8 6.2-6.2 0-3.4-2.8-6.2-6.2-6.2-3.4 0-6.2 2.8-6.2 6.2 0 3.4 2.8 6.2 6.2 6.2zm0-11.2c2.8 0 5.1 2.3 5.1 5.1s-2.3 5.1-5.1 5.1-5.1-2.3-5.1-5.1 2.2-5 5.1-5.1z"/><path d="M19.5 62.9h5.1c.3 0 .6-.3.6-.6s-.3-.6-.6-.6h-5.3c-.2 0-.3.1-.4.2l-3 3.1c-.1.1-.2.3-.2.5v5c0 .2.1.3.2.4l2.9 3.1c.1.1.2.2.4.2h5.6c.3 0 .6-.3.6-.6s-.3-.6-.7-.6h-5.3L17 70.2v-4.6l2.5-2.7zM42.3 62.9h-5.1c-.3 0-.6-.3-.6-.6s.3-.6.6-.6h5.3c.2 0 .3.1.4.2L46 65c.1.1.2.3.2.5v5c0 .2-.1.3-.2.4L43.1 74c-.1.1-.2.2-.4.2h-5.6c-.3 0-.6-.3-.6-.6s.3-.6.6-.6h5.3l2.5-2.8v-4.6l-2.6-2.7zM8.6 72.9h-4c-.4 0-.8-.3-.8-.8 0-.4.3-.8.7-.8h4.1c.4 0 .8.4.8.8 0 .5-.4.8-.8.8zM8.6 69H1c-.4 0-.8-.3-.8-.8 0-.4.3-.8.7-.8H8.6c.4 0 .8.4.8.8s-.4.8-.8.8zM8.6 65.2h-4c-.4 0-.8-.3-.8-.8 0-.4.3-.8.7-.8h4.1c.4 0 .8.4.8.8s-.4.8-.8.8z"/></g><g><path d="M44.2 47.3c.5.5 1.1.7 1.7.8.4 0 .9-.2.9-.7 0-.5-.7-.6-1.5-.9-.7-.3-1.5-.7-1.5-1.8s.8-2.1 1.9-2.2v-1.1h.9v1.1c.6.1 1.2.2 1.7.5l-.7 1.4c-.3-.3-.8-.5-1.2-.5-.4 0-.8.1-.8.5s.6.6.9.7c1.1.4 2 .7 2 2 .1 1.2-.8 2.2-2 2.3v1.2h-.9v-1.1c-.4 0-.8-.1-1.2-.2-.4-.1-.8-.3-1.1-.6l.9-1.4z"/><path d="M64.6 55.1c.3 0 .6-.3.6-.6V37.6c0-.3-.3-.6-.6-.6H29.5c-.3 0-.6.3-.6.6v16.9c0 .3.3.6.6.6h34.7c.3 0 .6-.3.6-.6s-.3-.6-.6-.6H30.1V38.2H64v16.3c0 .3.3.5.6.6z"/><path d="M46.4 52.3c3.4 0 6.2-2.8 6.2-6.2 0-3.4-2.8-6.2-6.2-6.2-3.4 0-6.2 2.8-6.2 6.2 0 3.4 2.8 6.1 6.2 6.2zm0-11.3c2.8 0 5.1 2.3 5.1 5.1s-2.3 5.1-5.1 5.1-5.1-2.3-5.1-5.1 2.3-5.1 5.1-5.1z"/><path d="M35.7 41.1h5.1c.3 0 .6-.3.6-.6s-.3-.6-.6-.6h-5.3c-.2 0-.3.1-.4.2L32 43.2c-.1.1-.2.3-.2.5v5c0 .2.1.3.2.4l2.9 3.1c.1.1.2.2.4.2h5.6c.3 0 .6-.3.6-.6s-.3-.6-.6-.6h-5.3l-2.5-2.8v-4.6l2.6-2.7zM58.4 41.1h-5.1c-.3 0-.6-.3-.6-.6s.3-.6.6-.6h5.3c.2 0 .3.1.4.2l3.1 3.1c.1.1.2.3.2.5v5c0 .2-.1.3-.2.4l-2.9 3.1c-.1.1-.2.2-.4.2h-5.6c-.3 0-.6-.3-.6-.6s.3-.6.6-.6h5.3l2.5-2.8v-4.6l-2.6-2.7zM18.6 51h-4c-.4 0-.8-.3-.8-.8 0-.4.3-.8.7-.8h4.1c.4 0 .8.4.8.8s-.4.8-.8.8zM23.5 47.2H16c-.4 0-.8-.3-.8-.8 0-.4.3-.8.7-.8H23.6c.4 0 .8.4.8.8s-.4.8-.9.8zM24.7 43.4h-4c-.4 0-.8-.3-.8-.8 0-.4.3-.8.7-.8h4.1c.4 0 .8.4.8.8s-.3.8-.8.8z"/></g></symbol><symbol id="clock-util" viewBox="0 0 70 70"><path fill="#CDE7F7" d="M70 35c0 19.3-15.7 35-35 35S0 54.3 0 35h35V0c19.3 0 35 15.7 35 35z"/><path fill="#0053A3" d="M35 3.2c-4.3 0-8.5.8-12.4 2.5-3.8 1.6-7.2 3.9-10.1 6.8s-5.2 6.3-6.8 10.1C4 26.5 3.2 30.7 3.2 35s.8 8.5 2.5 12.4c1.6 3.8 3.9 7.2 6.8 10.1 2.9 2.9 6.3 5.2 10.1 6.8 3.9 1.7 8.1 2.5 12.4 2.5s8.5-.8 12.4-2.5c3.8-1.6 7.2-3.9 10.1-6.8 2.9-2.9 5.2-6.3 6.8-10.1 1.7-3.9 2.5-8.1 2.5-12.4s-.8-8.5-2.5-12.4c-1.6-3.8-3.9-7.2-6.8-10.1-2.9-2.9-6.3-5.2-10.1-6.8C43.5 4 39.3 3.2 35 3.2M35 0c19.3 0 35 15.7 35 35S54.3 70 35 70 0 54.3 0 35 15.7 0 35 0z"/><path fill="#0053A3" d="M36.5 16.6c0-.9-.7-1.6-1.6-1.6-.9 0-1.6.7-1.6 1.6v16.7H10.6c-.9 0-1.6.7-1.6 1.6 0 .9.7 1.6 1.6 1.6h24.3c.9 0 1.6-.7 1.6-1.6V16.6z"/></symbol><symbol id="commas" viewBox="0 0 37 27"><path fill="#0053A3" d="M37 14.6h-9c.2-6.5 2-7.2 4.3-7.4l.9-.1V0l-1 .1c-3 .2-6.4.7-8.6 3.4-2 2.4-2.8 6.3-2.8 12.3V27H37V14.6zM16.3 27V14.6H7.4c.2-6.5 1.9-7.2 4.3-7.4l.8-.1V0l-1 .1c-3 .2-6.4.7-8.7 3.4C.9 5.9 0 9.8 0 15.8V27h16.3z"/></symbol><symbol id="currency-dollar" viewBox="0 0 62 62"><g transform="translate(-439 -14653)"><circle fill="#1F7BD3" cx="470" cy="14684" r="31"/><path fill="#FFF" d="M477.4 14689.1c0 2.8-1.7 5.2-4.2 6.2-.2.1-1.8.5-1.8.5v2.9c0 .9-2.2.5-2.8.5-.9 0-.5-2.9-.5-3.5a15 15 0 0 1-3.6-1.1c-.7-.4-2.4-1.2-2.7-2.1-.1-.4.6-1.1.8-1.4.3-.4.7-.9 1-1.3.2-.3.6-.3.8 0 1.5 1.3 3.3 2.2 5.3 2.2 1.7 0 3.8-1.1 3.4-3.1-.3-1.7-2.8-2.4-4.2-3-1.6-.7-3.2-1.3-4.6-2.3-3-2.4-2.8-6.8.1-9.2.7-.6 1.5-1 2.4-1.3.6-.2 1.3 0 1.3-.7v-2.6c0-.9 2.2-.5 2.8-.5.9 0 .5 2.9.5 3.5 1.2.1 2.5.5 3.6 1.1.4.2 1.9 1 1.9 1.6-.1.4-.5 1-.7 1.4-.2.4-.5.9-.7 1.3-.4.8-1.9-.6-2.4-.9-1.2-.6-2.6-1-4-.7-2.5.4-3.5 3-1.3 4.5 1.7 1.2 3.9 1.6 5.8 2.5 2.1 1.2 3.8 2.9 3.8 5.5z"/></g></symbol><symbol id="currency-euro" viewBox="0 0 62 62"><g transform="translate(-524 -14653)"><circle fill="#1F7BD3" cx="555" cy="14684" r="31"/><path fill="#FFF" d="M561.3 14692.2l.6 2.7v.4c0 .1-.2.2-.3.2h-.1s-.1 0-.2.1c-.1 0-.2 0-.3.1-.1 0-.2.1-.4.1s-.3.1-.4.1c-.2 0-.3.1-.5.1s-.4.1-.6.1c-.2 0-.4 0-.6.1h-.6c-2.6 0-4.9-.7-6.8-2.2-2-1.5-3.3-3.4-4-5.9h-1.6c-.1 0-.3-.1-.4-.2-.1-.1-.2-.2-.2-.4v-1.9c0-.1.1-.3.2-.4.1-.1.2-.2.4-.2h1.1v-1.8h-1.1c-.2 0-.3 0-.4-.2-.1-.1-.2-.2-.2-.4v-1.9c0-.2.1-.3.2-.4.1-.1.2-.2.4-.2h1.6c.7-2.3 2.1-4.2 4.1-5.7 2-1.4 4.2-2.1 6.7-2.1 1.1 0 2.2.1 3.2.4.1 0 .2.1.3.3.1.1.1.3.1.4l-.7 2.7c0 .1-.1.3-.2.3-.1.1-.3.1-.4 0h-.1-.2c-.1 0-.2 0-.3-.1-.1 0-.2 0-.4-.1h-1.4c-1.4 0-2.7.4-3.8 1.1-1.1.7-2 1.7-2.5 2.9h7.8c.2 0 .3.1.4.2.1.1.2.3.1.4l-.4 1.9c-.1.3-.2.4-.5.4h-8.2v1.8h7.7c.2 0 .3.1.4.2.1.1.1.3.1.5l-.4 1.9c0 .1-.1.2-.2.3-.1.1-.2.1-.3.1h-6.5c.5 1.3 1.4 2.3 2.5 3.1s2.4 1.1 3.8 1.1h.6c.2 0 .4 0 .6-.1s.3 0 .5-.1c.2 0 .3-.1.4-.1s.2-.1.3-.1.2 0 .2-.1h.1c.1-.1.3 0 .4 0 .3.3.4.4.4.6z"/></g></symbol><symbol id="currency-rub" viewBox="0 0 62 62"><circle fill="#1F7BD3" cx="31" cy="31" r="31"/><path fill="#FFF" d="M39.6 20.5c1.4 1.4 2.1 3.1 2.1 5.3s-.7 3.9-2.1 5.2c-1.4 1.4-3.2 2-5.5 2h-5.7v2h8.5c.2 0 .3.1.4.2s.2.2.2.4v2.1c0 .2 0 .3-.2.4s-.2.2-.4.2h-8.5v3.2c0 .2-.1.3-.2.4 0 .1-.2.1-.3.1h-2.8c-.2 0-.3 0-.4-.2-.1-.1-.2-.2-.2-.4v-3.2h-3.8c-.2 0-.3 0-.4-.2-.1-.1-.2-.2-.2-.4v-2.1c0-.2.1-.3.2-.4.1-.1.2-.2.4-.2h3.8v-2h-3.8c-.2 0-.3-.1-.4-.2-.1-.1-.2-.2-.2-.4V30c0-.1.1-.3.2-.4.1-.1.2-.2.4-.2h3.8V19c0-.2.1-.3.2-.4.1-.1.2-.2.4-.2h9c2.3 0 4.1.7 5.5 2.1zm-2.9 8c.7-.7 1.1-1.6 1.1-2.7s-.4-2-1.1-2.7c-.7-.7-1.7-1-2.9-1h-5.4v7.5h5.4c1.2-.1 2.1-.5 2.9-1.1z"/></symbol><symbol id="currency-util" viewBox="0 0 16.5 20"><path fill="#CDE7F7" d="M.5.5h12.1v15.9H.5z"/><path fill="#FFF" d="M3.9 3.6H16v15.9H3.9z"/><path fill="#0053A3" d="M16 3.1h-2.9V.5c0-.3-.2-.5-.5-.5H.5C.2 0 0 .2 0 .5v15.9c0 .3.2.5.5.5h2.9v2.6c0 .3.2.5.5.5H16c.3 0 .5-.2.5-.5V3.6c0-.3-.2-.5-.5-.5zM1 15.9V1h11.1v2.1H3.9c-.3 0-.5.2-.5.5v12.3H1zM15.5 19H4.4V4.1h11.1V19z"/><path fill="#0053A3" d="M7.9 13c.5.4 1.2.9 1.8.9.4 0 1-.2 1-.7 0-.6-.8-.7-1.6-1-.8-.3-1.6-.8-1.6-2s.8-2.3 2.1-2.4V6.5h.9v1.2c.6.1 1.3.2 1.9.6l-.8 1.5c-.4-.3-.8-.5-1.3-.5-.4 0-.9.2-.9.6 0 .5.6.7 1 .8 1.2.4 2.2.8 2.2 2.2 0 1.4-.8 2.2-2.1 2.5v1.3h-1v-1.2c-.4 0-.9-.1-1.3-.3-.4-.2-.8-.4-1.2-.7l.9-1.5z"/></symbol><symbol id="doc-util" viewBox="0 0 28 34"><path fill="#D3E5F5" d="M.8.8h20.5V6H6.9v21.9H.8z"/><path fill="#2F549E" d="M28 33.2V6.1c0-.4-.4-.8-.8-.8h-5V.8c0-.4-.4-.8-.8-.8H.8C.4 0 0 .4 0 .8v27.1c0 .4.4.8.8.8h5v4.5c0 .4.4.8.8.8h20.5c.6 0 1-.4.9-.8zM1.6 27.1V1.6h18.9v3.7H6.7c-.4 0-.8.4-.8.8V27H1.6zm24.7 5.3H7.5V6.9h18.8v25.5z"/><g fill="#2F549E"><path d="M21.6 13.2h-9.4c-.4 0-.8-.4-.8-.8s.4-.8.8-.8h9.5c.4 0 .8.4.8.8 0 .5-.4.8-.9.8zM21.6 18.1h-9.4c-.4 0-.8-.4-.8-.8s.4-1 .8-1h9.5c.4 0 .8.4.8.8 0 .5-.4 1-.9 1zM21.6 22.8h-9.4c-.4 0-.8-.3-.8-.8s.3-.8.8-.8h9.6c.4 0 .8.4.8.8-.1.6-.5.8-1 .8zM21.6 27.7h-9.4c-.4 0-.8-.4-.8-.8s.4-.8.8-.8h9.5c.4 0 .8.4.8.8 0 .5-.4.9-.9.8z"/></g></symbol><symbol id="equipment-util" viewBox="0 0 118 110"><ellipse fill="#CDE7F7" cx="43.1" cy="33.3" rx="5.5" ry="5.5"/><circle fill="#CDE7F7" cx="11.7" cy="98.3" r="2.3"/><circle fill="#CDE7F7" cx="27.8" cy="97.9" r="2.7"/><circle fill="#CDE7F7" cx="43.5" cy="97.9" r="2.7"/><ellipse fill="#CDE7F7" cx="59.1" cy="98.3" rx="2.7" ry="3.1"/><circle fill="#CDE7F7" cx="74.8" cy="98.7" r="2.7"/><circle fill="#CDE7F7" cx="90.5" cy="98.7" r="2.7"/><circle fill="#CDE7F7" cx="106.1" cy="98.7" r="2.7"/><path fill="#CDE7F7" d="M48.6 2.8h44.6v9.4H48.6zM77.5 62.3h10.2v9.4H77.5z"/><g fill="#2F549E"><path d="M106.2 86.461h-3.9v-25.5c0-1.1-.9-2-2-2h-3.9v-57c0-1.1-.9-2-2-2H31.5c-1.1 0-2 .9-2 2v11.8c0 1.1.9 2 2 2h9.8v10.1a7.8 7.8 0 0 0-5.8 6.6l-9.2 7.4c-.5.4-.7.9-.7 1.5v7.9c0 1.1.9 2 2 2s2-.9 2-2v-6.9l6.7-5.4c1.9 3.9 6.5 5.5 10.4 3.7 1.6-.8 2.9-2.1 3.7-3.7l6.7 5.4v6.9c0 1.1.9 2 2 2s2-.9 2-2v-7.9c0-.6-.3-1.2-.7-1.5l-9.2-7.3a7.8 7.8 0 0 0-5.8-6.6v-10.1h35.4v43.2H65.1c-1.1 0-2 .9-2 2v25.5h-7.9v-25.5c0-1.1-.9-2-2-2H17.8c-1.1 0-2 .9-2 2v25.5h-3.9c-6.5 0-11.8 5.3-11.8 11.8 0 6.5 5.3 11.8 11.8 11.8h94.4c6.5 0 11.8-5.3 11.8-11.8-.1-6.7-5.4-11.9-11.9-11.9zm-68.8-74.7h-3.9v-7.9h3.9v7.9zm9.8 21.6c0 2.2-1.8 3.9-3.9 3.9-2.2 0-3.9-1.8-3.9-3.9 0-2.2 1.8-3.9 3.9-3.9 2.1 0 3.9 1.8 3.9 3.9zm-2-21.6h-3.9v-7.9h3.9v7.9zm4 0v-7.9h43.3v7.9H49.2zm43.2 4v43.2h-7.9v-43.2h7.9zm-13.7 47.1h7.9v7.9h-7.9v-7.9zm-11.8 0h7.9v9.8c0 1.1.9 2 2 2h11.8c1.1 0 2-.9 2-2v-9.8h7.9v23.6H67l-.1-23.6zm-35.4 0h7.9v7.9h-7.9v-7.9zm-11.8 0h7.9v9.8c0 1.1.9 2 2 2h11.8c1.1 0 2-.9 2-2v-9.8h7.9v23.6H19.8l-.1-23.6zm86.5 43.2H11.8c-4.3 0-7.9-3.5-7.9-7.9s3.5-7.9 7.9-7.9h94.4c4.3 0 7.9 3.5 7.9 7.9s-3.5 7.9-7.9 7.9z"/><path d="M11.8 92.361c-3.3 0-5.9 2.6-5.9 5.9s2.6 5.9 5.9 5.9c3.3 0 5.9-2.6 5.9-5.9 0-3.3-2.6-5.9-5.9-5.9zm0 7.8c-1.1 0-2-.9-2-2s.9-2 2-2 2 .9 2 2-.9 2-2 2zM27.5 92.361c-3.3 0-5.9 2.6-5.9 5.9s2.6 5.9 5.9 5.9c3.3 0 5.9-2.6 5.9-5.9 0-3.3-2.6-5.9-5.9-5.9.1 0 0 0 0 0zm0 7.8c-1.1 0-2-.9-2-2s.9-2 2-2 2 .9 2 2-.9 2-2 2zM43.3 92.361c-3.3 0-5.9 2.6-5.9 5.9s2.6 5.9 5.9 5.9c3.3 0 5.9-2.6 5.9-5.9 0-3.3-2.7-5.9-5.9-5.9zm0 7.8c-1.1 0-2-.9-2-2s.9-2 2-2 2 .9 2 2c-.1 1.1-.9 2-2 2zM59 92.361c-3.3 0-5.9 2.6-5.9 5.9s2.6 5.9 5.9 5.9c3.3 0 5.9-2.6 5.9-5.9 0-3.3-2.6-5.9-5.9-5.9zm0 7.8c-1.1 0-2-.9-2-2s.9-2 2-2 2 .9 2 2-.9 2-2 2zM74.7 92.361c-3.3 0-5.9 2.6-5.9 5.9 0 3.3 2.6 5.9 5.9 5.9 3.3 0 5.9-2.6 5.9-5.9 0-3.3-2.6-5.9-5.9-5.9.1 0 0 0 0 0zm0 7.8c-1.1 0-2-.9-2-2s.9-2 2-2 2 .9 2 2-.9 2-2 2zM90.5 92.361c-3.3 0-5.9 2.6-5.9 5.9 0 3.3 2.6 5.9 5.9 5.9s5.9-2.6 5.9-5.9c0-3.3-2.6-5.9-5.9-5.9zm0 7.8c-1.1 0-2-.9-2-2s.9-2 2-2 2 .9 2 2c-.1 1.1-.9 2-2 2zM106.2 92.361c-3.3 0-5.9 2.6-5.9 5.9 0 3.3 2.6 5.9 5.9 5.9 3.3 0 5.9-2.6 5.9-5.9 0-3.3-2.6-5.9-5.9-5.9zm0 7.8c-1.1 0-2-.9-2-2s.9-2 2-2 2 .9 2 2-.9 2-2 2zM47.2 78.561h-3.9c-1.1 0-2 .9-2 2s.9 2 2 2h3.9c1.1 0 2-.9 2-2s-.9-2-2-2zM94.4 78.561h-3.9c-1.1 0-2 .9-2 2s.9 2 2 2h3.9c1.1 0 2-.9 2-2s-.9-2-2-2z"/></g></symbol><symbol id="letter-util" viewBox="0 0 19.7 16"><path fill="#CDE7F7" d="M1.8.5v5.2l-.2.5 8.2 3 8.3-3L18 6V.5z"/><path fill="#0053A3" d="M19.5 5.4c-.1-.1-.3-.1-.4-.1l-.5.2v-5c-.1-.3-.4-.5-.6-.5H1.7c-.3 0-.5.2-.5.5v5.1l-.5-.2c-.1-.1-.3 0-.4.1-.2 0-.3.2-.3.3v9.7c0 .3.2.5.5.5h18.7c.3 0 .5-.2.5-.5V5.8c0-.1-.1-.3-.2-.4zm-17.3.3V1h15.3v4.9L9.8 8.6 2.1 5.9c.1-.1.1-.1.1-.2zM18.7 15H1V6.5l8.7 3.1h.3l8.3-3 .4-.1V15z"/><path fill="#0053A3" d="M12.5 4.2H7.1c-.2 0-.5-.2-.5-.5s.2-.5.5-.5h5.4c.3 0 .5.2.5.5s-.2.5-.5.5"/></symbol><symbol id="list-util" viewBox="0 0 25 32"><path fill="#CDE7F7" d="M1.1 1.5h23.1v15.3H1.1z"/><path fill="#0053A3" d="M24.1 32H.9c-.5 0-.9-.4-.9-.9V.9C0 .4.4 0 .9 0H24c.6 0 1 .4 1 .9V31c0 .6-.4 1-.9 1zM1.9 30.1h21.2V1.9H1.9v28.2z"/><path fill="#0053A3" d="M17.8 26.1H7.2c-.5 0-1-.4-1-.9s.4-.9 1-.9h10.6c.5 0 1 .4 1 .9s-.5.9-1 .9zM17.8 20.7H7.2c-.5 0-1-.4-1-.9s.4-.9.9-.9h10.6c.5 0 .9.4.9.9.1.4-.3.9-.8.9zM17.8 15.3H7.2c-.5 0-1-.4-1-.9s.4-.9 1-.9h10.6c.5 0 1 .4 1 .9-.1.4-.5.9-1 .9z"/></symbol><symbol id="map-util" viewBox="0 0 19.5 18"><path fill="#CDE7F7" d="M6.5 14l6.3 3.5V4L6.5.5z"/><path fill="#0053A3" d="M19.2.1c-.1-.1-.3-.1-.5 0l-5.9 3.4L6.7.1C6.6 0 6.6 0 6.5 0H6.2l-6 3.5c-.1.2-.2.4-.2.5v13.5c0 .2.1.3.2.4.1.1.2.1.3.1.1 0 .2 0 .2-.1l5.7-3.4 6.1 3.4c.1 0 .2.1.2.1.1 0 .2 0 .2-.1l6.2-3.5c.2-.1.2-.2.2-.4V.5c.2-.2.1-.3-.1-.4zM6.9 1.3l5.4 3v12.4l-5.4-3V1.3zM6 13.7l-5 3V4.3l5-3v12.4zm12.5 0l-5.2 3V4.3l5.2-3v12.4z"/></symbol><symbol id="marker-util" viewBox="0 0 16.7 20"><path fill="#0053A3" d="M14.3 2.4C11-.8 5.7-.8 2.4 2.4-.9 5.7-.9 11 2.4 14.2L8 19.9c.1.1.2.1.4.1s.3 0 .3-.1l5.6-5.6c3.2-3.3 3.3-8.6 0-11.9zM8.4 18.8l-5.2-5.2C.3 10.7.3 6 3.1 3.1 6 .2 10.7.2 13.5 3.1c2.9 2.9 2.9 7.6 0 10.4l-5.1 5.3z"/><path fill="#CDE7F7" d="M12.1 8.1c0 2.1-1.7 3.8-3.8 3.8s-3.8-1.7-3.8-3.8 1.7-3.8 3.8-3.8 3.8 1.8 3.8 3.8"/><path fill="#0053A3" d="M8.4 12.4c-2.3 0-4.3-1.9-4.3-4.2 0-2.3 1.9-4.3 4.3-4.3s4.3 1.9 4.3 4.3c-.1 2.3-2 4.2-4.3 4.2m0-7.5c-1.8 0-3.3 1.5-3.3 3.3 0 1.8 1.5 3.3 3.3 3.3s3.3-1.5 3.3-3.3c-.1-1.9-1.5-3.3-3.3-3.3"/></symbol><symbol id="money-util" viewBox="0 0 44 38"><path fill="#0053A3" d="M43.3 38c.4 0 .7-.3.7-.7V16.9c0-.4-.3-.7-.7-.7H.7c-.4 0-.7.3-.7.7v20.4c0 .4.3.7.7.7h42.1c.4 0 .7-.3.7-.7 0-.4-.3-.7-.7-.7H1.5v-19h41.1v19.7c-.1.4.3.7.7.7zM3.7 5.2c-.1.1-.2.3-.3.5l-1.7 7.6c-.1.4.2.8.6.9.4.1.8-.2.9-.6l1.5-6.9L38 14.2h.2c.4 0 .7-.3.7-.7 0-.3-.2-.6-.6-.7l-34-7.6c-.2-.1-.4-.1-.6 0zM12.4 4.5l1.4-2.8 19.8 8.2c.4.2.8 0 1-.4.2-.4 0-.8-.4-1L13.8.1c-.4-.1-.8 0-.9.3l-1.7 3.4c-.2.4-.1.8.3 1s.7.1.9-.3z"/><path fill="#CDE7F7" d="M21.1 34.5c4.1 0 7.5-3.3 7.5-7.5 0-4.1-3.4-7.5-7.5-7.5s-7.5 3.3-7.5 7.5c.1 4.2 3.4 7.5 7.5 7.5z"/><path fill="#0053A3" d="M8.2 21h6.1c.4 0 .7-.3.7-.7s-.3-.7-.7-.7H7.9c-.2 0-.4.1-.5.2l-3.8 3.7c-.1.2-.2.4-.2.6v6c0 .2.1.4.2.5l3.5 3.8c.1.2.3.2.5.2h6.8c.4 0 .7-.3.7-.7 0-.4-.3-.7-.7-.7H7.9l-3-3.3v-5.5L8.2 21zM35.8 21h-6.1c-.4 0-.7-.3-.7-.7s.3-.7.7-.7h6.4c.2 0 .4.1.5.2l3.8 3.7c.1.2.2.4.2.6v6c0 .2-.1.4-.2.5l-3.5 3.8c-.1.2-.3.2-.5.2h-6.8c-.4 0-.7-.3-.7-.7 0-.4.3-.7.7-.7H36l3-3.3v-5.5L35.8 21z"/></symbol><symbol id="order-util" viewBox="0 0 28.9 25"><path fill="#0053A3" d="M24 25H.7c-.4 0-.7-.3-.7-.7V4.9c0-.4.3-.7.7-.7h14.9c.4 0 .7.3.7.7 0 .4-.3.7-.7.7H1.5v17.9h21.8V13.3c0-.4.3-.7.7-.7.4 0 .7.3.7.7v11c0 .4-.3.7-.7.7M28.2 4.2h-3.5V.7c0-.4-.3-.7-.7-.7-.4 0-.7.3-.7.7v3.5h-3.5c-.4 0-.7.3-.7.7 0 .4.3.7.7.7h3.5v3.5c0 .4.3.7.7.7.4 0 .7-.3.7-.7V5.6h3.5c.4 0 .7-.3.7-.7 0-.4-.3-.7-.7-.7z"/><path fill="#CDE7F7" d="M15.2 12.9H5.7c-.4 0-.7-.3-.7-.7 0-.4.3-.7.7-.7h9.5c.4 0 .7.3.7.7.1.3-.3.7-.7.7M19 17.8H5.7c-.4 0-.7-.3-.7-.7s.3-.7.7-.7H19c.4 0 .7.3.7.7s-.3.7-.7.7"/></symbol><symbol id="phone-util" viewBox="0 0 14.5 22"><path fill="#CDE7F7" d="M.7 3.8H14v12.9H.7z"/><path fill="#0053A3" d="M11.5 0H3C2.2 0 1.4.2.8.8.2 1.4 0 2.2 0 3v16c0 2.2 1.6 3 3 3h8.5c2.2 0 3-1.6 3-3V3c0-2.2-1.5-3-3-3m-10 1.5c.4-.4.9-.5 1.5-.5h8.5c.8 0 2 .3 2 2v.1H1V3c0-.5.1-1.1.5-1.5M1 4.1h12.5v12.3H1V4.1zm12.5 13.3V19c0 .4-.1 1-.5 1.5-.3.3-.8.5-1.5.5H3c-.8 0-2-.3-2-2v-1.5h12.5z"/><path fill="#0053A3" d="M6.3 2.6h2c.3 0 .5-.2.5-.5s-.2-.5-.5-.5h-2c-.3 0-.5.2-.5.5s.2.5.5.5M7.3 20.9c.9 0 1.6-.7 1.6-1.6 0-.9-.7-1.6-1.6-1.6-.9 0-1.6.7-1.6 1.6 0 .9.7 1.6 1.6 1.6m-.1-1c-.1 0-.3-.1-.4-.2-.1-.1-.2-.3-.2-.4 0-.2.1-.3.2-.4.1-.1.3-.2.4-.2.3 0 .6.3.6.6.1.3-.2.6-.6.6.1 0 0 0 0 0"/></symbol><symbol id="rate-util" viewBox="0 0 45 60"><path fill="#0053A3" d="M39.5 0h-34C2.4 0 0 2.5 0 5.6v51.6c0 .8.5 1.6 1.2 1.9.8.3 1.6.2 2.3-.4l4.8-4.4 5.8 5.2c.4.3.9.5 1.4.5.5 0 1-.2 1.4-.5l5.7-5.1 5.7 5.2c.8.7 2 .7 2.8 0l5.8-5.2 4.8 4.4c.6.6 1.5.7 2.2.4.8-.3 1.2-1.1 1.2-1.9V5.6C45 2.5 42.6 0 39.5 0zm2.8 55.9L38.2 52c-.8-.7-2-.7-2.8 0l-5.8 5.2-5.7-5.2c-.4-.4-.9-.5-1.4-.5-.5 0-1 .2-1.4.5l-5.7 5.2L9.6 52c-.8-.7-2-.7-2.8 0l-4.2 3.9V5.6c0-1.6 1.2-2.9 2.8-2.9h34.1c1.6 0 2.8 1.3 2.8 2.9v50.3z"/><path fill="#CDE7F7" d="M9.8 34.7h13c.7 0 1.3-.6 1.3-1.3s-.6-1.4-1.3-1.4h-13c-.7 0-1.3.6-1.3 1.3s.6 1.4 1.3 1.4zM35.2 38.2H9.8c-.7 0-1.3.6-1.3 1.3s.6 1.3 1.3 1.3h25.3c.7 0 1.3-.6 1.3-1.3s-.5-1.3-1.2-1.3zM35.2 44.4H9.8c-.7 0-1.3.6-1.3 1.3S9.1 47 9.8 47h25.3c.7 0 1.3-.6 1.3-1.3s-.5-1.3-1.2-1.3zM27.7 19.4c1.8 0 3.3 1.5 3.3 3.3 0 1.8-1.5 3.3-3.3 3.3s-3.3-1.5-3.3-3.3c.1-1.8 1.5-3.3 3.3-3.3zM17.3 8.9c1.8 0 3.3 1.5 3.3 3.3 0 1.8-1.5 3.3-3.3 3.3-1.8 0-3.3-1.5-3.3-3.3 0-1.8 1.4-3.3 3.3-3.3z"/><path fill="#0053A3" d="M17.3 16.8c2.5 0 4.6-2.1 4.6-4.6s-2.1-4.6-4.6-4.6-4.6 2.1-4.6 4.6c-.1 2.6 2 4.6 4.6 4.6zm0-6.5c1.1 0 1.9.9 1.9 1.9s-.9 1.9-1.9 1.9c-1.1 0-1.9-.9-1.9-1.9-.1-1.1.8-1.9 1.9-1.9zM27.7 18.1c-2.5 0-4.6 2.1-4.6 4.6s2.1 4.6 4.6 4.6 4.6-2.1 4.6-4.6c.1-2.5-2-4.6-4.6-4.6zm0 6.6c-1.1 0-1.9-.9-1.9-1.9 0-1.1.9-1.9 1.9-1.9 1.1 0 1.9.9 1.9 1.9.1 1-.8 1.9-1.9 1.9zM14.3 25.7c.3.3.6.4.9.4.3 0 .7-.1.9-.4l14.9-15c.5-.5.5-1.4 0-1.9s-1.4-.5-1.9 0l-15 15c-.3.5-.3 1.4.2 1.9z"/></symbol><symbol id="rko-util" viewBox="0 0 37.2 22.3"><path fill="#0053A3" d="M24 22.3H.7c-.4 0-.7-.3-.7-.7V2.2c0-.4.3-.7.7-.7h14.9c.4 0 .7.3.7.7 0 .4-.3.8-.7.8H1.5v17.9h21.8V10.6c0-.4.3-.7.7-.7.4 0 .7.3.7.7v11c0 .4-.3.7-.7.7"/><path fill="#CDE7F7" d="M15.2 10.2H5.7c-.4 0-.7-.4-.7-.8s.3-.7.7-.7h9.5c.4 0 .8.3.8.7 0 .4-.4.8-.8.8M19 15.1H5.7c-.4 0-.7-.3-.7-.7s.3-.7.7-.7H19c.4 0 .7.3.7.7s-.3.7-.7.7"/><path fill="#0053A3" d="M37.2 4c0 2.1-1.6 3.8-3.7 4-2.2.1-4.1-1.5-4.3-3.7C29.2 2.1 30.8.2 33 0c2.3-.1 4.2 1.7 4.2 4m-3.9-2.9c-3.8 0-3.8 5.9 0 5.9 3.8-.1 3.7-5.9 0-5.9"/><path fill="#0053A3" d="M24 .5c0-.6.8-.7 1-.2.1.2 0 .6 0 .9v2.3l1.7-1.7c.5-.5 1.1-1.3 1.7-1.7.5-.5 1.2.3.7.7l-.8.8c-.1.1-1.9 1.8-1.8 1.9.5.7 1 1.4 1.6 2.1.3.4 1.6 1.6 1 2.2-.6.7-1.5-1-1.8-1.4-.5-.7-1-1.4-1.6-2.1-.2.2-.7.5-.7.8v1.8c0 .4 0 1.4-.7 1.1-.4-.2-.3-.7-.3-1V.5zM18.6 7.4V3 .7c0-.9.8-.7 1.5-.7 1.5 0 3 .6 3.2 2.3.2 1.6-1.1 3-2.7 3h-1v1.2c0 .3.1.7 0 1 .1.6-1 .6-1-.1m1.1-6.3v3.1c0 .3.3.1.5.1 1.2 0 2.6-.8 2-2.2-.5-1.1-1.6-1-2.5-1z"/></symbol><symbol id="special-util" viewBox="0 0 26 18"><path fill="#CDE7F7" d="M19.9 12.4c-2.9 1.3-1.8 4.6.3 4.6s3.6-1.2 4.2-1.7c1-.9.7-2 .7-3.6-.1-1.7-2.3-.6-5.2.7zM7.6.8L4 10.7h7.2z"/><path fill="#0053A3" d="M6.9 0L0 17.5l1.3.5 2.5-6.2h7.5l2.4 6.2 1.3-.5L8.3 0H6.9zM4.4 10.3l3.2-8.1 3.1 8.1H4.4zM24.3 5.9c-1.2-1.1-3.3-1.7-7.1.9l.9 1.2c1.7-1.2 3.9-2.3 5.3-1 .8.7 1.1 1.4 1.1 3.1-1.7.2-7.3 1.1-7.3 4.6 0 1.6.8 2.4 1.4 2.7.5.3 1.1.4 1.7.4 1.2 0 2.5-.4 2.9-.7.3-.2.8-.6 1.2-.9v1.3H26V12c0-3.2-.1-4.6-1.7-6.1zm-1.8 10c-.3.2-2.2.8-3.2.3-.2-.1-.7-.4-.7-1.4 0-2.1 3.8-3 5.9-3.2v2.8c-.3.3-1.4 1.1-2 1.5z"/></symbol><symbol id="tractor-util" viewBox="0 0 120 102"><g transform="translate(1007.214 1011.187)"><ellipse fill="#CDE7F7" cx="-972.3" cy="-938.8" rx="21.7" ry="21.4"/><path fill="#2F549E" d="M-972.3-917.4c-11.9 0-21.7-9.6-21.7-21.4 0-11.8 9.7-21.4 21.7-21.4s21.7 9.6 21.7 21.4c0 11.8-9.7 21.4-21.7 21.4zm0-38.8c-9.7 0-17.6 7.8-17.6 17.4s7.9 17.4 17.6 17.4 17.6-7.8 17.6-17.4-7.8-17.4-17.6-17.4z"/></g><g transform="translate(1082.343 1036.78)"><ellipse fill="#CDE7F7" cx="-980.3" cy="-947.5" rx="12.9" ry="12.8"/><ellipse fill="none" stroke="#2F549E" stroke-width="4" cx="-980.3" cy="-947.5" rx="10.9" ry="10.8"/></g><path fill="#2F549E" d="M35.4 75.7c-2.1 0-3.7-1.7-3.7-3.7s1.7-3.7 3.7-3.7 3.7 1.7 3.7 3.7-1.7 3.7-3.7 3.7z"/><path fill="#CDE7F7" d="M35.4 29.9L39 15.3h37.9l3.4 14.5-44.9.1z"/><path fill="#2F549E" d="M100 53.8h7.4c1.2 0 2.1.9 2.1 2.1 0 1.2-1 2.1-2.1 2.1H100c-1.2 0-2.1-.9-2.1-2.1 0-1.1 1-2.1 2.1-2.1z"/><path fill="#2F549E" d="M116.9 67.1s-.1-1.2 0-3.1c.1-1.6.1-7.1 0-8.5-.2-2.4-.7-3.9-1.5-5.3-.8-1.3-2.1-2.5-4.2-4.3-1.8-1.6-4.4-3.1-7.7-4.5-2.6-1.1-5.6-2.2-9-3.1-5.5-1.5-10.1-2.3-10.6-2.4l-5-21-.4-1.6L75.3 0H22.5l-8.3 34.1H0v4h6v23.6C4.8 64.9 4.1 68.4 4.1 72c0 16.6 13.6 30 30.4 30 16.8 0 30.4-13.5 30.4-30S51.3 42 34.5 42c-10.1 0-19 4.9-24.5 12.3V38.1h6.6c.2 0 4.8-.1 9.9-.1 5.2 0 11.9.1 14 .3.3 0 6.7.9 12.7 4.3 4.2 2.4 8.4 6.1 10.5 9.3 2.2 2.7 3.3 5.5 4.4 9.8 1.6 5.8 1.8 11.7 1.8 15.6-.1 4.3-.5 7.1-.5 7.2h18.5c1.6-6.2 7.2-10.5 13.7-10.5 6.5 0 12.1 4.3 13.7 10.5h4.7V67.1h-3.1zM34.5 45.9c14.5 0 26.4 11.7 26.4 26S49.1 98 34.5 98C20 98 8.2 86.3 8.2 72S20 45.9 34.5 45.9zm43.3-18H38l2.6-10.6h34.7l2.5 10.6zM116 77c-3.4-4.3-8.6-7-14.4-7-7.3 0-13.7 4.2-16.6 10.5H73.8c.1-.9.1-2 .1-3.1.1-4.1-.2-10.4-1.9-16.6-1.2-4.6-2.5-8-5.1-11.1-2.5-3.6-7.1-7.7-11.8-10.4-6.5-3.7-13.4-4.7-14.1-4.8-.7-.1-2.8-.4-14.5-.4h-8.1L25.7 4h46.5l2.2 9.3h-37l-4.5 18.5h45.9l1.2 5 .7 2.7 2.7.3c.9.1 5.1.9 10.1 2.3 3.2.9 6.1 1.9 8.5 2.9 2.9 1.2 5.1 2.5 6.6 3.8 1.8 1.5 2.8 2.5 3.4 3.4.4.6.7 1.4.9 3.5.1 1.1.1 6.1 0 8.1-.1 1.9 0 3.2 0 3.4l.2 3.8h2.9v6z"/></symbol><symbol id="transfer-util" viewBox="0 0 38.5 27"><path fill="#cde7f7" d="M22 .79h15.66v10.42H22z"/><path fill="#0053a3" d="M37.68 12H22.43c-.45 0-.82-.37-.82-.82V.82c0-.45.37-.82.82-.82h15.04c.24 0 .45.1.6.26.25.14.43.41.43.72v10.19c0 .46-.37.83-.82.83zm-14.43-1.64h13.6V1.64h-13.6v8.72z"/><path fill="#0053a3" d="M36.88 5.38H22.79c-.44 0-.79-.49-.79-1.09s.35-1.09.79-1.09h14.09c.43 0 .79.49.79 1.09s-.36 1.09-.79 1.09z"/><path fill="#cde7f7" d="M.4 15.79h15.66v10.42H.4z"/><path fill="#0053a3" d="M16.07 27H.82c-.45 0-.82-.37-.82-.82V15.82c0-.45.37-.82.82-.82h15.04c.24 0 .45.1.6.26.25.14.43.41.43.72v10.19c0 .46-.37.83-.82.83zM1.64 25.36h13.6v-8.71H1.64v8.71z"/><path fill="#0053a3" d="M15.27 20.38H1.18c-.43 0-.79-.49-.79-1.09s.35-1.09.79-1.09h14.09c.43 0 .79.49.79 1.09s-.36 1.09-.79 1.09zm3.86 3.55H31c.4 0 .73-.33.73-.73v-9.02c0-.4-.33-.73-.73-.73-.4 0-.73.33-.73.73v8.29H19.13c-.4 0-.73.33-.73.73 0 .4.33.73.73.73zm.47-20.81H7.73c-.4 0-.73.32-.73.73v9.01c0 .4.33.73.73.73.4 0 .73-.33.73-.73V4.58H19.6c.4 0 .73-.33.73-.73 0-.41-.33-.73-.73-.73z"/></symbol><symbol id="zoom-util" viewBox="0 0 23.1 20"><path fill="#0053A3" d="M22.9 18.9l-6.8-5.3c.9-1.4 1.5-3.1 1.5-4.9 0-4.9-4-8.8-8.8-8.8S0 4 0 8.8s4 8.8 8.8 8.8c2.6 0 5-1.2 6.6-3l6.8 5.3c.1.1.2.1.4.1s.4-.1.5-.2c.1-.3.1-.7-.2-.9zM8.8 16.4c-4.2 0-7.6-3.4-7.6-7.6 0-4.2 3.4-7.6 7.6-7.6 4.2 0 7.6 3.4 7.6 7.6 0 4.2-3.4 7.6-7.6 7.6z"/><circle fill="#CDE7F7" cx="8.8" cy="8.8" r="5.1"/><path fill="#0053A3" d="M8.8 14.5c-3.1 0-5.7-2.5-5.7-5.7s2.5-5.7 5.7-5.7 5.7 2.5 5.7 5.7-2.6 5.7-5.7 5.7zm0-10.2c-2.5 0-4.5 2-4.5 4.5s2 4.5 4.5 4.5 4.5-2 4.5-4.5-2-4.5-4.5-4.5z"/></symbol></svg>