<svg width="57" height="55" viewBox="0 0 57 55" fill="none" xmlns="http://www.w3.org/2000/svg">
<circle cx="24" cy="28" r="24" fill="#D5EBFF"/>
<path d="M35.5447 15.3537H53.5529C54.6574 15.3537 55.5529 16.2491 55.5529 17.3537V29.0122C55.5529 30.1168 54.6574 31.0122 53.5529 31.0122H35.5447" stroke="#FD8A02"/>
<path d="M35.5447 19.7032H55.5529" stroke="#FD8A02"/>
<path d="M35.5447 24.0528H55.5529" stroke="#FD8A02"/>
<path d="M12.9268 10.1341V10.1341C11.0051 10.1341 9.44716 11.692 9.44716 13.6138V50.5C9.44716 52.7091 11.238 54.5 13.4472 54.5H31.5447C33.7539 54.5 35.5447 52.7091 35.5447 50.5V13.6138C35.5447 11.692 33.9868 10.1341 32.065 10.1341V10.1341" stroke="#006EB7"/>
<rect x="12.5569" y="18.4634" width="19.878" height="11.1789" rx="1.5" stroke="#006EB7"/>
<rect x="13.4268" y="33.252" width="4.21951" height="4.21951" rx="1.5" stroke="#006EB7"/>
<rect x="13.4268" y="40.2114" width="4.21951" height="4.21951" rx="1.5" stroke="#006EB7"/>
<rect x="13.4268" y="47.1707" width="4.21951" height="4.21951" rx="1.5" stroke="#006EB7"/>
<rect x="20.3862" y="33.252" width="4.21951" height="4.21951" rx="1.5" stroke="#006EB7"/>
<rect x="20.3862" y="40.2114" width="4.21951" height="4.21951" rx="1.5" stroke="#006EB7"/>
<rect x="20.3862" y="47.1707" width="4.21951" height="4.21951" rx="1.5" stroke="#006EB7"/>
<rect x="27.3455" y="33.252" width="4.21951" height="4.21951" rx="1.5" stroke="#006EB7"/>
<rect x="27.3455" y="40.2114" width="4.21951" height="4.21951" rx="1.5" stroke="#006EB7"/>
<rect x="27.3455" y="47.1707" width="4.21951" height="4.21951" rx="1.5" stroke="#006EB7"/>
<path d="M12.9268 14.4837V1L15.1522 2.73984L17.3776 1L19.603 2.73984L22.2734 1L24.4988 2.73984L27.1692 1L29.3946 2.73984L32.065 1V14.4837" stroke="#006EB7" stroke-linejoin="round"/>
<path d="M17.2764 7.52438H27.7155" stroke="#006EB7"/>
<path d="M11.187 14.4837L33.8049 14.4837" stroke="#006EB7"/>
<path d="M17.2764 10.1341H27.7155" stroke="#006EB7"/>
</svg>
