<svg width="50" height="48" viewBox="0 0 50 48" fill="none" xmlns="http://www.w3.org/2000/svg">
<circle cx="25" cy="24" r="24" fill="#D5EBFF"/>
<rect x="0.5" y="6.5" width="49" height="36.1429" rx="3.5" stroke="#006EB7"/>
<path d="M45 16V14V14C45 12.3431 43.6569 11 42 11H9C6.79086 11 5 12.7909 5 15V34C5 36.2091 6.79086 38 9 38H41.5C43.433 38 45 36.433 45 34.5V34.5V33M45 20.5V22.5V26V28" stroke="#006EB7"/>
<rect x="44.0714" y="15.7857" width="2.57143" height="4.71429" stroke="#006EB7"/>
<rect x="44.0714" y="27.9286" width="2.57143" height="4.71429" stroke="#006EB7"/>
<path d="M12.8571 43.1429C12.8571 44.7208 11.578 46 10 46C8.42204 46 7.14285 44.7208 7.14285 43.1429" stroke="#006EB7"/>
<path d="M42.8571 43.1429C42.8571 44.7208 41.578 46 40 46C38.422 46 37.1429 44.7208 37.1429 43.1429" stroke="#006EB7"/>
<circle cx="18.5714" cy="24.5714" r="7.85714" stroke="#FD8A02"/>
<circle cx="18.5714" cy="24.5714" r="2.35714" stroke="#FD8A02"/>
<path d="M18.5714 16.7143V18.8571" stroke="#FD8A02"/>
<path d="M12.8571 18.8571L14.3724 20.3724" stroke="#FD8A02"/>
<path d="M24.3724 18.8571L22.8571 20.3724" stroke="#FD8A02"/>
<path d="M12.8571 30.3724L14.3724 28.8571" stroke="#FD8A02"/>
<path d="M24.3724 30.3724L22.8571 28.8571" stroke="#FD8A02"/>
<path d="M18.5714 30.2857V32.4286" stroke="#FD8A02"/>
<path d="M10.7143 24.5714L12.8571 24.5714" stroke="#FD8A02"/>
<path d="M24.2857 24.5714L26.4286 24.5714" stroke="#FD8A02"/>
</svg>
