<svg width="69" height="54" viewBox="0 0 69 54" fill="none" xmlns="http://www.w3.org/2000/svg">
<circle cx="34" cy="30" r="24" fill="#D5EBFF"/>
<path d="M1 37H4" stroke="#006EB7"/>
<path d="M42 37H45" stroke="#006EB7"/>
<path d="M45 1V23L49.1317 17.8667H68V1H45Z" stroke="#FD8A02"/>
<path d="M4.5 41H4C2.34315 41 1 39.6569 1 38V23C1 21.3431 2.34315 20 4 20H35.2919C36.2125 20 37.0821 20.4227 37.6508 21.1465L44.359 29.6841C44.7742 30.2127 45 30.8654 45 31.5376V38C45 39.6569 43.6569 41 42 41H41M15 41H31" stroke="#006EB7"/>
<rect x="5.5" y="23.5" width="8" height="5" rx="0.5" stroke="#006EB7" stroke-linecap="round" stroke-linejoin="round"/>
<rect x="17.5" y="23.5" width="8" height="5" rx="0.5" stroke="#006EB7" stroke-linecap="round" stroke-linejoin="round"/>
<path d="M29.5 24C29.5 23.7239 29.7239 23.5 30 23.5H34.636C34.7863 23.5 34.9287 23.5676 35.0236 23.6842L38.2829 27.6842C38.549 28.0108 38.3166 28.5 37.8953 28.5H30C29.7239 28.5 29.5 28.2761 29.5 28V24Z" stroke="#006EB7" stroke-linecap="round" stroke-linejoin="round"/>
<circle cx="10" cy="40" r="3.5" stroke="#006EB7"/>
<circle cx="36" cy="40" r="3.5" stroke="#006EB7"/>
<path d="M53.416 9.528H54.443V4.991C54.807 4.913 55.1927 4.861 55.6 4.835C56.016 4.80033 56.432 4.783 56.848 4.783C57.2987 4.783 57.7363 4.82633 58.161 4.913C58.5857 4.991 58.9627 5.134 59.292 5.342C59.6213 5.55 59.8857 5.836 60.085 6.2C60.2843 6.55533 60.384 7.01033 60.384 7.565C60.384 8.10233 60.28 8.553 60.072 8.917C59.864 9.281 59.591 9.57567 59.253 9.801C58.915 10.0263 58.5293 10.191 58.096 10.295C57.6713 10.3903 57.238 10.438 56.796 10.438H55.691V11.387H58.057V12.297H55.691V14H54.443V12.297H53.416V11.387H54.443V10.438H53.416V9.528ZM56.9 5.849C56.666 5.849 56.4363 5.85767 56.211 5.875C55.9943 5.89233 55.821 5.90967 55.691 5.927V9.528H56.731C57.0083 9.528 57.2857 9.502 57.563 9.45C57.8403 9.38933 58.0873 9.28533 58.304 9.138C58.5293 8.99067 58.7113 8.79133 58.85 8.54C58.9887 8.28867 59.058 7.97233 59.058 7.591C59.058 7.253 59.0017 6.97567 58.889 6.759C58.7763 6.53367 58.6203 6.356 58.421 6.226C58.2303 6.08733 58.0007 5.992 57.732 5.94C57.472 5.87933 57.1947 5.849 56.9 5.849Z" fill="#FD8A02"/>
</svg>
