<svg width="57" height="56" viewBox="0 0 57 56" fill="none" xmlns="http://www.w3.org/2000/svg">
<circle cx="28" cy="28" r="24" fill="#D5EBFF"/>
<path d="M1 32V54L5.13174 48.8667H24V32H1Z" stroke="#FD8A02"/>
<path d="M56 24L56 2L51.8683 7.13333L33 7.13333L33 24L56 24Z" stroke="#006EB7"/>
<path d="M11 28C11 18.6112 18.6112 11 28 11" stroke="#006EB7"/>
<path d="M9.416 39.528H10.443V34.991C10.807 34.913 11.1927 34.861 11.6 34.835C12.016 34.8003 12.432 34.783 12.848 34.783C13.2987 34.783 13.7363 34.8263 14.161 34.913C14.5857 34.991 14.9627 35.134 15.292 35.342C15.6213 35.55 15.8857 35.836 16.085 36.2C16.2843 36.5553 16.384 37.0103 16.384 37.565C16.384 38.1023 16.28 38.553 16.072 38.917C15.864 39.281 15.591 39.5757 15.253 39.801C14.915 40.0263 14.5293 40.191 14.096 40.295C13.6713 40.3903 13.238 40.438 12.796 40.438H11.691V41.387H14.057V42.297H11.691V44H10.443V42.297H9.416V41.387H10.443V40.438H9.416V39.528ZM12.9 35.849C12.666 35.849 12.4363 35.8577 12.211 35.875C11.9943 35.8923 11.821 35.9097 11.691 35.927V39.528H12.731C13.0083 39.528 13.2857 39.502 13.563 39.45C13.8403 39.3893 14.0873 39.2853 14.304 39.138C14.5293 38.9907 14.7113 38.7913 14.85 38.54C14.9887 38.2887 15.058 37.9723 15.058 37.591C15.058 37.253 15.0017 36.9757 14.889 36.759C14.7763 36.5337 14.6203 36.356 14.421 36.226C14.2303 36.0873 14.0007 35.992 13.732 35.94C13.472 35.8793 13.1947 35.849 12.9 35.849Z" fill="#FD8A02"/>
<path d="M43.419 20.169C42.8903 20.1517 42.4223 20.0997 42.015 20.013C41.6077 19.935 41.2827 19.8353 41.04 19.714L41.443 18.622C41.6423 18.726 41.9023 18.8257 42.223 18.921C42.5523 19.0077 42.951 19.0597 43.419 19.077V15.827C43.133 15.7057 42.847 15.5757 42.561 15.437C42.2837 15.2897 42.0323 15.1163 41.807 14.917C41.5903 14.709 41.4127 14.4663 41.274 14.189C41.144 13.903 41.079 13.5607 41.079 13.162C41.079 12.486 41.274 11.9443 41.664 11.537C42.054 11.121 42.639 10.8653 43.419 10.77V9.6H44.446V10.744C44.9227 10.7613 45.317 10.8047 45.629 10.874C45.941 10.9433 46.2227 11.0343 46.474 11.147L46.097 12.213C45.9237 12.1263 45.7027 12.0483 45.434 11.979C45.1653 11.9097 44.836 11.862 44.446 11.836V14.813C44.7407 14.943 45.0353 15.086 45.33 15.242C45.6247 15.3893 45.889 15.567 46.123 15.775C46.357 15.983 46.5433 16.2257 46.682 16.503C46.8293 16.7803 46.903 17.114 46.903 17.504C46.903 18.2233 46.6907 18.8083 46.266 19.259C45.85 19.701 45.2433 19.9827 44.446 20.104V21.3H43.419V20.169ZM44.16 19.051C44.602 18.999 44.9573 18.8603 45.226 18.635C45.4947 18.401 45.629 18.0673 45.629 17.634C45.629 17.4433 45.59 17.2743 45.512 17.127C45.434 16.9797 45.3257 16.8497 45.187 16.737C45.057 16.6157 44.901 16.5073 44.719 16.412C44.5457 16.3167 44.3593 16.2257 44.16 16.139V19.051ZM43.705 11.836C43.2023 11.8793 42.8513 12.018 42.652 12.252C42.4527 12.4773 42.353 12.7503 42.353 13.071C42.353 13.4177 42.483 13.6993 42.743 13.916C43.003 14.124 43.3237 14.3147 43.705 14.488V11.836Z" fill="#006EB7"/>
<path d="M24.787 14.574L28.1805 11.1805L24.787 7.78702" stroke="#006EB7"/>
<path d="M45.1805 27.787C45.1805 37.1759 37.5694 44.787 28.1805 44.787" stroke="#006EB7"/>
<path d="M31.3935 41.213L28 44.6065L31.3935 48" stroke="#006EB7"/>
</svg>
