<svg width="79" height="48" viewBox="0 0 79 48" fill="none" xmlns="http://www.w3.org/2000/svg">
<circle cx="51" cy="24" r="24" fill="#D5EBFF"/>
<rect x="22.5" y="12.5" width="56" height="24" stroke="#006EB7"/>
<path d="M48.416 24.528H49.443V19.991C49.807 19.913 50.1927 19.861 50.6 19.835C51.016 19.8003 51.432 19.783 51.848 19.783C52.2987 19.783 52.7363 19.8263 53.161 19.913C53.5857 19.991 53.9627 20.134 54.292 20.342C54.6213 20.55 54.8857 20.836 55.085 21.2C55.2843 21.5553 55.384 22.0103 55.384 22.565C55.384 23.1023 55.28 23.553 55.072 23.917C54.864 24.281 54.591 24.5757 54.253 24.801C53.915 25.0263 53.5293 25.191 53.096 25.295C52.6713 25.3903 52.238 25.438 51.796 25.438H50.691V26.387H53.057V27.297H50.691V29H49.443V27.297H48.416V26.387H49.443V25.438H48.416V24.528ZM51.9 20.849C51.666 20.849 51.4363 20.8577 51.211 20.875C50.9943 20.8923 50.821 20.9097 50.691 20.927V24.528H51.731C52.0083 24.528 52.2857 24.502 52.563 24.45C52.8403 24.3893 53.0873 24.2853 53.304 24.138C53.5293 23.9907 53.7113 23.7913 53.85 23.54C53.9887 23.2887 54.058 22.9723 54.058 22.591C54.058 22.253 54.0017 21.9757 53.889 21.759C53.7763 21.5337 53.6203 21.356 53.421 21.226C53.2303 21.0873 53.0007 20.992 52.732 20.94C52.472 20.8793 52.1947 20.849 51.9 20.849Z" fill="#006EB7"/>
<circle cx="51.5" cy="24.5" r="9" stroke="#006EB7"/>
<path d="M18 17H9" stroke="#FD8A02"/>
<path d="M18 25L5 25" stroke="#FD8A02"/>
<path d="M18 32L0 32" stroke="#FD8A02"/>
</svg>
