<svg xmlns="http://www.w3.org/2000/svg" width="120" height="25" viewBox="0 0 120 25"><g><g><path fill="#8dafce" d="M24.18 4.648l-.825-.235-.991-.198-1.17-.185-1.296-.165-2.972-.235-3.34-.082-3.339.082-2.972.235-1.309.165-1.156.185-1.004.223-.812.234.485-.527.506-.49.547-.466.574-.445.582-.408.624-.387.645-.363.659-.317.686-.292.713-.256.726-.21.735-.185.762-.14L12 .081l.789-.057.793-.025.803.025.775.057.776.103.762.14.735.186.726.21.7.256.699.28.659.325.65.35.61.375.595.42.574.433.547.466.507.503zm3.038 7.264l-.354-.186-.43-.173-.52-.165-.596-.164-1.421-.293-1.677-.255-1.914-.21-2.098-.165-2.25-.095-2.376-.033-2.375.033-2.25.095-2.099.165-1.891.21-1.663.255-1.412.293-.597.165-.506.164-.444.173-.345.186.076-.808.126-.795.179-.783.242-.758.278-.746.332-.725.367-.7.422-.676.116.082.126.095.331.153.417.164.471.14 1.183.268 1.412.235 1.641.186 1.816.14 1.967.082 2.085.033 2.098-.033 1.968-.082 1.815-.14 1.64-.186 1.422-.222 1.17-.268.493-.153.408-.152.331-.165.14-.082.116-.083.421.68.381.7.332.726.278.737.242.77.18.771.125.795zm-3.572 9.052l-.507.49-.546.466-.574.433-.583.408-.623.375-.637.35-.659.325-.685.28-.7.248-.713.222-.735.173-.748.14-.776.107-.775.058-.79.025-.788-.025-.762-.058-.762-.107-.749-.14-.726-.173-.722-.222-.686-.248-.685-.28-.66-.313-.636-.35-.61-.383-.596-.408-.573-.433-.534-.457-.52-.49-.484-.516.825.235.99.21 1.157.186 1.295.152 2.937.223 3.29.082 3.303-.082 2.95-.223 1.296-.164 1.17-.186.99-.21.825-.235zm1.502-1.821l-.117-.083-.139-.082-.332-.165-.421-.152-.484-.14-1.184-.268-1.42-.235-1.628-.185-1.815-.14-1.946-.083-2.07-.037-2.072.037-1.954.083-1.802.14-1.627.185-1.412.235-1.184.268-.48.144-.407.152-.341.165-.139.083-.116.082-.43-.676-.382-.688-.332-.725-.29-.742-.243-.758-.18-.77-.125-.795L0 13.185l.354.185.444.165.52.173.596.165 1.421.293 1.663.255 1.892.198 2.084.165 2.237.094 2.362.037 2.35-.037 2.236-.094 2.085-.165 1.891-.21 1.677-.256 1.425-.292.596-.165.534-.165.444-.173.367-.185-.076.807-.125.795-.189.77-.228.76-.292.737-.331.725-.381.7z"/></g><g><path fill="#8dafce" d="M114.006 13.443h.228l2.923-3.119h2.501l-3.644 3.865 3.99 4.124h-2.681l-3.089-3.374h-.228v3.374h-2.466v-7.989h2.466zm-11.18-.165h4.675v-2.954h2.466v7.99H107.5v-3.375h-4.675v3.374h-2.452v-7.989h2.452zM68.95 8.643h-5.057v5.608l-.013.185-.036.313-.063.28-.103.256-.125.235-.153.235-.193.255-.215.293h5.958zm3.77 7.66v2.01H58.744v-2.01h1.295l.332-.305.278-.293.228-.268.193-.292.126-.313.09-.363.04-.198.027-.222.013-.235V6.632h10.23v9.67zm-23.019-3.095v3.099h4.232l.215-.013.202-.024.161-.025.153-.037.125-.033.112-.058.09-.057.139-.153.09-.185.049-.247.013-.28v-.854l-.013-.267-.036-.235-.063-.198-.125-.152-.09-.07-.103-.058-.126-.046-.139-.032-.165-.038-.189-.024-.215-.013zM47.071 6.62h9.754v1.904h-7.127v2.64h4.245l.47.013.444.025.422.037.38.07.355.082.331.103.292.14.269.165.242.186.202.234.165.256.153.292.116.338.077.375.049.42.013.458v.853l-.027.445-.035.408-.09.362-.103.318-.139.292-.18.247-.192.223-.229.185-.264.165-.278.128-.332.103-.34.095-.382.057-.407.037-.444.025-.47.012h-6.94zm32.746 6.588v3.099h4.218l.215-.013.202-.024.17-.025.152-.037.126-.033.116-.058.09-.057.139-.153.09-.185.049-.247.013-.28v-.854l-.013-.267-.027-.235-.076-.198-.126-.152-.09-.07-.102-.058-.117-.046-.139-.032-.166-.038-.193-.024-.215-.013zM77.172 6.62h9.763v1.904h-7.114v2.64h4.232l.47.013.444.025.422.037.38.07.355.082.331.103.292.14.269.165.242.186.202.234.179.256.139.292.116.338.077.375.049.42.013.458v.853l-.027.445-.035.408-.09.362-.103.318-.14.292-.178.247-.193.223-.229.185-.269.165-.278.128-.331.103-.346.095-.38.057-.409.037-.443.025-.471.012h-6.94zm-40.89 4.66h6.253V6.632h2.63v11.681h-2.63v-5.01H36.28v5.01H33.65V6.633h2.631z"/></g><g><path fill="#8dafce" d="M95.4 10.54c.147 0 .296 0 .443.008.336.021.471.048.79.128.114.029.228.056.34.095.216.074.38.16.574.28.083.051.165.104.242.165.113.09.302.279.394.395.087.11.216.317.278.445.04.08.07.164.103.247.032.082.066.163.09.248.044.16.063.36.076.523.007.085.013.17.014.255.004 1.734.742 3.634 0 5.2-.353.743-1.686.258-2.466 0-.258-.085.07-.553 0-.816-.022-.083-.109.134-.166.198-.05.056-.1.112-.152.165a1.515 1.515 0 0 1-.318.255c-.064.035-.134.059-.202.083-.21.074-.27.086-.498.103-.11.008-.22.012-.331.012-.928.004-1.856.004-2.784 0-.097 0-.194-.008-.292-.012-.092-.004-.185-.005-.277-.012a4.967 4.967 0 0 1-.525-.079c-.077-.018-.153-.046-.229-.07-.071-.023-.145-.042-.215-.07a2.174 2.174 0 0 1-.38-.202 2.096 2.096 0 0 1-.306-.255 1.511 1.511 0 0 1-.228-.317 1.391 1.391 0 0 1-.126-.384 2.005 2.005 0 0 1-.049-.432 50.768 50.768 0 0 1 0-1.063c.001-.134.018-.288.04-.42.012-.067.02-.134.04-.198.02-.062.05-.12.077-.178.028-.058.055-.117.09-.173.054-.087.176-.236.25-.304.103-.095.244-.183.368-.244.074-.036.152-.064.229-.094.166-.066.373-.142.547-.182.246-.057.446-.071.699-.09a12 12 0 0 1 .838-.037c.813-.004 1.626-.004 2.439 0 .212 0 .316.011.52.05.067.012.136.023.201.044.067.022.13.052.193.083.057.028.115.057.166.095.074.053.208.197.265.267.041.053.11.232.116.165.043-.503.008-1.01 0-1.516a1.324 1.324 0 0 0-.027-.243.69.69 0 0 0-.166-.35.644.644 0 0 0-.152-.116c-.152-.085-.285-.105-.457-.127a6.605 6.605 0 0 0-.646-.038c-.674-.003-1.348-.003-2.021 0-.166.001-.38.014-.547.038-.068.009-.137.016-.202.037-.05.015-.095.043-.139.07a.699.699 0 0 0-.206.177.65.65 0 0 0-.063.128c-.02.05-.02.107-.05.152-.008.014-.032 0-.049 0h-2.277c-.009 0-.026.009-.027 0-.005-.092.026-.34.04-.433.031-.199.031-.207.113-.395.071-.165.096-.21.206-.35.088-.114.19-.23.305-.318.063-.048.133-.087.201-.127a2.513 2.513 0 0 1 .776-.305c.11-.027.22-.052.332-.07a9.34 9.34 0 0 1 .775-.079c.148-.007.296-.011.444-.012.986-.004 1.972-.002 2.958 0zm.887 5.678v-.23l-.027-.186-.05-.165-.102-.14-.126-.107-.166-.083-.228-.045-.27-.033-.317-.012h-2.148l-.304.012-.27.025-.201.057-.166.07-.139.107-.09.128-.049.165-.027.198v.23l.014.21.049.165.076.153.126.107.165.082.216.058.278.033.318.012h2.147l.332-.012.278-.033.215-.045.18-.083.125-.115.09-.14.049-.173.013-.21z"/></g></g></svg>