<svg width="251" height="31" viewBox="0 0 251 31" fill="none" xmlns="http://www.w3.org/2000/svg">
<path d="M3 15.5C29.1333 -0.5 37.3 -0.5 27.5 15.5C17.7 31.5 25.8667 31.5 52 15.5C78.1333 -0.5 86.3 -0.5 76.5 15.5C66.7 31.5 74.8667 31.5 101 15.5C127.133 -0.5 135.3 -0.5 125.5 15.5C115.7 31.5 123.867 31.5 150 15.5C176.133 -0.5 184.3 -0.5 174.5 15.5C164.7 31.5 172.867 31.5 199 15.5C225.133 -0.5 233.3 -0.5 223.5 15.5C213.7 31.5 221.867 31.5 248 15.5" stroke="#008452" stroke-width="6" stroke-linecap="round"/>
</svg>
