<svg id="Слой_1" data-name="Слой 1" xmlns="http://www.w3.org/2000/svg" xmlns:xlink="http://www.w3.org/1999/xlink" viewBox="0 0 273.42 62.09"><defs><style>.cls-1{fill:none;}.cls-2{clip-path:url(#clip-path);}.cls-3{fill:url(#Безымянный_градиент);}.cls-4{fill:#0056a4;fill-rule:evenodd;}</style><clipPath id="clip-path" transform="translate(-158.85 -510.66)"><path class="cls-1" d="M189.86,564c-10.42,0-19.47-1.12-23.93-2.69a30.81,30.81,0,0,0,47.88,0c-4.41,1.6-13.55,2.72-23.95,2.72m0-16.43c-14.68,0-27.11-1.83-30.94-4.28a30.47,30.47,0,0,0,4.68,14.73c2.6-2.19,13.45-3.83,26.3-3.83s23.71,1.64,26.29,3.83a31.26,31.26,0,0,0,4.64-14.76c-3.88,2.48-16.37,4.31-31,4.31m-31-7.44c3.74-2.43,16.22-4.3,31-4.3s27.35,1.87,31.05,4.3a31.5,31.5,0,0,0-4.65-14.78c-2.53,2.22-13.42,3.84-26.4,3.84s-23.85-1.62-26.34-3.87a32.16,32.16,0,0,0-4.63,14.81m31-29.51a31,31,0,0,0-24.13,11.59c4.37-1.66,13.58-2.77,24.13-2.77s19.73,1.15,24.13,2.74A31.07,31.07,0,0,0,189.82,510.66Z"/></clipPath><radialGradient id="Безымянный_градиент" cx="1.95" cy="841.89" r="1" gradientTransform="matrix(0, 50.72, 50.72, 0, -42667.45, -87.14)" gradientUnits="userSpaceOnUse"><stop offset="0" stop-color="#fac39d"/><stop offset="0.04" stop-color="#f8b688"/><stop offset="0.15" stop-color="#f49a5a"/><stop offset="0.24" stop-color="#f08436"/><stop offset="0.34" stop-color="#ee741c"/><stop offset="0.42" stop-color="#ed6a0c"/><stop offset="0.48" stop-color="#ec6707"/><stop offset="0.73" stop-color="#ec6508"/><stop offset="0.85" stop-color="#eb5d09"/><stop offset="0.93" stop-color="#e9510d"/><stop offset="1" stop-color="#e74011"/></radialGradient></defs><title>ЛОГО</title><g class="cls-2"><rect class="cls-3" width="62.01" height="62.09"/></g><path class="cls-4" d="M418.62,536.79H413v19.77h5.61v-8.37h.51l7,8.37h6.12l-9.09-10.21,8.33-9.56h-5.71l-6.68,7.69h-.51Zm-25.47,0h-5.61v19.77h5.61v-8.37H403.8v8.37h5.6V536.79h-5.6v7.29H393.15ZM316,551.57H302.42c1.44-2.05,2-2.81,2-5.56V532.62H316Zm8.59,0H322v-24H298.69v17.17c0,3.56-.8,4.66-3,6.78h-3v5h31.85Zm-52.45-7.67h9.29c3.1,0,3.43.9,3.43,2.81v2.13c0,2.06-.52,2.73-3.65,2.73h-9.07Zm-6-16.28v28.94h15.8c5.9,0,8.86-1.48,8.91-7.66v-2.11c0-6.4-3.14-7.87-9.06-7.87h-9.65v-6.57h16.23v-4.73Zm74.56,16.28H350c3.1,0,3.43.9,3.43,2.81,0,.07,0,2.06,0,2.13,0,2.06-.51,2.73-3.64,2.73h-9.08Zm-6-16.28v28.94h15.79c5.91,0,8.87-1.48,8.92-7.66v-2.11c0-6.4-3.13-7.87-9.07-7.87h-9.65v-6.57h16.23v-4.73Zm-93.17,0h-6v28.94h6V544.15h14.24v12.41h6V527.62h-6v11.55H241.53Z" transform="translate(-158.85 -510.66)"/><path class="cls-4" d="M376.26,536.79h-6.77c-5.64,0-7.23,2.24-7.23,5.17h5.32c.3-1,.69-1.45,2.74-1.45H375c2.28,0,3.28.34,3.28,2.15v3.77a3.28,3.28,0,0,0-3.32-1.73h-5.57c-5.59,0-7.21,1.76-7.21,4.72V552c0,3.11,2.34,4.55,6,4.55h6.33c2.17,0,2.79-.68,3.79-2v2h5.61V543.71c0-3.47-1.95-6.92-7.58-6.92m2,14.06c0,1.49-.72,2-2.92,2h-4.88c-2.17,0-2.85-.54-2.85-2v-.57c.05-1.43.82-1.88,2.85-1.88h4.88c2.12,0,2.88.56,2.92,1.9Z" transform="translate(-158.85 -510.66)"/></svg>